<svg width="40" height="22" viewBox="0 0 40 22" fill="none" xmlns="http://www.w3.org/2000/svg">
<path fill-rule="evenodd" clip-rule="evenodd" d="M19.9999 21.7746C28.2294 21.7746 35.3702 16.5072 38.9254 13.3338C40.3578 12.0552 40.3578 9.91862 38.9254 8.64002C35.3702 5.46664 28.2294 0.199219 19.9999 0.199219C11.7703 0.199219 4.62958 5.46664 1.07433 8.64004C-0.35811 9.91862 -0.358108 12.0552 1.07433 13.3338C4.62958 16.5072 11.7703 21.7746 19.9999 21.7746ZM19.9999 18.5132C24.1566 18.5132 27.5262 15.1436 27.5262 10.9869C27.5262 6.83024 24.1566 3.4606 19.9999 3.4606C15.8432 3.4606 12.4736 6.83024 12.4736 10.9869C12.4736 15.1436 15.8432 18.5132 19.9999 18.5132Z" fill="url(#paint0_linear_302_3490)"/>
<defs>
<linearGradient id="paint0_linear_302_3490" x1="31.4998" y1="3.65128" x2="21.3654" y2="22.7712" gradientUnits="userSpaceOnUse">
<stop offset="0.0509862" stop-color="#FFB6E1"/>
<stop offset="1" stop-color="#FBE3EA"/>
</linearGradient>
</defs>
</svg>
