<svg width="406" height="374" viewBox="0 0 406 374" fill="none" xmlns="http://www.w3.org/2000/svg">
<path d="M157.133 141.798C153.389 138.214 150.454 134.086 148.33 129.414C147.273 127.089 146.213 124.159 145.15 120.625C144.057 116.994 143.244 113.286 142.717 109.531C142.477 107.811 142.233 106.09 141.983 104.37C141.728 102.655 141.548 100.93 141.445 99.1993C141.08 92.7255 141.057 86.2369 141.375 79.7606C141.431 78.6012 141.567 77.1707 141.782 75.469C141.92 74.4031 142.095 72.9725 142.311 71.1773C142.79 67.1821 143.608 63.0073 144.762 58.653C145.204 56.9925 145.825 54.4913 146.623 51.1496C147.269 48.4727 148.024 46.0025 148.887 43.7398C153.025 32.9377 159.243 23.023 167.541 13.9974C168.993 12.4145 169.977 11.4093 170.492 10.982C175.444 6.86243 181.002 4.05369 187.167 2.55769C189.073 2.09673 191.365 1.63204 194.043 1.16454C196.347 0.76249 198.671 0.50069 201.012 0.37914C208.3 -0.00982033 216.212 0.252915 224.75 1.16921C226.471 1.35341 227.563 1.51049 228.024 1.64139C232.381 2.86162 236.597 4.53833 240.602 6.64364C243.362 8.09898 245.98 9.80806 248.422 11.7487C253.86 16.0722 258.512 21.1642 262.375 27.0266C262.918 27.8522 263.465 28.9668 264.017 30.3693C264.466 31.521 264.939 32.6635 265.434 33.796C267.527 38.5016 269.015 43.4527 269.864 48.5316C271.311 57.1364 271.864 65.543 271.524 73.7486C271.349 77.9467 271.002 83.2762 270.481 89.7371C270.478 89.7558 270.422 90.7862 270.313 92.8273C270.25 94.0033 270.114 95.1744 269.906 96.3335C269.694 97.4905 269.486 98.6483 269.284 99.807C268.355 105.823 266.772 111.95 264.536 118.189C263.458 121.209 262.179 124.009 260.701 126.585C259.31 129.023 257.618 131.578 255.626 134.252C251.451 139.862 246.36 144.56 240.354 148.343C236.97 150.475 233.864 152.288 231.036 153.78C229.493 154.593 227.732 155.312 225.756 155.935C218.197 158.319 210.458 159.193 202.537 158.553C191.987 157.717 181.659 155.078 172.003 150.751C168.998 149.411 166.034 147.982 163.116 146.464C161.984 145.878 160.918 145.175 159.935 144.364C159.352 143.885 158.418 143.029 157.133 141.798ZM163.948 20.6125C160.364 25.1085 157.213 29.9327 154.537 35.0209C151.547 40.7029 149.469 46.1025 148.302 51.2198C147.857 53.2028 147.381 55.179 146.876 57.1477C146.065 60.2556 145.573 62.2219 145.402 63.0475C142.949 74.9094 142.19 87.059 143.148 99.1338C143.428 102.721 143.758 105.821 144.135 108.432C145.136 115.365 146.983 121.996 149.677 128.329C152.372 134.659 156.521 139.85 162.124 143.902C162.779 144.376 163.666 144.883 164.786 145.426C165.559 145.8 166.477 146.266 167.541 146.824C179.253 152.97 191.814 156.381 205.222 157.057C212.344 157.416 219.203 156.445 225.798 154.145C228.177 153.316 230.889 152.047 233.932 150.339C236.925 148.656 239.487 147.095 241.617 145.655C246.547 142.323 250.914 138.039 254.718 132.803C257.99 128.296 260.347 124.341 261.791 120.938C264.239 115.16 266.136 108.441 267.483 100.779C267.486 100.758 267.717 99.5724 268.175 97.2218C268.487 95.6136 268.688 93.9932 268.779 92.3598C268.903 90.1691 268.966 89.0611 268.966 89.0358C269.156 86.5487 269.304 84.0598 269.41 81.5699C269.447 80.6349 269.607 78.1515 269.887 74.1179C270.102 70.9894 270.121 67.86 269.943 64.7305C269.809 62.3556 269.557 59.2495 269.186 55.4132C268.693 50.2866 267.865 45.7715 266.702 41.8698C265.876 39.1059 264.344 35.2238 262.109 30.2243C261.55 28.9742 261.005 27.9308 260.471 27.0921C259.838 26.0942 259.151 25.1313 258.413 24.2076C256.029 21.2143 253.426 18.4016 250.626 15.7926C248.209 13.5393 245.754 11.6272 243.263 10.0564C238.794 7.23455 233.942 5.06822 228.857 3.62359C227.073 3.11588 224.987 2.7718 222.598 2.59041C218.223 2.26036 214.575 2.02006 211.653 1.87046C205.667 1.56385 199.666 1.9166 193.757 2.92234C190.016 3.55533 186.977 4.24256 184.641 4.98401C179.125 6.73901 174.288 9.61226 170.132 13.6047C168.439 15.2316 166.378 17.5672 163.948 20.6125ZM264.129 7.79369C264.139 7.72744 264.165 7.66467 264.205 7.61088C264.245 7.55708 264.298 7.51391 264.358 7.48514C269.254 5.18504 274.431 4.26874 279.887 4.73624C280.168 4.75774 280.365 4.81852 280.477 4.91857C280.645 5.06536 280.664 5.25423 280.533 5.48424C280.458 5.61794 280.327 5.72547 280.14 5.80681C279.214 6.19951 278.248 6.38558 277.245 6.36314L275.856 6.33041C272.219 6.45905 268.637 7.2496 265.285 8.66324C264.377 9.04379 263.992 8.75393 264.129 7.79369ZM291.539 9.76654C291.648 9.79833 291.868 9.73101 292.198 9.56551C293.212 9.06061 293.96 9.26164 294.444 10.1686C294.596 10.4584 294.853 11.4346 295.215 13.0951C295.25 13.2438 295.235 13.3997 295.173 13.5393C294.79 14.3808 294.118 14.8501 293.157 14.9464C293.076 14.9524 292.997 14.9723 292.922 15.0053C292.859 15.0326 292.803 15.075 292.76 15.1288C292.504 15.4411 292.607 15.7262 293.068 15.9843C293.686 16.3274 294.114 16.7697 294.355 17.312C294.384 17.3796 294.398 17.4531 294.395 17.5269C294.392 17.6006 294.372 17.6727 294.336 17.7374C293.856 18.6177 293.235 19.4136 292.498 20.0936C291.862 20.6799 291.469 21.0211 291.319 21.1174C290.727 21.498 290.142 21.4204 289.565 20.8837C289.151 20.4975 288.913 20.5864 288.854 21.1502C288.786 21.814 288.514 22.2133 288.04 22.347C286.721 22.7275 285.386 23.0314 284.036 23.2586C282.82 23.4643 282.313 23.1529 282.516 22.3236L282.83 21.0333C282.849 20.9553 282.853 20.8741 282.839 20.7949C282.827 20.7228 282.796 20.6551 282.75 20.5985C282.616 20.4274 282.444 20.4433 282.236 20.6453C281.471 21.3877 280.676 21.5803 279.85 21.225C279.189 20.9389 278.568 20.5798 277.988 20.1497C277.106 19.4896 276.992 18.8258 277.647 18.1582C278.153 17.6421 278.703 17.1698 279.289 16.7463C279.663 16.4752 279.686 16.2601 279.359 16.1012C279.249 16.0451 279.089 16.0189 278.877 16.0217C277.708 16.0282 277.106 15.514 277.072 14.4789C277.05 13.8282 277.069 13.2915 277.128 12.8707C277.212 12.2536 277.535 11.7805 278.096 11.4495C278.158 11.4136 278.227 11.3922 278.299 11.3869C278.377 11.3806 278.456 11.3892 278.531 11.4121C279.495 11.6926 279.791 11.2579 279.42 10.1078C279.211 9.45986 279.357 8.91288 279.859 8.46689L282.165 6.40521C282.733 5.90031 283.266 5.90967 283.765 6.43326L284.817 7.54124C284.868 7.59547 284.931 7.63474 284.997 7.65624C285.061 7.67759 285.131 7.67986 285.196 7.66279C285.779 7.49823 286.162 7.15508 286.342 6.63429C286.555 6.02654 286.976 5.78998 287.605 5.92369C288.787 6.17614 289.832 6.6053 290.739 7.20931C291.298 7.58051 291.422 8.14432 291.113 8.90167C291.06 9.02837 291.05 9.16879 291.083 9.30194C291.117 9.43508 291.193 9.55379 291.299 9.64032C291.37 9.6986 291.451 9.7416 291.539 9.76654ZM287.306 8.11627C286.57 9.24481 285.564 9.63097 284.289 9.27567C284.142 9.2276 284.012 9.13834 283.915 9.01854C282.907 7.83483 282.126 7.97975 281.571 9.45331C281.52 9.5956 281.522 9.7516 281.576 9.89277C282.252 11.8133 281.629 12.9081 279.705 13.1793C279.627 13.1895 279.552 13.2159 279.484 13.2569C279.425 13.2919 279.377 13.3428 279.345 13.4037C279.176 13.7403 279.347 14.0161 279.855 14.2312C281.436 14.8922 281.805 15.8852 280.963 17.2091C280.954 17.2222 280.72 17.4981 280.262 18.0366C279.669 18.7379 279.875 19.1811 280.879 19.3643C281.029 19.3888 281.183 19.3554 281.309 19.2708C282.251 18.679 283.193 18.7276 284.135 19.4157C284.656 19.7935 284.925 20.304 284.944 20.9491C284.947 21.0211 284.969 21.0894 285.009 21.1436C285.049 21.1988 285.103 21.2371 285.164 21.253C286.249 21.5653 286.972 21.1773 287.334 20.0889C287.677 19.0483 288.419 18.7323 289.56 19.1399C290.863 19.6046 291.695 19.1446 292.053 17.7608C292.07 17.6905 292.069 17.617 292.049 17.5475C292.03 17.4779 291.992 17.4145 291.941 17.3634L290.987 16.4097C290.934 16.3578 290.893 16.2945 290.867 16.2246C290.842 16.1584 290.834 16.0872 290.842 16.017C290.989 14.7987 291.527 13.9011 292.456 13.3242C293.662 12.5762 293.656 11.9077 292.437 11.3186C292.298 11.2566 292.143 11.2386 291.993 11.2672C290.639 11.4982 289.749 11.0194 289.322 9.83199C289.273 9.50547 289.229 9.17817 289.191 8.85024C289.141 8.45473 288.94 8.12935 288.587 7.87317C288.076 7.50851 287.649 7.58986 287.306 8.11627ZM276.931 8.68661C276.912 8.78466 276.867 8.87592 276.801 8.95136C276.736 9.02679 276.652 9.08379 276.557 9.11671C275.6 9.46921 274.621 9.79926 273.62 10.1078C272.363 10.4977 271.395 10.8493 270.715 11.1644C266.915 12.9033 263.515 15.4085 260.729 18.5228C260.451 18.8286 260.182 19.0268 259.92 19.1165C259.271 19.3409 259.04 19.0483 259.227 18.2376C259.293 17.9478 259.444 17.6673 259.681 17.3961C264.006 12.4004 269.435 9.20928 275.968 7.82174C276.763 7.65344 277.084 7.94235 276.931 8.68661ZM256.935 13.8198C256.489 14.2873 256.11 14.6557 255.799 14.9231C255.518 15.1634 255.23 15.2737 254.933 15.255C254.422 15.2213 254.283 14.9137 254.517 14.334C254.614 14.0975 254.774 13.8525 254.999 13.6C255.766 12.7249 256.938 11.688 258.516 10.4912C259.455 9.77776 260.284 9.33551 261.005 9.16347C261.154 9.12679 261.312 9.14504 261.449 9.21489C262.036 9.53279 261.975 9.92923 261.267 10.4023C259.305 11.7179 257.861 12.8567 256.935 13.8198Z" fill="#1E2E34"/>
<path d="M290.109 12.7546C290.321 13.2193 290.43 13.7251 290.432 14.2422C290.433 14.7669 290.327 15.2863 290.121 15.769C289.909 16.2664 289.604 16.7189 289.223 17.1023C288.834 17.4939 288.377 17.8111 287.875 18.0383C287.372 18.2666 286.833 18.4013 286.282 18.4356C285.743 18.4699 285.201 18.401 284.687 18.2327C284.188 18.0697 283.728 17.8073 283.333 17.4614C282.947 17.1224 282.638 16.7053 282.426 16.2379C282.214 15.7704 282.104 15.2632 282.103 14.7499C282.102 14.2255 282.208 13.7065 282.413 13.224C282.621 12.7331 282.926 12.2796 283.311 11.8906C284.095 11.1006 285.142 10.626 286.252 10.5573C286.792 10.5232 287.333 10.592 287.847 10.7602C288.354 10.9267 288.814 11.1894 289.202 11.5316C289.59 11.8738 289.898 12.289 290.109 12.7546ZM288.707 13.5353C288.484 12.9799 288.014 12.5498 287.401 12.3394C286.787 12.13 286.082 12.1571 285.439 12.4152C284.795 12.6742 284.267 13.1426 283.97 13.7186C283.673 14.2936 283.632 14.9294 283.856 15.4857C284.078 16.0411 284.549 16.4712 285.162 16.6816C285.774 16.891 286.481 16.8639 287.124 16.6058C287.767 16.3469 288.295 15.8784 288.593 15.3025C288.89 14.7265 288.931 14.0916 288.707 13.5353ZM208.964 12.0187C209.462 12.159 209.969 12.1983 210.484 12.1356C215.994 12.4283 221.841 13.6036 228.024 15.6606C233.708 17.5351 238.91 20.6344 243.263 24.7394C246.094 27.3775 248.5 30.4367 250.396 33.8089C251.743 36.2053 252.915 39.0842 253.914 42.4436C255.916 49.2037 256.839 56.1489 256.683 63.2801C256.683 63.3082 256.666 63.5821 256.631 64.1029C256.538 65.4278 256.99 66.5685 257.988 67.525C258.661 68.1702 259.241 68.9677 259.728 69.9186C259.762 69.9835 259.783 70.0549 259.788 70.1283C259.792 70.2017 259.782 70.2752 259.756 70.344C259.363 71.3884 258.652 72.2496 257.623 72.9293C257.448 73.0424 257.315 73.2091 257.244 73.4043C257.176 73.5892 257.177 73.7927 257.249 73.9765L258.343 76.7675C258.401 76.9171 258.502 77.048 258.637 77.148C258.771 77.2481 258.933 77.3117 259.106 77.3332C260.16 77.4669 261.18 77.6744 262.169 77.9549C263.018 78.1952 263.453 78.8572 263.474 79.9418C263.512 82.1512 263.535 84.3616 263.544 86.571C263.546 86.7225 263.491 86.8693 263.39 86.9824C262.855 87.5821 262.222 88.0878 261.519 88.4784C260.427 89.0861 259.779 89.5162 259.573 89.7687C258.931 90.5606 258.68 91.5377 258.82 92.6999C258.951 93.7779 259.166 94.712 259.466 95.5002C259.74 96.2174 259.606 96.8064 259.063 97.2674L254.054 101.54C253.937 101.635 253.858 101.767 253.829 101.914C252.513 109.762 250.469 116.784 247.697 122.98C246.84 124.897 245.627 127.066 244.058 129.487C242.527 131.85 241.001 133.796 239.479 135.327C234.786 140.045 229.106 143.215 222.439 144.835C218.028 145.909 213.504 146.449 208.964 146.444C198.929 146.437 189.496 144.646 180.665 141.067C178.647 140.251 176.222 138.975 173.387 137.239C170.584 135.525 167.991 133.169 165.609 130.17C163.878 127.989 162.437 126.092 161.287 124.481C159.811 122.417 158.655 120.348 157.816 118.272C156.12 114.081 155.083 109.523 154.706 104.602C154.425 100.956 154.207 98.02 154.051 95.7947C153.845 92.8633 153.815 89.9221 153.962 86.987C154.233 81.4397 154.559 77.5716 154.939 75.3837C155.8 70.4403 156.635 65.4942 157.447 60.5452C157.858 58.0329 158.319 55.8721 158.831 54.061C159.433 51.9292 160.101 49.8189 160.838 47.7311C161.546 45.7143 162.495 43.4908 163.686 41.0598C164.75 38.8821 165.84 36.7174 166.956 34.5663C167.707 33.1198 168.661 31.6191 169.818 30.0642C170.903 28.6056 172.394 26.8506 174.29 24.8002C176.13 22.8058 177.824 21.2593 179.374 20.1626C182.973 17.6166 187.076 15.7354 191.685 14.5199C197.747 12.9276 203.507 12.0935 208.964 12.0187ZM224.39 55.529C224.275 55.3448 224.289 54.982 224.432 54.4397C224.694 53.4645 225.043 52.3621 225.48 51.1345C225.548 50.9421 225.678 50.7778 225.85 50.667C226.022 50.5548 226.229 50.4987 226.438 50.508L227.641 50.5688C227.719 50.5734 227.798 50.5633 227.874 50.5389C227.943 50.5161 228.008 50.4785 228.062 50.4285C228.38 50.1293 228.471 49.7535 228.338 49.3019C228.292 49.1595 228.287 49.0073 228.324 48.8624C228.457 48.3267 228.48 47.7872 228.389 47.2449C228.377 47.1833 228.347 47.1264 228.305 47.0803C228.253 47.0209 228.191 46.9706 228.122 46.9316L225.774 45.5852C225.713 45.548 225.662 45.4947 225.628 45.431C225.591 45.3601 225.569 45.282 225.564 45.2019L225.311 41.1253C225.305 41.0243 225.318 40.9229 225.351 40.8272C225.384 40.7315 225.436 40.6434 225.504 40.568C225.643 40.4122 225.837 40.3156 226.046 40.2978C227.231 40.1922 227.54 39.5517 226.976 38.3764C226.614 37.6218 226.359 36.9524 226.209 36.3661C226.187 36.2776 226.146 36.1948 226.09 36.1229C226.034 36.051 225.963 35.9916 225.882 35.9485C225.802 35.9054 225.713 35.8795 225.622 35.8725C225.531 35.8656 225.439 35.8776 225.353 35.908C224.106 36.3446 223.228 36.0838 222.72 35.1273C222.396 34.5144 222.054 33.9111 221.696 33.318C221.683 33.2965 221.518 33.0721 221.2 32.6448C220.629 31.8753 220.774 31.0479 221.635 30.1624C221.714 30.0811 221.779 29.9866 221.826 29.8857C221.871 29.7866 221.898 29.6802 221.905 29.5715C221.911 29.4683 221.896 29.3649 221.861 29.2676C221.827 29.1746 221.772 29.0906 221.7 29.0217L219.74 27.147C219.263 26.6917 218.782 26.7469 218.295 27.3107C217.322 28.442 216.253 28.557 215.086 27.6566C213.842 26.6936 213.136 26.0746 212.968 25.8006C212.609 25.2022 212.584 24.616 212.893 24.0428C213.204 23.4697 213.049 23.0237 212.425 22.7058L210.778 21.8549C210.648 21.788 210.496 21.7739 210.355 21.8157C210.288 21.8366 210.227 21.8717 210.176 21.9185C210.126 21.9642 210.087 22.0209 210.063 22.084C209.766 22.8479 209.312 23.3257 208.697 23.5192C208.304 23.6436 207.712 23.5866 206.92 23.3463C205.735 22.9849 204.551 22.6186 203.369 22.2476C203.295 22.2256 203.228 22.1862 203.172 22.1326C203.122 22.0859 203.088 22.0248 203.075 21.9578L202.747 20.1345C202.734 20.0595 202.705 19.988 202.663 19.9242C202.63 19.8714 202.581 19.8305 202.523 19.8073C201.912 19.5988 201.034 19.5922 199.889 19.7886C199.767 19.8086 199.654 19.8677 199.568 19.9571C199.482 20.0464 199.428 20.1611 199.412 20.2841C199.253 21.4931 198.662 22.1523 197.64 22.2617C196.262 22.4085 194.899 22.6357 193.552 22.9442C193.487 22.9582 193.421 22.9527 193.36 22.9283C193.294 22.902 193.236 22.8592 193.191 22.804L191.587 20.8545C191.546 20.8066 191.488 20.7753 191.425 20.7666C191.355 20.7562 191.283 20.7656 191.218 20.7937L189.047 21.6866C188.946 21.7282 188.854 21.7888 188.776 21.8652C188.699 21.9396 188.639 22.0287 188.597 22.127C188.557 22.2216 188.539 22.3237 188.542 22.4262C188.547 22.5258 188.574 22.623 188.622 22.7105C189.158 23.695 189.026 24.4851 188.224 25.0807C186.984 26.0009 185.661 26.8038 184.272 27.479C184.133 27.5502 183.974 27.57 183.823 27.5351C183.222 27.3982 182.696 27.0391 182.349 26.5299C182.263 26.4085 182.138 26.3202 181.995 26.2799C181.852 26.2395 181.699 26.2496 181.562 26.3083C181.472 26.3476 181.392 26.4075 181.329 26.4832C180.928 26.974 180.482 27.4263 179.996 27.8343C179.304 28.4074 179.25 29.0423 179.833 29.737C180.226 30.2017 180.286 30.7047 180.015 31.247C179.747 31.7921 179.409 32.3597 179 32.9487C178.511 33.6565 178.038 34.0988 177.583 34.2764C176.935 34.5317 176.243 34.4541 175.511 34.0427C175.453 34.0092 175.386 33.9951 175.319 34.0025C175.255 34.0096 175.196 34.0387 175.151 34.0847C174.28 34.9578 173.668 36.0549 173.383 37.2544C173.363 37.3281 173.364 37.4058 173.386 37.4788C173.406 37.5452 173.447 37.603 173.504 37.6424L174.898 38.5914C175.08 38.7149 175.225 38.8776 175.315 39.0589C175.403 39.2288 175.433 39.422 175.403 39.6106C175.216 40.7045 174.905 41.7545 174.468 42.7615C174.271 43.2169 174.035 43.5582 173.761 43.7854C173.39 44.0967 172.99 44.2622 172.559 44.2809C171.961 44.3062 171.661 44.6194 171.661 45.2206V47.7498C171.661 48.336 171.954 48.624 172.541 48.6146C173.507 48.6025 174.227 49.0709 174.702 50.0218C174.848 50.3145 174.895 51.0176 174.842 52.1302C174.842 52.1517 174.856 52.4603 174.884 53.0559C174.903 53.5262 174.779 53.9469 174.514 54.3181C174.368 54.5266 174.079 54.7417 173.649 54.9633C173.322 55.1316 173.006 55.3205 172.704 55.529C172.645 55.5678 172.598 55.6239 172.571 55.6898C172.546 55.7546 172.541 55.8261 172.559 55.8936L173.401 58.8763C173.425 58.9592 173.478 59.0307 173.551 59.0773C173.624 59.1243 173.712 59.1442 173.799 59.1334C174.316 59.0773 174.84 58.9866 175.37 58.8622C176.839 58.5163 177.798 58.9342 178.247 60.1151C178.4 60.5144 178.596 60.8893 178.836 61.2418C179.606 62.3704 179.484 63.512 178.467 64.6686C178.193 64.9771 177.969 65.3184 177.798 65.6924C177.723 65.8542 177.823 66.0505 178.097 66.2815C178.328 66.475 178.487 66.6162 178.574 66.7069C179.091 67.2518 179.644 67.761 180.23 68.2309C180.357 68.332 180.513 68.3904 180.675 68.3978C180.837 68.4052 180.997 68.3612 181.133 68.2721C181.223 68.2126 181.299 68.1348 181.358 68.0439C181.757 67.4175 182.338 66.9752 183.102 66.7162C183.171 66.6923 183.245 66.6837 183.317 66.691C183.393 66.6987 183.466 66.7216 183.533 66.7583C184.636 67.3532 185.707 68.0055 186.741 68.7125C187.686 69.3576 187.892 70.2664 187.359 71.438C186.963 72.3141 187.201 72.8966 188.074 73.1864C188.217 73.236 188.348 73.3099 188.467 73.4062C189.044 73.8802 189.641 73.9466 190.259 73.6072C190.391 73.5283 190.495 73.4108 190.558 73.2706C191.014 72.3515 191.697 71.9083 192.611 71.9429C192.836 71.9522 193.505 72.085 194.618 72.3403C195.338 72.5086 195.993 72.7115 196.583 72.948C197.147 73.179 197.415 73.5978 197.387 74.2056C197.343 75.1406 197.68 75.6343 198.397 75.6876C198.61 75.7035 199.106 75.7109 199.885 75.7109C200.733 75.7109 201.15 75.2388 201.134 74.2944C201.118 73.3342 201.6 72.8031 202.579 72.7002L206.106 72.3356C206.648 72.2795 207.062 72.5291 207.345 73.0836L208.047 74.4534C208.077 74.5113 208.128 74.5562 208.192 74.5777C208.257 74.6002 208.328 74.5992 208.393 74.5749L211.237 73.523C211.38 73.4702 211.498 73.3671 211.57 73.2332C211.642 73.1002 211.662 72.9451 211.625 72.7984L211.246 71.279C211.09 70.646 211.3 70.201 211.873 69.942C212.705 69.5648 213.507 69.1256 214.273 68.6283C215.245 67.9897 216.359 68.0224 217.612 68.7265C217.773 68.818 217.96 68.8538 218.144 68.8285C218.327 68.8031 218.497 68.718 218.627 68.5862L220.377 66.8378C220.479 66.7357 220.538 66.5986 220.542 66.4544C220.546 66.3102 220.496 66.1698 220.4 66.0617C219.991 65.6092 219.722 65.047 219.628 64.4442C219.551 63.9299 219.706 63.4035 220.096 62.864C220.772 61.9228 221.54 61.0506 222.388 60.2601C222.496 60.1545 222.639 60.0928 222.79 60.0871C223.334 60.0728 223.865 60.2573 224.282 60.606C224.809 61.0333 225.157 60.9174 225.325 60.2601C225.484 59.6336 225.725 59.1072 226.046 58.6799C226.591 57.9534 226.401 57.2755 225.475 56.6463C225.042 56.3506 224.673 55.9705 224.39 55.529ZM237.982 61.3634C237.515 62.1983 237.067 63.0071 236.64 63.7897C236.231 64.5349 235.672 65.0706 234.961 65.3979C234.587 65.569 233.896 65.828 232.889 66.1739C231.47 66.6573 230.08 66.4526 228.721 65.5615C228.608 65.4865 228.473 65.4498 228.338 65.4568C228.206 65.4636 228.08 65.5154 227.982 65.6036L223.992 69.1846C223.546 69.5867 223.557 69.9981 224.025 70.4188C225.126 71.4165 225.484 72.4506 225.101 73.523C224.811 74.3271 224.645 74.8115 224.605 74.977C224.487 75.4836 224.317 75.977 224.1 76.4496C223.798 77.1134 223.302 77.6726 222.612 78.1279C221.727 78.7015 220.796 79.2019 219.829 79.6239C219.673 79.693 219.538 79.8019 219.437 79.9397C219.336 80.0776 219.273 80.2395 219.254 80.4093C219.07 82.1197 219.062 83.8445 219.231 85.5565C219.238 85.6286 219.261 85.6983 219.298 85.7605C219.335 85.8227 219.386 85.876 219.446 85.9165C220.301 86.4824 221.18 87.0126 222.079 87.506C222.712 87.8547 223.172 88.2007 223.459 88.5438C223.84 89.0048 224.134 89.5162 224.343 90.0772C224.839 91.3956 225.096 92.094 225.115 92.1716C225.314 92.9664 225.085 93.7546 224.427 94.5372C223.941 95.1234 223.927 95.6825 224.385 96.2155L227.748 100.114C227.797 100.172 227.86 100.215 227.932 100.238C227.999 100.26 228.073 100.261 228.141 100.241L230.035 99.675C230.225 99.6161 230.374 99.5936 230.48 99.6095C232.264 99.8779 233.394 100.061 233.871 100.161C235.305 100.46 236.23 101.351 236.645 102.835C237.025 104.198 237.937 104.775 239.381 104.57C240.501 104.411 241.83 104.296 243.371 104.224C243.5 104.218 243.625 104.176 243.733 104.104C243.84 104.031 243.925 103.93 243.979 103.812C244.353 102.999 244.767 102.167 245.223 101.316C245.56 100.687 246.015 100.217 246.589 99.9087C247.372 99.488 248.191 99.1495 249.049 98.8943C249.782 98.6727 250.426 98.6437 250.981 98.8054C251.601 98.9859 252.19 99.3122 252.749 99.7825C252.867 99.8827 253.015 99.9403 253.169 99.9463C253.323 99.9522 253.475 99.9061 253.6 99.8152C255.221 98.6586 256.61 97.4572 257.763 96.2108C257.853 96.1135 257.912 95.992 257.932 95.8614C257.953 95.7309 257.935 95.5971 257.88 95.4768C256.149 91.6592 257.233 88.7514 261.131 86.7533C261.655 86.4821 261.912 86.0287 261.903 85.3929L261.823 80.026C261.821 79.9034 261.78 79.7848 261.705 79.6878C261.63 79.5909 261.525 79.5209 261.407 79.4883L257.688 78.5159C257.54 78.4773 257.409 78.388 257.319 78.2635C256.867 77.6537 256.511 76.9791 256.262 76.2626C255.806 74.9723 255.576 74.1822 255.569 73.8924C255.541 73.0069 256.105 72.1299 257.258 71.2603C257.932 70.7489 258.014 70.157 257.506 69.4838C256.517 68.172 255.156 66.777 253.423 65.2997C253.338 65.2272 253.236 65.1786 253.127 65.1589C253.017 65.1392 252.905 65.1491 252.8 65.1875C252.274 65.3773 251.741 65.6195 251.205 65.9121C250.51 66.2889 249.969 66.4778 249.582 66.4778C249.1 66.482 248.625 66.3578 248.207 66.1178C247.811 65.8889 247.398 65.6904 246.972 65.5241C246.149 65.2156 245.602 64.6845 245.331 63.9299C245.013 63.0445 244.699 62.3778 244.39 61.929C244.348 61.8663 244.292 61.813 244.228 61.7728C244.164 61.7326 244.091 61.7062 244.016 61.6953L238.721 60.9753C238.576 60.9566 238.428 60.9834 238.299 61.052C238.165 61.1227 238.055 61.231 237.982 61.3634ZM188.313 81.9193L187.298 79.8483C186.936 79.1125 186.346 78.846 185.525 79.0489C182.865 79.6903 180.249 80.5055 177.695 81.4892C176.95 81.7791 176.725 82.2952 177.022 83.0367C177.483 84.1895 177.379 84.9936 176.708 85.449C176.072 85.8819 175.302 86.3344 174.398 86.8047C174.001 87.0094 173.54 87.0546 173.111 86.9309L171.133 86.3653C170.263 86.1194 169.573 86.3812 169.065 87.1507C167.674 89.2572 166.318 91.6602 164.996 94.3595C164.949 94.4595 164.933 94.571 164.949 94.6802C164.966 94.8031 165.011 94.9205 165.08 95.0234L166.881 97.7302C166.92 97.7882 166.946 97.8583 166.956 97.935C166.965 98.0152 166.958 98.0964 166.937 98.1743L165.978 101.638C165.835 102.165 165.468 102.513 164.879 102.681C164.074 102.912 163.347 103.378 162.695 104.079C162.592 104.189 162.535 104.335 162.536 104.486C162.538 105.374 162.682 106.232 162.966 107.061C163.281 107.975 163.443 108.447 163.452 108.478C163.911 110.055 164.38 111.585 164.86 113.069C164.928 113.277 165.052 113.461 165.219 113.594C165.385 113.728 165.584 113.806 165.791 113.817L168.705 113.98C168.857 113.986 169.003 114.04 169.121 114.135C169.989 114.895 170.48 115.821 170.595 116.912C170.629 117.236 170.515 117.811 170.253 118.637C169.845 119.93 170.246 120.97 171.455 121.755C173.953 123.375 175.863 124.661 177.185 125.612C177.721 125.995 178.236 126.176 178.729 126.154C179.131 126.138 179.566 125.9 180.034 125.439C180.506 124.967 180.943 124.463 181.344 123.929C181.692 123.468 182.136 123.324 182.672 123.499L185.918 124.546C186.05 124.588 186.17 124.66 186.269 124.757C186.368 124.853 186.443 124.972 186.489 125.102L187.218 127.178C187.285 127.371 187.42 127.532 187.597 127.633C187.774 127.733 187.982 127.766 188.182 127.725C191.416 127.08 194.253 126.222 196.695 125.149C197.275 124.894 197.511 124.455 197.401 123.835C197.273 123.094 197.282 122.496 197.429 122.04C197.541 121.694 197.946 121.341 198.645 120.979C199.285 120.645 199.905 120.275 200.502 119.871C201.005 119.537 201.486 119.564 201.948 119.95C202.874 120.72 203.758 120.859 204.6 120.367C205.005 120.126 205.529 119.548 206.171 118.632C207.622 116.562 208.937 114.401 210.11 112.162C210.183 112.021 210.212 111.861 210.191 111.704C210.17 111.549 210.101 111.405 209.993 111.292L207.846 109.095C207.739 108.988 207.67 108.848 207.649 108.698C207.517 107.575 207.648 106.437 208.033 105.374C208.082 105.231 208.18 105.111 208.309 105.033L210.952 103.513C211.015 103.476 211.068 103.424 211.107 103.363C211.144 103.304 211.164 103.236 211.167 103.167C211.183 102.485 211.042 101.473 210.746 100.133C210.297 98.0789 209.831 96.1108 209.347 94.2286C209.188 93.6181 208.786 93.3329 208.14 93.3731L205.951 93.5133C205.777 93.5256 205.604 93.4866 205.452 93.4011C205.298 93.3142 205.171 93.1842 205.086 93.0271C204.578 92.0921 204.041 91.1497 203.477 90.1988C203.119 89.5976 202.955 89.0253 202.986 88.483C203.023 87.8659 203.152 87.2601 203.369 86.6645C203.681 85.8258 203.471 85.1526 202.738 84.6449C201.2 83.5775 199.587 82.6229 197.911 81.7884C197.057 81.3611 196.57 81.1321 196.452 81.1012C195.869 80.9544 195.303 81.0965 194.754 81.5266L192.967 82.9385C192.595 83.2311 192.128 83.2872 191.564 83.1068L188.64 82.1765C188.568 82.1545 188.5 82.1197 188.44 82.0736C188.387 82.0324 188.343 81.9797 188.313 81.9193ZM243.142 119.329L242.244 116.935C242.173 116.733 242.17 116.514 242.235 116.31C242.3 116.087 242.43 115.87 242.608 115.682C243.27 114.984 243.364 114.336 242.894 113.737C242.653 113.435 242.363 113.268 242.024 113.237C241.649 113.206 241.303 113.333 240.985 113.616C240.52 114.034 240.083 114.044 239.671 113.649L237.725 111.774C237.576 111.627 237.472 111.44 237.425 111.235C237.375 111.021 237.382 110.797 237.444 110.586C237.825 109.256 237.421 108.628 236.233 108.702C236.165 108.707 236.099 108.73 236.043 108.77C235.982 108.812 235.932 108.867 235.896 108.931C235.426 109.785 234.79 110.173 233.988 110.096C233.277 110.027 232.47 109.654 231.57 108.978C231.453 108.885 231.369 108.758 231.331 108.614L230.948 107.291C230.542 105.897 230.122 105.867 229.689 107.202C229.511 107.76 229.236 108.282 228.875 108.744C228.826 108.808 228.767 108.861 228.699 108.903C228.637 108.94 228.568 108.963 228.497 108.969L225.129 109.147C225.06 109.15 224.992 109.137 224.929 109.109C224.853 109.077 224.783 109.032 224.722 108.978C224.45 108.753 224.166 108.542 223.871 108.347C223.475 108.095 223.077 107.984 222.678 108.015C221.581 108.099 221.267 108.759 221.738 109.993C221.797 110.136 221.812 110.294 221.78 110.446C221.624 111.047 221.221 111.4 220.573 111.503C220.421 111.524 220.276 111.578 220.147 111.662C219.172 112.323 218.344 112.204 217.664 111.306C217.618 111.248 217.562 111.198 217.497 111.161C217.436 111.127 217.369 111.106 217.299 111.101C215.783 111.023 215.386 111.72 216.106 113.19C216.209 113.399 216.261 113.629 216.257 113.861C216.254 114.094 216.196 114.322 216.087 114.527C215.692 115.275 214.949 115.804 213.861 116.112C213.715 116.15 213.563 116.152 213.417 116.117C212.39 115.883 211.622 116.234 211.111 117.169C210.749 117.826 210.981 118.419 211.808 118.945C211.974 119.05 212.112 119.195 212.209 119.366C212.307 119.538 212.36 119.73 212.364 119.927C212.386 120.834 212.037 121.645 211.316 122.358C210.952 122.716 210.521 122.837 210.025 122.718C209.473 122.59 209.13 122.706 208.996 123.064C208.952 123.186 208.9 123.477 208.837 123.938C208.725 124.742 209.118 125.231 210.016 125.406C211.02 125.603 211.55 126.126 211.606 126.977C211.644 127.503 211.592 128.152 211.452 128.922C211.29 129.813 210.809 130.519 210.011 131.04C209.946 131.082 209.888 131.135 209.841 131.197C209.799 131.252 209.769 131.317 209.754 131.386C209.574 132.28 210.154 132.693 211.494 132.624C212.193 132.59 212.71 132.938 213.047 133.667L213.73 135.135C213.833 135.358 213.887 135.596 213.888 135.828C213.889 136.06 213.837 136.28 213.735 136.472C212.765 138.305 213.204 138.914 215.054 138.3C215.631 138.106 216.155 138.204 216.625 138.59C217.932 139.656 218.69 140.824 218.898 142.096C218.91 142.157 218.944 142.212 218.995 142.248C219.019 142.266 219.047 142.278 219.076 142.285C219.105 142.292 219.136 142.293 219.165 142.288C222.652 141.708 225.595 140.941 227.996 139.988C231.963 138.41 235.341 135.955 238.132 132.62C239.538 130.94 240.847 129.05 242.056 126.949C243.205 124.941 244.169 122.833 244.938 120.652C244.964 120.579 244.972 120.5 244.96 120.424C244.948 120.342 244.918 120.265 244.872 120.196C244.824 120.123 244.762 120.06 244.69 120.009C244.614 119.957 244.53 119.919 244.442 119.894L243.469 119.628C243.395 119.607 243.326 119.57 243.269 119.518C243.212 119.466 243.169 119.401 243.142 119.329Z" fill="#1E2E34"/>
<path d="M183.532 46.2901C183.059 56.317 190.147 64.7984 199.365 65.2332C208.582 65.667 216.437 57.8906 216.91 47.8628C217.384 37.8358 210.295 29.3544 201.078 28.9196C191.861 28.4858 184.005 36.2622 183.532 46.2901ZM348.439 174.498C341.438 173.722 334.45 172.823 327.48 171.801C323.102 171.158 320.017 170.719 318.223 170.482C310.306 169.435 302.379 168.472 294.443 167.593C288.937 166.978 283.455 166.167 278.007 165.162C277.899 165.143 277.802 165.084 277.735 164.996C277.668 164.909 277.637 164.8 277.647 164.69C278.261 157.731 279.051 150.788 280.014 143.868C280.203 142.5 280.408 140.625 280.626 138.244C280.792 136.436 281.017 134.564 281.304 132.629C281.344 132.357 281.472 132.106 281.669 131.918C302.195 112.227 322.817 92.6354 343.533 73.1442C350.815 66.2944 358.303 59.6654 365.984 53.2661C366.11 53.1633 366.262 53.0974 366.423 53.0759C366.584 53.0545 366.748 53.0782 366.897 53.1446C367.408 53.3811 367.965 53.584 368.566 53.7523C369.041 53.886 369.622 53.9842 370.311 54.0468C380.383 54.9538 390.449 55.9496 400.509 57.0342C400.565 57.0406 400.617 57.0688 400.653 57.1127C400.67 57.1342 400.683 57.1591 400.69 57.1858C400.698 57.2125 400.699 57.2405 400.696 57.2679C399.613 66.2223 398.336 75.1521 396.865 84.051C394.972 95.5047 393.651 104.576 392.903 111.264C392.024 119.128 391.151 126.991 390.284 134.854C390.181 135.789 389.908 137.799 389.465 140.885C389.177 142.896 388.965 144.917 388.829 146.944C388.82 147.096 388.869 147.246 388.968 147.363C389.066 147.479 389.206 147.554 389.358 147.57C394.119 148.082 398.731 148.718 403.193 149.482C403.72 149.573 404.19 149.894 404.601 150.445C404.913 150.86 405.034 151.369 404.966 151.974C404.882 152.738 404.72 153.933 404.48 155.56C403.582 161.625 403.036 166.417 402.843 169.935C402.655 173.342 402.305 176.735 401.79 180.113C401.697 180.723 401.343 181.078 400.728 181.174C399.721 181.333 398.668 181.356 397.571 181.244C393.698 180.836 389.704 180.277 385.588 179.566C385.515 179.553 385.44 179.555 385.369 179.572C385.297 179.587 385.229 179.617 385.169 179.66C385.109 179.702 385.057 179.756 385.018 179.819C384.979 179.881 384.953 179.951 384.942 180.024C384.018 185.817 383.081 191.608 382.131 197.396C381.735 199.793 381.506 201.742 381.443 203.245C381.387 204.557 381.146 205.734 380.718 206.774C380.694 206.833 380.647 206.88 380.588 206.904C380.527 206.931 380.459 206.934 380.396 206.915C378.704 206.413 376.982 206.018 375.241 205.732C365.566 204.145 355.856 202.773 346.119 201.618C345.539 201.55 345.285 201.225 345.357 200.645L348.641 174.755C348.645 174.725 348.642 174.694 348.634 174.665C348.623 174.62 348.598 174.58 348.563 174.55C348.528 174.521 348.485 174.502 348.439 174.498ZM319.28 136.205C318.448 137.009 317.566 137.837 316.633 138.688C316.315 138.98 316.373 139.148 316.806 139.188L350.31 142.531C350.373 142.537 350.436 142.519 350.487 142.482C350.537 142.445 350.571 142.391 350.582 142.33L357.514 99.8946C357.598 99.3868 357.455 99.3121 357.083 99.6702C344.497 111.863 331.896 124.042 319.28 136.205ZM108.661 144.387L124.499 141.376C124.703 141.336 124.914 141.378 125.087 141.493C125.26 141.607 125.382 141.785 125.425 141.988L131.431 170.618C131.455 170.728 131.443 170.842 131.398 170.945C131.352 171.047 131.275 171.133 131.178 171.188C129.508 172.163 127.708 172.896 125.832 173.367C122.241 174.271 118.641 175.134 115.032 175.957C114.938 175.979 114.856 176.035 114.8 176.113C114.744 176.191 114.719 176.287 114.728 176.382C115.046 179.608 115.511 182.859 116.121 186.134C117.128 191.52 118.037 196.924 118.848 202.343C118.933 202.919 118.686 203.253 118.109 203.343C111.753 204.335 105.437 205.569 99.1751 207.041C94.9718 208.032 90.7636 209.003 86.5508 209.953C85.8276 210.116 85.2804 210.083 84.909 209.855C84.4665 209.581 84.1999 209.137 84.1091 208.523C84.0746 208.278 84.0372 208.033 83.9969 207.789C82.3813 200.231 80.7227 192.249 79.0201 183.844C78.9937 183.708 78.9164 183.588 78.8041 183.508C78.6919 183.428 78.5533 183.394 78.4167 183.413C66.2154 185.118 54.0688 187.193 41.9937 189.636C30.7653 191.905 19.5517 194.248 8.35366 196.662C7.61182 196.825 7.15624 196.536 6.98785 195.798C4.56263 185.283 2.36063 174.718 0.383338 164.11C0.334618 163.845 0.377503 163.572 0.504951 163.334L53.8696 65.2481C54.11 64.8087 54.4702 64.5254 54.9501 64.3973C67.2688 61.1603 79.7499 58.5761 92.3414 56.6555C92.4305 56.6426 92.5213 56.659 92.6003 56.7021C92.6792 56.7453 92.742 56.8129 92.7792 56.8948C92.8033 56.9489 92.8151 57.0077 92.8138 57.0669C92.8045 57.497 92.6005 57.9028 92.2011 58.2824C92.1479 58.3321 92.1072 58.3936 92.0823 58.4619C92.0581 58.5286 92.0507 58.6002 92.0608 58.6704C92.5191 61.7531 93.0149 64.8311 93.5482 67.9035C97.9917 93.6254 100.651 108.927 101.528 113.807C103.209 123.152 105.49 133.283 108.371 144.204C108.388 144.267 108.427 144.32 108.48 144.354C108.534 144.388 108.599 144.399 108.661 144.387ZM57.6911 119.74C50.1314 132.945 42.5555 146.141 34.9635 159.328C34.7109 159.771 34.8307 159.928 35.3237 159.8L71.583 150.501C71.7094 150.468 71.8181 150.388 71.8861 150.276C71.9548 150.163 71.9782 150.028 71.9516 149.898L63.9158 109.838C63.8297 109.418 63.6782 109.391 63.463 109.759C61.5257 113.078 59.6017 116.405 57.6911 119.74ZM232.859 81.3816C231.284 86.3128 233.748 91.5039 238.363 92.9756C242.978 94.4482 247.995 91.6432 249.569 86.7111C251.144 81.7799 248.679 76.5887 244.066 75.1171C239.451 73.6444 234.434 76.4494 232.859 81.3816ZM172.293 116.542C171.89 115.077 171.259 113.898 170.398 113.003C169.746 112.321 168.96 112.082 168.041 112.288C166.784 112.568 166.034 112.166 165.791 111.082C165.355 109.161 164.827 107.263 164.21 105.392C164.171 105.279 164.17 105.156 164.207 105.042C164.242 104.934 164.317 104.844 164.416 104.789L166.436 103.695C166.635 103.591 166.82 103.461 166.985 103.308C167.131 103.169 167.236 103.024 167.292 102.882C167.835 101.523 168.226 100.233 168.466 99.011C168.6 98.3069 168.555 97.6833 168.331 97.141C168.109 96.6015 167.786 96.0405 167.363 95.458C166.864 94.7661 166.839 94.063 167.288 93.3496C167.58 92.8821 167.73 92.6408 167.737 92.6249C168.541 91.1074 169.393 89.6142 170.291 88.1463C170.363 88.0326 170.474 87.9492 170.604 87.9116C170.746 87.8693 170.897 87.8696 171.039 87.9125L174 88.7914C174.068 88.8093 174.138 88.8125 174.207 88.8008C174.29 88.788 174.369 88.7627 174.444 88.726C175.236 88.3476 175.998 87.9084 176.722 87.4123L177.812 86.7531C179.087 85.9864 179.437 84.8289 178.86 83.2796C178.831 83.2045 178.82 83.1242 178.825 83.0442C178.83 82.9641 178.851 82.886 178.889 82.8149C178.926 82.7421 178.978 82.6777 179.042 82.6257C179.105 82.5738 179.178 82.5354 179.257 82.5129L185.006 80.8252C185.723 80.6167 186.186 80.8598 186.395 81.5545C186.632 82.3334 186.996 82.9402 187.485 83.3731C187.793 83.6471 188.376 83.8874 189.234 84.0931C189.861 84.2427 190.48 84.4175 191.091 84.6167C192.569 85.1029 193.848 84.6849 194.927 83.3638C195.416 82.7654 195.981 82.641 196.62 82.9898L201.073 85.4208C202.008 85.9322 202.177 86.6615 201.578 87.6087C200.963 88.5783 200.968 89.5189 201.592 90.4324C202.563 91.8561 203.465 93.3258 204.295 94.8362C204.365 94.9655 204.466 95.0749 204.59 95.1541C204.701 95.2262 204.832 95.2606 204.964 95.2523L207.186 95.0793C207.375 95.0622 207.565 95.105 207.729 95.2018C207.883 95.2953 207.989 95.4346 208.028 95.5936C208.456 97.3607 208.879 99.1251 209.3 100.886C209.459 101.559 209.532 101.933 209.52 102.008C209.455 102.36 209.152 102.678 208.613 102.961C208.223 103.167 207.811 103.321 207.378 103.424C206.632 103.599 206.243 104.079 206.208 104.864C206.189 105.389 206.164 105.915 206.134 106.44C206 107.225 205.897 108.015 205.825 108.81C205.817 108.894 205.822 108.979 205.841 109.061C205.855 109.128 205.885 109.191 205.928 109.245L207.991 111.596C208.107 111.727 208.182 111.884 208.208 112.046C208.234 112.201 208.207 112.36 208.131 112.498C207.039 114.419 205.842 116.28 204.548 118.071C203.956 118.891 203.323 119.045 202.649 118.534C202.291 118.263 202.104 118.124 202.088 118.118C201.433 117.753 200.804 117.769 200.203 118.164C199.672 118.517 199.392 118.7 199.361 118.716C198.331 119.253 197.321 119.828 196.334 120.441C195.652 120.868 195.401 121.474 195.581 122.26C195.759 123.033 195.652 123.573 195.259 123.882C195.231 123.903 194.796 124.085 193.954 124.424C192.331 125.073 190.657 125.585 188.949 125.958C188.89 125.97 188.829 125.97 188.77 125.959C188.71 125.947 188.654 125.923 188.604 125.889C188.554 125.855 188.512 125.811 188.48 125.76C188.447 125.71 188.425 125.653 188.416 125.593C188.138 123.903 187.242 122.926 185.726 122.662C185.083 122.55 184.753 122.491 184.734 122.484C183.977 122.288 183.242 122.014 182.531 121.661C181.954 121.378 181.479 121.446 181.105 121.867L179.346 123.863C178.888 124.38 178.395 124.464 177.868 124.111L172.325 120.404C171.839 120.079 171.696 119.654 171.895 119.128C172.038 118.744 172.173 118.316 172.297 117.842C172.409 117.402 172.408 116.97 172.293 116.542ZM176.841 115.108C178.388 116.35 180.172 117.261 182.085 117.787C184.006 118.317 186.026 118.455 188.032 118.194C190.038 117.933 191.989 117.278 193.774 116.266C195.566 115.249 197.149 113.903 198.439 112.297C201.053 109.048 202.322 104.938 201.967 100.871C201.612 96.8035 199.663 93.113 196.548 90.6091C195.001 89.3675 193.216 88.4555 191.303 87.9294C189.368 87.3991 187.346 87.2612 185.357 87.5236C183.351 87.7844 181.399 88.4399 179.614 89.4506C177.822 90.4674 176.239 91.8141 174.949 93.4197C172.336 96.6688 171.067 100.779 171.422 104.846C171.776 108.914 173.726 112.604 176.841 115.108Z" fill="#1E2E34"/>
<path d="M176.114 94.5796C171.303 100.711 172.136 109.391 177.975 113.967C183.813 118.543 192.446 117.28 197.256 111.149C202.067 105.017 201.234 96.3364 195.395 91.7606C189.557 87.1856 180.924 88.4469 176.114 94.5796ZM224.064 122.194C222.126 124.728 222.517 128.28 224.936 130.128C227.356 131.978 230.889 131.423 232.826 128.889C234.763 126.357 234.373 122.804 231.953 120.955C229.534 119.107 226.002 119.661 224.064 122.194ZM84.2824 347.156C81.9232 349.535 79.4474 351.796 76.864 353.93C76.5085 354.223 76.1343 354.69 75.7414 355.332C75.2522 356.134 74.5515 356.814 73.6413 357.375C70.9405 359.037 68.0237 360.596 64.8898 362.055C64.7068 362.141 64.5067 362.183 64.3048 362.179C64.1028 362.175 63.9045 362.124 63.7251 362.032C61.7315 361.005 59.8164 359.833 57.9953 358.525C57.9672 358.504 57.7025 358.345 57.2001 358.049C56.6173 357.7 56.2721 357.187 56.1664 356.511C56.1173 356.173 56.0612 355.836 55.998 355.501C53.8535 347.206 51.9645 338.848 50.3337 330.438C50.1962 329.737 50.2981 329.131 50.6377 328.619L54.4685 322.785C54.5189 322.711 54.5966 322.66 54.6846 322.643C54.7754 322.624 54.8717 322.64 54.955 322.687C56.5706 323.606 58.2086 324.477 59.8709 325.3C60.3106 325.518 61.363 325.98 63.0282 326.684C64.1508 327.161 65.1798 327.672 66.1153 328.217C66.6177 328.51 66.9507 328.942 67.1163 329.512L70.8395 342.275C70.8694 342.381 70.9379 342.471 71.0316 342.529C71.1252 342.586 71.2369 342.606 71.3446 342.585C71.4166 342.571 71.4841 342.541 71.5411 342.495C77.7434 337.53 83.0288 331.951 87.3976 325.758C87.7465 325.263 87.6221 325.057 87.0234 325.141C84.9092 325.438 83.3563 324.864 82.3646 323.421C81.7472 322.523 81.4806 321.434 81.5648 320.153C81.6428 318.976 81.9612 317.827 82.5003 316.778C84.8914 312.021 88.363 308.367 92.9122 305.815C94.3407 305.011 95.5316 304.415 96.4858 304.029C97.736 303.524 99.0478 303.188 100.387 303.028C100.45 303.021 100.512 303.001 100.567 302.969C100.623 302.937 100.671 302.894 100.71 302.843C100.748 302.792 100.776 302.734 100.791 302.671C100.807 302.609 100.809 302.545 100.798 302.482C100.55 301.007 100.389 299.52 100.317 298.026C100.23 296.258 100.024 294.498 99.6992 292.758C98.0974 284.202 95.809 275.79 92.8561 267.601C92.8467 267.576 92.6409 267.089 92.2387 266.138C91.6241 264.686 91.6026 263.366 92.1732 262.178C92.7934 260.895 94.0255 259.707 95.8684 258.616C99.9485 256.198 104.291 254.252 108.811 252.814C114.814 250.904 121.086 249.64 127.628 249.023C127.782 249.007 127.925 248.933 128.027 248.816C128.128 248.698 128.182 248.547 128.175 248.392C127.76 240.33 127.138 232.28 126.309 224.25C126.289 224.059 126.344 223.867 126.461 223.715C126.579 223.563 126.75 223.461 126.94 223.432C128.172 223.236 129.296 223.177 130.313 223.254C131.311 223.336 131.828 223.376 131.866 223.376C134.997 223.491 138.127 223.542 141.258 223.53C145.863 223.511 148.982 223.514 150.613 223.539C157.579 223.649 164.545 223.738 171.512 223.806C171.92 223.812 172.408 223.851 172.976 223.923C173.434 223.982 173.92 224.028 174.435 224.063C174.496 224.067 174.557 224.058 174.615 224.036C174.672 224.015 174.725 223.982 174.769 223.939C174.813 223.897 174.847 223.845 174.87 223.789C174.894 223.732 174.905 223.671 174.903 223.61C174.75 219.215 174.8 214.804 175.052 210.375C175.139 208.86 175.224 207.637 175.305 206.705C175.373 205.903 175.481 204.685 175.628 203.049C175.74 201.771 175.935 200.508 176.212 199.258C176.284 198.933 176.571 197.69 177.073 195.527C178.473 189.484 181.337 184.139 185.665 179.492C187.62 177.381 189.804 175.495 192.176 173.868C194.53 172.252 197.033 170.865 199.651 169.726C202.211 168.612 204.897 167.814 207.649 167.351C210.172 166.923 212.927 166.838 215.914 167.094C220.196 167.459 224.418 168.333 228.492 169.697C232.82 171.137 236.357 172.589 239.105 174.055C240.923 175.024 242.681 176.296 244.381 177.869C245.869 179.25 247.349 180.824 248.825 182.591C250.6 184.706 252.126 187.018 253.371 189.482C257.132 196.959 259.316 204.907 259.924 213.325C259.99 214.229 260.094 216.001 260.238 218.645C260.334 220.381 260.395 222.158 260.42 223.974C260.421 224.088 260.467 224.196 260.547 224.276C260.628 224.355 260.737 224.4 260.85 224.4H284.504C286.958 224.4 290.669 224.828 295.636 225.685C298.81 226.23 301.977 226.812 305.136 227.429L308.799 228.032C311.224 228.431 313.474 229.119 315.548 230.094C316.06 230.334 316.247 230.728 316.109 231.277C315.74 232.747 315.488 234.245 315.356 235.755C315.144 238.174 315.036 239.405 315.034 239.448C314.638 242.733 314.276 246.021 313.948 249.313C313.635 252.414 313.304 255.514 312.957 258.611C312.155 265.795 311.364 274.416 310.581 284.473C309.882 293.462 309.418 299.59 309.187 302.856C309.093 304.074 309.178 305.299 309.439 306.493C310.487 311.199 311.813 315.265 313.415 318.69C315.162 322.418 317.473 326.215 320.352 330.083C322.064 332.389 324.105 334.742 326.474 337.142C330.382 341.1 334.501 344.844 338.814 348.357C340.117 349.42 341.435 350.79 342.766 352.467C343.383 353.243 343.758 354.063 343.889 354.926C344.035 355.882 343.832 356.699 343.28 357.375C342.539 358.285 341.412 358.616 339.903 358.366C338.46 358.13 337.455 357.876 336.891 357.604C334.384 356.397 332.078 354.809 330.057 352.897C321.645 344.949 314.348 336.263 308.167 326.838C307.899 326.43 307.741 326.469 307.695 326.955C307.184 332.384 306.777 337.822 306.474 343.266C306.348 345.545 306.12 347.569 305.786 349.339C305.658 350.012 305.331 350.52 304.804 350.863C304.498 351.062 303.96 351.218 303.19 351.331C292.498 352.889 281.826 354.586 271.178 356.422L269.316 356.833C268.275 357.067 267.062 357.179 265.677 357.17C262.235 357.148 258.794 357.076 255.354 356.955C255.338 356.955 254.973 356.917 254.255 356.842C253.282 356.742 252.305 356.978 251.322 357.548C243.673 362.008 235.51 364.806 226.831 365.94C226.688 365.96 226.559 366.035 226.471 366.15C226.383 366.264 226.345 366.409 226.364 366.552C226.426 367.057 226.415 367.52 226.331 367.941C226.253 368.327 226.01 368.691 225.601 369.03C224.12 370.262 222.642 371.498 221.167 372.737C220.547 373.258 219.963 373.553 219.418 373.621C218.859 373.696 218.181 373.705 217.383 373.649C212.076 373.284 206.639 373.376 201.073 373.925C200.915 373.94 200.757 373.903 200.623 373.818C200.489 373.733 200.387 373.607 200.334 373.457C199.682 371.663 199.178 369.818 198.828 367.941C198.685 367.177 198.416 365.295 198.023 362.293C197.719 359.966 197.491 357.628 197.34 355.286C197.329 355.123 197.257 354.971 197.14 354.858C197.022 354.744 196.867 354.679 196.704 354.673C186.957 354.361 177.204 354.258 167.452 354.365C156.927 354.477 146.369 354.516 135.776 354.482C135.562 354.48 135.356 354.401 135.196 354.259C135.036 354.117 134.933 353.922 134.906 353.71C134.806 352.972 134.684 352.177 134.541 351.326C134.357 350.267 134.251 349.702 134.223 349.634C133.999 349.101 133.547 348.682 132.867 348.376C131.454 347.74 128.4 345.808 123.704 342.579C117.806 338.527 111.973 334.383 106.205 330.148C104.684 329.037 103.11 327.998 101.491 327.035C101.429 326.998 101.355 326.986 101.285 327.002C101.214 327.018 101.152 327.059 101.112 327.119C97.94 331.758 94.4584 336.179 90.6905 340.349C88.6073 342.667 86.4707 344.937 84.2824 347.156ZM225.857 188.69C224.603 186.189 222.862 183.964 220.736 182.145C218.601 180.319 216.125 178.934 213.451 178.07C210.762 177.201 207.928 176.866 205.11 177.086C199.398 177.528 194.085 180.187 190.308 184.494C188.445 186.618 187.016 189.086 186.101 191.759C185.191 194.416 184.818 197.227 185.002 200.03C185.186 202.821 185.926 205.547 187.179 208.048C188.432 210.549 190.173 212.774 192.299 214.593C194.434 216.419 196.91 217.805 199.584 218.669C202.273 219.538 205.106 219.872 207.924 219.654C213.637 219.211 218.949 216.552 222.726 212.245C224.589 210.121 226.019 207.653 226.933 204.98C227.843 202.322 228.216 199.511 228.033 196.709C227.849 193.918 227.109 191.192 225.857 188.69ZM141.412 244.502C142.345 241.414 144.37 239.171 147.488 237.775C148.602 237.279 150.025 236.977 151.759 236.868C155.461 236.641 159.245 236.536 163.111 236.555C163.209 236.555 163.306 236.533 163.395 236.492C163.484 236.451 163.563 236.392 163.626 236.317C163.691 236.241 163.74 236.152 163.768 236.056C163.797 235.96 163.806 235.859 163.794 235.76L162.695 225.994C162.675 225.817 162.594 225.653 162.465 225.53C162.341 225.411 162.175 225.342 162.002 225.339C154.862 225.249 147.82 225.236 140.879 225.302C138.506 225.323 136.419 225.281 134.616 225.176C132.57 225.057 130.491 224.907 128.376 224.727C128.326 224.724 128.276 224.732 128.229 224.75C128.182 224.768 128.139 224.797 128.104 224.833C128.07 224.87 128.043 224.914 128.027 224.962C128.011 225.009 128.006 225.06 128.012 225.11C128.383 227.806 128.666 230.475 128.863 233.119C128.882 233.359 129.057 236.039 129.387 241.16C129.796 247.487 130.049 254.6 130.149 262.501C130.287 273.394 130.857 286.949 131.861 303.169C132.684 316.471 133.735 329.755 135.014 343.023C135.313 346.121 135.774 349.288 136.398 352.523C136.414 352.606 136.458 352.681 136.524 352.734C136.589 352.787 136.672 352.817 136.758 352.817L174.355 352.495C174.384 352.495 174.411 352.488 174.436 352.476C174.461 352.464 174.483 352.447 174.5 352.425C174.518 352.404 174.532 352.379 174.539 352.353C174.546 352.326 174.547 352.298 174.543 352.27C174.084 349.49 173.753 346.69 173.551 343.879C173.46 342.61 172.837 342.121 171.68 342.411C171.633 342.422 171.59 342.447 171.557 342.483C171.524 342.518 171.502 342.562 171.494 342.61C171.49 342.64 171.493 342.671 171.502 342.701C171.561 342.903 171.671 343.079 171.83 343.229C171.967 343.36 172.057 343.479 172.101 343.589C172.781 345.325 172.244 346.335 170.492 346.618C170.341 346.643 170.186 346.617 170.052 346.543C168.649 345.751 168.518 344.456 169.659 342.654C169.797 342.436 169.736 342.327 169.477 342.327C165.321 342.327 161.371 342.294 157.629 342.228C155.723 342.194 153.862 341.633 152.044 340.545C147.794 337.999 145.313 334.396 144.602 329.737C144.471 328.874 144.343 327.607 144.219 325.936C144.13 324.661 144.079 323.385 144.064 322.107C144.027 319.455 143.664 313.145 142.975 303.178C142.195 291.892 141.67 280.59 141.398 269.28C141.267 263.788 141.118 258.298 140.949 252.81C140.825 248.708 140.979 245.939 141.412 244.502ZM186.947 236.33C205.704 236.798 224.463 237.12 243.226 237.298C244.823 237.314 248.565 237.455 254.452 237.723C255.845 237.786 257.13 237.917 258.306 238.116C259.731 238.356 260.741 238.577 261.337 238.78C262.345 239.127 263.27 239.68 264.054 240.402C268.164 244.136 269.852 248.815 269.115 254.441C267.668 265.54 266.309 276.649 265.037 287.769C264.662 291.017 264.263 294.109 263.839 297.044C262.327 307.469 260.789 317.889 259.227 328.306C258.937 330.239 258.657 331.703 258.385 332.701C257.992 334.148 257.493 335.566 256.893 336.941C256.51 337.82 256.643 337.979 257.295 337.418C257.382 337.343 257.485 337.237 257.604 337.1C258.861 335.663 260.577 334.834 262.754 334.613C264.893 334.398 267.029 334.428 269.162 334.702C269.209 334.708 269.257 334.704 269.303 334.692C269.348 334.679 269.391 334.658 269.429 334.629C269.505 334.57 269.555 334.484 269.569 334.388C270.258 329.262 270.988 324.138 271.758 319.017C272.263 315.632 272.694 312.544 273.049 309.751C273.9 303.066 274.753 296.381 275.608 289.695C275.985 286.753 276.417 283.665 276.903 280.43C278.428 270.273 279.886 260.106 281.277 249.93C281.501 248.278 281.95 245.192 282.624 240.673C283.307 236.082 283.913 231.386 284.443 226.583C284.451 226.515 284.444 226.446 284.423 226.381C284.402 226.316 284.368 226.255 284.323 226.204C284.276 226.153 284.22 226.112 284.157 226.083C284.094 226.055 284.026 226.041 283.957 226.041C262.572 225.926 241.394 226.043 220.423 226.396C213.563 226.511 206.703 226.457 199.843 226.232C188.084 225.843 176.321 225.592 164.556 225.48C164.541 225.48 164.525 225.483 164.51 225.489C164.496 225.495 164.483 225.504 164.472 225.516C164.461 225.527 164.452 225.541 164.447 225.555C164.441 225.57 164.439 225.586 164.439 225.601C164.611 229.151 164.949 232.662 165.454 236.134C165.467 236.223 165.512 236.304 165.581 236.361C165.65 236.419 165.738 236.449 165.829 236.447C172.941 236.195 179.981 236.155 186.947 236.33ZM271.908 335.141C276.248 335.883 280.236 337.588 283.873 340.256C284.864 340.978 285.865 341.735 286.875 342.523C286.921 342.558 286.959 342.602 286.986 342.652C287.013 342.702 287.029 342.758 287.034 342.815C287.037 342.871 287.029 342.928 287.01 342.982C286.991 343.035 286.961 343.084 286.922 343.126C286.336 343.73 285.668 344.249 284.939 344.669C282.039 346.361 279.158 348.166 276.295 350.082C276.175 350.165 276.035 350.213 275.889 350.22C275.744 350.227 275.6 350.194 275.472 350.124C274.034 349.358 272.408 348.78 270.593 348.39C270.525 348.375 270.455 348.375 270.387 348.388C270.319 348.401 270.254 348.428 270.197 348.468C270.081 348.547 270.002 348.668 269.976 348.806C269.704 350.335 269.483 351.872 269.312 353.416C269.281 353.687 269.198 353.885 269.064 354.009C268.814 354.246 268.554 354.229 268.283 353.958C268.18 353.844 268.119 353.699 268.11 353.547C267.957 352.016 268.018 350.408 268.292 348.722C268.323 348.535 268.28 348.343 268.172 348.188C268.063 348.032 267.898 347.925 267.712 347.89C266.931 347.74 266.128 347.748 265.35 347.913C265.2 347.947 265.064 348.023 264.957 348.133C262.342 350.779 259.292 352.957 255.939 354.57C255.422 354.82 255.439 355.024 255.99 355.183C256.633 355.37 257.308 355.459 258.016 355.449L259.307 355.435C261.945 355.513 264.583 355.547 267.221 355.538C267.86 355.538 268.524 355.417 269.214 355.173C270.009 354.893 270.671 354.711 271.201 354.626C282.256 352.869 293.168 351.167 303.939 349.521C304.117 349.495 304.28 349.407 304.399 349.273C304.519 349.139 304.588 348.967 304.594 348.787C304.725 344.259 304.935 339.922 305.225 335.777C305.288 334.91 305.473 333.049 305.782 330.19C305.985 328.33 306.13 326.462 306.217 324.59C306.243 323.961 306.106 323.336 305.819 322.776C304.432 319.996 303.407 317.24 302.746 314.51C301.798 310.586 301.048 306.264 300.496 301.542C299.938 296.786 299.364 292.031 298.775 287.278C298.51 285.144 298.349 282.834 298.293 280.35C298.29 280.257 298.269 280.166 298.231 280.081C298.192 279.996 298.138 279.92 298.069 279.856C297.93 279.73 297.747 279.664 297.559 279.672C295.416 279.782 293.553 279.52 291.969 278.887C291.277 278.609 290.821 278.114 290.603 277.4C289.365 273.414 288.894 269.229 289.214 265.067C289.717 258.445 291.63 252.272 294.953 246.55C295.714 245.234 296.938 244.678 298.625 244.881C302.72 245.374 305.899 247.216 308.162 250.411C309.659 252.524 310.471 254.879 310.599 257.475C310.637 258.263 310.732 259.044 310.885 259.817C310.916 259.976 310.95 259.978 310.988 259.822C311.275 258.581 311.528 256.825 311.75 254.553C312.511 246.712 313.364 238.922 314.309 231.183C314.318 231.094 314.295 231.004 314.242 230.932C314.189 230.859 314.111 230.809 314.023 230.79C306.843 229.36 299.638 228.051 292.414 226.863C291.428 226.71 290.437 226.589 289.443 226.499C288.47 226.405 287.481 226.284 286.473 226.134C286.408 226.124 286.342 226.135 286.283 226.164C286.224 226.193 286.176 226.239 286.144 226.297C286.123 226.335 286.111 226.376 286.108 226.419C285.778 229.969 285.348 233.516 284.817 237.06L283.578 245.414C281.869 257.781 280.784 265.472 280.322 268.49C278.33 281.514 276.552 294.567 274.99 307.647C274.622 310.73 274.206 313.818 273.741 316.913C272.878 322.642 272.05 328.423 271.258 334.258C271.232 334.46 271.285 334.665 271.406 334.829C271.527 334.994 271.707 335.105 271.908 335.141ZM120.228 325.258C123.94 328.199 127.831 330.904 131.88 333.36C132.294 333.612 132.479 333.497 132.432 333.014C131.165 319.507 130.219 305.972 129.593 292.421C129.054 280.796 128.655 269.166 128.395 257.531C128.394 257.489 128.384 257.447 128.366 257.408C128.339 257.35 128.294 257.303 128.237 257.273C128.181 257.243 128.117 257.232 128.054 257.242C121.646 258.158 115.326 259.479 109.096 261.206C106.234 262.001 103.631 262.987 101.289 264.165C101.101 264.261 100.954 264.423 100.877 264.62C100.8 264.816 100.799 265.034 100.873 265.231C103.527 272.297 105.572 279.38 107.01 286.479C108.145 292.067 108.556 297.968 108.245 304.183C108.237 304.329 108.266 304.474 108.328 304.606C108.39 304.738 108.483 304.853 108.6 304.941C110.712 306.506 111.451 308.496 110.817 310.915C110.63 311.626 110.357 312.407 109.999 313.257C109.684 314.005 109.281 314.732 108.792 315.436C108.708 315.556 108.672 315.703 108.693 315.849C108.714 315.994 108.79 316.125 108.904 316.217C112.628 319.215 116.402 322.229 120.228 325.258ZM162.741 278.485C164.818 278.547 167.068 278.553 169.491 278.503C169.547 278.503 169.602 278.49 169.652 278.465C169.702 278.441 169.746 278.406 169.781 278.362C169.818 278.319 169.844 278.268 169.86 278.213C169.875 278.159 169.878 278.101 169.87 278.045L169.514 275.605C169.499 275.502 169.448 275.408 169.371 275.338C169.295 275.269 169.196 275.229 169.093 275.226L160.814 275.095C160.742 275.095 160.671 275.071 160.614 275.027C160.589 275.008 160.567 274.984 160.552 274.956C160.536 274.929 160.527 274.898 160.524 274.866L160.356 271.776C160.354 271.71 160.366 271.644 160.391 271.582C160.416 271.521 160.454 271.466 160.502 271.42C160.605 271.321 160.741 271.263 160.884 271.257L168.831 270.897C168.904 270.894 168.973 270.867 169.028 270.82C169.052 270.799 169.071 270.774 169.084 270.745C169.097 270.717 169.104 270.686 169.103 270.654L168.953 268.036C168.948 267.977 168.932 267.92 168.904 267.868C168.876 267.816 168.838 267.771 168.791 267.734C168.69 267.653 168.564 267.609 168.434 267.611L160.627 267.643C160.586 267.643 160.546 267.635 160.509 267.62C160.471 267.604 160.437 267.581 160.408 267.552C160.351 267.492 160.319 267.413 160.319 267.33C160.319 266.797 160.284 266.283 160.216 265.787C160.003 264.286 160.623 263.545 162.073 263.567C164.334 263.601 166.672 263.595 169.089 263.548C169.169 263.547 169.246 263.521 169.312 263.475C169.378 263.43 169.428 263.366 169.457 263.291C169.476 263.242 169.484 263.189 169.482 263.137L169.313 259.813C169.312 259.777 169.303 259.743 169.287 259.711C169.271 259.68 169.249 259.651 169.222 259.629C169.168 259.58 169.096 259.556 169.023 259.56L155.838 260.266C155.649 260.276 155.472 260.36 155.345 260.499C155.217 260.638 155.149 260.821 155.155 261.01C155.314 265.432 155.328 269.67 155.197 273.721C155.157 275.086 155.197 276.568 155.318 278.167C155.323 278.229 155.351 278.288 155.397 278.33C155.443 278.373 155.504 278.396 155.566 278.396C157.945 278.38 160.337 278.41 162.741 278.485ZM179.08 272.295C179.133 271.142 179.653 270.9 180.642 271.57C182.251 272.662 183.4 274.074 184.089 275.811C184.429 276.671 184.807 277.627 185.221 278.681C185.269 278.804 185.354 278.909 185.464 278.981C185.577 279.055 185.709 279.095 185.848 279.097L190.928 279.172C190.954 279.172 190.98 279.166 191.003 279.155C191.027 279.144 191.047 279.128 191.063 279.107C191.079 279.088 191.089 279.064 191.093 279.04C191.097 279.015 191.095 278.99 191.087 278.966C190.189 276.286 189.161 274.196 188.004 272.697C187.387 271.9 186.411 271.388 185.076 271.164C184.842 271.124 184.665 271.056 184.543 270.963C184.218 270.713 184.241 270.483 184.608 270.271C184.751 270.187 184.961 270.123 185.235 270.079C186.327 269.911 187.132 269.713 187.653 269.485C188.96 268.912 189.816 268.015 190.221 266.793C190.555 265.786 190.416 264.843 189.805 263.964C189.119 262.976 188.1 262.216 186.746 261.683C185.034 261.01 183.514 260.659 182.185 260.631C179.63 260.578 177.075 260.686 174.533 260.953C174.459 260.961 174.39 260.996 174.34 261.052C174.289 261.106 174.261 261.178 174.262 261.253C174.253 264.715 174.306 268.218 174.421 271.762C174.493 274.025 174.465 276.285 174.337 278.541C174.333 278.606 174.354 278.669 174.395 278.719C174.414 278.743 174.439 278.761 174.466 278.775C174.493 278.788 174.522 278.793 174.552 278.793L178.322 278.84C178.383 278.84 178.443 278.827 178.499 278.803C178.555 278.779 178.606 278.743 178.647 278.699C178.737 278.604 178.789 278.48 178.794 278.349L179.08 272.295ZM230.274 262.94C229.292 261.868 228.076 261.204 226.626 260.949C223.476 260.391 220.645 260.841 218.131 262.3C216.373 263.322 215.098 264.751 214.305 266.587C213.358 268.784 213.152 271.126 213.688 273.613C213.903 274.614 214.109 275.323 214.305 275.741C214.598 276.364 215.049 276.967 215.657 277.55C218.704 280.46 222.082 281.503 225.793 280.677C227.657 280.263 229.135 279.468 230.223 278.293C231.439 276.988 232.142 275.35 232.332 273.38C232.551 271.13 232.497 268.862 232.173 266.624C231.986 265.343 231.353 264.116 230.274 262.94ZM199.403 273.08C199.543 272.068 200.05 271.826 200.923 272.356C202.675 273.422 203.821 274.882 204.361 276.736C204.495 277.192 204.639 277.643 204.791 278.092C205.131 279.09 205.809 279.557 206.826 279.495C207.319 279.464 207.573 279.448 207.589 279.448H210.961C211.329 279.448 211.417 279.291 211.228 278.976C210.554 277.847 209.999 276.652 209.572 275.409C208.882 273.436 207.52 272.255 205.484 271.865C205.406 271.85 205.333 271.817 205.27 271.77C205.216 271.729 205.176 271.673 205.156 271.608C205.088 271.358 205.236 271.215 205.601 271.178C206.976 271.044 208.18 270.773 209.212 270.364C210.739 269.763 211.562 268.778 211.677 267.41C211.773 266.281 211.446 265.197 210.694 264.156C209.824 262.953 208.573 262.192 206.938 261.874C203.312 261.164 199.439 261.047 195.32 261.524C195.18 261.541 195.052 261.61 194.959 261.716C194.865 261.823 194.812 261.961 194.81 262.104L194.562 279.303C194.561 279.346 194.57 279.389 194.589 279.428C194.608 279.468 194.636 279.504 194.669 279.532C194.705 279.562 194.746 279.584 194.79 279.597C194.834 279.611 194.881 279.616 194.927 279.611L198.65 279.35C198.823 279.339 198.987 279.267 199.11 279.145C199.168 279.089 199.212 279.022 199.242 278.948C199.271 278.873 199.285 278.794 199.281 278.714C199.16 276.398 199.2 274.52 199.403 273.08ZM246.958 273.024C246.226 272.423 246.329 272.186 247.267 272.314C248.979 272.541 250.455 272.209 251.697 271.318C252.695 270.601 253.322 269.722 253.577 268.681C253.873 267.487 253.569 266.333 252.665 265.217C251.465 263.733 249.914 262.836 248.015 262.524C245.698 262.141 244.258 261.977 243.694 262.033C241.436 262.251 239.172 262.407 236.902 262.501C236.812 262.504 236.726 262.542 236.663 262.606C236.599 262.671 236.563 262.757 236.56 262.847C236.502 264.955 236.369 267.06 236.163 269.158C235.798 272.842 235.628 276.535 235.653 280.238C235.653 280.3 235.678 280.358 235.722 280.401C235.768 280.446 235.828 280.471 235.892 280.472L240.157 280.579C240.219 280.58 240.278 280.558 240.323 280.516C240.367 280.474 240.394 280.416 240.396 280.355L240.761 273.74C240.798 273.057 241.149 272.816 241.813 273.015C243.962 273.66 245.338 275.061 245.943 277.218C246.23 278.241 246.554 279.253 246.916 280.252C246.939 280.318 246.981 280.375 247.037 280.417C247.093 280.459 247.16 280.483 247.23 280.486L252.524 280.775C252.986 280.801 253.088 280.619 252.829 280.233C252.208 279.295 251.757 278.365 251.477 277.442C251.128 276.295 250.523 275.341 249.662 274.581C249.381 274.335 248.934 274.074 248.32 273.8C247.718 273.532 247.264 273.274 246.958 273.024ZM309.912 268.284C309.3 270.555 308.131 272.637 306.511 274.343C306.198 274.674 306.021 275.111 306.015 275.568C305.959 281.773 306.357 288.05 307.208 294.398C307.255 294.751 307.292 295.224 307.32 295.82C307.349 296.449 307.421 296.925 307.536 297.246C307.854 298.143 308.011 298.115 308.008 297.161C308.002 295.893 308.068 294.626 308.204 293.365C308.398 291.607 308.51 290.35 308.541 289.593C308.641 287.252 308.803 284.916 309.028 282.585C309.208 280.721 309.395 278.389 309.589 275.591C309.751 273.247 310.003 270.909 310.342 268.578C310.426 267.987 310.353 267.772 310.122 267.938C310.026 268.006 309.956 268.122 309.912 268.284ZM160.066 304.674C162.057 302.687 164.062 300.714 166.081 298.756C166.181 298.66 166.313 298.606 166.452 298.607C166.591 298.607 166.726 298.66 166.829 298.756L178.051 308.947C178.091 308.984 178.144 309.003 178.2 309.001C178.257 308.998 178.311 308.974 178.35 308.933C180.815 306.407 183.323 303.923 185.871 301.481C186.601 300.78 187.48 300.146 188.509 299.578C189.043 299.286 189.527 299.354 189.964 299.784L200.441 310.139C200.521 310.215 200.627 310.256 200.736 310.254C200.846 310.25 200.95 310.204 201.026 310.125C204.339 306.626 207.825 303.295 211.471 300.144C211.56 300.068 211.675 300.027 211.793 300.031C211.908 300.035 212.018 300.084 212.098 300.167L222.374 311.065C222.417 311.11 222.475 311.138 222.538 311.142C222.599 311.147 222.659 311.128 222.706 311.088C225.987 308.28 229.28 305.486 232.585 302.706C233.155 302.226 233.717 301.964 234.269 301.921C234.736 301.883 235.225 302.133 235.733 302.669C238.608 305.688 241.376 308.808 244.03 312.023C244.102 312.111 244.199 312.173 244.309 312.2C244.419 312.227 244.535 312.217 244.638 312.173C245.468 311.824 245.875 311.385 245.859 310.854C245.856 310.729 245.787 310.586 245.667 310.457L234.956 298.802C234.872 298.711 234.755 298.656 234.631 298.648C234.57 298.645 234.509 298.654 234.451 298.675C234.394 298.696 234.341 298.728 234.297 298.77C230.748 302.095 227.034 305.241 223.169 308.194C223.089 308.255 222.993 308.291 222.892 308.299C222.792 308.306 222.691 308.285 222.603 308.236C221.696 307.725 220.952 307.144 220.372 306.493C217.698 303.481 215.126 300.382 212.659 297.199C212.601 297.125 212.528 297.065 212.444 297.021C212.361 296.977 212.27 296.952 212.176 296.945C212.082 296.939 211.989 296.953 211.901 296.987C211.813 297.02 211.733 297.071 211.667 297.138C208.221 300.537 204.649 303.807 200.961 306.941C200.842 307.041 200.694 307.099 200.539 307.106C200.384 307.113 200.231 307.068 200.105 306.979C199.269 306.393 198.561 305.822 197.981 305.268C195.055 302.45 192.231 299.527 189.515 296.507C189.428 296.41 189.306 296.351 189.176 296.343C189.046 296.334 188.918 296.376 188.818 296.46C185.554 299.231 182.445 302.179 179.505 305.291C178.782 306.058 178.048 306.121 177.302 305.483C173.581 302.291 170.145 298.783 167.031 294.997C166.99 294.948 166.936 294.913 166.875 294.898C166.813 294.882 166.749 294.886 166.69 294.91C166.651 294.925 166.615 294.948 166.586 294.978C163.099 298.546 159.537 302.041 155.903 305.46C155.173 306.145 154.793 306.516 154.762 306.572C154.403 307.152 154.699 307.758 155.65 308.391C155.786 308.481 155.949 308.521 156.111 308.502C156.273 308.483 156.423 308.407 156.534 308.288C157.693 307.066 158.871 305.861 160.066 304.674ZM101.018 314.113C101.449 314.284 101.521 314.564 101.238 314.95C100.265 316.275 98.8806 317.657 97.0845 319.096C96.4979 319.571 96.2846 320.178 96.4437 320.92C96.4575 320.987 96.4929 321.048 96.5447 321.094C96.5976 321.14 96.6636 321.169 96.7337 321.177C98.1435 321.342 99.6243 320.999 101.177 320.148C105.069 318.019 107.667 315.032 108.97 311.186C109.294 310.226 109.388 309.386 109.25 308.667C109.061 307.685 108.575 306.932 107.796 306.409C107.241 306.041 106.147 305.63 104.517 305.174C102.347 304.573 100.289 304.568 98.3427 305.16C91.6596 307.199 86.7801 311.544 83.7024 318.194C83.2187 319.239 83.041 320.261 83.1692 321.261C83.3432 322.591 84.1149 323.32 85.4845 323.444C86.5947 323.548 87.7126 323.358 88.7259 322.893C91.4508 321.656 93.9329 319.943 96.0555 317.834C97.4401 316.462 98.962 315.235 100.597 314.174C100.662 314.132 100.734 314.103 100.811 314.091C100.88 314.081 100.952 314.088 101.018 314.113ZM64.5109 329.05C61.9225 328.065 59.2741 326.85 56.564 325.408C56.2085 325.218 56.0785 325.317 56.1758 325.707C57.7009 331.941 59.2429 338.172 60.8017 344.398C61.088 345.545 61.7793 348.107 62.8738 352.083C63.5738 354.644 64.221 357.219 64.815 359.806C64.836 359.901 64.8892 359.985 64.9655 360.045C65.0418 360.104 65.1364 360.135 65.2331 360.133C65.2965 360.131 65.3584 360.113 65.4137 360.082L73.3793 355.636C73.574 355.527 73.7191 355.347 73.7844 355.134C73.8511 354.917 73.8351 354.683 73.7395 354.477C71.7993 350.207 70.1313 345.699 68.7346 340.952C67.7337 337.552 66.6682 333.954 65.54 330.158C65.472 329.903 65.3427 329.669 65.1633 329.476C64.9839 329.283 64.7599 329.136 64.5109 329.05ZM58.3227 356.73C58.9588 357.201 60.5407 358.315 63.0703 360.073C63.1358 360.12 63.2097 360.148 63.2808 360.153C63.3469 360.161 63.4136 360.144 63.4679 360.106C63.5951 360.016 63.6344 359.903 63.5848 359.769C62.706 357.452 61.9381 355.095 61.2835 352.705C58.8711 343.889 56.6767 335.015 54.7024 326.09C54.621 325.728 54.4788 325.696 54.2767 325.992L51.91 329.452C51.8676 329.513 51.8395 329.584 51.8276 329.657C51.8149 329.737 51.8175 329.817 51.8351 329.896C53.5471 337.918 55.3123 345.798 57.13 353.537C57.1328 353.549 57.1889 354.031 57.2984 354.982C57.3797 355.705 57.7212 356.288 58.3227 356.73ZM215.863 371.751C216.894 371.88 217.922 372.035 218.945 372.214C219.008 372.225 219.073 372.222 219.134 372.203C219.194 372.185 219.25 372.152 219.296 372.107C219.342 372.063 219.376 372.008 219.397 371.948C219.417 371.888 219.423 371.823 219.413 371.76C219.257 370.57 219.209 369.486 219.268 368.507C219.505 364.608 219.773 360.711 220.073 356.819C220.297 353.905 221.164 348.811 222.673 341.536C223.181 339.099 223.541 337.074 223.754 335.459C223.758 335.43 223.755 335.4 223.747 335.371C223.739 335.343 223.725 335.316 223.706 335.293C223.687 335.271 223.664 335.253 223.637 335.24C223.611 335.228 223.582 335.221 223.553 335.221C217.694 335.043 210.531 334.919 202.064 334.847C200.602 334.834 199.364 334.875 198.351 334.968C198.286 334.975 198.227 335.005 198.183 335.053C198.14 335.1 198.117 335.162 198.117 335.225C198.135 346.455 198.905 357.237 200.427 367.572C200.745 369.734 200.944 371.204 201.021 371.98C201.028 372.043 201.057 372.1 201.105 372.142C201.128 372.162 201.155 372.177 201.184 372.186C201.213 372.195 201.244 372.198 201.274 372.195C205.097 371.865 208.924 371.665 212.757 371.597C213.795 371.573 214.833 371.625 215.863 371.751ZM225.157 339.924C224.904 339.472 224.729 339.492 224.633 339.984C223.957 343.436 223.324 346.896 222.734 350.363C222.17 353.676 221.755 356.763 221.49 359.624C221.175 363.062 220.947 366.493 220.807 369.918C220.779 370.641 221.048 370.766 221.616 370.292L224.469 367.918C224.611 367.803 224.722 367.654 224.792 367.486C224.86 367.325 224.882 367.15 224.858 366.978C224.67 365.781 224.596 364.811 224.633 364.065C224.911 357.988 225.933 351.857 227.701 345.674C227.848 345.16 227.759 344.611 227.435 344.028L225.157 339.924ZM176.348 352.467C176.875 352.623 177.497 352.579 178.214 352.336C178.436 352.261 178.453 352.152 178.266 352.008C177.059 351.104 176.889 350.09 177.756 348.965C178.109 348.513 178.498 348.262 178.925 348.212C179.499 348.147 179.957 348.443 180.3 349.101C180.899 350.26 180.67 351.197 179.613 351.91C178.951 352.356 178.991 352.59 179.73 352.612L196.414 353.093C196.573 353.097 196.728 353.052 196.859 352.963C196.99 352.873 197.09 352.745 197.144 352.597C197.179 352.498 197.194 352.393 197.186 352.289L196.569 343.607C196.56 343.49 196.507 343.38 196.42 343.3C196.333 343.22 196.219 343.176 196.101 343.177C189.334 343.339 182.499 343.09 175.595 342.429C175.541 342.425 175.488 342.431 175.436 342.447C175.385 342.464 175.338 342.49 175.297 342.526C175.257 342.561 175.224 342.604 175.201 342.653C175.178 342.702 175.166 342.754 175.165 342.808C175.146 343.581 175.204 344.391 175.338 345.239C175.69 347.49 175.906 349.743 175.988 351.999C175.992 352.105 176.029 352.206 176.094 352.29C176.158 352.374 176.247 352.436 176.348 352.467ZM245.13 344.814C240.702 344.751 236.275 344.739 231.85 344.776C231.813 344.776 231.375 344.725 230.536 344.622C229.775 344.528 229.337 344.888 229.222 345.702L229.119 346.431C228.67 348.552 228.166 350.661 227.608 352.756C227.591 352.82 227.599 352.887 227.631 352.945C227.663 353.003 227.715 353.046 227.778 353.065C227.82 353.079 227.864 353.082 227.907 353.074C231.736 352.348 235.232 351.244 238.394 349.76C241.243 348.423 244.026 346.951 246.734 345.347C247.189 345.078 247.186 344.926 246.724 344.888C246.194 344.848 245.662 344.823 245.13 344.814Z" fill="#1E2E34"/>
<path d="M224.244 187.484C225.634 189.7 226.557 192.176 226.957 194.761C227.36 197.371 227.238 200.035 226.598 202.597C225.948 205.194 224.801 207.641 223.219 209.801C221.623 211.982 219.627 213.84 217.336 215.275C215.047 216.712 212.504 217.699 209.845 218.186C207.211 218.669 204.507 218.637 201.885 218.091C199.298 217.552 196.845 216.503 194.67 215.004C192.516 213.519 190.687 211.61 189.296 209.395C187.907 207.179 186.983 204.703 186.582 202.119C186.18 199.509 186.302 196.845 186.943 194.283C187.592 191.686 188.739 189.239 190.321 187.079C191.917 184.897 193.913 183.039 196.204 181.604C198.494 180.168 201.036 179.18 203.695 178.694C206.329 178.21 209.032 178.242 211.654 178.789C214.241 179.327 216.695 180.377 218.871 181.875C221.024 183.361 222.853 185.269 224.244 187.484ZM225.653 197.21C225.693 196.385 225.557 195.698 225.246 195.153C224.934 194.604 224.586 194.517 224.203 194.891C224.098 195.002 224.035 195.146 224.025 195.298C223.985 195.815 223.953 196.712 223.932 197.986C223.878 201.284 222.736 204.097 220.503 206.425C219.811 207.145 219.121 207.638 218.436 207.907C217.566 208.243 216.688 208.312 215.802 208.112C214.729 207.869 213.73 207.235 212.804 206.21C211.946 205.257 211.302 204.131 210.914 202.909C209.948 199.945 209.873 196.874 210.69 193.695C210.697 193.664 210.698 193.632 210.692 193.601C210.686 193.57 210.673 193.54 210.655 193.515C210.636 193.489 210.611 193.468 210.583 193.453C210.555 193.438 210.525 193.43 210.493 193.428L189.772 192.213C189.63 192.202 189.489 192.238 189.37 192.316C189.251 192.394 189.16 192.509 189.113 192.643C187.841 196.217 187.646 199.859 188.528 203.568C189.613 208.115 192.284 211.679 196.541 214.26C200.07 216.401 203.821 217.269 207.79 216.864C210.908 216.546 213.833 215.539 216.565 213.844C220.746 211.251 223.583 207.397 225.073 202.283C225.397 201.163 225.571 199.854 225.597 198.356C225.597 198.309 225.615 197.927 225.653 197.21ZM218.609 194.812C217.895 194.578 217.628 194.845 217.809 195.611C218.031 196.549 218.384 196.484 218.871 195.415C218.896 195.358 218.91 195.296 218.911 195.234C218.911 195.141 218.882 195.05 218.827 194.974C218.773 194.899 218.697 194.842 218.609 194.812ZM220.554 199.515C220.71 199.529 220.867 199.495 221.003 199.418C221.165 199.328 221.305 199.204 221.414 199.054C221.538 198.893 221.642 198.698 221.723 198.479C221.888 198.026 221.937 197.539 221.867 197.063C221.836 196.846 221.774 196.635 221.681 196.437C221.603 196.269 221.491 196.119 221.351 195.998C221.233 195.895 221.086 195.831 220.93 195.812C220.773 195.799 220.616 195.833 220.479 195.91C220.317 196 220.177 196.124 220.068 196.273C219.937 196.449 219.833 196.642 219.76 196.848C219.595 197.301 219.546 197.788 219.616 198.265C219.651 198.496 219.713 198.708 219.802 198.89C219.89 199.074 220.003 199.222 220.132 199.33C220.25 199.433 220.397 199.497 220.554 199.515ZM160.513 230.823C160.268 230.846 160.02 230.81 159.791 230.718C159.548 230.62 159.328 230.472 159.146 230.284C158.949 230.081 158.789 229.846 158.675 229.587C158.555 229.317 158.48 229.028 158.451 228.734C158.393 228.133 158.532 227.537 158.837 227.079C159.142 226.621 159.588 226.337 160.076 226.29C160.319 226.266 160.565 226.302 160.799 226.394C161.033 226.487 161.253 226.634 161.444 226.828C161.636 227.022 161.796 227.259 161.915 227.525C162.034 227.791 162.11 228.081 162.139 228.378C162.197 228.98 162.058 229.575 161.754 230.033C161.449 230.492 161.002 230.775 160.513 230.823ZM160.162 228.811C160.227 228.849 160.309 228.849 160.392 228.811C160.481 228.769 160.555 228.7 160.603 228.613C160.629 228.57 160.648 228.522 160.66 228.473C160.672 228.424 160.676 228.377 160.672 228.333C160.669 228.291 160.657 228.25 160.637 228.213C160.618 228.18 160.592 228.152 160.559 228.133C160.495 228.095 160.412 228.095 160.33 228.133C160.24 228.175 160.166 228.244 160.118 228.331C160.068 228.415 160.044 228.513 160.049 228.611C160.052 228.653 160.064 228.694 160.085 228.731C160.103 228.764 160.13 228.792 160.162 228.811ZM167.265 232.685C166.782 233.779 167.178 235.012 168.15 235.441C169.121 235.869 170.299 235.329 170.782 234.236C171.265 233.142 170.868 231.908 169.897 231.48C168.926 231.052 167.747 231.591 167.265 232.685ZM184.281 264.857C185.394 265.696 185.68 266.541 185.137 267.391C184.791 267.936 184.173 268.275 183.285 268.406C182.384 268.54 181.355 268.607 180.198 268.607C180.064 268.609 179.934 268.563 179.83 268.479C179.727 268.394 179.656 268.275 179.632 268.144C179.531 267.622 179.478 267.091 179.473 266.559C179.463 265.721 179.482 265.197 179.529 264.988C179.694 264.262 180.268 263.901 181.25 263.904C182.432 263.907 183.442 264.225 184.281 264.857ZM200.507 269.098C200.352 269.066 200.213 268.981 200.114 268.858C200.014 268.736 199.959 268.583 199.96 268.425V265.199C199.959 265.119 199.986 265.041 200.035 264.979C200.084 264.916 200.153 264.871 200.231 264.853C202.245 264.341 203.901 264.776 205.198 266.157C205.657 266.646 205.701 267.17 205.329 267.728C204.852 268.448 204.196 268.873 203.36 269.004C203.18 269.032 202.708 269.086 201.948 269.163C201.467 269.217 200.981 269.195 200.507 269.098ZM241.776 269.822C241.496 269.42 241.336 268.947 241.313 268.457C241.295 267.995 241.282 267.532 241.275 267.069C241.26 266.122 241.692 265.603 242.571 265.512C242.995 265.468 243.588 265.482 244.348 265.554C245.508 265.666 246.43 266.159 247.113 267.031C247.973 268.125 247.741 268.976 246.416 269.584C245.034 270.22 243.608 270.379 242.136 270.061C242.063 270.047 241.994 270.019 241.932 269.978C241.87 269.937 241.817 269.884 241.776 269.822ZM218.915 270.599C218.508 273.569 220.055 276.234 222.371 276.551C224.687 276.868 226.895 274.717 227.302 271.748C227.709 268.778 226.162 266.113 223.845 265.796C221.529 265.478 219.321 267.629 218.915 270.599ZM371.331 362.57C371.387 362.869 371.513 363.377 371.71 364.094C372.044 365.328 371.576 366.361 370.307 367.193C369.019 368.035 367.5 368.276 365.751 367.918C358.751 366.481 352.743 363.306 347.729 358.39C346.665 357.35 346.003 356.413 345.741 355.581C345.491 354.78 345.441 353.931 345.596 353.107C345.733 352.308 346.091 351.563 346.63 350.957C347.82 349.611 349.41 349.169 351.396 349.634C351.547 349.668 351.704 349.653 351.84 349.592C355.823 347.743 360.389 346.841 365.54 346.885C371.53 346.925 377.465 348.023 383.071 350.13C385.887 351.18 387.985 352.757 389.367 354.861C390.212 356.151 390.095 357.495 389.016 358.895C387.866 360.382 386.16 361.362 383.899 361.836C379.834 362.692 375.656 362.873 371.532 362.373C371.504 362.37 371.476 362.372 371.449 362.381C371.423 362.389 371.399 362.404 371.379 362.423C371.36 362.442 371.345 362.465 371.336 362.491C371.328 362.517 371.326 362.544 371.331 362.57ZM363.347 360.223C365.264 360.086 367.438 360.198 369.867 360.559C374.039 361.179 378.408 361.122 382.973 360.386C384.555 360.142 386.034 359.453 387.239 358.4C387.919 357.811 388.219 357.145 388.142 356.403C388.083 355.868 387.752 355.305 387.15 354.716C385.541 353.151 383.591 351.992 381.299 351.237C374.716 349.071 368.06 348.244 361.331 348.755C359.438 348.898 357.704 349.202 356.129 349.667C354.439 350.162 353 350.99 351.812 352.149C350.536 353.396 349.488 354.856 348.716 356.464C348.683 356.531 348.664 356.604 348.662 356.679C348.66 356.75 348.675 356.821 348.706 356.885C348.98 357.462 349.476 358.033 350.194 358.601C354.144 361.724 358.281 363.965 362.603 365.323C364.171 365.819 365.711 366.134 367.22 366.268C367.917 366.336 368.619 366.189 369.231 365.847C370.407 365.202 370.522 364.393 369.577 363.421C368.838 362.657 368.116 362.21 367.411 362.079C365.594 361.739 364.394 361.496 363.814 361.35C363.328 361.225 363.088 360.932 363.094 360.471C363.094 360.407 363.12 360.346 363.167 360.3C363.216 360.254 363.279 360.226 363.347 360.223Z" fill="#1E2E34"/>
</svg>
