<svg width="610" height="603" viewBox="0 0 610 603" fill="none" xmlns="http://www.w3.org/2000/svg">
<g opacity="0.05" clip-path="url(#clip0_280_9744)">
<mask id="mask0_280_9744" style="mask-type:luminance" maskUnits="userSpaceOnUse" x="0" y="-7" width="610" height="610">
<path d="M610 -7H0V603H610V-7Z" fill="white"/>
</mask>
<g mask="url(#mask0_280_9744)">
<path fill-rule="evenodd" clip-rule="evenodd" d="M0 142.45H83.875H85.4V142.433C120.912 141.622 149.45 112.581 149.45 76.875V-7H167.75V78.4C167.75 113.774 196.426 142.45 231.8 142.45C267.174 142.45 295.85 113.774 295.85 78.4V-7H314.15V78.4C314.15 113.774 342.826 142.45 378.2 142.45C413.574 142.45 442.25 113.774 442.25 78.4V-7H463.6V78.4C463.6 113.774 492.276 142.45 527.65 142.45H610V160.75H524.6C489.226 160.75 460.55 189.426 460.55 224.8C460.55 260.174 489.226 288.85 524.6 288.85H610V307.15H524.6C489.226 307.15 460.55 335.826 460.55 371.2C460.55 406.574 489.226 435.25 524.6 435.25H610V453.55H527.65C492.276 453.55 463.6 482.226 463.6 517.6V520.65V603H442.25V517.6C442.25 482.226 413.574 453.55 378.2 453.55C342.826 453.55 314.15 482.226 314.15 517.6V603H295.85V517.6C295.85 482.226 267.174 453.55 231.8 453.55C196.426 453.55 167.75 482.226 167.75 517.6V603H149.45V519.125C149.45 483.419 120.912 454.377 85.4 453.568V453.55H83.875H0V435.25H85.4C120.774 435.25 149.45 406.574 149.45 371.2C149.45 335.826 120.774 307.15 85.4 307.15H0V288.85H85.4C120.774 288.85 149.45 260.174 149.45 224.8C149.45 189.426 120.774 160.75 85.4 160.75H0V142.45ZM231.8 288.85C267.174 288.85 295.85 260.174 295.85 224.8C295.85 189.426 267.174 160.75 231.8 160.75C196.426 160.75 167.75 189.426 167.75 224.8C167.75 260.174 196.426 288.85 231.8 288.85ZM378.2 288.85C413.574 288.85 442.25 260.174 442.25 224.8C442.25 189.426 413.574 160.75 378.2 160.75C342.826 160.75 314.15 189.426 314.15 224.8C314.15 260.174 342.826 288.85 378.2 288.85ZM295.85 371.2C295.85 406.574 267.174 435.25 231.8 435.25C196.426 435.25 167.75 406.574 167.75 371.2C167.75 335.826 196.426 307.15 231.8 307.15C267.174 307.15 295.85 335.826 295.85 371.2ZM378.2 435.25C413.574 435.25 442.25 406.574 442.25 371.2C442.25 335.826 413.574 307.15 378.2 307.15C342.826 307.15 314.15 335.826 314.15 371.2C314.15 406.574 342.826 435.25 378.2 435.25Z" fill="url(#paint0_linear_280_9744)"/>
</g>
</g>
<defs>
<linearGradient id="paint0_linear_280_9744" x1="62.525" y1="41.8" x2="305" y2="603" gradientUnits="userSpaceOnUse">
<stop stop-color="#ACAAFF"/>
<stop offset="1" stop-color="#C0E8FF"/>
</linearGradient>
<clipPath id="clip0_280_9744">
<rect width="610" height="610" fill="white" transform="translate(0 -7)"/>
</clipPath>
</defs>
</svg>
