<svg width="40" height="40" viewBox="0 0 40 40" fill="none" xmlns="http://www.w3.org/2000/svg">
<path d="M21.6521 9.69487L18.1871 9.67487L16.9561 9.67187C16.935 9.67164 16.9141 9.67559 16.8945 9.68349C16.8749 9.69138 16.8571 9.70307 16.8421 9.71787C16.812 9.74819 16.7951 9.78916 16.7951 9.83187C16.794 10.4697 16.7479 11.1066 16.6571 11.7379C16.6261 11.9549 16.5671 12.1179 16.4821 12.2259C16.3656 12.3723 16.2078 12.4804 16.0291 12.5359C16.0111 12.5416 15.9921 12.5435 15.9733 12.5414C15.9545 12.5394 15.9364 12.5334 15.9201 12.5239C15.7721 12.4262 15.6359 12.3117 15.5141 12.1829C15.1081 11.7779 14.5601 11.3109 13.8691 10.7809C12.2154 9.51538 10.6734 8.11022 9.26008 6.58087C9.23426 6.55384 9.21931 6.51824 9.21808 6.48087C9.20908 6.12487 9.37508 5.91087 9.71608 5.83887C10.0131 5.77687 10.3021 5.84987 10.5831 6.05887C10.6011 6.07187 10.6181 6.07787 10.6331 6.07587C10.6501 6.07487 10.6601 6.06587 10.6641 6.05087C10.6661 6.04146 10.6651 6.03164 10.6611 6.02287C10.6557 6.01156 10.6483 6.00138 10.6391 5.99287C10.4361 5.78787 10.4171 5.57287 10.5831 5.34487C10.7311 5.14187 10.9481 4.93387 11.2341 4.72187L11.8421 4.26887C13.0747 3.28405 14.3117 2.3047 15.5531 1.33087C15.7756 1.15555 16.0412 1.0433 16.3221 1.00587C16.5381 0.975872 16.6891 1.06087 16.7751 1.25987C16.8911 1.53187 16.9501 1.82487 16.9511 2.13887L16.9531 2.58287C16.9801 3.14687 17.0041 3.71987 17.0261 4.30187C17.0264 4.31155 17.0288 4.32105 17.0329 4.32982C17.037 4.33858 17.0429 4.34642 17.0501 4.35287C17.0574 4.35931 17.066 4.36415 17.0753 4.36707C17.0846 4.37 17.0944 4.37095 17.1041 4.36987C18.6218 4.22297 20.1446 4.13424 21.6691 4.10387C22.6721 4.08387 23.2261 4.08387 23.3341 4.10687C24.0241 4.25087 24.3941 4.76887 24.4441 5.66187C24.4651 6.03387 24.4741 6.40587 24.4711 6.77887L24.4811 7.43387C24.4871 7.91387 24.4201 8.30387 24.2811 8.60287C23.9681 9.26887 23.4271 9.62487 22.6591 9.67087C22.324 9.69441 21.9879 9.70242 21.6521 9.69487ZM17.6311 6.24487C17.3991 6.25287 17.1041 6.19987 16.7471 6.08487C16.5752 6.02783 16.3994 5.98338 16.2211 5.95187C16.0413 5.9211 15.8625 5.88441 15.6851 5.84187C15.5688 5.82013 15.4621 5.76287 15.3798 5.67798C15.2974 5.59309 15.2433 5.48475 15.2251 5.36787C15.1454 4.97895 15.1058 4.58287 15.1071 4.18587C15.1071 4.10287 15.0761 4.08987 15.0141 4.14587C14.5001 4.62087 13.9621 5.07087 13.4011 5.49587C12.8711 5.89587 12.5501 6.12387 12.4351 6.18087C12.0617 6.35997 11.6498 6.44413 11.2361 6.42587C11.1531 6.42387 11.1451 6.44787 11.2131 6.49787L14.7611 9.13387C14.7691 9.14087 14.7791 9.14387 14.7911 9.14587C14.8018 9.14737 14.8128 9.14634 14.8231 9.14287C14.8339 9.13871 14.8437 9.1324 14.8519 9.12432C14.8602 9.11623 14.8667 9.10656 14.8711 9.09587L15.1651 8.35687C15.1846 8.31028 15.216 8.26961 15.2561 8.23887C15.3007 8.20417 15.3522 8.17929 15.4071 8.16587C15.804 8.06691 16.2042 7.98186 16.6071 7.91087C16.9711 7.84487 17.3761 7.80787 17.8201 7.79987C19.3541 7.76987 20.9211 7.77587 22.5211 7.81687C22.529 7.81714 22.5368 7.81581 22.5441 7.81296C22.5515 7.8101 22.5581 7.80578 22.5638 7.80026C22.5694 7.79474 22.5738 7.78814 22.5768 7.78085C22.5798 7.77356 22.5812 7.76574 22.5811 7.75787L22.5381 6.19487C22.5341 6.04887 22.4581 5.97787 22.3131 5.98287C21.1623 6.01608 20.0126 6.07877 18.8651 6.17087C18.4551 6.20387 18.0431 6.22887 17.6311 6.24487Z" fill="#1F212C"/>
<path d="M32.1751 11.9649C32.3781 12.1499 32.5191 12.3779 32.5951 12.6499C32.5997 12.6674 32.5998 12.6858 32.5952 12.7033C32.5907 12.7208 32.5817 12.7369 32.5691 12.7499C32.4491 12.8719 32.2841 12.9649 32.0761 13.0299C31.8631 13.0979 31.6861 13.2449 31.5431 13.4729C31.4591 13.6089 31.2691 13.7929 30.9741 14.0229C29.0921 15.5029 27.5071 16.6969 26.2191 17.6059C25.8571 17.8619 25.5411 17.8179 25.2721 17.4739C25.1861 17.3639 25.1211 17.1119 25.0781 16.7219C25.0386 16.361 24.992 16.0009 24.9381 15.6419C24.9296 15.5862 24.9033 15.5349 24.8631 15.4955C24.8228 15.4562 24.7709 15.4311 24.7151 15.4239C24.0925 15.3384 23.4645 15.2989 22.8361 15.3059C21.5231 15.3229 20.2101 15.3619 18.8971 15.4229C18.5027 15.4447 18.1107 15.3486 17.7711 15.1469C17.7387 15.1275 17.7139 15.0974 17.7011 15.0619C17.5709 14.7095 17.4155 14.3669 17.2361 14.0369C16.9729 13.5594 16.8607 13.0134 16.9141 12.4709C16.9411 12.1769 16.9561 11.8819 16.9601 11.5859C16.9681 11.1039 17.1611 10.7039 17.5421 10.3859C17.7061 10.2489 17.8701 10.1379 18.0351 10.0529C18.1831 9.97587 18.3721 9.93487 18.6001 9.92987C20.7161 9.88687 22.8311 9.84287 24.9461 9.79687C24.9623 9.79647 24.9778 9.79046 24.9901 9.77987C25.0023 9.76902 25.0101 9.75409 25.0121 9.73787C25.1001 8.98687 25.1291 8.23387 25.0991 7.47887C25.0891 7.23287 25.0991 7.06387 25.1291 6.97387C25.1891 6.78387 25.3161 6.65387 25.5091 6.58387C25.8011 6.47887 26.0291 6.54087 26.1911 6.77087C26.2611 6.86887 26.3471 6.95087 26.4471 7.01687C27.1893 7.50164 27.8879 8.05004 28.5351 8.65587C29.372 9.44565 30.2245 10.2188 31.0921 10.9749C31.4201 11.2569 31.6861 11.5009 31.8921 11.7079L32.1751 11.9649ZM24.2951 11.7849C23.5101 11.7499 22.9351 11.7429 22.5701 11.7629C21.3591 11.8319 20.1531 11.8629 18.9521 11.8589C18.9224 11.8584 18.8937 11.8695 18.8721 11.8899C18.8511 11.9101 18.8389 11.9377 18.8381 11.9669L18.7881 13.4659C18.7871 13.4729 18.7881 13.4809 18.7911 13.4879C18.7942 13.4947 18.7986 13.5009 18.8041 13.5061C18.8096 13.5112 18.816 13.5152 18.8231 13.5179C18.8301 13.5207 18.8376 13.5221 18.8451 13.5219C20.4321 13.4619 22.0191 13.4319 23.6061 13.4319C23.9661 13.4319 24.3261 13.4549 24.6831 13.4989C24.9131 13.5269 25.1371 13.5009 25.3561 13.4209C25.8581 13.2349 26.2391 13.3169 26.4991 13.6669C26.6011 13.8049 26.6761 14.0009 26.7231 14.2569C26.7621 14.4659 26.7891 14.6769 26.8051 14.8899C26.8121 14.9819 26.8511 14.9979 26.9221 14.9379C27.9909 14.0423 29.1047 13.2019 30.2591 12.4199C30.2703 12.4125 30.2786 12.4015 30.2826 12.3888C30.2866 12.376 30.286 12.3623 30.2811 12.3499C30.2776 12.3414 30.2721 12.3338 30.2651 12.3279C29.2283 11.4146 28.1576 10.5406 27.0551 9.70787C26.9761 9.64987 26.9351 9.66787 26.9331 9.76287L26.8931 10.8969C26.8861 11.1109 26.8031 11.2709 26.6481 11.3769C26.4481 11.5149 26.2381 11.6229 26.0181 11.6999C25.7947 11.7684 25.5617 11.8005 25.3281 11.7949C24.8261 11.7979 24.4831 11.7949 24.2951 11.7849ZM12.2041 18.0069L13.1821 17.9569C16.6571 17.9049 20.1321 17.9069 23.6061 17.9609C24.3921 17.9729 25.1821 17.9709 25.9761 17.9549C28.8361 17.8949 31.3341 17.8849 33.4681 17.9229C33.6521 17.9259 33.8681 17.9879 34.1131 18.1069C34.3031 18.1999 34.4461 18.3139 34.5401 18.4509C34.5901 18.5209 34.6341 18.6889 34.6731 18.9529C34.7051 19.1689 34.7731 19.3919 34.8771 19.6219C34.9601 19.8059 35.0011 19.9999 35.0001 20.2019C34.9917 22.4392 34.9567 24.6764 34.8951 26.9129C34.8811 27.3939 34.8511 28.1789 34.8031 29.2689C34.6941 31.7439 34.6551 34.2189 34.6861 36.6969C34.6911 37.0609 34.6691 37.4349 34.6201 37.8169C34.617 37.8379 34.6059 37.8569 34.5891 37.8699C34.5807 37.8764 34.571 37.8812 34.5607 37.8839C34.5504 37.8867 34.5396 37.8873 34.5291 37.8859C34.372 37.869 34.2185 37.8278 34.0741 37.7639C33.9611 37.7119 33.8561 37.6059 33.7581 37.4459C33.6751 37.3095 33.5873 37.1761 33.4951 37.0459C33.4727 37.0149 33.4395 36.9935 33.4021 36.9859C33.1843 36.9385 32.9592 36.9351 32.74 36.976C32.5209 37.0169 32.3122 37.1011 32.1261 37.2239C32.0935 37.245 32.0559 37.2571 32.0171 37.2589C30.5471 37.3269 29.0811 37.4459 27.6201 37.6149C26.7941 37.7109 26.0321 37.7709 25.3311 37.7949C23.7088 37.8533 22.087 37.9267 20.4661 38.0149C19.5961 38.0619 18.8071 38.0959 18.0991 38.1169C16.1341 38.1749 14.1691 38.2319 12.2041 38.2859C11.6931 38.2989 10.9041 38.3299 9.83608 38.3789C8.87908 38.4229 7.92108 38.4509 6.96408 38.4639C6.9435 38.464 6.92313 38.468 6.90408 38.4759C6.88784 38.4823 6.8739 38.4934 6.86408 38.5079L6.58908 38.9399C6.57086 38.9688 6.54221 38.9895 6.50908 38.9979C6.49356 39.0013 6.47744 39.001 6.46208 38.9969C6.44726 38.9928 6.4338 38.9849 6.42308 38.9739C6.20598 38.7556 6.00448 38.5224 5.82008 38.2759C5.61787 38.0175 5.51912 37.6931 5.54308 37.3659C5.56808 37.0029 5.58008 36.8059 5.57908 36.7719C5.48908 34.7999 5.43108 32.8259 5.40508 30.8519C5.39531 30.072 5.36797 29.2925 5.32308 28.5139C5.274 27.7349 5.238 26.9551 5.21508 26.1749C5.18008 24.2199 5.11108 22.2659 5.00808 20.3139C4.98308 19.8519 5.01808 19.5009 5.11008 19.2639C5.27208 18.8479 5.55508 18.5469 5.95908 18.3579C6.19508 18.2479 6.55808 18.1879 7.04608 18.1779C8.76608 18.1429 10.4861 18.0859 12.2041 18.0069ZM21.5111 19.8619C17.6761 19.7929 13.7871 19.8469 9.84208 20.0219C9.65008 20.0319 9.63408 20.0889 9.79208 20.1959C10.8361 20.8959 11.9021 21.5559 12.9911 22.1739C14.0481 22.7739 15.0561 23.4449 16.0151 24.1889C16.1531 24.2949 16.3861 24.4669 16.7161 24.7059C16.9271 24.8589 17.1581 25.0359 17.4101 25.2389C17.9051 25.6399 18.4551 26.0339 19.0601 26.4199C19.2701 26.5549 19.5341 26.7539 19.8511 27.0169C20.3111 27.3989 20.8281 27.7109 21.4011 27.9529C21.4331 27.9663 21.4688 27.9679 21.5018 27.9573C21.5349 27.9466 21.563 27.9245 21.5811 27.8949C21.6281 27.8179 21.6811 27.7349 21.7391 27.6479C21.7931 27.5669 21.8561 27.4899 21.9281 27.4179C23.3571 25.9973 24.8486 24.6409 26.3981 23.3529C27.1741 22.7109 27.8371 22.1529 28.3861 21.6789C28.7931 21.3289 29.2371 20.9679 29.7191 20.5969C30.1731 20.2478 30.6199 19.8894 31.0591 19.5219C31.1231 19.4689 31.1991 19.4169 31.2851 19.3659C31.3634 19.3196 31.4402 19.2705 31.5151 19.2189C31.6121 19.1519 31.6021 19.1139 31.4841 19.1049C30.939 19.0652 30.3911 19.1087 29.8591 19.2339C29.4431 19.3309 29.1191 19.3899 28.8871 19.4109C27.9891 19.4909 27.0911 19.5809 26.1931 19.6779C25.2731 19.7779 24.4941 19.8359 23.8571 19.8529C23.0753 19.8734 22.2931 19.8768 21.5111 19.8629V19.8619ZM15.7411 26.0139C14.3638 25.1998 12.9831 24.3914 11.5991 23.5889C10.4177 22.9024 9.27406 22.153 8.17308 21.3439C7.82062 21.0851 7.43436 20.8758 7.02508 20.7219C7.01908 20.7189 7.01308 20.7179 7.00608 20.7189C6.99646 20.7204 6.98773 20.7254 6.98163 20.733C6.97552 20.7406 6.97247 20.7502 6.97308 20.7599C7.0498 21.984 7.10048 23.2096 7.12508 24.4359C7.14308 25.3379 7.16808 26.1229 7.20208 26.7929C7.24711 27.5882 7.27579 28.3844 7.28808 29.1809C7.28608 30.4709 7.22608 31.5409 7.11008 32.3939C7.04508 32.8769 7.00108 33.3159 6.97908 33.7089C6.93708 34.4509 6.90908 34.8889 6.89408 35.0249C6.84808 35.4499 6.79608 35.8949 6.73808 36.3569C6.73472 36.3815 6.73678 36.4066 6.74412 36.4304C6.75145 36.4541 6.76388 36.476 6.78054 36.4945C6.79721 36.513 6.8177 36.5276 6.84059 36.5373C6.86348 36.5471 6.88822 36.5517 6.91308 36.5509C7.75922 36.5408 8.60506 36.5135 9.45008 36.4689C11.5321 36.3589 13.6151 36.2969 15.6991 36.2839C17.0621 36.2759 18.7211 36.2189 20.6751 36.1139C21.4644 36.0709 22.2546 36.0442 23.0451 36.0339C26.4951 35.9939 28.6461 35.9589 29.5001 35.9309C30.8841 35.8839 32.1751 35.9669 33.3721 36.1779C33.3787 36.179 33.3856 36.1786 33.392 36.1766C33.3985 36.1747 33.4044 36.1712 33.4092 36.1665C33.4141 36.1619 33.4178 36.1561 33.42 36.1497C33.4223 36.1434 33.423 36.1366 33.4221 36.1299C33.3156 35.5039 33.1858 34.8822 33.0331 34.2659C32.9295 33.8637 32.8626 33.4531 32.8331 33.0389C32.7588 31.736 32.7739 30.4297 32.8781 29.1289C32.9231 28.5619 32.9511 28.1439 32.9611 27.8749C32.9771 27.4549 32.9901 27.0359 32.9991 26.6169C33.0441 24.4949 33.0921 22.3609 33.1441 20.2159C33.1461 20.0989 33.1141 20.0889 33.0501 20.1859C32.9695 20.3069 32.8827 20.4237 32.7901 20.5359C32.7081 20.6359 32.6041 20.7359 32.4801 20.8399C31.8546 21.3568 31.2161 21.8576 30.5651 22.3419C28.5058 23.8723 26.4398 25.3937 24.3671 26.9059L23.9341 27.2369C23.4478 27.6119 22.9032 27.9044 22.3221 28.1029C22.2089 28.1468 22.0837 28.149 21.9691 28.1089C21.8461 28.0629 21.8121 28.1029 21.8661 28.2289L22.2741 29.1799C22.2789 29.1916 22.2806 29.2043 22.2791 29.2169C22.278 29.2296 22.2738 29.242 22.2671 29.2529C22.2596 29.2642 22.2499 29.2738 22.2385 29.2812C22.2272 29.2886 22.2144 29.2936 22.2011 29.2959C21.9234 29.3544 21.6339 29.3126 21.3841 29.1779L21.1261 29.0379C20.7291 28.8519 20.3411 28.6479 19.9621 28.4299L18.8261 27.7759C17.7886 27.2041 16.7598 26.6167 15.7401 26.0139H15.7411Z" fill="#1F212C"/>
</svg>
