<svg width="40" height="40" viewBox="0 0 40 40" fill="none" xmlns="http://www.w3.org/2000/svg">
<path d="M19.2519 6.07316L20.4329 6.13716C20.4409 6.13755 20.4488 6.13624 20.4562 6.13331C20.4636 6.13038 20.4703 6.12589 20.4759 6.12016C20.4816 6.11399 20.4861 6.10675 20.489 6.09886C20.4919 6.09096 20.4932 6.08257 20.4929 6.07416C20.4656 5.21177 20.4522 4.34899 20.4529 3.48616C20.4529 3.25616 20.5129 3.04416 20.6369 2.84816C20.7399 2.68416 20.8999 2.54716 21.1179 2.43616C21.4129 2.28816 21.6849 2.21116 21.9329 2.20716C23.2017 2.18479 24.4688 2.10236 25.7299 1.96016C25.8817 1.94447 26.0235 1.87661 26.1309 1.76816C26.5239 1.37816 26.9709 1.14016 27.4739 1.05516C27.7959 1.00116 28.1119 0.987163 28.4219 1.01316C28.7809 1.04316 29.0829 1.16016 29.3299 1.36316C30.1239 2.01516 30.3879 2.87516 30.1229 3.94316C29.9959 4.45616 29.7619 4.86316 29.4209 5.16516C29.1109 5.43816 28.7009 5.59516 28.1899 5.63716C27.0229 5.73116 26.1529 5.21716 25.5789 4.09516C25.5709 4.0787 25.5584 4.06483 25.5429 4.05516C25.5275 4.04619 25.5097 4.04202 25.4919 4.04316L22.4779 4.18216C22.4615 4.18287 22.446 4.19006 22.4349 4.20216C22.4235 4.2151 22.4178 4.232 22.4189 4.24916C22.4379 4.85216 22.4109 5.50216 22.3399 6.19916C22.3366 6.22749 22.3434 6.25607 22.3592 6.27986C22.3749 6.30364 22.3985 6.3211 22.4259 6.32916C22.9919 6.48916 23.5749 6.66916 24.1739 6.86616C25.5324 7.31034 26.805 7.98336 27.9369 8.85616C28.3129 9.14616 28.6799 9.44416 29.0399 9.75316C29.4169 10.0782 29.7519 10.4112 30.0459 10.7532C30.9664 11.8285 31.7451 13.0176 32.3629 14.2912C32.5759 14.7292 32.7329 15.1752 32.8339 15.6272C32.8659 15.7702 32.9599 15.8532 33.1159 15.8772L34.2639 16.0502C34.2982 16.0555 34.3333 16.0495 34.3639 16.0332C34.3939 16.0177 34.4176 15.9922 34.4309 15.9612C34.8509 14.9312 35.5799 14.3472 36.6209 14.2042C37.2809 14.1142 37.8169 14.3442 38.2269 14.8952C38.8329 15.7072 38.9679 16.5232 38.6329 17.3432C38.4089 17.8912 38.0689 18.3012 37.6129 18.5732C37.1249 18.8652 36.5619 18.9452 35.9229 18.8162C35.4149 18.7122 34.9879 18.4412 34.6409 18.0012C34.5149 17.8412 34.3769 17.7772 34.2269 17.8102L33.5109 17.9672C33.5032 17.9692 33.496 17.9729 33.4898 17.9778C33.4836 17.9828 33.4785 17.9891 33.4749 17.9962C33.4667 18.0115 33.4642 18.0292 33.4679 18.0462C33.6449 18.8572 33.7279 19.7062 33.7179 20.5902C33.7159 20.7662 33.7979 20.8852 33.9609 20.9462C34.2309 21.0452 34.4379 20.9562 34.5859 20.6812C34.9399 20.0212 35.5169 19.6172 36.3179 19.4722C36.8239 19.3802 37.2899 19.3912 37.7169 19.5042C38.0249 19.5862 38.2809 19.7482 38.4839 19.9912C38.6989 20.2482 38.8439 20.5322 38.9169 20.8422C39.0829 21.5432 39.0009 22.1682 38.6689 22.7172C38.3589 23.2332 37.9009 23.5882 37.2989 23.7832C36.4549 24.0552 35.6539 23.8492 34.8949 23.1652L34.7989 23.0692C34.7143 22.9827 34.611 22.917 34.4968 22.8771C34.3827 22.8372 34.2609 22.8242 34.1409 22.8392C33.9189 22.8602 33.7139 22.8822 33.5249 22.9072C33.4762 22.9133 33.4307 22.9347 33.395 22.9683C33.3592 23.0019 33.335 23.046 33.3259 23.0942C33.0233 24.6887 32.4457 26.2185 31.6189 27.6152C30.992 28.6805 30.1823 29.6269 29.2269 30.4112C27.3045 31.9992 25.0364 33.114 22.6049 33.6662C22.5591 33.6767 22.5182 33.7024 22.4889 33.7392C22.4604 33.7752 22.4455 33.8202 22.4469 33.8662L22.5029 35.5482C22.5033 35.5623 22.5067 35.5763 22.5129 35.589C22.5191 35.6018 22.528 35.6131 22.5389 35.6222C22.5489 35.6322 22.5629 35.6392 22.5769 35.6432C22.5911 35.6479 22.606 35.6499 22.6209 35.6492L25.6729 35.4812C25.712 35.4808 25.7497 35.467 25.7799 35.4422C25.9599 35.2902 26.1719 35.0752 26.4129 34.7952C26.7509 34.4052 27.1589 34.1602 27.6349 34.0622C28.0855 33.9722 28.5532 34.033 28.9659 34.2352C29.4359 34.4552 29.7999 34.7832 30.0559 35.2222C30.4569 35.9152 30.4599 36.6532 30.0639 37.4372C29.5659 38.4222 28.7589 38.8872 27.6439 38.8332C26.7779 38.7912 26.1509 38.3582 25.7639 37.5332C25.7483 37.4997 25.723 37.4716 25.6912 37.4527C25.6595 37.4338 25.6228 37.4249 25.5859 37.4272C24.4659 37.4972 23.3979 37.5852 22.3799 37.6922C21.2969 37.8042 20.7029 37.3232 20.5989 36.2472C20.5372 35.569 20.5085 34.8882 20.5129 34.2072C20.5129 34.1512 20.4929 34.0972 20.4579 34.0582C20.441 34.0388 20.4203 34.0231 20.3971 34.0121C20.3738 34.0011 20.3486 33.995 20.3229 33.9942L19.2799 33.9712C19.2661 33.9711 19.2524 33.9741 19.2398 33.9798C19.2272 33.9855 19.216 33.9938 19.2069 34.0042C19.1878 34.0263 19.1781 34.055 19.1799 34.0842C19.2149 34.5802 19.2349 35.0712 19.2409 35.5572C19.2469 36.0032 19.1919 36.3542 19.0749 36.6102C18.9011 37.0043 18.5942 37.3247 18.2079 37.5152C17.9659 37.6362 17.5779 37.7132 17.0419 37.7462C16.1547 37.7977 15.2688 37.8697 14.3849 37.9622C14.1549 37.9882 13.9349 38.0922 13.7249 38.2742C12.6909 39.1742 11.6219 39.2372 10.5169 38.4652C10.1289 38.1942 9.89689 37.7802 9.82089 37.2232C9.66089 36.0802 10.0539 35.2082 10.9959 34.6052C11.3266 34.3934 11.6944 34.2461 12.0799 34.1712C12.3229 34.1232 12.5519 34.1412 12.7649 34.2242C12.8979 34.2752 13.0889 34.3872 13.3399 34.5592C13.8349 34.8992 14.1849 35.3462 14.3899 35.8992C14.4031 35.9345 14.4278 35.9644 14.4599 35.9842C14.4929 36.0042 14.5299 36.0122 14.5679 36.0072C15.4371 35.8861 16.3125 35.8147 17.1899 35.7932C17.2065 35.7929 17.2227 35.7877 17.2363 35.778C17.2499 35.7684 17.2602 35.7548 17.2659 35.7392C17.2697 35.7286 17.2714 35.7174 17.2709 35.7062L17.1909 33.8832C17.1886 33.8418 17.1734 33.8021 17.1474 33.7698C17.1214 33.7375 17.0859 33.7142 17.0459 33.7032L15.8909 33.3882C15.5053 33.2896 15.1279 33.1615 14.7619 33.0052C14.1588 32.7449 13.5825 32.4268 13.0409 32.0552C12.2869 31.5262 11.5329 30.9972 10.7809 30.4672C10.5143 30.2789 10.2638 30.0688 10.0319 29.8392C9.92089 29.7292 9.69889 29.4922 9.36589 29.1292C7.79401 27.4265 6.69826 25.3398 6.18889 23.0792C6.18185 23.0489 6.16498 23.0218 6.14093 23.002C6.11687 22.9823 6.08698 22.9711 6.05589 22.9702C5.7975 22.9576 5.53905 22.9936 5.29389 23.0762C5.13989 23.1312 4.95189 23.2572 4.72989 23.4552C4.61689 23.5572 4.50289 23.6592 4.38789 23.7592C4.27582 23.8612 4.15073 23.948 4.01589 24.0172C3.37889 24.3252 2.75589 24.3102 2.14589 23.9712C1.68603 23.7246 1.33216 23.3184 1.15089 22.8292C0.977119 22.3719 0.952269 21.8714 1.07989 21.3992C1.21289 20.8792 1.49789 20.4422 1.93389 20.0892C2.16689 19.9002 2.42989 19.7922 2.72189 19.7642C2.97789 19.7412 3.25189 19.7642 3.54389 19.8312C4.05289 19.9502 4.49389 20.2542 4.86589 20.7442C5.09889 21.0502 5.43789 21.1372 5.88089 21.0062C5.89804 21.0012 5.91323 20.991 5.92434 20.9771C5.93545 20.9631 5.94193 20.946 5.94289 20.9282C5.96289 20.6452 5.97289 20.3622 5.97789 20.0802C5.98189 19.7042 5.99589 19.4212 6.01989 19.2322C6.06289 18.9002 6.12589 18.5502 6.20889 18.1822C6.25489 17.9802 6.17489 17.8682 5.96889 17.8472C5.72189 17.8222 5.48189 17.9472 5.24889 18.2242C4.87321 18.6766 4.36326 18.9978 3.79289 19.1412C3.21889 19.2912 2.64489 19.1902 2.07089 18.8402C1.79905 18.6829 1.56759 18.4645 1.39489 18.2022C1.25689 17.9822 1.17389 17.6952 1.14589 17.3412C1.07789 16.4532 1.37289 15.6852 2.02889 15.0372C2.45689 14.6132 2.97789 14.4202 3.58989 14.4592C4.11889 14.4922 4.56289 14.7012 4.92089 15.0852C5.11689 15.2962 5.29489 15.5102 5.45389 15.7282C5.4896 15.7772 5.53526 15.8181 5.58789 15.8482C5.63889 15.8772 5.69489 15.8932 5.75089 15.8962L6.71089 15.9412C6.74411 15.9422 6.77675 15.9323 6.80389 15.9132C6.83257 15.8923 6.85448 15.8634 6.86689 15.8302C8.09789 12.7032 10.1049 10.2302 12.8899 8.41216C14.3219 7.47616 15.7429 6.81216 17.1519 6.41816C17.1692 6.41321 17.1843 6.40265 17.1949 6.38816C17.2052 6.37433 17.2105 6.3574 17.2099 6.34016L17.1239 4.33916C17.1228 4.31219 17.116 4.28576 17.104 4.26162C17.0919 4.23748 17.0748 4.21619 17.0539 4.19916C17.0323 4.18103 17.0072 4.16743 16.9803 4.15919C16.9533 4.15094 16.9249 4.14821 16.8969 4.15116L14.0749 4.40116C14.0398 4.40429 14.006 4.41634 13.9769 4.43616C13.9487 4.45513 13.9263 4.4814 13.9119 4.51216C13.6209 5.13916 13.1689 5.53216 12.5569 5.69116C12.087 5.81979 11.5879 5.79099 11.1359 5.60916C10.6489 5.41416 10.2859 5.05416 10.0489 4.52916C9.8735 4.15481 9.81262 3.73699 9.87389 3.32816C9.92689 2.97616 10.0809 2.62016 10.3339 2.25816C10.6104 1.86554 10.9589 1.52893 11.3609 1.26616C11.5809 1.12016 11.8139 1.05116 12.0589 1.05916C12.2609 1.06516 12.4799 1.13916 12.7169 1.28416C13.0739 1.50216 13.3709 1.78716 13.6069 2.14016C13.7099 2.29216 13.8109 2.38416 13.9109 2.41716C14.0359 2.45716 14.1809 2.46916 14.3479 2.45116C15.9659 2.27616 16.9629 2.18516 17.3399 2.17716C18.0279 2.16216 18.5149 2.46116 18.8019 3.07216C19.0379 3.57816 19.1539 4.11216 19.1479 4.67416C19.1429 5.11916 19.1559 5.56416 19.1869 6.00716C19.1876 6.02444 19.1948 6.04083 19.2069 6.05316C19.2189 6.06616 19.2349 6.07316 19.2519 6.07316ZM11.5919 12.0072C10.1067 13.5484 9.01043 15.4215 8.39389 17.4712C8.15393 18.2473 8.0023 19.048 7.94189 19.8582C7.86634 20.9569 7.96557 22.0606 8.23589 23.1282C8.43611 23.915 8.73586 24.6731 9.12789 25.3842C9.56289 26.1812 10.1019 26.9642 10.7439 27.7312C11.0419 28.0882 11.3429 28.3912 11.6459 28.6402C11.6979 28.6812 12.0409 28.9302 12.6759 29.3872C12.9459 29.5822 13.2209 29.7712 13.4979 29.9552C13.5139 29.9652 13.7849 30.1592 14.3119 30.5362C15.0169 31.0412 15.8549 31.4132 16.8259 31.6522C17.7329 31.8752 18.4379 31.9872 18.9409 31.9872H20.2509C20.7339 31.9872 21.1669 31.9492 21.5509 31.8732C23.6149 31.4711 25.5719 30.6413 27.2959 29.4372C28.2627 28.7682 29.0864 27.9132 29.7189 26.9222C30.6318 25.5085 31.2206 23.9103 31.4429 22.2422C31.4729 22.0142 31.5189 21.7952 31.5779 21.5882C31.6729 21.2562 31.7209 21.0382 31.7249 20.9342C31.7699 19.4042 31.5099 17.8082 30.9459 16.1462C30.7281 15.4841 30.4485 14.8439 30.1109 14.2342C29.8388 13.7732 29.5486 13.3231 29.2409 12.8852C28.9414 12.4397 28.6016 12.0226 28.2259 11.6392C26.5609 9.99016 24.5219 8.87316 22.1099 8.28916C21.5069 8.14316 20.8229 8.12516 20.0599 8.23616C19.6029 8.30316 19.0819 8.29816 18.4989 8.22216C18.2919 8.1919 18.0811 8.20175 17.8779 8.25116C17.0929 8.45316 16.3419 8.73516 15.6239 9.09616C14.9349 9.44216 14.2489 9.85116 13.5639 10.3232C12.851 10.8156 12.1906 11.3799 11.5929 12.0072H11.5919Z" fill="#1F212C"/>
<path d="M14.3909 15.7332C14.4722 15.609 14.576 15.5012 14.6969 15.4152C15.1219 15.1122 15.4969 15.1472 15.8209 15.5212C16.0089 15.7392 16.1639 16.0792 16.2869 16.5432L16.3899 16.9342C16.8483 18.5655 17.3283 20.1906 17.8299 21.8092C18.0129 22.3922 18.0719 22.9692 18.0069 23.5392C17.9839 23.7332 17.9239 23.8652 17.8259 23.9362C17.7259 24.0082 17.6059 24.0242 17.4679 23.9842C17.3593 23.9471 17.2652 23.8768 17.1989 23.7832C16.9439 23.4632 16.7789 23.1832 16.7049 22.9432C16.4873 22.2398 16.2958 21.5287 16.1309 20.8112C16.1233 20.7787 16.104 20.7502 16.0767 20.731C16.0494 20.7118 16.016 20.7033 15.9829 20.7072C15.9611 20.7103 15.9405 20.7189 15.9229 20.7322C15.6764 20.9098 15.397 21.0362 15.1009 21.1042C14.6329 21.2122 14.1609 21.2872 13.6829 21.3302C13.5817 21.3385 13.4838 21.3699 13.3966 21.4219C13.3095 21.4739 13.2353 21.5451 13.1799 21.6302C13.1229 21.7122 13.0519 21.8842 12.9669 22.1472C12.793 22.688 12.5596 23.2079 12.2709 23.6972C12.1779 23.8532 12.0669 23.9492 11.9369 23.9852C11.8563 24.0097 11.7712 24.0156 11.688 24.0022C11.6048 23.9889 11.5257 23.9567 11.4569 23.9082C11.3874 23.8578 11.3294 23.7933 11.2868 23.7188C11.2442 23.6443 11.218 23.5616 11.2099 23.4762C11.184 23.2992 11.1949 23.1187 11.2419 22.9462C11.3569 22.5162 11.5099 22.1022 11.6999 21.7022C11.7649 21.5662 11.8019 21.4102 11.8119 21.2332C11.8219 21.0392 11.8539 20.8502 11.9059 20.6652C11.9449 20.5272 12.0339 20.3622 12.1729 20.1682C12.3969 19.8592 12.5729 19.5232 12.7009 19.1582C13.1309 17.9422 13.6939 16.8012 14.3909 15.7332ZM14.9149 17.4232L13.9349 19.6202C13.8359 19.8402 13.9049 19.9322 14.1389 19.8942C14.6149 19.8172 15.1289 19.7902 15.6789 19.8122C15.6965 19.8133 15.7139 19.8083 15.7283 19.7981C15.7427 19.7879 15.7531 19.7731 15.7579 19.7562C15.761 19.7451 15.7617 19.7335 15.7599 19.7222C15.7144 19.4282 15.6386 19.1396 15.5339 18.8612C15.3499 18.3912 15.1859 17.9142 15.0419 17.4302C15.0079 17.3132 14.9659 17.3112 14.9149 17.4232ZM19.1999 15.8052C19.2261 15.7679 19.2599 15.7365 19.299 15.7131C19.3381 15.6897 19.3816 15.6747 19.4269 15.6692C20.4295 15.5431 21.444 15.5421 22.4469 15.6662C22.8329 15.7152 23.2699 15.9142 23.7579 16.2622C24.4679 16.7672 24.7869 17.4422 24.7129 18.2852C24.6787 18.7931 24.4662 19.2726 24.1129 19.6392C23.8499 19.9122 23.4499 20.1522 22.9129 20.3602C22.1669 20.6502 21.4009 20.8002 20.6159 20.8112C20.5861 20.8112 20.557 20.8207 20.5329 20.8384C20.5089 20.856 20.491 20.8808 20.4819 20.9092C20.4756 20.9278 20.4732 20.9476 20.4749 20.9672C20.5219 21.5232 20.5549 22.0502 20.5729 22.5472C20.5859 22.9012 20.5489 23.2052 20.4629 23.4602C20.4163 23.6154 20.3465 23.7627 20.2559 23.8972C20.1369 24.0552 19.9709 24.1132 19.7569 24.0702C19.5269 24.0252 19.3769 23.8542 19.3089 23.5592C19.2347 23.2366 19.1902 22.9079 19.1759 22.5772C19.0819 20.4702 19.0439 19.0702 19.0619 18.3772C19.0769 17.8052 19.0479 17.2372 18.9769 16.6702C18.9385 16.364 19.0182 16.0546 19.1999 15.8052ZM23.3119 18.4302C23.4069 18.2882 23.4239 18.1202 23.3659 17.9262C23.2829 17.6512 23.1399 17.4642 22.9379 17.3642C22.2209 17.0082 21.4039 16.8742 20.4849 16.9622C20.4504 16.9659 20.4185 16.9823 20.3955 17.0081C20.3724 17.034 20.3597 17.0675 20.3599 17.1022L20.3929 19.4992C20.3928 19.51 20.395 19.5208 20.3994 19.5307C20.4039 19.5405 20.4104 19.5494 20.4186 19.5565C20.4268 19.5636 20.4364 19.5689 20.4468 19.5719C20.4572 19.575 20.4682 19.5758 20.4789 19.5742C20.9482 19.5057 21.4106 19.3962 21.8609 19.2472L22.3149 19.1182C22.5649 19.0482 22.7859 18.9282 22.9809 18.7612C23.1539 18.6132 23.2639 18.5022 23.3119 18.4302ZM26.0239 15.9252C26.1456 15.8308 26.2923 15.7741 26.4459 15.7622C26.5994 15.7503 26.7531 15.7837 26.8879 15.8582C26.9236 15.8761 26.9524 15.9052 26.9699 15.9412C27.0999 16.2072 27.1619 16.4912 27.1589 16.7922C27.1409 18.5392 27.1619 19.7982 27.2219 20.5682C27.3059 21.6642 27.3069 22.7582 27.2219 23.8482C27.2188 23.8867 27.2047 23.9236 27.1813 23.9544C27.1579 23.9853 27.1262 24.0088 27.0899 24.0222C26.9017 24.0946 26.6951 24.1045 26.5009 24.0502C26.4632 24.0388 26.4311 24.0139 26.4109 23.9802C26.2646 23.7678 26.1601 23.5296 26.1029 23.2782C25.9779 22.6272 25.8969 21.8452 25.8599 20.9342C25.8061 19.5949 25.7838 18.2545 25.7929 16.9142C25.7949 16.6062 25.8479 16.3082 25.9529 16.0202C25.9663 15.9823 25.9917 15.9492 26.0239 15.9252Z" fill="#1F212C"/>
</svg>
