<svg width="145" height="145" viewBox="0 0 145 145" fill="none" xmlns="http://www.w3.org/2000/svg">
<path fill-rule="evenodd" clip-rule="evenodd" d="M79.75 0C83.7542 0 87 3.24593 87 7.25V19.9909C87 26.4499 94.809 29.6846 99.3765 25.1173L108.385 16.1082C111.217 13.2769 115.807 13.2769 118.639 16.1082L128.892 26.3613C131.723 29.1926 131.723 33.783 128.892 36.6143L119.882 45.6235C115.316 50.1907 118.55 58 125.009 58H137.75C141.754 58 145 61.2459 145 65.25V79.75C145 83.7542 141.754 87 137.75 87H125.009C118.55 87 115.316 94.809 119.882 99.3765L128.892 108.385C131.723 111.217 131.723 115.807 128.892 118.639L118.639 128.892C115.807 131.723 111.217 131.723 108.385 128.892L99.3765 119.882C94.809 115.316 87 118.55 87 125.009V137.75C87 141.754 83.7542 145 79.75 145H65.25C61.2459 145 58 141.754 58 137.75V125.009C58 118.55 50.1907 115.316 45.6235 119.882L36.6143 128.892C33.783 131.723 29.1926 131.723 26.3613 128.892L16.1083 118.639C13.2769 115.807 13.2769 111.217 16.1083 108.385L25.1174 99.3765C29.6846 94.809 26.45 87 19.9909 87H7.25C3.24594 87 0 83.7542 0 79.75V65.25C0 61.2459 3.24593 58 7.25 58H19.9909C26.4499 58 29.6846 50.1907 25.1174 45.6235L16.1083 36.6143C13.2769 33.783 13.2769 29.1926 16.1083 26.3613L26.3613 16.1082C29.1926 13.2769 33.783 13.2769 36.6143 16.1082L45.6235 25.1173C50.1907 29.6846 58 26.4499 58 19.9909V7.25C58 3.24593 61.2459 0 65.25 0H79.75ZM72.5 108.75C92.5202 108.75 108.75 92.5202 108.75 72.5C108.75 52.4797 92.5202 36.25 72.5 36.25C52.4797 36.25 36.25 52.4797 36.25 72.5C36.25 92.5202 52.4797 108.75 72.5 108.75Z" fill="url(#paint0_linear_572_5850)"/>
<defs>
<linearGradient id="paint0_linear_572_5850" x1="72.5" y1="0" x2="72.5" y2="145" gradientUnits="userSpaceOnUse">
<stop stop-color="#B8DBFC"/>
<stop offset="1" stop-color="#F8FBFE"/>
</linearGradient>
</defs>
</svg>
