<svg width="200" height="197" viewBox="0 0 200 197" fill="none" xmlns="http://www.w3.org/2000/svg">
<mask id="mask0_1023_678" style="mask-type:luminance" maskUnits="userSpaceOnUse" x="0" y="-3" width="200" height="200">
<path d="M200 -3L0 -3L0 197L200 197L200 -3Z" fill="white"/>
</mask>
<g mask="url(#mask0_1023_678)">
<path fill-rule="evenodd" clip-rule="evenodd" d="M103.143 -3C105.352 -3 107.143 -1.20914 107.143 1V39.6749C107.143 44.0714 113.205 45.2497 114.852 41.1733L129.339 5.31456C130.167 3.26628 132.498 2.27669 134.547 3.10425L140.375 5.45892C142.423 6.28648 143.413 8.6178 142.585 10.6661L127.14 48.8948C125.507 52.935 130.595 56.3029 133.677 53.2217L162.831 24.0669C164.394 22.5048 166.926 22.5048 168.488 24.0669L172.933 28.5116C174.495 30.0737 174.495 32.6063 172.933 34.1684L146.752 60.3494C143.627 63.4748 147.132 68.6128 151.182 66.8432L185.11 52.0196C187.135 51.1351 189.493 52.0592 190.377 54.0835L192.894 59.8435C193.778 61.8679 192.854 64.2259 190.83 65.1104L151.734 82.1917C147.762 83.927 149.001 89.8571 153.335 89.8571L196 89.8571C198.209 89.8571 200 91.648 200 93.8571V100.143C200 102.352 198.209 104.143 196 104.143L153.336 104.143C149.001 104.143 147.763 110.073 151.734 111.808L190.83 128.89C192.854 129.774 193.778 132.132 192.894 134.156L190.377 139.916C189.493 141.941 187.135 142.865 185.11 141.98L151.182 127.157C147.132 125.387 143.627 130.525 146.752 133.651L172.933 159.831C174.495 161.394 174.495 163.926 172.933 165.488L168.488 169.933C166.926 171.495 164.394 171.495 162.831 169.933L133.677 140.778C130.595 137.697 125.507 141.065 127.14 145.105L142.585 183.334C143.413 185.382 142.423 187.713 140.375 188.541L134.547 190.896C132.498 191.723 130.167 190.734 129.339 188.685L114.852 152.827C113.205 148.75 107.143 149.929 107.143 154.325L107.143 193C107.143 195.209 105.352 197 103.143 197H96.8571C94.648 197 92.8571 195.209 92.8571 193L92.8571 154.325C92.8571 149.929 86.7953 148.75 85.1484 152.827L70.6605 188.685C69.8329 190.734 67.5016 191.723 65.4533 190.896L59.6253 188.541C57.577 187.713 56.5875 185.382 57.415 183.334L72.8605 145.105C74.4929 141.065 69.4046 137.697 66.3233 140.778L37.1685 169.933C35.6064 171.495 33.0737 171.495 31.5117 169.933L27.067 165.488C25.5049 163.926 25.5049 161.394 27.067 159.831L53.2479 133.65C56.3733 130.525 52.8683 125.387 48.818 127.157L14.8895 141.98C12.8652 142.865 10.5071 141.941 9.62265 139.916L7.10607 134.156C6.22161 132.132 7.14568 129.774 9.17004 128.89L48.2657 111.808C52.2374 110.073 50.9985 104.143 46.6642 104.143H4C1.79086 104.143 0 102.352 0 100.143L0 93.8571C0 91.648 1.79086 89.8571 4 89.8571H46.6644C50.9986 89.8571 52.2376 83.927 48.2659 82.1917L9.17001 65.1104C7.14565 64.2259 6.22158 61.8679 7.10604 59.8435L9.62262 54.0835C10.5071 52.0592 12.8651 51.1351 14.8895 52.0196L48.818 66.8432C52.8683 68.6129 56.3733 63.4748 53.2479 60.3494L27.067 34.1685C25.5049 32.6064 25.5049 30.0737 27.067 28.5116L31.5116 24.067C33.0737 22.5049 35.6064 22.5049 37.1685 24.067L66.3233 53.2218C69.4045 56.303 74.4928 52.9351 72.8605 48.8949L57.415 10.6661C56.5875 8.6178 57.5771 6.28648 59.6253 5.45892L65.4534 3.10425C67.5016 2.27669 69.833 3.26628 70.6605 5.31456L85.1484 41.1733C86.7953 45.2497 92.8571 44.0714 92.8571 39.6749V1C92.8571 -1.20914 94.648 -3 96.8571 -3L103.143 -3ZM100 139.857C123.669 139.857 142.857 120.669 142.857 97C142.857 73.3307 123.669 54.1429 100 54.1429C76.3307 54.1429 57.1429 73.3307 57.1429 97C57.1429 120.669 76.3307 139.857 100 139.857Z" fill="url(#paint0_linear_1023_678)"/>
</g>
<defs>
<linearGradient id="paint0_linear_1023_678" x1="20.5" y1="13" x2="100" y2="197" gradientUnits="userSpaceOnUse">
<stop stop-color="#ACAAFF"/>
<stop offset="0.5" stop-color="#C0E8FF"/>
<stop offset="1" stop-color="#F9FBFF"/>
</linearGradient>
</defs>
</svg>
