<svg width="40" height="40" viewBox="0 0 40 40" fill="none" xmlns="http://www.w3.org/2000/svg">
<path d="M19.996 14.3509L20.005 13.7689C20.016 12.2649 20.005 10.7619 19.969 9.25892C19.962 8.94892 19.923 8.43092 19.855 7.70492C19.797 7.10492 19.777 6.50092 19.793 5.89692C19.796 5.78392 19.834 5.61792 19.908 5.39692C19.938 5.30792 19.988 5.14592 20.06 4.90892C20.2725 4.19543 20.7125 3.57102 21.313 3.13092C22.3467 2.34306 23.6247 1.94409 24.923 2.00392C25.327 2.01892 25.723 2.09192 26.112 2.22192C26.499 2.35192 26.87 2.51492 27.226 2.71092C27.619 2.92792 27.913 3.17692 28.106 3.45792C28.331 3.78392 28.478 4.14992 28.546 4.55792C28.614 4.96792 28.663 5.39092 28.693 5.82692C28.6939 5.84176 28.6982 5.85618 28.7057 5.86903C28.7131 5.88189 28.7235 5.89281 28.736 5.90092C28.7485 5.90919 28.7627 5.91456 28.7776 5.91663C28.7925 5.91871 28.8077 5.91744 28.822 5.91292C29.4895 5.70301 30.193 5.63222 30.889 5.70492C32.039 5.81892 32.96 6.32392 33.653 7.22092C34.203 7.93492 34.522 8.67692 34.608 9.44692C34.6798 10.0705 34.5767 10.7017 34.31 11.2699C34.3028 11.285 34.3009 11.3021 34.3045 11.3184C34.3081 11.3347 34.3171 11.3493 34.33 11.3599C34.3384 11.3672 34.3483 11.3727 34.359 11.3759C34.614 11.4509 34.855 11.5339 35.083 11.6249C35.3194 11.7194 35.5445 11.8402 35.754 11.9849C36.466 12.4699 37.015 13.0079 37.401 13.5979C37.932 14.4109 38.098 15.2779 37.899 16.1989C37.759 16.8499 37.461 17.4679 37.006 18.0509C36.9998 18.0589 36.9963 18.0685 36.996 18.0786C36.9956 18.0886 36.9984 18.0986 37.004 18.1069C37.007 18.1119 37.012 18.1169 37.017 18.1199C37.838 18.6679 38.432 19.3369 38.798 20.1299C38.911 20.3749 38.976 20.6599 38.992 20.9819C39.002 21.2119 39.002 21.4999 38.992 21.8469C38.975 22.4499 38.832 22.9789 38.565 23.4329C38.463 23.6069 38.294 23.8019 38.057 24.0179C37.859 24.1979 37.648 24.3469 37.427 24.4619C37.0064 24.6797 36.5542 24.8302 36.087 24.9079C36.01 24.9199 36.001 24.9519 36.058 25.0029C37.246 26.0439 37.636 27.2689 37.228 28.6769C37.0676 29.2233 36.8338 29.7454 36.533 30.2289C36.2271 30.7233 35.8392 31.1619 35.386 31.5259C34.996 31.8389 34.606 32.0479 34.214 32.1519C33.7667 32.2679 33.3003 32.2903 32.844 32.2179C32.697 32.1959 32.642 32.2559 32.679 32.3969C32.834 32.9809 32.836 33.5489 32.686 34.1009C32.5527 34.5879 32.2929 35.0308 31.933 35.3849C31.576 35.7419 31.144 36.0229 30.637 36.2289C30.1593 36.4262 29.6527 36.5444 29.137 36.5789C28.757 36.6039 28.364 36.5489 27.957 36.4149C27.5755 36.2887 27.2058 36.1294 26.852 35.9389C26.8158 35.9195 26.7734 35.9152 26.734 35.9269C26.7148 35.9328 26.6969 35.9425 26.6815 35.9554C26.666 35.9683 26.6533 35.9841 26.644 36.0019C26.414 36.4519 26.117 36.8299 25.752 37.1349C25.4289 37.4095 25.0644 37.6312 24.672 37.7919C24.272 37.9519 23.845 38.0189 23.389 37.9949C21.884 37.9149 20.839 37.1909 20.253 35.8249C20.1079 35.504 20.0297 35.157 20.023 34.8049C20.0192 32.4928 20.0375 30.1807 20.078 27.8689C20.098 26.7089 20.078 23.7209 20.014 18.9089C20.0082 18.2336 20.0102 17.5582 20.02 16.8829C20.03 16.0389 20.022 15.1949 19.996 14.3519V14.3509ZM33.731 24.1469C34.1776 24.0676 34.6273 24.0065 35.079 23.9639C35.245 23.9479 35.419 23.8939 35.603 23.7999C35.722 23.7399 35.861 23.6869 36.02 23.6399C36.1636 23.6017 36.3049 23.5549 36.443 23.4999C37.18 23.1619 37.553 22.5679 37.563 21.7179C37.565 21.5559 37.538 21.3179 37.484 21.0029C37.478 20.9729 37.464 20.7909 37.438 20.4559C37.422 20.2111 37.3308 19.9771 37.177 19.7859C37.0347 19.6255 36.8824 19.4742 36.721 19.3329C36.5615 19.1877 36.3902 19.0559 36.209 18.9389C36.146 18.8965 36.0744 18.8686 35.9994 18.8571C35.9243 18.8457 35.8477 18.8511 35.775 18.8729C35.4207 18.9662 35.0578 19.0229 34.692 19.0419C34.536 19.0519 34.431 18.9859 34.375 18.8429C34.281 18.6059 34.359 18.4399 34.608 18.3449C34.691 18.3129 34.818 18.1949 34.99 17.9899C35.092 17.8669 35.212 17.7429 35.348 17.6199C35.921 17.0939 36.263 16.4769 36.373 15.7699C36.511 14.8859 36.254 14.0909 35.603 13.3839C35.3853 13.1351 35.1114 12.9417 34.804 12.8199L34.384 12.6639C34.1675 12.5728 33.9428 12.5025 33.713 12.4539C33.5685 12.4215 33.417 12.4458 33.29 12.5219C33.002 12.6899 32.707 12.8469 32.407 12.9939C32.267 13.0619 32.142 13.1009 32.031 13.1109C31.896 13.1225 31.7601 13.1157 31.627 13.0909C31.6101 13.0877 31.5942 13.0805 31.5805 13.0701C31.5668 13.0597 31.5557 13.0463 31.548 13.0309C31.5406 13.0155 31.5371 12.9986 31.5376 12.9816C31.5381 12.9645 31.5427 12.9478 31.551 12.9329C31.684 12.6929 31.819 12.4419 31.956 12.1809C32.066 11.9729 32.244 11.7819 32.488 11.6099C32.76 11.4179 32.931 11.2799 33.002 11.1959C33.382 10.7489 33.532 10.2309 33.45 9.64292C33.34 8.85792 32.996 8.21692 32.417 7.72092C32.02 7.38137 31.5447 7.14596 31.034 7.03592C30.509 6.91951 29.9653 6.9161 29.439 7.02592C29.353 7.04392 29.249 7.05892 29.129 7.07192C29.0245 7.08336 28.921 7.10173 28.819 7.12692C28.669 7.16616 28.5309 7.24171 28.417 7.34692C28.277 7.47092 28.141 7.60092 28.01 7.73492C27.82 7.93192 27.623 8.01092 27.42 7.97292C27.27 7.94492 27.203 7.85592 27.222 7.70692C27.304 7.04992 27.362 6.44692 27.398 5.89692C27.4216 5.49907 27.3474 5.10151 27.182 4.73892C27.0283 4.38084 26.795 4.06246 26.5 3.80792C25.992 3.37392 25.352 3.16692 24.578 3.18792C23.752 3.20992 23.026 3.41692 22.4 3.80792C22.111 3.98792 21.892 4.14992 21.74 4.29592C21.537 4.48995 21.3864 4.73211 21.302 4.99992C21.237 5.20792 21.225 5.58692 21.265 6.13992C21.302 6.65692 21.322 7.17492 21.325 7.69392C21.334 9.35592 21.323 11.0189 21.294 12.6809C21.265 14.2879 21.29 16.4819 21.367 19.2629C21.377 19.6359 21.401 20.3119 21.439 21.2879C21.569 24.7199 21.597 28.1549 21.525 31.5909C21.507 32.4839 21.505 33.3769 21.519 34.2709L21.487 34.9839C21.458 35.6089 21.667 36.0879 22.112 36.4219C22.508 36.7179 22.97 36.8649 23.499 36.8619C24.033 36.8589 24.513 36.6619 24.941 36.2719C25.074 36.1519 25.205 36.0259 25.333 35.8979C25.511 35.7262 25.6457 35.5146 25.7259 35.2805C25.806 35.0465 25.8294 34.7968 25.794 34.5519C25.7593 34.3092 25.7661 34.0624 25.814 33.8219C25.8174 33.806 25.8242 33.791 25.8338 33.7779C25.8435 33.7648 25.8558 33.7539 25.87 33.7459C26.125 33.5889 26.33 33.6239 26.486 33.8499C26.841 34.3659 27.236 34.7629 27.671 35.0409C28.128 35.3339 28.641 35.4579 29.208 35.4129C30.353 35.3229 31.146 34.7739 31.588 33.7679C31.715 33.4779 31.73 33.1929 31.633 32.9129C31.4954 32.5251 31.2662 32.1763 30.965 31.8959C30.7005 31.6543 30.5426 31.3177 30.526 30.9599C30.519 30.8059 30.538 30.6899 30.584 30.6099C30.665 30.4749 30.812 30.4539 31.024 30.5489C31.415 30.7229 31.819 30.8569 32.234 30.9519C32.74 31.0669 33.139 31.1199 33.431 31.1119C33.876 31.0989 34.269 30.9619 34.608 30.6989C35.078 30.3339 35.454 29.8589 35.735 29.2759C35.943 28.8439 36.076 28.4609 36.135 28.1279C36.2095 27.7124 36.1757 27.2846 36.037 26.8859C35.9328 26.5903 35.7648 26.3213 35.545 26.0979C35.325 25.8679 35.076 25.6679 34.8 25.5009C34.522 25.3309 34.334 25.1949 34.239 25.0899C34.0073 24.8355 33.8203 24.5437 33.686 24.2269C33.6804 24.2148 33.6794 24.2011 33.6831 24.1882C33.6867 24.1754 33.6949 24.1643 33.706 24.1569C33.7132 24.1519 33.7224 24.1485 33.731 24.1469ZM16.501 8.83092C16.541 8.92892 16.592 9.01892 16.656 9.10192C16.734 9.20192 16.792 9.28692 16.83 9.35892C16.938 9.55892 17.071 9.73992 17.23 9.90392C17.2532 9.92793 17.2839 9.94342 17.317 9.94792C17.529 9.97492 17.742 9.98692 17.957 9.98292C18.348 9.97792 18.725 10.0449 19.087 10.1849C19.333 10.2799 19.523 10.4389 19.657 10.6629C19.7029 10.731 19.7262 10.8118 19.7235 10.8938C19.7208 10.9759 19.6923 11.055 19.642 11.1199C19.5501 11.2545 19.4287 11.3664 19.287 11.4469C19.1454 11.519 18.9905 11.5612 18.832 11.5709C18.428 11.6109 17.895 11.6169 17.232 11.5919C16.745 11.5739 16.373 11.4149 16.118 11.1149C15.7636 10.7 15.4273 10.2699 15.11 9.82592C15.0888 9.79729 15.0608 9.77449 15.0284 9.75963C14.9961 9.74477 14.9605 9.73833 14.925 9.74092C14.276 9.78792 13.707 9.63092 13.217 9.26892C12.9973 9.11384 12.805 8.92322 12.648 8.70492C12.524 8.52492 12.433 8.28192 12.378 7.97792C12.176 6.87492 12.538 5.98892 13.463 5.31992C13.695 5.15292 13.963 5.03992 14.269 4.98092C14.549 4.92692 14.836 4.90392 15.129 4.91092C15.671 4.92292 16.16 5.10392 16.598 5.45392C16.759 5.58292 16.878 5.74192 16.957 5.93192C17.387 6.96992 17.24 7.90792 16.517 8.74392C16.5065 8.7555 16.4994 8.76977 16.4966 8.78514C16.4938 8.80051 16.4953 8.81636 16.501 8.83092Z" fill="#1F212C"/>
<path d="M19.881 13.8559L19.927 14.3259C19.89 14.4379 19.835 14.5119 19.761 14.5479C19.2436 14.7926 18.6718 14.8993 18.101 14.8579C17.918 14.8466 17.735 14.8356 17.552 14.8249C16.05 14.7849 14.986 14.7369 14.362 14.6799C13.414 14.5939 12.681 14.5519 12.163 14.5539C11.975 14.5539 11.769 14.5069 11.545 14.4099C11.3556 14.3215 11.1754 14.2146 11.007 14.0909C10.2779 13.577 9.58493 13.0137 8.93298 12.4049C8.81922 12.2997 8.72804 12.1725 8.66498 12.0309C8.37184 11.3771 8.24112 10.6621 8.28398 9.94692C8.29541 9.82375 8.27474 9.69972 8.22398 9.58692C8.18698 9.50992 8.09998 9.43692 7.96198 9.36692C7.78031 9.28335 7.60457 9.18746 7.43598 9.07992C7.21451 8.91325 7.04437 8.68766 6.94498 8.42892C6.84373 8.1842 6.76734 7.92992 6.71698 7.66992C6.66669 7.36464 6.6893 7.05179 6.78298 6.75692C6.85198 6.52492 6.91498 6.33192 6.97498 6.17892C7.04907 5.99017 7.16299 5.81963 7.30898 5.67892C7.69798 5.29892 8.13498 5.06892 8.61898 4.98492C8.94613 4.93716 9.27783 4.92877 9.60698 4.95992C10.002 4.98892 10.315 5.06892 10.545 5.19992C10.916 5.41192 11.185 5.72992 11.35 6.15792C11.51 6.56992 11.576 6.99792 11.547 7.43892C11.489 8.31492 11.048 8.93492 10.222 9.30092C10.1538 9.32721 10.0951 9.37342 10.0536 9.43352C10.012 9.49363 9.9895 9.56485 9.98898 9.63792C9.97798 9.88192 9.97598 10.1369 9.98298 10.4009C9.98398 10.4059 9.97598 10.5239 9.95998 10.7559C9.95308 10.8539 9.96461 10.9522 9.99398 11.0459C10.019 11.1259 10.074 11.2029 10.157 11.2779C10.85 11.8989 11.435 12.3819 11.911 12.7249C12.101 12.8629 12.328 12.9299 12.59 12.9269L13.031 12.9219C14.535 13.0099 16.039 13.0919 17.543 13.1669C18.383 13.2069 19.162 13.4369 19.881 13.8569V13.8559Z" fill="#1F212C"/>
<path d="M6.11398 13.3759C6.41298 13.3399 6.72798 13.3259 7.06098 13.3359C7.54498 13.3499 7.86098 13.3679 8.00598 13.3889C8.48898 13.4569 8.90598 13.6619 9.25598 14.0049L9.61998 14.3639L10.362 15.0179C10.655 15.2759 10.895 15.5019 11.082 15.6959C11.49 16.1189 11.862 16.5499 12.197 16.9889C12.227 17.0282 12.2658 17.0598 12.3102 17.0814C12.3547 17.1029 12.4036 17.1137 12.453 17.1129C13.908 17.1009 15.3 17.1329 16.631 17.2079C16.916 17.2249 17.232 17.2329 17.578 17.2319C17.964 17.2319 18.28 17.2419 18.526 17.2619C18.892 17.2929 19.254 17.3999 19.611 17.5839C19.762 17.6609 19.854 17.7589 19.887 17.8799C19.9199 18.0105 19.9101 18.1483 19.859 18.2729C19.8461 18.304 19.8237 18.3303 19.795 18.3479C19.2528 18.7124 18.6099 18.8974 17.957 18.8769C16.217 18.8419 14.477 18.8049 12.737 18.7669C12.35 18.7569 12.059 18.7149 11.863 18.6399C11.5797 18.5287 11.3229 18.3594 11.109 18.1429C10.8091 17.8452 10.517 17.5398 10.233 17.2269C9.89298 16.8519 9.59698 16.5509 9.34498 16.3239C8.91999 15.9381 8.49063 15.557 8.05698 15.1809C7.89809 15.0437 7.69145 14.9747 7.48198 14.9889C6.88998 15.0129 6.29798 15.0149 5.70498 14.9939C5.52918 14.9826 5.35331 15.0149 5.19298 15.0879C5.04698 15.1599 4.90998 15.2469 4.78298 15.3479C4.66092 15.4513 4.53341 15.5481 4.40098 15.6379C3.39098 16.2399 2.49398 16.1759 1.71098 15.4459C1.43496 15.1915 1.23254 14.8675 1.12498 14.5079C0.902981 13.7709 0.976981 13.0239 1.34498 12.2699C1.42855 12.0848 1.55463 11.9221 1.71298 11.7949C2.05228 11.5376 2.4416 11.354 2.85598 11.2559C3.69598 11.0539 4.40398 11.2099 4.98198 11.7229C5.18798 11.9049 5.35898 12.1269 5.49698 12.3889C5.62735 12.6407 5.73188 12.9051 5.80898 13.1779C5.85298 13.3299 5.95498 13.3959 6.11398 13.3759ZM1.46798 27.4609C1.33785 27.285 1.24806 27.0825 1.20498 26.8679C1.16777 26.6593 1.14936 26.4478 1.14998 26.2359C1.14198 25.7579 1.23498 25.2479 1.42998 24.7049C1.54798 24.3749 1.71498 24.1079 1.92998 23.9049C2.11998 23.7259 2.38498 23.6099 2.72498 23.5579C3.98998 23.3639 4.94798 23.8379 5.59998 24.9779C5.67098 25.1029 5.79198 25.1619 5.95998 25.1549L6.25998 25.1449C6.45498 25.1509 6.64598 25.1349 6.83598 25.0949C6.86921 25.088 6.89976 25.0717 6.92398 25.0479C7.89739 24.1075 8.89198 23.1893 9.90698 22.2939C10.027 22.1869 10.142 22.0459 10.252 21.8689C10.3029 21.7858 10.3702 21.7139 10.4498 21.6577C10.5294 21.6015 10.6196 21.5621 10.715 21.5419C10.953 21.4859 11.195 21.4559 11.439 21.4509C13.222 21.4089 15.004 21.3539 16.786 21.2829C17.226 21.2659 17.574 21.2709 17.834 21.2999C18.26 21.3459 18.601 21.4289 18.856 21.5469C19.14 21.6779 19.225 21.9229 19.112 22.2809C19.0984 22.3243 19.0752 22.3641 19.044 22.3971C19.0128 22.4302 18.9745 22.4558 18.932 22.4719C18.3781 22.6883 17.7992 22.8341 17.209 22.9059C17.027 22.9279 16.439 22.9559 15.444 22.9879C14.139 23.0299 12.86 23.0699 11.607 23.1079C11.5264 23.1087 11.4468 23.1253 11.3727 23.1569C11.2985 23.1885 11.2314 23.2344 11.175 23.2919C10.6094 23.8586 10.0293 24.4104 9.43498 24.9469L9.07898 25.2519C8.75456 25.5204 8.47885 25.8428 8.26398 26.2049C8.15098 26.4029 8.00698 26.5269 7.82898 26.5769C7.29724 26.7367 6.74414 26.8139 6.18898 26.8059C6.02798 26.8009 5.88498 26.8159 5.76098 26.8529C5.65798 26.8829 5.54798 26.9619 5.43298 27.0919C5.10579 27.4608 4.71532 27.7683 4.27998 27.9999C3.78198 28.2659 3.23698 28.3499 2.64498 28.2479C2.39934 28.2097 2.16628 28.1138 1.96498 27.9679C1.7745 27.8248 1.60691 27.6535 1.46798 27.4599V27.4609Z" fill="#1F212C"/>
<path d="M7.44198 33.9809C7.16398 33.5209 7.05098 32.9939 7.10098 32.4009C7.17098 31.5769 7.47698 30.9079 8.01898 30.3949C8.21898 30.2049 8.29298 29.9989 8.24198 29.7759C8.18701 29.5349 8.14429 29.2913 8.11398 29.0459C8.07795 28.8031 8.05625 28.5583 8.04898 28.3129C8.05698 28.0159 8.14198 27.7469 8.30398 27.5049C8.33398 27.4599 8.51598 27.2529 8.84798 26.8819C9.49293 26.1618 10.1787 25.4793 10.902 24.8379C10.969 24.7779 11.098 24.7239 11.288 24.6749C11.402 24.6449 11.54 24.6269 11.7 24.6199C12.872 24.5669 14.044 24.5179 15.216 24.4729L16.351 24.4129C17.101 24.3739 17.739 24.3869 18.267 24.4519C18.445 24.4739 18.667 24.5439 18.932 24.6619C19.162 24.7659 19.313 24.8779 19.382 24.9979C19.4223 25.0667 19.4441 25.1449 19.4452 25.2246C19.4462 25.3044 19.4265 25.3831 19.388 25.4529C19.3195 25.5811 19.209 25.6817 19.075 25.7379C18.64 25.9449 18.121 26.0569 17.517 26.0719L11.846 26.2179C11.8022 26.2188 11.759 26.2283 11.719 26.2459C11.6799 26.2632 11.6448 26.2884 11.616 26.3199L9.83698 28.2799C9.7879 28.3324 9.75262 28.3962 9.73429 28.4657C9.71597 28.5351 9.71517 28.6081 9.73198 28.6779L9.99098 29.9769C9.99879 30.0304 10.0227 30.0803 10.0595 30.12C10.0962 30.1596 10.1442 30.1871 10.197 30.1989C10.662 30.3259 11.034 30.5549 11.312 30.8889C11.555 31.1789 11.715 31.5589 11.794 32.0239C11.97 33.0699 11.601 33.9209 10.689 34.5789C10.018 35.0619 9.33498 35.1849 8.64098 34.9459C8.13788 34.7802 7.71191 34.4367 7.44198 33.9809Z" fill="#1F212C"/>
<path d="M12.907 33.9959C12.63 33.5589 12.521 33.0519 12.58 32.4759C12.676 31.5249 13.156 30.8309 14.02 30.3949C14.1231 30.3358 14.2122 30.2549 14.281 30.1579C14.34 30.0819 14.395 29.9809 14.447 29.8549C14.599 29.4809 14.749 29.1059 14.897 28.7309C15.047 28.3509 15.288 28.0789 15.622 27.9169C15.819 27.8209 16.142 27.7689 16.593 27.7599C17.0998 27.7513 17.6064 27.738 18.113 27.7199C18.3935 27.7036 18.6744 27.7428 18.9397 27.8353C19.205 27.9278 19.4494 28.0718 19.659 28.2589C19.6837 28.2808 19.7012 28.3098 19.709 28.3419C19.755 28.5409 19.739 28.6929 19.658 28.7999C19.432 29.0969 19.121 29.2759 18.724 29.3379C18.641 29.3509 18.406 29.3669 18.018 29.3849C17.7822 29.397 17.5459 29.398 17.31 29.3879C17.1 29.3779 16.902 29.3899 16.714 29.4239C16.5791 29.4407 16.4545 29.5044 16.362 29.6039C16.2689 29.7161 16.2199 29.8582 16.224 30.0039C16.224 30.1319 16.275 30.2369 16.378 30.3179C16.695 30.5659 16.943 30.8539 17.122 31.1799C17.293 31.4929 17.381 31.8469 17.386 32.2429C17.396 33.0129 17.136 33.6649 16.606 34.1969C16.2926 34.5189 15.9029 34.7563 15.473 34.8869C15.003 35.0269 14.54 35.0249 14.08 34.8799C13.5944 34.7379 13.1773 34.4236 12.907 33.9959Z" fill="#1F212C"/>
</svg>
