<svg width="258" height="232" viewBox="0 0 258 232" fill="none" xmlns="http://www.w3.org/2000/svg">
<path d="M229.493 73.0342C229.493 73.0342 232.029 38.844 196.568 16.0483C161.106 -6.74733 110.45 -2.31804 76.253 15.4127C42.0561 33.1434 47.1278 73.6428 35.7537 99.6032C24.3795 125.564 -1.60799 130.033 0.292216 165.461C2.19242 200.889 24.3592 218.018 49.6569 223.718C74.9547 229.419 98.4198 222.454 121.215 226.247C144.011 230.041 175.672 237.649 212.398 223.083C249.124 208.517 256.089 168.626 251.024 136.965C245.959 105.304 229.493 93.9093 229.493 73.0342Z" fill="#F9FBFF"/>
<g clip-path="url(#clip0_1045_1666)">
<mask id="mask0_1045_1666" style="mask-type:luminance" maskUnits="userSpaceOnUse" x="5" y="7" width="253" height="222">
<path d="M5.5 7H257.5V229H5.5V7Z" fill="white"/>
</mask>
<g mask="url(#mask0_1045_1666)">
<path d="M154.918 189.514C156.071 189.614 157.222 189.614 158.371 189.514C160.063 189.496 161.752 189.44 163.442 189.348C165.289 189.244 166.977 189.185 168.504 189.17C171.798 189.135 175.089 189.013 178.377 188.804C179.554 188.73 180.16 188.695 180.195 188.698C180.819 188.776 181.379 189.092 181.875 189.647C184.936 193.07 187.585 195.891 189.819 198.111C190.315 198.604 190.674 199.01 190.899 199.332C190.951 199.406 190.976 199.495 190.971 199.585C190.89 201.966 190.869 204.348 190.908 206.73C190.915 207.159 190.934 207.513 190.966 207.79C191.001 208.105 191.157 208.404 191.435 208.687C195.048 212.368 197.387 214.717 198.454 215.732C199.11 216.354 199.571 217.033 199.838 217.769C199.991 218.191 200.072 218.982 200.081 220.142C200.1 222.134 200.312 224.208 200.717 226.364C200.826 226.942 200.669 227.437 200.247 227.848C200.181 227.91 200.099 227.951 200.01 227.965C198.165 228.252 196.295 228.346 194.431 228.248C185.178 227.767 176.727 227.555 169.079 227.612C162.865 227.658 158.099 227.683 154.779 227.687C152.957 227.687 151.115 227.714 149.253 227.768C141.518 227.984 133.779 228.025 126.043 227.89C124.886 227.869 121.983 227.899 117.336 227.979C115.676 228.008 113.835 228.017 111.812 228.006C107.421 227.986 104.335 228.04 102.556 228.167C96.5138 228.6 92.4149 228.808 90.2597 228.792C85.5623 228.754 80.866 228.781 76.1703 228.869C73.689 228.918 71.846 228.925 70.6412 228.892C67.0712 228.792 63.9168 228.504 61.1774 228.029C60.4811 227.908 60.0114 227.533 59.7682 226.905C59.687 226.695 59.5886 226.147 59.4726 225.259C59.189 223.079 59.0708 220.88 59.1189 218.682C59.1199 218.593 59.1522 218.506 59.2101 218.438C59.6237 217.949 60.057 217.477 60.5087 217.023C62.7375 214.788 64.9005 212.265 66.9966 209.453C67.3116 209.033 67.4736 208.586 67.483 208.112C67.4924 207.674 67.4979 207.445 67.4995 207.427C67.6559 205.812 67.7123 204.193 67.6681 202.571C67.6681 202.556 67.6393 202.243 67.5824 201.633C67.4774 200.535 67.8808 199.65 68.7927 198.977C69.0966 198.753 69.6161 198.21 70.3511 197.348C70.9883 196.599 71.4879 196.038 71.8487 195.666C73.6317 193.841 75.5442 192.147 77.5712 190.599C77.9951 190.277 78.4389 190.073 78.9031 189.986C79.573 189.864 80.2531 189.806 80.934 189.814C91.4506 189.932 101.968 190.04 112.487 190.139L114.868 190.216C115.795 190.246 116.71 190.226 117.615 190.155C117.937 190.129 117.956 190.042 117.67 189.892C116.114 189.071 114.623 188.131 113.21 187.081C112.461 186.522 110.613 184.991 107.668 182.488C106.77 181.75 105.871 181.012 104.971 180.276C102.112 177.93 99.424 175.18 96.9078 172.026C93.9805 168.354 91.5042 164.931 89.4777 161.756C89.436 161.687 89.3869 161.623 89.3312 161.564C89.0826 161.308 89.0024 161.401 89.0908 161.845C89.2069 162.431 89.2749 163.022 89.2953 163.618C89.3174 164.291 89.197 164.789 88.9334 165.111C88.6001 165.52 88.1182 165.681 87.4882 165.594C87.1141 165.542 86.9229 165.515 86.9135 165.513C85.064 165.357 83.2113 165.243 81.3568 165.169C81.3024 165.167 81.2484 165.178 81.1985 165.199C81.1486 165.221 81.1041 165.254 81.0683 165.295C81.0327 165.336 81.0069 165.385 80.9928 165.438C80.9786 165.49 80.9765 165.546 80.9865 165.599C81.4026 167.862 81.5264 170.079 81.3568 172.251C81.1871 174.419 81.1081 176.591 81.1191 178.767C81.1208 179.388 81.0456 179.828 80.8926 180.088C80.6234 180.544 80.1714 180.759 79.5358 180.731C75.9106 180.574 72.5545 180.522 69.4669 180.576C68.3301 180.597 64.7601 180.483 58.7569 180.237C58.6212 180.225 58.4858 180.21 58.3507 180.193C57.9899 180.153 57.7058 180.251 57.4997 180.49C57.1697 180.873 56.9951 181.071 56.9747 181.084C56.3115 181.544 55.6345 181.668 54.9437 181.456C54.1905 181.221 53.6771 180.736 53.4047 180.002C53.1377 179.28 53.2129 178.495 53.6312 177.646C53.9755 176.945 54.511 176.601 55.2366 176.613C55.8241 176.624 56.3684 176.758 56.8697 177.013C56.9819 177.07 57.2222 177.284 57.5909 177.654C57.9042 177.969 58.2982 178.12 58.7735 178.109C58.9954 178.103 59.2174 178.099 59.4394 178.098C63.446 178.324 66.1439 178.433 67.5327 178.425C71.3143 178.403 75.0955 178.431 78.8755 178.509C78.8938 178.509 78.9121 178.506 78.9291 178.499C78.9459 178.492 78.9612 178.482 78.9738 178.469C78.9869 178.456 78.997 178.441 79.0037 178.424C79.0108 178.407 79.0142 178.388 79.0136 178.37C78.9583 176.488 79.0313 174.611 79.2319 172.739C79.4734 170.481 79.4364 168.658 79.1214 167.273C78.8506 166.092 78.8036 164.946 78.9805 163.834C79.0578 163.352 79.3397 163.105 79.826 163.094C82.2078 163.04 84.5814 163.156 86.9466 163.44C86.9794 163.444 87.0126 163.441 87.044 163.43C87.0753 163.42 87.1039 163.403 87.1279 163.38C87.1512 163.358 87.169 163.33 87.1798 163.3C87.1905 163.269 87.194 163.237 87.1898 163.205L86.4189 157.086C86.3802 156.78 86.2697 156.465 86.0873 156.139C84.8734 153.974 83.737 151.765 82.6803 149.518C80.4109 144.686 78.2478 139.805 76.1924 134.877C74.8369 131.628 73.7761 128.262 73.0231 124.821C72.5738 122.76 72.0615 120.736 71.4868 118.749C71.4616 118.663 71.4071 118.589 71.3329 118.539C71.2586 118.489 71.1693 118.467 71.0806 118.477C69.3972 118.651 67.7052 118.728 66.013 118.707C63.5718 118.676 61.1303 118.705 58.6906 118.793C54.6627 118.939 50.6317 118.979 46.6018 118.913C41.1505 118.824 35.6981 118.817 30.2466 118.893C29.668 118.901 29.253 118.843 29.0005 118.721C28.5711 118.516 28.2903 118.16 28.1577 117.653C28.0306 117.168 27.9571 116.544 27.9366 115.78C27.8924 113.954 27.9062 112.127 27.9781 110.299C28.0665 108.048 27.9532 105.709 27.6382 103.284C27.6277 103.21 27.591 103.141 27.5347 103.092C27.4784 103.043 27.4063 103.015 27.3315 103.015L11.8081 103.031C11.4986 103.031 11.2461 103.155 11.051 103.4C10.5774 104.002 10.0413 104.373 9.44282 104.513C8.89185 104.645 8.29059 104.567 7.63848 104.28C6.62551 103.836 6.05519 103.044 5.92809 101.902C5.85238 101.223 5.95738 100.647 6.24309 100.173C6.46836 99.7933 6.79725 99.4861 7.19085 99.2879C7.56111 99.0976 7.9684 99.0204 8.41217 99.0576C9.38645 99.1425 10.2911 99.6348 11.1256 100.534C11.3411 100.765 11.6064 100.881 11.9214 100.881L29.4647 100.864C29.5222 100.864 29.5792 100.876 29.6321 100.898C29.685 100.921 29.7328 100.954 29.7726 100.996C29.8124 101.038 29.8433 101.087 29.8635 101.141C29.8837 101.196 29.8928 101.253 29.8902 101.311C29.831 102.545 29.8421 103.782 29.9233 105.016C30.0245 106.507 30.0681 107.672 30.0532 108.512C30.0073 111.17 30.0184 113.791 30.0864 116.374C30.088 116.434 30.1014 116.494 30.126 116.55C30.1506 116.605 30.1859 116.655 30.2298 116.697C30.2737 116.739 30.3253 116.771 30.3818 116.793C30.4383 116.815 30.4984 116.825 30.5589 116.823C33.6553 116.751 36.7003 116.741 39.6939 116.793C46.027 116.902 52.3591 116.869 58.6906 116.696C60.328 116.651 62.1705 116.621 64.2169 116.604C66.3595 116.587 68.5015 116.544 70.644 116.474C70.6742 116.472 70.7032 116.461 70.7265 116.442C70.7499 116.423 70.7663 116.396 70.7733 116.367C70.7776 116.347 70.7778 116.327 70.7739 116.307C70.4507 114.801 70.1034 113.301 69.7322 111.806C69.4212 110.571 69.1922 109.317 69.0469 108.051C68.8922 106.649 68.7402 105.247 68.591 103.844C68.5194 103.175 68.4059 102.51 68.2511 101.855C68.1185 101.293 68.1047 100.86 68.2097 100.559C68.3589 100.133 68.6368 99.7669 69.0441 99.46C69.4492 99.1547 69.3989 99.006 68.8922 99.0132C66.9428 99.0375 64.9931 99.0088 63.0453 98.9272C62.5795 98.9089 62.2374 98.8262 62.0202 98.6802C61.6831 98.4543 61.4941 98.1186 61.4537 97.6729C61.0723 93.5006 60.8658 89.3141 60.8348 85.1243C60.8333 85.0126 60.7885 84.9059 60.7099 84.8269C60.6317 84.748 60.5256 84.7034 60.4148 84.7025C54.5276 84.6565 48.7222 84.6121 42.9986 84.5693C42.5803 84.5655 41.9486 84.5094 41.1031 84.4001C40.4695 84.323 39.832 84.2832 39.1937 84.2807C39.0992 84.2802 39.0063 84.3052 38.9246 84.353C38.843 84.4008 38.7756 84.4698 38.7295 84.5527C38.2471 85.4168 37.5867 85.9052 36.7483 86.0179C36.2263 86.09 35.6952 85.9876 35.2369 85.7265C34.7458 85.4622 34.3582 85.0387 34.1372 84.5249C33.8719 83.9183 33.8343 83.2873 34.0239 82.6324C34.2228 81.9442 34.6445 81.4131 35.2894 81.0395C35.8271 80.7287 36.4378 80.7054 37.1214 80.9702C37.7072 81.1977 38.3278 81.5957 38.9837 82.1634C39.0175 82.1923 39.0565 82.2141 39.0987 82.2278C39.1407 82.2411 39.1843 82.2456 39.2269 82.2411C39.8807 82.1784 40.336 82.1651 40.5919 82.2023C42.0343 82.4171 43.4849 82.4825 44.9439 82.3993L48.8814 82.4687L61.8655 82.6157C62.4142 82.6213 62.7375 82.8977 62.8353 83.4455C62.9696 84.2058 63.016 84.9706 62.9735 85.7404C62.953 86.105 62.9773 87.0918 63.0453 88.7013C63.047 88.7418 63.0718 89.7297 63.1199 91.665C63.1597 93.3207 63.3101 94.9719 63.5703 96.6073C63.5774 96.6505 63.5991 96.6899 63.6319 96.7187C63.6646 96.7476 63.7064 96.7641 63.7499 96.7655C64.6026 96.7916 65.4288 96.831 66.2285 96.8848C67.0723 96.9403 67.8963 96.9497 68.7015 96.9125C69.8714 96.8587 71.0419 96.8293 72.2135 96.8237C72.4749 96.8221 72.7937 96.6933 73.1695 96.438L73.7912 96.019C74.7927 95.3977 75.783 94.7584 76.7616 94.1015C80.1171 91.848 83.5847 89.7677 87.1511 87.8688C87.188 87.8496 87.2189 87.8205 87.2403 87.7847C87.2618 87.749 87.273 87.708 87.2727 87.6662C87.2633 80.7524 87.0449 73.8403 86.6178 66.9398C86.5697 66.1794 86.263 65.5534 85.6977 65.0611C85.4672 64.8613 85.3468 64.7558 85.3357 64.7447C83.9668 63.4422 82.3101 61.6823 80.3648 59.4639C79.8713 58.9017 79.6641 58.294 79.7431 57.6407C80.1062 54.6121 80.2498 52.3005 80.1741 50.706C80.0305 47.6963 79.9614 45.3836 79.9669 43.7685C79.9686 43.2746 79.7928 42.9233 79.4391 42.714C79.3465 42.6588 79.2534 42.6043 79.1601 42.5503C78.5964 42.1396 78.2537 41.6168 78.1322 40.9824C78.0288 40.4313 78.1084 39.8519 78.3698 39.2453C78.6666 38.561 79.1352 37.9699 79.7762 37.472C80.2642 37.0963 80.7892 36.9698 81.3512 37.0919C82.4747 37.34 83.2468 37.9177 83.6668 38.8262C83.9873 39.5239 84.0287 40.2371 83.7911 40.9658C83.5441 41.7245 83.0495 42.3144 82.3073 42.7362C82.2193 42.7863 82.1466 42.8595 82.0969 42.948C82.0472 43.0365 82.0225 43.137 82.0255 43.2385C82.0791 44.9795 82.1415 46.5657 82.2133 47.9976C82.3736 51.1484 82.2531 54.3746 81.8514 57.6768C81.8428 57.7553 81.8503 57.8348 81.8736 57.9102C81.8969 57.9856 81.9354 58.0554 81.9868 58.1153C83.7458 60.1577 85.5999 62.1335 87.549 64.0427C88.3597 64.838 88.7648 65.7315 88.7648 66.7233V67.5669C89.1264 73.7562 89.3254 79.954 89.3616 86.1539C89.3629 86.2189 89.3894 86.2808 89.4354 86.3265C89.4814 86.3722 89.5434 86.3981 89.6081 86.3986C89.6507 86.3981 89.6924 86.3864 89.7291 86.3648C91.6564 85.2402 93.6153 84.1714 95.6036 83.1596C98.3629 81.7538 99.7566 81.0434 99.7843 81.0284C103.469 79.1098 107.166 77.2156 110.876 75.3452C110.913 75.3267 110.944 75.2983 110.967 75.2631C110.989 75.2279 111.002 75.1872 111.003 75.1454C111.025 72.8683 110.982 70.5933 110.873 68.3217C110.739 65.5095 110.66 63.6614 110.638 62.7773C110.518 58.0559 110.405 53.3772 110.298 48.7413C110.297 48.6912 110.285 48.6419 110.265 48.5963C110.244 48.5506 110.215 48.5096 110.178 48.4755C110.142 48.4413 110.099 48.4149 110.052 48.3977C110.005 48.3804 109.956 48.3727 109.906 48.375C107.872 48.4599 106.044 48.4044 104.421 48.2085C102.673 47.9976 99.9926 47.8827 96.3801 47.8644C95.5235 47.8605 94.9277 47.7329 94.5923 47.4815C94.0911 47.1057 93.907 46.5308 94.0397 45.7554C94.1281 45.2409 94.1723 44.9784 94.1723 44.9673C94.5609 41.4348 94.5878 37.8715 94.2524 34.3335C94.2155 33.9323 94.2054 33.529 94.222 33.1264C94.2425 32.6158 94.342 32.2367 94.5205 31.9886C94.8316 31.5541 95.3455 31.341 96.0623 31.3504C98.4165 31.382 100.767 31.5014 103.114 31.7084C104.49 31.8305 105.999 31.8971 107.64 31.9082C107.671 31.9081 107.701 31.9017 107.729 31.8895C107.757 31.8774 107.783 31.8596 107.804 31.8373C107.825 31.815 107.841 31.7887 107.852 31.7598C107.863 31.731 107.868 31.7003 107.867 31.6695C107.817 30.6892 107.771 29.7087 107.728 28.728C107.691 27.8622 107.675 26.8815 107.679 25.7865C107.695 22.1441 107.608 18.5038 107.416 14.8669C107.405 14.671 107.409 14.3746 107.43 13.9789C107.441 13.7275 107.438 13.4766 107.422 13.2269C107.418 13.1831 107.405 13.1405 107.384 13.1022C107.362 13.0639 107.333 13.0307 107.297 13.0049C106.337 12.2778 105.793 11.4092 105.664 10.3991C105.508 9.17814 106.015 8.25518 107.187 7.62969C108.498 6.93039 109.571 6.95093 110.406 7.69074C111.15 8.35119 111.499 9.19091 111.453 10.2104C111.407 11.2333 110.873 12.1319 109.85 12.905C109.745 12.9841 109.661 13.0874 109.604 13.2063C109.548 13.3251 109.52 13.4559 109.524 13.5876C109.716 19.6443 109.848 25.7932 109.92 32.033C109.929 32.7601 109.808 33.279 109.558 33.5898C109.28 33.9356 108.898 34.1243 108.414 34.1559C108.41 34.1576 108.004 34.1365 107.195 34.0921C103.607 33.9017 100.095 33.6869 96.6619 33.4483C96.5882 33.443 96.5147 33.4624 96.4531 33.5035C96.3915 33.5446 96.3452 33.605 96.3215 33.6753C96.3054 33.7219 96.2999 33.7713 96.3055 33.8201C96.7459 37.87 96.7188 41.7444 96.2253 45.4446C96.22 45.4883 96.224 45.5327 96.2369 45.5748C96.2499 45.6169 96.2715 45.6557 96.3005 45.6888C96.3295 45.7214 96.3653 45.7472 96.4053 45.7645C96.4453 45.7817 96.4885 45.79 96.532 45.7887C99.1532 45.7332 101.662 45.8248 104.059 46.0634C105.16 46.1744 105.956 46.2399 106.446 46.2605C107.426 46.301 108.225 46.3032 108.842 46.266C109.798 46.2089 110.535 46.2549 111.052 46.4048C111.587 46.5602 111.978 46.9531 112.227 47.5841C112.407 48.0409 112.506 49.2203 112.522 51.1223C112.572 57.0219 112.731 62.9188 112.998 68.8129C113.07 70.4074 113.087 72.0707 113.05 73.8023C113.045 74.076 113.162 74.1476 113.404 74.016C115.08 73.0892 116.758 72.164 118.438 71.241C119.363 70.7342 120.274 70.2012 121.168 69.6426C122.489 68.814 123.372 68.2313 123.815 67.8944C124.573 67.3188 125.592 66.367 126.874 65.0389C126.887 65.0239 127.083 64.8807 127.463 64.6088C127.71 64.4312 127.825 64.1687 127.808 63.8207C127.792 63.4671 127.783 63.2779 127.783 63.2518C127.962 59.6349 127.981 55.5917 127.839 51.1223C127.809 50.2176 128.139 49.6282 128.828 49.3546C129.02 49.2769 129.607 49.1787 130.591 49.0604C132.313 48.8534 134.045 48.7774 135.785 48.8329C135.803 48.8338 135.821 48.8308 135.838 48.8242C135.855 48.8176 135.87 48.8075 135.883 48.7946C135.895 48.7818 135.905 48.7665 135.912 48.7497C135.918 48.7329 135.921 48.7149 135.921 48.6969C135.683 42.1202 135.708 35.6322 135.995 29.2331C136.001 29.1224 135.977 29.0123 135.927 28.9136C135.878 28.8148 135.803 28.7308 135.711 28.6697C134.478 27.8522 133.973 26.78 134.194 25.4535C134.295 24.8486 134.586 24.3907 135.067 24.0799C135.436 23.8429 135.914 23.6681 136.501 23.5554C137.129 23.4333 137.73 23.4833 138.303 23.7053C139.038 23.9883 139.546 24.4462 139.828 25.0789C140.152 25.7987 140.042 26.5674 139.496 27.3849C139.203 27.8275 138.81 28.1945 138.35 28.4561C138.265 28.5049 138.196 28.5759 138.148 28.6615C138.101 28.7471 138.078 28.8439 138.082 28.9417C138.104 29.6743 138.094 30.4308 138.054 31.2116C137.748 37.0066 137.755 42.8139 138.073 48.6081C138.074 48.647 138.089 48.6844 138.115 48.7134C138.141 48.7424 138.176 48.7611 138.214 48.7663C142.013 49.3228 145.866 49.403 149.684 49.0049C149.722 49.0002 149.757 48.9814 149.782 48.9522C149.807 48.9231 149.821 48.8854 149.82 48.8468C149.792 47.934 149.791 47.0206 149.817 46.1078C149.848 44.9978 149.852 44.086 149.828 43.3717C149.675 38.6187 149.599 33.8636 149.598 29.1082C149.599 29.0221 149.571 28.9384 149.518 28.8705C149.465 28.8026 149.392 28.7543 149.308 28.7336C148.306 28.4744 147.533 27.9077 146.99 27.0325C146.658 26.498 146.602 25.877 146.822 25.1705C147.103 24.2603 147.63 23.6453 148.402 23.3251C148.959 23.0937 149.579 22.9904 150.264 23.0143C150.987 23.0365 151.598 23.279 152.099 23.7413C152.739 24.3313 153.058 25.0495 153.058 25.8947C153.056 26.7439 152.677 27.5276 151.92 28.2452C151.835 28.3266 151.769 28.4245 151.723 28.5329C151.678 28.6412 151.656 28.7577 151.657 28.8751C151.784 35.5834 151.905 42.3516 152.019 49.1798C152.034 50.0528 151.721 50.6244 151.08 50.8947C150.873 50.9819 150.306 51.0734 149.377 51.1694C146.329 51.4841 143.064 51.4453 139.582 51.0529C136.644 50.7216 133.494 50.8131 130.132 51.3276C130.095 51.333 130.061 51.352 130.036 51.3809C130.012 51.4104 129.999 51.4479 129.999 51.4863C130.082 56.1073 130.028 60.7637 129.836 65.4551C129.835 65.4975 129.844 65.5396 129.862 65.5778C129.88 65.616 129.907 65.6492 129.941 65.6744C131.387 66.7555 132.796 67.8846 134.166 69.0599C134.704 69.5205 135.211 69.9268 135.686 70.2781L136.73 71.0495C137.084 71.3104 137.439 71.5529 137.797 71.7766C142.454 74.7114 147.264 77.3941 152.207 79.813C154.972 81.1655 156.359 81.8443 156.368 81.8498C159.666 83.5116 162.936 85.2305 166.175 87.0058C166.322 87.0874 166.391 87.043 166.382 86.8726C166.008 80.5826 165.91 74.2791 166.089 67.9804C166.172 65.0206 166.196 62.0602 166.161 59.1004C166.15 58.2734 166.447 57.7418 167.051 57.5048C167.124 57.477 167.65 57.3927 168.628 57.2522C170.716 56.9542 172.805 56.6445 174.898 56.3226C174.936 56.3169 174.971 56.2969 174.996 56.2666C175.02 56.2363 175.033 56.1979 175.031 56.1589C174.837 52.8733 174.742 49.6449 174.743 46.4741C174.743 44.9812 175.457 44.2608 176.885 44.3124C178.255 44.3653 179.625 44.2119 180.949 43.8573C181.035 43.8329 181.11 43.7801 181.162 43.7075C181.602 43.0859 182.047 42.603 182.497 42.2589C183.156 41.7539 183.861 41.5707 184.61 41.7095C185.305 41.8371 185.883 42.1768 186.343 42.7279C187.001 43.5143 187.095 44.4856 186.625 45.6416C186.229 46.6168 185.578 47.2778 184.671 47.6258C184.017 47.8755 183.387 47.8661 182.781 47.598C182.15 47.3189 181.658 46.8477 181.308 46.1855C181.264 46.101 181.191 46.0349 181.102 45.9989C181.014 45.9629 180.916 45.9592 180.825 45.9885C179.724 46.3454 178.519 46.5058 177.211 46.4686C177.136 46.4659 177.062 46.4865 177 46.5276C176.937 46.5686 176.889 46.6281 176.861 46.6978C176.843 46.7439 176.834 46.7934 176.835 46.8432C176.883 49.0782 176.922 51.3598 176.954 53.6891C176.963 54.3424 177.055 55.2209 177.23 56.3254C177.355 57.1135 177.128 57.684 176.548 58.0376C176.281 58.2002 175.753 58.34 174.964 58.4566C172.905 58.758 170.752 59.0837 168.507 59.4334C168.434 59.445 168.368 59.4824 168.32 59.539C168.272 59.5955 168.246 59.6673 168.247 59.7414C168.286 63.5249 168.24 67.2189 168.112 70.8248C167.957 75.1887 168.087 80.4807 168.501 86.7005C168.503 86.7155 168.497 86.9531 168.485 87.4137C168.468 87.9426 168.701 88.3062 169.184 88.5043C169.477 88.6247 169.632 88.6891 169.651 88.6985C173.086 90.4357 176.503 92.2106 179.902 94.0238C181.539 94.8966 183.138 95.8401 184.693 96.8515C184.769 96.8997 184.858 96.9239 184.948 96.9209C188.628 96.7322 191.697 96.6822 194.154 96.771C194.573 96.786 194.904 96.695 195.149 96.4991C195.344 96.342 195.46 96.059 195.497 95.6499C195.641 94.0571 195.602 92.7484 195.381 91.7233C195.042 90.151 194.841 89.0354 194.776 88.3766C194.584 86.4047 195.46 85.4035 197.401 85.3741C199.615 85.3408 201.825 85.4257 204.03 85.6294C205.019 85.7199 206.01 85.757 207.003 85.7404C207.057 85.7397 207.108 85.7183 207.147 85.6806C207.186 85.6429 207.208 85.5918 207.21 85.5378C207.257 84.3266 207.17 83.114 206.951 81.922C206.8 81.1078 206.978 80.4973 207.487 80.0905C207.8 79.8424 208.337 79.6976 209.098 79.6548C210.838 79.557 212.58 79.5042 214.323 79.4966C214.661 79.4966 214.938 79.3646 215.152 79.0998C216.146 77.8733 217.299 77.4737 218.608 77.901C219.4 78.158 220.025 78.5737 220.482 79.147C220.997 79.7908 221.221 80.4801 221.15 81.2144C221.082 81.9231 220.783 82.5175 220.252 82.9987C219.63 83.5631 218.828 83.7935 217.846 83.6897C216.659 83.5637 215.779 82.9804 215.204 81.9386C215.146 81.8335 215.061 81.746 214.958 81.6856C214.856 81.6258 214.739 81.5953 214.621 81.5973L209.382 81.7139C209.334 81.7145 209.287 81.726 209.244 81.7475C209.202 81.769 209.164 81.8 209.135 81.8382C209.106 81.8764 209.085 81.9206 209.075 81.9677C209.064 82.0148 209.065 82.0637 209.075 82.1107C209.269 82.9492 209.354 83.809 209.33 84.6692C209.296 85.7182 209.096 86.4913 208.73 86.9891C208.207 87.7034 207.355 88.0037 206.174 87.891C203.324 87.6191 200.39 87.4803 197.371 87.4748C196.899 87.4731 196.719 87.7023 196.829 88.163C197.312 90.1515 197.603 92.1423 197.702 94.1348C197.767 95.439 197.592 96.5202 197.177 97.3787C196.704 98.3594 195.834 98.8512 194.569 98.855C192.598 98.8606 190.627 98.8595 188.656 98.8523C188.599 98.8523 188.487 98.8451 188.321 98.8301C187.942 98.7968 187.895 98.9228 188.18 99.2075C188.234 99.263 188.322 99.3268 188.446 99.3989C188.989 99.7225 189.234 100.234 189.181 100.934C188.785 106.122 188.05 111.279 186.978 116.371C186.973 116.4 186.973 116.43 186.98 116.459C186.987 116.488 187 116.515 187.018 116.538C187.037 116.561 187.06 116.58 187.087 116.592C187.113 116.605 187.142 116.612 187.172 116.612C189.985 116.619 192.796 116.577 195.605 116.485C199.635 116.355 203.669 116.389 207.697 116.587C210.762 116.739 212.603 116.824 213.22 116.843C217.249 116.963 221.279 117.016 225.309 117.004C226.476 117.002 227.64 116.875 228.78 116.623C229.154 116.54 229.355 116.307 229.385 115.924C229.442 115.159 229.412 114.39 229.296 113.632C229.022 111.828 228.749 110.023 228.478 108.218C228.359 107.431 228.341 106.631 228.426 105.84C228.524 104.931 228.789 104.207 229.222 103.667C229.839 102.901 230.699 102.454 231.802 102.327C233.385 102.142 234.976 102.04 236.569 102.021C241.266 101.971 245.908 101.978 250.495 102.041C250.611 102.042 250.725 102.016 250.828 101.963C250.931 101.91 251.02 101.833 251.086 101.738C251.941 100.523 253.072 100.133 254.477 100.57C255.284 100.82 255.928 101.218 256.408 101.766C256.913 102.342 257.175 103.008 257.196 103.764C257.222 104.674 256.834 105.413 256.033 105.981C255.257 106.529 254.338 106.664 253.275 106.386C252.286 106.129 251.432 105.473 250.713 104.419C250.515 104.129 250.221 104.01 249.832 104.064C249.303 104.134 249.011 104.169 248.956 104.169C243.699 104.08 238.44 104.112 233.184 104.264C232.98 104.269 232.503 104.348 231.753 104.499C231.135 104.623 230.743 104.989 230.576 105.598C230.443 106.085 230.439 106.819 230.565 107.802C230.82 109.781 231.026 111.146 231.181 111.895C231.5 113.432 231.615 114.796 231.526 115.988C231.45 117.016 230.939 117.797 229.99 118.33C229.174 118.787 228.051 119.027 226.621 119.049C219.609 119.164 214.197 119.091 210.388 118.832C205.698 118.514 200.995 118.424 196.296 118.563C193.164 118.654 189.973 118.697 186.721 118.694C186.644 118.694 186.568 118.72 186.507 118.767C186.446 118.815 186.401 118.882 186.382 118.957C185.999 120.422 185.63 121.903 185.276 123.4C184.858 125.165 184.457 126.637 184.074 127.815C183.021 131.062 181.827 134.261 180.496 137.403C179.95 138.681 179.423 139.967 178.913 141.26C178.408 142.557 177.896 143.851 177.377 145.142C177.367 145.164 177.234 145.526 176.976 146.227C176.677 147.045 176.256 147.88 175.71 148.733C174.863 150.061 173.222 152.854 170.789 157.111C170.477 157.647 170.14 158.17 169.781 158.676C169.419 159.183 169.036 159.674 168.634 160.149C167.201 161.864 165.793 163.601 164.412 165.358C164.139 165.706 164.004 166.052 164.006 166.396C164.011 166.843 164.096 167.286 164.257 167.703C164.287 167.783 164.34 167.851 164.411 167.898C164.481 167.946 164.565 167.969 164.649 167.966C169.842 167.782 174.865 167.894 179.717 168.305C180.332 168.357 180.948 168.373 181.563 168.355C181.601 168.354 181.638 168.338 181.665 168.311C181.692 168.283 181.708 168.246 181.709 168.208C181.772 166.765 181.752 165.87 181.651 165.522C181.417 164.713 181.348 164.066 181.444 163.579C181.523 163.174 181.747 162.858 182.115 162.63C182.362 162.476 182.715 162.385 183.174 162.355C184.078 162.3 185.436 162.268 187.246 162.261C188.138 162.257 188.685 162.566 188.888 163.188C188.93 163.314 188.964 163.855 188.99 164.811C189.032 166.396 189.149 167.978 189.341 169.551C189.492 170.811 189.597 172.139 189.656 173.536C189.659 173.604 189.688 173.668 189.737 173.714C189.786 173.761 189.851 173.786 189.918 173.786C194.211 173.678 198.385 173.692 202.441 173.827C202.479 173.829 202.517 173.819 202.549 173.798C202.582 173.777 202.607 173.746 202.621 173.711C203.4 171.714 204.786 171.072 206.779 171.782C207.474 172.03 208.035 172.482 208.465 173.139C208.811 173.673 209.001 174.218 209.034 174.773C209.074 175.451 208.867 176.026 208.412 176.5C208.025 176.901 207.532 177.153 206.931 177.254C206.362 177.349 205.786 177.304 205.201 177.121C204.426 176.88 203.705 176.487 203.082 175.964C203.016 175.907 202.931 175.878 202.845 175.883C202.06 175.922 201.276 175.932 200.493 175.911L198.175 175.85C194.844 175.832 192.191 175.857 190.217 175.928C188.437 175.991 187.533 175.22 187.503 173.616C187.498 173.262 187.491 172.908 187.481 172.553C187.277 169.86 187.046 167.202 186.791 164.581C186.785 164.513 186.754 164.45 186.704 164.405C186.653 164.36 186.587 164.337 186.52 164.339L183.837 164.409C183.806 164.41 183.776 164.417 183.748 164.43C183.721 164.443 183.696 164.462 183.676 164.485C183.656 164.508 183.641 164.536 183.632 164.565C183.623 164.594 183.62 164.625 183.624 164.656C183.783 165.97 183.855 167.206 183.842 168.366C183.83 169.433 183.375 170.104 182.48 170.378C181.957 170.537 181.304 170.577 180.521 170.497C180.013 170.443 179.752 170.417 179.739 170.417C174.679 170.012 169.599 169.92 164.528 170.142C163.981 170.164 163.573 170.099 163.306 169.945C162.924 169.721 162.65 169.372 162.486 168.896C162.409 168.671 162.33 168.447 162.248 168.224C162.232 168.18 162.204 168.14 162.168 168.11C162.132 168.079 162.089 168.058 162.043 168.049C161.996 168.04 161.948 168.043 161.903 168.059C161.859 168.074 161.818 168.1 161.787 168.136C160.779 169.268 159.797 170.36 158.841 171.41C157.849 172.492 156.82 173.539 155.758 174.551C154.855 175.418 153.956 176.288 153.061 177.163C152.17 178.039 151.246 178.882 150.292 179.688C146.213 183.11 142.003 186.372 137.673 189.467C137.503 189.589 137.522 189.649 137.731 189.647L154.918 189.514ZM108.514 11.0613C108.72 11.0801 108.926 11.0002 109.088 10.8381C109.255 10.6648 109.356 10.4385 109.375 10.1982C109.386 10.0756 109.377 9.95237 109.348 9.83526C109.321 9.7214 109.273 9.61347 109.207 9.51669C109.146 9.42608 109.066 9.34933 108.974 9.29136C108.886 9.23644 108.786 9.20281 108.683 9.19313C108.478 9.17426 108.272 9.25473 108.11 9.41679C107.943 9.59004 107.842 9.81607 107.823 10.0562C107.812 10.1788 107.821 10.302 107.849 10.4191C107.878 10.5357 107.926 10.6445 107.99 10.7377C108.054 10.8309 108.134 10.9075 108.224 10.963C108.314 11.0185 108.413 11.0518 108.514 11.0613ZM150.978 26.0551C150.992 25.9515 150.979 25.846 150.941 25.7488C150.898 25.6424 150.834 25.5463 150.752 25.4668C150.661 25.3782 150.555 25.3058 150.44 25.2526C150.318 25.1956 150.187 25.1572 150.053 25.1388C149.78 25.1011 149.506 25.1455 149.292 25.2637C149.079 25.3814 148.943 25.5629 148.915 25.7677C148.901 25.8692 148.914 25.973 148.952 26.074C148.992 26.175 149.056 26.271 149.141 26.3559C149.228 26.4409 149.333 26.5136 149.453 26.5702C149.573 26.6262 149.705 26.6645 149.84 26.684C150.114 26.7217 150.387 26.6773 150.601 26.5591C150.814 26.4414 150.95 26.2599 150.978 26.0551ZM137.77 26.0396C137.753 25.8892 137.658 25.7538 137.509 25.6633C137.345 25.5701 137.156 25.5329 136.969 25.5573C136.782 25.5764 136.606 25.6561 136.468 25.7843C136.343 25.9064 136.282 26.0601 136.299 26.2105C136.316 26.3609 136.41 26.4969 136.561 26.5868C136.711 26.6773 136.905 26.7156 137.1 26.6928C137.295 26.6706 137.475 26.5885 137.601 26.4664C137.726 26.3437 137.788 26.19 137.77 26.0396ZM80.514 40.9053C80.593 40.9597 80.6837 40.9941 80.782 41.0074C80.8799 41.0202 80.9832 41.0113 81.086 40.9813C81.1882 40.9508 81.2882 40.9003 81.3794 40.8315C81.4712 40.7626 81.5524 40.6772 81.6187 40.58C81.7504 40.3924 81.8145 40.1654 81.8005 39.9362C81.7828 39.7204 81.6839 39.5378 81.5253 39.4279C81.4453 39.373 81.3534 39.338 81.2573 39.3257C81.1555 39.313 81.0521 39.3219 80.9539 39.3518C80.8477 39.3837 80.7482 39.4344 80.6599 39.5017C80.567 39.5718 80.4862 39.6567 80.4206 39.7531C80.2889 39.9407 80.2248 40.1678 80.2388 40.3969C80.2565 40.6128 80.3554 40.7959 80.514 40.9053ZM183.527 45.5678C183.691 45.6577 183.896 45.6566 184.096 45.5639C184.297 45.4718 184.477 45.2959 184.596 45.0755C184.656 44.9668 184.698 44.8497 184.722 44.732C184.745 44.6192 184.749 44.5032 184.734 44.389C184.721 44.2862 184.685 44.1874 184.631 44.0993C184.581 44.0186 184.511 43.952 184.429 43.9062C184.264 43.8163 184.06 43.8174 183.859 43.91C183.659 44.0022 183.479 44.1781 183.359 44.3984C183.3 44.5061 183.258 44.6221 183.233 44.7425C183.21 44.8552 183.206 44.971 183.221 45.085C183.237 45.1938 183.272 45.292 183.324 45.3747C183.376 45.4579 183.446 45.5234 183.527 45.5678ZM103.437 176.083C105.257 177.72 107.112 179.316 109.002 180.87C109.186 181.022 110.202 181.876 112.05 183.431C113.065 184.288 114.113 185.103 115.192 185.876C116.069 186.505 117.268 187.254 118.792 188.121C120.564 189.131 121.778 189.859 122.434 190.305C123.987 191.364 125.668 192.328 127.477 193.199C127.504 193.213 127.535 193.219 127.565 193.217C127.596 193.216 127.626 193.207 127.652 193.192C127.679 193.176 127.701 193.154 127.717 193.128C127.733 193.102 127.742 193.072 127.745 193.041C127.966 189.546 128.033 186.132 127.946 182.796C127.88 180.191 127.849 178.341 127.852 177.246C127.876 171.224 127.849 167.571 127.77 166.285C127.681 164.851 127.589 163.422 127.493 161.997C127.487 161.887 127.439 161.783 127.359 161.707C127.28 161.63 127.175 161.586 127.065 161.584C122.903 161.48 118.739 161.427 114.575 161.423C112.733 161.424 110.892 161.472 109.052 161.567C107.188 161.658 105.324 161.747 103.459 161.834C103.444 161.835 103.303 161.849 103.037 161.873C102.405 161.93 102.026 161.71 101.901 161.212C101.899 161.199 101.873 160.786 101.823 159.974C101.753 158.795 101.721 157.615 101.727 156.434C101.762 145.672 101.637 134.913 101.351 124.157C101.325 123.243 101.262 122.33 101.16 121.421C101.002 119.945 100.914 119.036 100.898 118.694C100.876 118.222 101.018 117.853 101.326 117.586C101.549 117.392 101.889 117.299 102.346 117.306C102.97 117.317 103.594 117.363 104.216 117.445C104.275 117.452 104.334 117.438 104.383 117.405C104.432 117.372 104.468 117.323 104.484 117.266C104.494 117.228 104.495 117.189 104.487 117.151C102.971 110.137 103.589 103.332 106.341 96.7349C107.82 93.1706 110.018 89.9524 112.796 87.2833C116.674 83.5443 121.568 81.3337 127.479 80.651C127.56 80.6422 127.635 80.604 127.69 80.5438C127.745 80.4835 127.776 80.4053 127.778 80.3236L128.027 67.2062C128.034 66.8748 127.931 66.8371 127.72 67.0924C126.862 68.1324 125.864 69.0476 124.755 69.8119C122.988 71.028 121.164 72.1578 119.289 73.1974C116.083 74.9732 112.845 76.6911 109.577 78.3506C106.978 79.6698 104.388 81.0046 101.807 82.3549C101.26 82.6418 99.6229 83.4882 96.8968 84.894C90.6939 88.0927 84.6382 91.5714 78.7483 95.3197C78.5588 95.4379 77.6856 96.0123 76.1289 97.043C75.1325 97.7034 74.2416 98.2545 73.4569 98.6969C72.2372 99.3812 71.2143 100.208 70.387 101.175C70.3584 101.207 70.3373 101.246 70.3253 101.288C70.3134 101.33 70.3108 101.373 70.318 101.416C70.6179 103.31 70.8685 105.212 71.0695 107.119C71.2243 108.584 71.4398 109.905 71.7161 111.082C72.4639 114.26 73.2653 117.426 74.1201 120.578C74.6008 122.348 75.0557 124.124 75.4851 125.906C75.8069 127.252 76.183 128.584 76.6124 129.899C76.9457 130.93 77.432 132.223 78.0714 133.778C80.3742 139.378 82.7505 144.716 85.2003 149.79C89.5716 158.852 95.1687 167.152 101.992 174.69C102.303 175.036 102.785 175.501 103.437 176.083ZM128.922 80.6233C134.881 80.8658 140.048 82.9865 144.423 86.9864C147.569 89.8629 149.971 93.2729 151.629 97.215C154.192 103.309 154.926 109.737 153.832 116.501C153.823 116.555 153.825 116.61 153.837 116.662C153.85 116.715 153.873 116.765 153.905 116.809C153.937 116.853 153.977 116.89 154.023 116.918C154.069 116.946 154.121 116.965 154.174 116.973C154.522 117.025 154.833 117.162 155.105 117.384C155.341 117.576 155.496 117.857 155.57 118.225C155.665 118.704 155.702 119.187 155.68 119.676L155.614 121.044C155.642 124.448 155.597 127.85 155.481 131.25C155.299 136.567 155.331 141.89 155.578 147.204C155.716 150.188 155.832 153.172 155.926 156.156C155.976 157.777 155.943 159.348 155.827 160.871C155.797 161.258 155.59 161.472 155.205 161.515C153.635 161.683 152.227 161.741 150.98 161.689C145.847 161.471 140.708 161.472 135.575 161.692C133.365 161.786 131.078 161.788 128.715 161.698C128.69 161.696 128.666 161.7 128.644 161.709C128.621 161.718 128.601 161.731 128.584 161.749C128.567 161.766 128.554 161.787 128.545 161.81C128.537 161.832 128.533 161.857 128.535 161.881C128.81 166.525 128.901 171.207 128.811 175.928C128.782 177.36 128.826 179.418 128.944 182.102C129.097 185.621 129.028 189.137 128.737 192.65C128.707 192.992 128.838 193.074 129.129 192.894C130.85 191.824 132.534 190.695 134.177 189.509C135.277 188.715 138.685 186.148 144.401 181.808C148.295 178.848 152.178 175.338 156.05 171.277C157.323 169.939 158.582 168.588 159.828 167.225C162.552 164.245 165.155 161.16 167.636 157.971C168.211 157.233 168.801 156.321 169.408 155.237C169.907 154.344 171.542 151.572 174.315 146.921C174.54 146.543 174.78 146.02 175.036 145.35C176.171 142.383 177.641 138.725 179.446 134.375C180.931 130.799 182.052 127.578 182.809 124.712C183.233 123.107 183.888 120.337 184.776 116.404C185.253 114.29 185.613 112.478 185.857 110.968C186.358 107.859 186.737 104.732 186.995 101.594C187.028 101.215 186.89 100.915 186.581 100.695C183.202 98.2862 179.596 96.1283 175.763 94.2208C171.951 92.3266 166.156 89.334 158.377 85.2437C156.719 84.3723 154.72 83.3761 152.378 82.255C147.351 79.8463 142.355 77.0918 137.388 73.991C135.581 72.8641 133.868 71.5928 132.265 70.1893C131.345 69.3835 130.386 68.6241 129.392 67.9138C129.144 67.7379 129.018 67.8039 129.013 68.1108L128.825 80.5206C128.824 80.5337 128.827 80.5468 128.832 80.5589C128.836 80.5714 128.843 80.5828 128.852 80.5924C128.861 80.6019 128.872 80.6095 128.884 80.6144C128.896 80.62 128.909 80.6227 128.922 80.6233ZM217.561 81.3781C218.147 81.7316 218.609 81.6739 218.948 81.206C218.973 81.1702 218.99 81.1293 218.998 81.0861C219.006 81.043 219.004 80.9986 218.992 80.9563C218.854 80.4307 218.458 80.0639 217.804 79.8546C217.707 79.8232 217.601 79.8291 217.508 79.8711C217.415 79.9131 217.34 79.9883 217.299 80.0822C217.035 80.6799 217.123 81.1117 217.561 81.3781ZM36.3587 83.0348C36.1156 83.0276 36.0089 83.2179 36.0382 83.6064C36.0422 83.6568 36.0591 83.7052 36.0873 83.7471C36.1154 83.7889 36.154 83.8227 36.199 83.8451C36.2441 83.8677 36.2942 83.8783 36.3445 83.8758C36.3948 83.8734 36.4437 83.858 36.4864 83.8312C36.808 83.6297 36.9086 83.4383 36.787 83.2568C36.6892 83.1125 36.5466 83.0387 36.3587 83.0348ZM138.424 93.0081C135.982 90.509 132.938 89.1453 129.295 88.9178C129.25 88.9149 129.205 88.9213 129.162 88.9367C129.12 88.952 129.081 88.976 129.048 89.0071C129.015 89.0381 128.988 89.0753 128.97 89.1167C128.952 89.1581 128.942 89.2027 128.941 89.248C128.843 94.1248 128.755 99.0604 128.676 104.055C128.605 108.353 128.625 112.651 128.734 116.948C128.736 117.044 128.776 117.136 128.845 117.203C128.913 117.271 129.005 117.308 129.101 117.309C132.59 117.292 135.969 117.217 139.239 117.084C140.711 117.023 142.307 116.98 144.025 116.954C144.102 116.952 144.176 116.925 144.235 116.876C144.294 116.827 144.335 116.76 144.351 116.684C145.639 110.646 145.116 104.874 142.782 99.3684C141.831 97.1246 140.379 95.0045 138.424 93.0081ZM127.847 97.1373C127.867 94.6104 127.863 91.9841 127.836 89.2591C127.835 89.2245 127.827 89.1904 127.813 89.1591C127.798 89.1277 127.777 89.0998 127.751 89.0771C127.725 89.0547 127.694 89.0381 127.661 89.0283C127.628 89.0186 127.594 89.0159 127.56 89.0204C125.367 89.3201 123.325 90.1288 121.431 91.4458C120.142 92.3449 118.958 93.4521 117.88 94.7675C116.935 95.9219 116.069 97.2777 115.283 98.8356C112.474 104.412 111.644 110.411 112.793 116.834C112.804 116.889 112.833 116.937 112.875 116.972C112.918 117.008 112.972 117.028 113.028 117.029L127.372 117.217C127.44 117.218 127.505 117.191 127.554 117.143C127.602 117.095 127.63 117.03 127.631 116.962V110.163C127.631 108.548 127.659 106.698 127.714 104.613C127.782 102.121 127.826 99.6293 127.847 97.1373ZM9.29361 102.289C9.33856 102.231 9.36768 102.161 9.37817 102.088C9.38977 102.012 9.38369 101.931 9.36159 101.848C9.33683 101.761 9.29759 101.68 9.24553 101.606C9.19032 101.528 9.12363 101.458 9.04769 101.399C8.90196 101.282 8.72297 101.214 8.53651 101.206C8.36409 101.203 8.21709 101.265 8.12756 101.381C8.08261 101.44 8.05349 101.51 8.04301 101.583C8.03196 101.658 8.03748 101.74 8.05959 101.823C8.0828 101.905 8.12259 101.988 8.17619 102.065C8.2298 102.142 8.29722 102.212 8.37348 102.272C8.52822 102.392 8.71224 102.462 8.88467 102.465C9.05709 102.469 9.20409 102.405 9.29361 102.289ZM254.97 104.035C255.024 103.935 255.051 103.822 255.049 103.709C255.046 103.583 255.016 103.459 254.962 103.346C254.901 103.219 254.82 103.102 254.721 103.002C254.509 102.785 254.239 102.635 253.944 102.57C253.807 102.539 253.665 102.531 253.526 102.547C253.401 102.56 253.281 102.601 253.173 102.665C253.076 102.723 252.995 102.806 252.939 102.905C252.885 103.005 252.858 103.117 252.86 103.231C252.862 103.349 252.892 103.473 252.948 103.594C253.004 103.715 253.086 103.832 253.189 103.938C253.401 104.154 253.671 104.304 253.966 104.37C254.109 104.401 254.251 104.409 254.383 104.393C254.508 104.379 254.628 104.339 254.736 104.275C254.837 104.214 254.916 104.132 254.97 104.035ZM122.29 159.408C128.424 159.643 133.267 159.692 136.819 159.555C141.031 159.393 145.247 159.382 149.46 159.522C150.842 159.568 152.225 159.603 153.608 159.625C153.659 159.625 153.709 159.611 153.751 159.583C153.794 159.554 153.827 159.514 153.847 159.467C153.859 159.435 153.865 159.401 153.865 159.367C153.771 155.567 153.644 151.768 153.486 147.97C153.206 141.171 153.2 134.372 153.467 127.574C153.535 125.851 153.541 123.024 153.486 119.093C153.486 119.056 153.471 119.02 153.446 118.993C153.42 118.967 153.385 118.951 153.348 118.949C151.063 118.867 148.775 118.868 146.49 118.952C141.77 119.122 137.049 119.235 132.326 119.29C130.485 119.307 128.643 119.299 126.802 119.265C121.991 119.182 117.178 119.153 112.365 119.179C110.204 119.192 108.047 119.289 105.894 119.471C105.472 119.505 105.041 119.519 104.603 119.512C104.168 119.507 103.734 119.505 103.299 119.507C103.281 119.507 103.264 119.511 103.248 119.518C103.231 119.526 103.217 119.536 103.205 119.55C103.193 119.563 103.184 119.579 103.178 119.595C103.172 119.612 103.17 119.63 103.172 119.648C103.365 122.246 103.482 124.402 103.523 126.117C103.788 137.122 103.903 148.217 103.868 159.4C103.868 159.43 103.873 159.46 103.885 159.488C103.896 159.516 103.914 159.542 103.936 159.563C103.957 159.584 103.983 159.601 104.011 159.612C104.04 159.624 104.07 159.629 104.1 159.628C105.867 159.601 107.633 159.543 109.397 159.455C111.853 159.33 114.31 159.267 116.769 159.267C117.991 159.267 119.831 159.314 122.29 159.408ZM206.816 174.973C206.859 174.893 206.877 174.802 206.866 174.711C206.853 174.603 206.817 174.498 206.76 174.405C206.694 174.292 206.611 174.189 206.515 174.1C206.303 173.902 206.048 173.756 205.77 173.675C205.645 173.638 205.515 173.619 205.384 173.62C205.275 173.619 205.167 173.641 205.068 173.686C204.985 173.723 204.915 173.785 204.869 173.863C204.826 173.943 204.808 174.035 204.819 174.125C204.829 174.223 204.864 174.327 204.925 174.432C204.985 174.536 205.068 174.64 205.17 174.736C205.382 174.935 205.637 175.08 205.915 175.161C206.049 175.2 206.18 175.219 206.301 175.217C206.422 175.215 206.529 175.193 206.617 175.151C206.7 175.114 206.77 175.052 206.816 174.973ZM55.4428 179.524C55.4757 179.536 55.511 179.538 55.545 179.53C55.5835 179.522 55.6196 179.505 55.6511 179.481C55.6874 179.454 55.7191 179.421 55.7451 179.384C55.7727 179.345 55.7959 179.301 55.813 179.254C55.8465 179.165 55.8532 179.068 55.8324 178.975C55.8114 178.892 55.7633 178.832 55.6997 178.809C55.6668 178.797 55.6312 178.795 55.597 178.802C55.5586 178.811 55.5224 178.828 55.4908 178.852C55.4546 178.879 55.4228 178.912 55.3969 178.949C55.3557 179.007 55.3267 179.074 55.3117 179.144C55.2967 179.214 55.296 179.287 55.3096 179.357C55.3306 179.441 55.3787 179.501 55.4428 179.524ZM88.7869 199.033C90.688 199.056 92.4453 199.033 94.059 198.96C99.9628 198.694 105.628 198.587 111.055 198.641C113.382 198.663 115.223 198.673 116.579 198.669C120.486 198.66 123.134 198.687 124.523 198.752C131.403 199.076 138.288 199.274 145.177 199.346C149.921 199.396 154.664 199.453 159.408 199.515C161.922 199.549 163.883 199.56 165.29 199.549L168.587 199.521C172.684 199.53 176.781 199.513 180.877 199.468C180.959 199.467 182.118 199.421 184.356 199.332C185.517 199.284 186.679 199.298 187.838 199.374C188.03 199.387 188.058 199.325 187.923 199.188C186.26 197.503 184.635 195.78 183.049 194.021C182.105 192.973 181.11 191.972 180.068 191.021C179.998 190.957 179.917 190.908 179.828 190.877C179.739 190.846 179.645 190.834 179.551 190.841C175.572 191.124 171.599 191.284 167.631 191.321C166.135 191.336 164.662 191.39 163.21 191.485C161.191 191.618 159.716 191.682 158.786 191.676C155.4 191.658 152.015 191.668 148.631 191.707C147.975 191.714 146.133 191.708 143.105 191.69C140.342 191.67 137.58 191.772 134.827 191.998C134.379 192.037 133.974 192.189 133.614 192.456C131.985 193.664 130.311 194.658 128.59 195.439C128.448 195.505 128.294 195.542 128.137 195.547C127.98 195.552 127.824 195.524 127.678 195.467C125.304 194.571 123.142 193.407 121.193 191.973C121.087 191.894 120.959 191.85 120.826 191.846C120.694 191.842 120.564 191.879 120.453 191.951C120.141 192.158 119.773 192.264 119.4 192.253C119.223 192.248 119.046 192.245 118.869 192.245C117.051 192.335 114.837 192.354 112.227 192.3C107.224 192.199 100.151 192.113 91.0085 192.042L86.0597 191.959C83.7977 191.92 81.5364 191.94 79.2761 192.017C79.1862 192.021 79.0995 192.052 79.0274 192.106C76.513 194.04 74.1761 196.197 72.0449 198.55C71.7962 198.823 71.8559 198.96 72.2245 198.96C76.1852 198.953 80.1437 198.956 84.1006 198.969L88.7869 199.033ZM196.174 216.501L189.697 210.019C189.666 209.988 189.629 209.964 189.588 209.948C189.547 209.932 189.504 209.925 189.46 209.927C181.035 210.273 172.602 210.317 164.174 210.058C160.376 209.941 156.575 209.917 152.776 209.985C148.746 210.058 144.716 210.043 140.687 209.941C136.106 209.825 131.523 209.811 126.941 209.899C124.271 209.951 121.117 209.959 117.477 209.922C114.259 209.888 110.62 209.898 106.562 209.949C105.457 209.964 103.615 210.008 101.036 210.08C94.7501 210.254 88.4606 210.254 82.1747 210.08C80.0028 210.019 78.1615 209.995 76.6511 210.01C74.1681 210.033 71.6885 210.073 69.2127 210.13C69.1574 210.131 69.1033 210.146 69.0547 210.172C69.0062 210.199 68.9646 210.236 68.9336 210.282C67.2313 212.805 65.2798 215.149 63.1089 217.278C62.8641 217.518 62.9116 217.624 63.2526 217.595C63.7626 217.55 64.3147 217.527 64.9077 217.525C68.2014 217.521 71.494 217.485 74.786 217.414C77.1015 217.364 79.1286 217.355 80.8677 217.386C84.0066 217.444 85.848 217.471 86.3912 217.47C93.3472 217.446 100.301 217.518 107.253 217.689C109.02 217.732 110.862 217.716 112.779 217.642C116.804 217.485 121.248 217.385 126.112 217.345C128.61 217.324 131.925 217.258 136.059 217.145C137.956 217.093 139.798 217.063 141.583 217.053C148.072 217.016 154.561 216.957 161.049 216.876C161.064 216.874 161.857 216.855 163.428 216.818C164.977 216.78 166.838 216.794 169.01 216.859C171.882 216.944 175.473 216.911 179.783 216.759C179.798 216.758 181.594 216.653 185.171 216.446C188.824 216.233 192.471 216.295 196.111 216.632C196.251 216.644 196.272 216.601 196.174 216.501Z" fill="#1E2E34"/>
<path d="M131.749 142.225C132.22 144.736 132.695 147.246 133.174 149.757C133.29 150.373 133.317 150.804 133.255 151.05C133.127 151.549 132.753 151.781 132.133 151.746C131.762 151.728 131.57 151.719 131.555 151.719C129.676 151.73 127.797 151.75 125.918 151.78C125.907 151.78 125.622 151.798 125.062 151.835C123.647 151.931 123.145 151.175 123.556 149.565C124.147 147.247 124.379 144.704 124.252 141.937C124.248 141.846 124.212 141.761 124.15 141.695C121.692 139.129 121.27 136.255 122.882 133.071C123.565 131.724 124.677 130.698 126.217 129.993C128.577 128.915 130.723 129.085 132.658 130.504C133.859 131.386 134.651 132.541 135.034 133.967C135.388 135.288 135.366 136.618 134.968 137.957C134.466 139.645 133.424 140.998 131.84 142.017C131.806 142.039 131.779 142.071 131.762 142.108C131.746 142.145 131.741 142.186 131.749 142.225Z" fill="#1E2E34"/>
</g>
</g>
<defs>
<clipPath id="clip0_1045_1666">
<rect width="252" height="222" fill="white" transform="translate(5.5 7)"/>
</clipPath>
</defs>
</svg>
