<svg width="75" height="60" viewBox="0 0 75 60" fill="none" xmlns="http://www.w3.org/2000/svg">
<path opacity="0.3" d="M74.6948 20.5354C74.6948 7.44692 66.3453 0 57.093 0C48.7435 0 41.7479 6.99559 41.7479 15.5708C41.7479 23.9204 47.6151 29.7877 55.2877 29.7877C56.6417 29.7877 58.447 29.3363 59.124 29.1107C57.5444 36.7833 50.0975 46.0355 42.8762 50.3231L53.4824 59.124C65.894 50.3231 74.6948 36.1063 74.6948 20.5354ZM32.947 20.5354C32.947 7.44692 24.5974 0 15.3452 0C6.99559 0 0 6.99559 0 15.5708C0 23.9204 5.86727 29.7877 13.5399 29.7877C14.8938 29.7877 16.6992 29.3363 17.3761 29.1107C15.7965 36.7833 8.34958 46.0355 1.12832 50.3231L11.7345 59.124C24.1461 50.3231 32.947 36.1063 32.947 20.5354Z" fill="#658EC3"/>
</svg>
