<svg width="253" height="252" viewBox="0 0 253 252" fill="none" xmlns="http://www.w3.org/2000/svg">
<path d="M123.7 12.1407C105.052 23.6655 92.3739 41.2215 81.2915 58.8223C70.2091 76.4231 60.0115 94.8079 44.6003 109.631C32.9971 120.798 18.5211 129.853 9.63947 142.839C-2.68053 160.821 -2.02533 184.514 8.73787 203.263C19.5011 222.012 39.3867 235.911 61.5347 243.415C83.6827 250.919 107.97 252.426 131.585 250.572C157.283 248.55 183.2 242.362 203.943 228.732C232.71 209.854 248.58 178.231 251.756 146.602C254.931 114.974 246.648 83.2439 234.524 53.3679C230.324 43.0247 225.604 32.7207 218.447 23.7495C197.62 -2.39128 152.557 -5.67848 123.7 12.1407Z" fill="#F9FBFF"/>
<g clip-path="url(#clip0_278_5279)">
<path d="M163.915 56.139C163.963 56.1467 163.982 56.1731 163.972 56.2188L163.915 56.139ZM0.912452 157.556C0.872286 151.134 0.891543 145.766 0.970225 141.452C1.01809 138.86 1.04726 137.027 1.05826 135.952C1.1683 125.941 1.41755 115.932 1.80656 105.925C1.95346 102.163 2.06351 93.363 2.13669 79.525C2.14384 78.1099 2.1763 76.2773 2.23298 74.0278C2.37218 68.442 2.36778 62.3221 2.21922 55.6688C1.95126 43.6183 1.85993 35.0707 1.94411 30.025C2.01564 25.7592 2.10753 23.2155 2.21922 22.3938C2.34577 21.4681 2.92185 20.9126 3.94691 20.7273C5.81818 20.3851 7.72164 20.2513 9.62241 20.3285C11.1135 20.3912 11.864 20.422 11.8728 20.422C14.7543 20.4737 17.6347 20.5084 20.514 20.5265C21.4422 20.532 22.8161 20.4853 24.6351 20.3863C26.0107 20.3131 27.3879 20.2895 28.7673 20.3148C30.9005 20.3555 33.0325 20.3472 35.1635 20.29C42.6355 20.0904 50.1086 20.0425 57.5822 20.147C59.3886 20.1729 61.2235 20.1795 63.0871 20.1663C71.2521 20.1076 79.4172 20.2571 87.5746 20.6145C89.968 20.7212 91.8003 20.7905 93.0713 20.8235C98.5278 20.9649 104.948 21.0529 112.332 21.0875C113.674 21.093 114.314 21.7805 114.252 23.15C114.058 27.301 113.839 31.4508 113.597 35.5993C113.489 37.4528 113.438 39.2843 113.443 41.0938C113.46 46.7775 113.46 52.4595 113.443 58.141C113.438 59.7289 113.411 61.5631 113.363 63.6438C113.215 70.3153 113.192 76.0903 113.295 80.9688C113.463 88.9295 113.57 93.9939 113.614 96.1625C113.801 105.467 113.995 114.772 114.197 124.078C114.235 125.79 114.253 127.623 114.249 129.575C114.237 136.566 114.309 143.555 114.467 150.544C114.641 158.336 114.732 166.127 114.739 173.919C114.741 175.864 114.766 177.697 114.816 179.416C115.019 186.487 115.177 191.049 115.289 193.1C115.361 194.411 115.302 195.416 115.113 196.114C114.832 197.146 114.263 197.771 113.405 197.987C113.17 198.044 112.406 198.053 111.113 198.014C110.315 197.989 109.517 197.965 108.719 197.943C107.92 197.923 107.12 197.926 106.321 197.951C103.371 198.043 100.423 198.129 97.4758 198.21C91.2143 198.382 84.9544 198.614 78.6968 198.905C72.2389 199.206 67.5175 199.288 64.5314 199.15C61.3495 199.004 58.8284 199.011 56.9687 199.172C53.8457 199.442 50.7136 199.593 47.5792 199.626C47.5649 199.626 46.9905 199.652 45.857 199.703C45.4372 199.723 45.0163 199.719 44.5943 199.692C44.0512 199.655 43.6325 199.64 43.337 199.645C38.3851 199.757 33.4359 199.706 28.4894 199.491C24.9847 199.337 21.4753 199.319 17.9692 199.436C16.5629 199.484 15.156 199.508 13.749 199.508C11.0656 199.511 9.66092 199.51 9.53437 199.505C8.00753 199.436 6.49324 199.196 5.01983 198.79C3.83686 198.465 3.15349 198.257 2.97027 198.166C2.49364 197.929 2.09882 197.556 1.83682 197.093C1.63874 196.754 1.51054 196.272 1.45167 195.647C1.34905 194.561 1.29672 193.472 1.29485 192.382L1.2921 189.418C1.12539 181.61 0.998836 170.99 0.912452 157.556ZM35.5074 21.863C39.5884 21.9109 43.6683 21.9615 47.747 22.0143C49.253 22.033 51.088 22.0715 53.252 22.1298C57.991 22.2563 61.1091 22.2755 62.6057 22.1875C64.9662 22.0483 67.3315 22.0097 69.6953 22.072C72.6609 22.149 74.492 22.1875 75.1892 22.1875C78.4866 22.1914 81.7835 22.2068 85.0794 22.2343C85.4684 22.2381 86.9457 22.3003 89.5114 22.4213C90.9898 22.4911 92.4688 22.479 93.9489 22.3855C93.992 22.3835 94.0333 22.3674 94.0666 22.3399C94.0811 22.3281 94.0929 22.3133 94.1011 22.2965C94.1092 22.2796 94.1136 22.2612 94.1139 22.2425C94.1178 22.1017 94.0176 22.0319 93.8141 22.0335C91.9725 22.0374 89.8211 21.967 87.36 21.8218C84.895 21.6755 83.0628 21.5853 81.8633 21.5523C76.2022 21.3892 70.5388 21.3176 64.8753 21.3378C60.0609 21.3543 55.2465 21.3427 50.4321 21.302C45.2546 21.258 40.0786 21.351 34.9049 21.5798C34.8885 21.5805 34.8725 21.585 34.8582 21.593C34.8441 21.601 34.8322 21.6123 34.8235 21.626C34.815 21.6388 34.8101 21.6536 34.8092 21.6689C34.8088 21.6839 34.8126 21.6988 34.8202 21.7118C34.9005 21.8548 35.0293 21.9153 35.2054 21.8933C35.3814 21.8735 35.481 21.863 35.5074 21.863ZM8.57589 21.6639C8.57542 21.6378 8.56715 21.6125 8.55215 21.5911C8.53715 21.5698 8.5161 21.5534 8.49171 21.544C8.4754 21.5378 8.45801 21.5348 8.44054 21.5352L5.66854 21.6029C5.6512 21.6033 5.63411 21.6072 5.61825 21.6142C5.60239 21.6212 5.58808 21.6313 5.57612 21.6439C5.56416 21.6564 5.5548 21.6712 5.54857 21.6874C5.54233 21.7036 5.53935 21.7209 5.53979 21.7382L5.54089 21.7822C5.54132 21.7995 5.54516 21.8166 5.55219 21.8325C5.55923 21.8483 5.56932 21.8626 5.58189 21.8746C5.59446 21.8865 5.60926 21.8959 5.62545 21.9021C5.64164 21.9084 5.6589 21.9113 5.67624 21.9109L8.44824 21.8432C8.46559 21.8428 8.48267 21.839 8.49853 21.8319C8.51439 21.8249 8.52871 21.8148 8.54066 21.8023C8.55262 21.7897 8.56198 21.7749 8.56822 21.7587C8.57445 21.7425 8.57743 21.7253 8.57699 21.7079L8.57589 21.6639ZM112.34 33.3168C112.308 33.4556 112.297 33.5983 112.307 33.7403C112.323 33.9751 112.371 33.9905 112.45 33.787C112.463 33.7546 112.471 33.7202 112.472 33.6853C112.646 30.1077 112.865 26.5324 113.129 22.9603C113.133 22.9163 113.126 22.872 113.11 22.831C113.094 22.7929 113.069 22.7597 113.036 22.7348C112.803 22.5626 112.582 22.5808 112.373 22.7898C112.343 22.8193 112.32 22.8555 112.306 22.8954C112.291 22.9383 112.285 22.9837 112.288 23.029C112.322 23.7737 112.314 24.822 112.263 26.175C112.206 27.6512 112.248 29.8958 112.389 32.9098C112.395 33.0126 112.378 33.1485 112.34 33.3168ZM111.407 142.019C111.341 136.42 111.26 132.341 111.162 129.781C110.59 114.641 110.386 99.4882 110.549 84.3375C110.589 80.5574 110.679 74.9886 110.819 67.6313C110.91 62.832 110.92 56.9882 110.849 50.1C110.825 48.2673 110.786 46.4348 110.731 44.6028C110.615 40.5201 110.569 36.4353 110.593 32.3488L110.709 28.254C110.751 26.8152 110.737 25.3264 110.667 23.788C110.664 23.7087 110.63 23.6338 110.572 23.5789C110.515 23.5241 110.439 23.4936 110.359 23.4938C83.5728 23.4828 56.8851 23.4261 30.2969 23.3233C21.9005 23.2925 13.5801 23.2804 5.33621 23.2875C5.22093 23.2875 5.11036 23.3333 5.02885 23.4148C4.94733 23.4963 4.90153 23.6068 4.90153 23.722C4.89988 80.2659 4.85367 136.771 4.76398 193.238C4.76233 194.501 4.78709 195.482 4.83826 196.18C4.84227 196.217 4.85944 196.252 4.88667 196.278C4.9139 196.303 4.94941 196.318 4.98682 196.32C5.48752 196.337 5.98822 196.364 6.48891 196.4C7.11616 196.446 7.66253 196.47 8.12857 196.472C31.5552 196.521 54.9819 196.56 78.408 196.587C80.3392 196.589 82.1725 196.568 83.9074 196.524C88.2706 196.416 92.6327 196.278 96.9943 196.111C101.101 195.956 104.15 195.777 106.142 195.575C108.335 195.353 110.476 195.239 112.566 195.231C112.61 195.231 112.654 195.222 112.695 195.205C112.736 195.187 112.773 195.162 112.804 195.13C112.835 195.098 112.859 195.06 112.875 195.018C112.89 194.976 112.897 194.932 112.896 194.888C112.627 188.312 112.396 181.735 112.202 175.156C112.157 173.572 112.127 171.74 112.114 169.659C112.068 162.274 111.885 154.891 111.564 147.513C111.482 145.683 111.43 143.851 111.407 142.019ZM50.9631 197.694C50.9631 197.684 50.9612 197.674 50.9574 197.665C50.9536 197.656 50.9481 197.648 50.9411 197.641C50.9342 197.634 50.9259 197.629 50.9168 197.625C50.9077 197.621 50.898 197.62 50.8882 197.619L20.6097 197.672C20.6001 197.672 20.5905 197.674 20.5817 197.678C20.5682 197.684 20.5567 197.693 20.5485 197.705C20.5404 197.718 20.5361 197.732 20.536 197.746V197.972C20.5361 197.987 20.5405 198.001 20.5487 198.013C20.5569 198.026 20.5686 198.035 20.5822 198.041C20.5913 198.044 20.601 198.046 20.6108 198.046L50.8893 197.993C50.8991 197.994 50.9087 197.992 50.9177 197.988C50.9267 197.984 50.9348 197.979 50.9416 197.972C50.9557 197.958 50.9636 197.939 50.9636 197.919L50.9631 197.694Z" fill="#1E2E34"/>
<path d="M67.7147 35.3738C69.8864 35.3831 72.0576 35.4106 74.2293 35.4563C75.1207 35.475 75.4662 35.9056 75.2665 36.7488C74.9778 37.9342 75.0235 39.1765 75.3985 40.3375C75.5322 40.7594 75.5647 41.4689 75.4948 42.466C75.414 43.6106 75.449 44.7605 75.5994 45.898C75.7661 47.1559 75.8596 48.4192 75.88 49.6875C75.8965 50.7584 75.8508 53.5947 75.7424 58.196C75.7298 58.7389 75.6065 59.1635 75.3738 59.4693C75.0013 59.9588 74.5281 60.2503 73.9542 60.3438C72.9511 60.5088 70.5621 60.5995 66.7876 60.616L64.8894 60.6683C63.8566 60.698 62.6373 60.6584 61.2304 60.55C60.5245 60.495 59.6991 60.61 58.7544 60.8938C58.3456 61.017 57.5428 61.0929 56.3472 61.122C50.3926 61.265 44.4348 61.2045 38.4844 60.9405C37.2904 60.8877 35.7179 60.8712 33.7662 60.891C32.1888 60.9075 30.6135 60.8685 29.0399 60.7728C28.3945 60.7343 27.5719 60.7409 26.5721 60.792C25.7468 60.836 24.9198 60.8245 24.0907 60.7563C22.6419 60.6353 21.1921 60.5264 19.7412 60.429C18.9654 60.3762 18.1054 60.3795 17.1607 60.44C16.343 60.4934 15.4825 60.533 14.5801 60.5583C14.5141 60.5598 14.4491 60.5425 14.3926 60.5084C14.3361 60.4743 14.2904 60.4248 14.261 60.3658C13.8979 59.6145 13.6767 58.8984 13.598 58.218L13.488 57.2473C13.2624 55.8651 13.0874 54.4775 12.9625 53.0838C12.8381 51.7088 12.6775 50.3211 12.4811 48.9203C11.9072 44.8156 11.8109 40.8089 12.1922 36.9C12.2566 36.251 12.5427 35.794 13.0505 35.5278C13.1809 35.4601 13.6558 35.3171 14.4756 35.0988C16.4765 34.5688 18.5378 34.3007 20.6078 34.3013C20.7602 34.3013 21.8441 34.3244 23.8596 34.37C24.7746 34.3904 25.8607 34.4316 27.1169 34.4938C29.041 34.5873 31.2875 34.5983 33.857 34.5268C36.3644 34.4575 38.1983 34.4234 39.3592 34.425C45.2686 34.436 50.2436 34.5048 54.2839 34.6313C56.5673 34.7028 59.2138 34.8661 62.2235 35.1208C64.0981 35.2803 65.9282 35.365 67.7147 35.3738ZM67.6679 36.5645C65.5441 36.5024 63.4214 36.4309 61.2992 36.35C59.7586 36.2917 58.427 36.2191 57.3046 36.1328C55.381 35.9843 54.0522 35.9012 53.3183 35.8825C49.5438 35.789 45.7682 35.756 41.992 35.7835C41.4181 35.7874 40.2132 35.7582 38.3771 35.6955C37.1683 35.6552 35.9583 35.6727 34.7511 35.7478C33.238 35.8413 31.7249 35.8424 30.2118 35.7505C29.3243 35.6955 28.4363 35.6845 27.5488 35.7175C26.5441 35.756 25.6588 35.7478 24.894 35.6928C23.3219 35.581 21.7464 35.5241 20.1704 35.5223C17.964 35.519 15.8071 35.8413 13.6998 36.4903C13.6089 36.5179 13.5283 36.5719 13.4681 36.6453C13.4079 36.7187 13.3708 36.8083 13.3614 36.9028C12.9835 40.5384 13.0389 44.206 13.5265 47.8285C14.0233 51.5584 14.4589 55.2961 14.8332 59.0403C14.8391 59.0992 14.8571 59.1562 14.8862 59.2078C14.9152 59.2595 14.9546 59.3045 15.0019 59.3401C15.0492 59.3758 15.1033 59.4013 15.1609 59.415C15.2186 59.4287 15.2784 59.4303 15.3367 59.4198C16.3395 59.2402 17.3552 59.1418 18.3739 59.1255C18.9241 59.1184 19.9338 59.2036 21.4028 59.3813C22.2562 59.484 23.1121 59.5647 23.9696 59.6233C24.1897 59.6381 24.5336 59.7113 25.0013 59.8433C25.3533 59.9434 25.7216 59.9733 26.0852 59.9313C26.4979 59.884 27.0035 59.7993 27.6011 59.6783C28.1022 59.5742 28.6133 59.5253 29.1252 59.5325C31.3447 59.5732 33.5638 59.5941 35.7828 59.5958C37.133 59.5958 38.9658 59.637 41.2822 59.7195C44.1417 59.8207 47.6042 59.8455 51.6704 59.7938C53.5576 59.7701 55.1021 59.7388 56.3032 59.7003C58.6015 59.6271 60.1437 59.587 60.9305 59.5793C63.7697 59.554 67.2168 59.4649 71.2719 59.3125C72.4383 59.2685 73.4684 59.0524 74.3614 58.6635C74.3995 58.6467 74.4321 58.6194 74.4555 58.5849C74.4789 58.5504 74.492 58.5099 74.4934 58.4683C74.6403 55.5335 74.6981 52.597 74.6667 49.66C74.6596 48.9967 74.5732 47.9671 74.4081 46.5718C74.2392 45.1399 74.2032 43.6955 74.3008 42.257C74.3618 41.3738 74.2773 40.4866 74.0505 39.6308C73.8453 38.8536 73.8634 38.0655 74.1055 37.2658C74.2359 36.8368 74.0763 36.614 73.6268 36.5975C72.6349 36.566 71.6424 36.5578 70.6501 36.5728C69.3973 36.5893 68.4036 36.5865 67.6679 36.5645ZM92.4421 35.5624L89.3944 36.1768C89.2514 36.2057 89.1258 36.2902 89.0451 36.4117C88.9644 36.5332 88.9353 36.6817 88.9641 36.8247L88.9812 36.911C89.0101 37.054 89.0947 37.1796 89.2162 37.2602C89.3377 37.3409 89.4864 37.37 89.6294 37.3411L92.677 36.7273C92.82 36.6984 92.9457 36.6139 93.0264 36.4924C93.107 36.3709 93.1362 36.2224 93.1073 36.0794L93.0902 35.9931C93.076 35.9222 93.0479 35.8549 93.0076 35.7949C92.9673 35.735 92.9156 35.6835 92.8554 35.6435C92.7952 35.6035 92.7277 35.5758 92.6568 35.5619C92.5859 35.548 92.5129 35.5481 92.4421 35.5624ZM96.6606 37.4253C97.6114 37.714 98.4653 37.675 98.5677 37.3373C98.67 37.0007 97.9822 36.493 97.0315 36.2043C96.0807 35.9155 95.2273 35.9551 95.1244 36.2923C95.0221 36.6294 95.7098 37.1365 96.6606 37.4253ZM86.1432 36.8637L84.3291 38.148C84.2701 38.1897 84.2199 38.2426 84.1814 38.3037C84.1428 38.3648 84.1167 38.4329 84.1045 38.5041C84.0923 38.5753 84.0942 38.6482 84.1102 38.7186C84.1262 38.7891 84.1559 38.8557 84.1976 38.9147L84.2229 38.9504C84.3073 39.0694 84.4355 39.1501 84.5793 39.1747C84.7231 39.1992 84.8708 39.1656 84.9899 39.0813L86.8045 37.7976C86.9236 37.7133 87.0043 37.5852 87.0289 37.4414C87.0534 37.2976 87.0198 37.1499 86.9355 37.0309L86.9102 36.9946C86.8258 36.8756 86.6976 36.7949 86.5538 36.7704C86.41 36.7458 86.2623 36.7794 86.1432 36.8637ZM100.809 38.7563L100.769 38.7838C100.71 38.823 100.661 38.8733 100.622 38.9318C100.583 38.9903 100.557 39.0558 100.544 39.1246C100.53 39.1934 100.531 39.2641 100.545 39.3327C100.559 39.4014 100.586 39.4666 100.625 39.5246L102.233 41.8973C102.272 41.9554 102.322 42.0051 102.381 42.0437C102.439 42.0823 102.505 42.109 102.574 42.1223C102.642 42.1355 102.713 42.1351 102.782 42.1211C102.851 42.107 102.916 42.0796 102.974 42.0403L103.015 42.0128C103.073 41.9735 103.123 41.9232 103.162 41.8646C103.2 41.8061 103.227 41.7405 103.24 41.6716C103.253 41.6028 103.253 41.532 103.239 41.4633C103.225 41.3947 103.197 41.3294 103.158 41.2714L101.55 38.8987C101.511 38.8407 101.461 38.7909 101.402 38.7523C101.344 38.7138 101.278 38.6871 101.209 38.6738C101.141 38.6605 101.07 38.6609 101.001 38.675C100.933 38.689 100.867 38.717 100.809 38.7563ZM161.667 48.2905C160.983 48.0194 160.562 47.5574 160.404 46.9045C160.298 46.4684 160.335 45.898 160.515 45.194C160.812 44.0017 161.368 42.8892 162.143 41.9353C162.6 41.3709 163.172 40.9105 163.821 40.585C164.322 40.3342 164.999 40.1423 165.852 40.0103C168.417 39.6143 170.931 39.7463 173.392 40.4063C175.041 40.8501 176.546 41.5486 177.907 42.5018C179.294 43.472 180.527 44.6446 181.566 45.9805C182.556 47.251 183.135 48.3923 183.302 49.4043C183.537 50.8326 183.12 52.1526 182.053 53.3643C182.047 53.372 181.815 53.559 181.357 53.9253C181.058 54.164 180.896 54.4835 180.87 54.885C180.831 55.4922 180.804 55.8277 180.787 55.8915C180.329 57.7049 179.456 59.5155 178.168 61.3228C177.965 61.6088 177.894 61.9619 177.956 62.3815C178.041 62.9557 178.084 63.2615 178.086 63.3C178.134 64.015 178.252 64.7163 178.441 65.4038C178.525 65.7118 178.726 65.8817 179.043 65.9125C179.725 65.9759 180.387 66.177 180.988 66.5038C181.491 66.7788 181.992 67.21 182.493 67.7963C182.948 68.3285 183.355 68.901 183.706 69.5068C183.75 69.582 183.812 69.6455 183.885 69.692C183.959 69.7384 184.043 69.7664 184.13 69.7735C187.677 70.0414 191.06 71.0176 194.279 72.7023C195.441 73.3128 196.559 74.184 197.632 75.3148C198.182 75.8945 198.558 76.4753 198.76 77.0583C199.085 77.9933 199.506 78.8733 200.023 79.6983C200.421 80.3308 201.031 81.0837 201.852 81.956C203.237 83.43 204.684 84.827 206.194 86.147C206.209 86.1602 206.227 86.1696 206.247 86.1745C206.276 86.1824 206.307 86.1804 206.334 86.169C206.362 86.1575 206.385 86.1372 206.4 86.1113C207.786 83.6342 209.423 81.3064 211.286 79.1648C211.623 78.7765 212.002 78.1748 212.422 77.3608C212.532 77.1485 212.689 76.6925 212.893 75.994C213.096 75.2939 213.471 74.6603 214.018 74.0938C214.319 73.7803 214.252 73.6164 213.817 73.6015C211.614 73.53 209.309 73.5108 206.901 73.5438C205.791 73.5586 204.802 73.238 203.932 72.5813C203.169 72.0076 202.569 71.2211 202.133 70.2218C201.792 69.4434 201.585 68.6132 201.52 67.766C201.516 67.7077 201.518 66.8734 201.525 65.2635C201.54 62.4717 201.543 59.6794 201.536 56.887C201.536 56.5774 201.565 56.2721 201.624 55.9713C201.683 55.6671 201.743 55.3646 201.806 55.0638C202.294 52.635 203.808 51.3964 206.35 51.3485C208.623 51.3067 210.894 51.2341 213.162 51.1313C215.413 51.0306 217.245 50.969 218.659 50.947C220.608 50.9179 222.558 50.8948 224.508 50.8783C226.11 50.864 227.945 50.8282 230.01 50.771C233.608 50.6759 237.758 50.6126 242.459 50.5813C244.08 50.5703 245.5 50.6522 246.717 50.826C249.145 51.1747 250.753 52.3682 251.54 54.4065C251.804 55.094 251.953 56.1385 251.986 57.5388C252.063 60.698 252.166 63.8555 252.294 67.0125C252.321 67.7022 252.233 68.4838 252.03 69.3583C251.894 69.9358 251.644 70.4264 251.281 70.8295C250.135 72.1039 248.683 72.8876 246.926 73.1808C245.927 73.348 244.924 73.4211 243.917 73.4008C242.44 73.3678 241.698 73.3524 241.691 73.354C236.71 73.4184 231.657 73.4349 226.532 73.4035C226.467 73.404 226.404 73.4254 226.352 73.4645C226.3 73.5036 226.262 73.5584 226.244 73.6208C225.932 74.7263 225.372 75.6585 224.563 76.4175C223.785 77.149 222.823 77.7865 221.677 78.3288C221.631 78.3509 221.593 78.3861 221.567 78.43C221.541 78.4743 221.53 78.5253 221.534 78.5763C221.56 78.8788 221.562 79.1532 221.542 79.3985C221.522 79.6295 221.439 79.8847 221.292 80.163C220.652 81.3862 220.044 82.4285 219.47 83.2898C216.489 87.7586 213.765 92.3934 211.311 97.1718C210.762 98.241 210.1 99.1474 209.324 99.8915C208.773 100.423 208.133 100.771 207.407 100.934C206.833 101.064 206.137 101.011 205.319 100.774C203.402 100.224 201.711 99.4378 200.246 98.4148C198.468 97.1725 196.713 95.8991 194.98 94.595C194.815 94.4707 194.73 94.512 194.724 94.7188C194.706 95.6656 194.69 96.6125 194.678 97.5595C194.662 98.5063 194.69 99.4533 194.763 100.398C195.097 104.736 195.594 109.06 196.254 113.361C196.894 117.539 197.279 120.332 197.409 121.738C197.574 123.518 197.554 125.608 197.349 128.008C197.276 128.866 197.083 129.49 196.771 129.88C196.247 130.539 195.46 130.899 194.411 130.961C194.363 130.964 194.317 130.976 194.274 130.998C194.232 131.019 194.194 131.049 194.163 131.085C194.132 131.121 194.109 131.163 194.095 131.208C194.081 131.254 194.076 131.301 194.081 131.349C194.257 133.144 194.546 135.004 194.947 136.929C195.561 139.865 196.026 142.83 196.339 145.814C196.451 146.879 196.58 148.706 196.727 151.295C197.044 156.837 197.51 162.37 198.125 167.888C198.365 170.044 198.523 171.869 198.598 173.363C198.827 177.883 198.907 182.405 198.837 186.932C198.751 192.655 198.646 198.378 198.521 204.1C198.479 206.029 198.495 207.956 198.57 209.881C198.638 211.621 198.807 213.444 199.077 215.35C199.39 217.567 199.753 219.775 200.166 221.975C200.293 222.652 200.254 223.291 200.05 223.892C200.041 223.921 200.036 223.952 200.038 223.982C200.043 224.045 200.072 224.103 200.119 224.144C200.142 224.164 200.169 224.179 200.199 224.189C200.716 224.358 201.158 224.547 201.525 224.758C203.354 225.796 204.891 227.279 205.993 229.07C206.292 229.552 206.505 230.07 206.631 230.624C206.747 231.132 206.641 231.499 206.315 231.727C206.129 231.857 205.806 231.929 205.344 231.944C204.344 231.977 203.345 231.998 202.345 232.007C201.738 232.012 200.739 232.028 199.349 232.054C195.972 232.118 192.603 231.968 189.241 231.603C188.104 231.478 187.464 230.975 187.321 230.093C187.262 229.738 187.312 229.034 187.47 227.984C187.6 227.126 187.798 226.28 188.061 225.454C188.085 225.377 188.081 225.295 188.049 225.221C188.018 225.148 187.962 225.087 187.89 225.051C187.842 225.028 187.79 225.016 187.737 225.017C187.194 225.024 186.803 224.831 186.565 224.436C186.5 224.332 186.368 223.959 186.166 223.317C185.559 221.394 185.271 219.385 185.313 217.369C185.364 214.736 185.293 211.826 185.098 208.638C185.02 207.347 184.95 205.727 184.889 203.778C184.878 203.392 184.852 201.771 184.809 198.916C184.714 192.278 184.123 185.893 183.035 179.763C182.8 178.437 182.622 177.376 182.501 176.578C182.391 175.817 182.206 175.069 181.948 174.345C180.584 170.578 179.347 166.488 178.237 162.077C177.215 158.011 176.603 155.54 176.399 154.663C176.388 154.61 176.365 154.56 176.331 154.518C176.222 154.389 176.16 154.44 176.143 154.669C175.852 158.699 175.648 162.732 175.533 166.769C175.487 168.602 175.465 170.435 175.469 172.269V188.356C175.469 189.643 175.567 191.822 175.764 194.893C175.896 196.945 175.991 198.775 176.047 200.385C176.26 206.55 176.388 210.47 176.432 212.144C176.561 217.026 176.561 220.899 176.432 223.763C176.412 224.219 176.175 224.491 175.72 224.577C175.328 224.65 175.129 224.688 175.126 224.689C174.691 224.86 174.573 225.182 174.771 225.655C174.915 225.999 174.99 226.175 174.994 226.183C175.346 227.297 175.527 228.576 175.538 230.019C175.542 230.554 175.394 230.959 175.093 231.234C174.895 231.414 174.526 231.545 173.987 231.628C171.45 232.007 168.528 232.09 165.222 231.875C162.358 231.688 159.495 231.474 156.635 231.234C156.135 231.192 155.788 231.079 155.596 230.893C155.302 230.609 155.207 230.202 155.309 229.672C155.614 228.103 156.483 226.724 157.915 225.534C159.153 224.503 160.598 223.613 162.25 222.863C162.307 222.837 162.354 222.794 162.385 222.741C162.417 222.688 162.432 222.626 162.428 222.564C162.424 222.523 162.413 222.484 162.394 222.448C162.305 222.277 162.238 222.096 162.193 221.909C162.147 221.725 162.122 221.537 162.118 221.348C162.052 218.955 161.881 216.565 161.604 214.187C161.188 210.61 160.66 207.047 160.022 203.503C159.576 201.028 159.289 199.219 159.161 198.075C158.759 194.516 158.556 190.704 158.55 186.638C158.539 178.364 158.557 170.091 158.603 161.819C158.614 159.769 158.567 157.938 158.462 156.324C158.176 151.965 157.723 147.619 157.103 143.295C156.733 140.703 156.524 138.882 156.476 137.833C156.363 135.345 156.466 132.852 156.781 130.381C156.793 130.285 156.775 130.189 156.729 130.104C156.683 130.02 156.612 129.952 156.525 129.911C155.726 129.529 155.347 128.89 155.389 127.994C155.429 127.151 155.494 126.309 155.582 125.469C155.652 124.795 155.788 123.962 155.992 122.972C156.986 118.114 157.7 113.203 158.132 108.263C158.359 105.659 158.149 103.095 157.499 100.568C157.168 99.2794 156.961 97.8411 156.88 96.2533C156.873 96.1048 156.81 96.0767 156.691 96.168C153.607 98.525 150.438 100.767 147.188 102.889C146.278 103.483 145.315 103.993 144.313 104.415C143.984 104.557 143.629 104.632 143.271 104.638C142.953 104.646 142.62 104.561 142.272 104.385C141.038 103.767 140.062 102.797 139.345 101.473C137.866 98.7448 136.874 96.8522 136.368 95.794C135.192 93.3411 133.807 90.994 132.228 88.7788C131.347 87.5456 130.512 86.2807 129.724 84.9865C129.64 84.8532 129.587 84.7029 129.568 84.5465C129.549 84.39 129.565 84.2313 129.614 84.0818C129.753 83.633 129.66 83.3404 129.334 83.2045C128.226 82.7487 127.218 82.0818 126.365 81.241C124.777 79.679 123.592 77.9284 122.811 75.9885C122.668 75.6277 122.429 75.3129 122.12 75.0783C121.22 74.393 120.507 73.6191 119.983 72.7573C118.536 70.3835 117.957 67.8496 118.247 65.1563C118.438 63.3798 119.097 61.7243 120.225 60.1898C121.283 58.7488 122.578 57.657 124.109 56.9145C125.413 56.2842 126.866 55.9658 128.467 55.9603C129.935 55.9548 131.434 56.1786 132.965 56.6313C134.678 57.1395 136.129 57.8875 137.317 58.8753C139.452 60.6518 140.756 62.8182 141.229 65.3735C141.574 67.2325 141.448 69.0415 140.852 70.7993C139.948 73.4668 138.103 75.5122 135.317 76.9345C135.288 76.9493 135.261 76.9699 135.24 76.9952C135.219 77.0204 135.203 77.0497 135.193 77.0814C135.183 77.1129 135.18 77.1462 135.183 77.1791C135.186 77.212 135.197 77.2439 135.213 77.2728C135.844 78.424 136.547 79.5344 137.317 80.5975C138.452 82.1634 139.213 83.2304 139.598 83.7985C141.12 86.0412 142.785 88.1833 144.583 90.2115C144.608 90.2409 144.64 90.2647 144.675 90.2813C144.71 90.2979 144.748 90.3069 144.787 90.3078C144.826 90.3089 144.864 90.3018 144.9 90.2872C144.936 90.2725 144.969 90.2505 144.996 90.2225C145.898 89.291 146.685 88.2541 147.34 87.1343C148.82 84.6081 150.352 82.1128 151.937 79.6488C152.326 79.0438 152.789 78.4993 153.329 78.0153C156.222 75.4116 159.606 73.4109 163.282 72.1303C164.468 71.7166 165.664 71.3288 166.867 70.967C167.006 70.9252 167.122 70.8303 167.191 70.703C167.446 70.2339 167.692 69.8527 167.929 69.559C168.296 69.1047 168.216 69.0046 167.689 69.2593C166.017 70.0716 164.649 69.7526 163.588 68.3023C163.107 67.6445 162.703 66.7947 162.374 65.753C162.37 65.7442 162.277 65.3785 162.094 64.6558C161.732 63.2296 160.987 62.0224 159.857 61.034C159.297 60.5445 159.321 60.1122 159.926 59.736C161.377 58.8395 161.646 57.6268 160.735 56.0978C160.59 55.8558 160.517 55.517 160.517 55.0803C160.517 54.8295 160.561 54.4912 160.649 54.0655C161.018 52.2945 161.41 50.4696 161.827 48.5903C161.84 48.5295 161.831 48.466 161.802 48.4111C161.773 48.3562 161.725 48.3135 161.667 48.2905ZM163.059 48.483C162.587 50.2981 162.195 52.1333 161.885 53.983C161.841 54.1758 161.796 54.3683 161.75 54.5605C161.622 55.105 161.713 55.6028 162.025 56.0538C162.051 56.0904 162.084 56.1212 162.122 56.144C162.16 56.1661 162.202 56.1795 162.245 56.183C162.733 56.2215 163.025 56.0147 163.123 55.5615C163.205 55.1765 163.249 54.9769 163.255 54.962C163.475 54.4285 163.888 54.0402 164.495 53.796C164.934 53.6222 164.937 53.4726 164.504 53.3478L163.725 53.125C163.608 53.0904 163.529 53.0519 163.488 53.0095C163.169 52.6817 163.202 52.4623 163.588 52.3523C163.742 52.3083 163.913 52.3138 164.102 52.3688C165.593 52.8055 166.534 53.7861 166.925 55.3113C166.929 55.3279 166.937 55.3434 166.947 55.3569C166.958 55.3705 166.971 55.3817 166.986 55.3899C167.018 55.4064 167.054 55.4114 167.09 55.402L170.341 54.6128C170.392 54.6007 170.435 54.5697 170.463 54.5264C170.477 54.5055 170.485 54.4818 170.489 54.4571C170.493 54.4329 170.491 54.4081 170.484 54.3845C170.347 53.8934 170.333 53.3698 170.443 52.8143C170.541 52.3193 170.337 52.0564 169.832 52.025C169.414 51.9995 168.997 51.9499 168.583 51.8765C168.116 51.794 167.725 51.6576 167.412 51.4668C166.381 50.8436 165.926 49.8839 166.047 48.5875C166.102 47.9935 165.947 47.625 165.582 47.482C165.36 47.3979 165.038 47.438 164.616 47.603C164.235 47.7537 163.842 47.9066 163.436 48.0623C163.344 48.0973 163.262 48.1537 163.197 48.2269C163.131 48.3001 163.084 48.3879 163.059 48.483ZM203.344 55.1133C203.208 55.6325 203.133 56.2298 203.118 56.9063C203.059 59.6805 202.993 62.453 202.92 65.225C202.903 65.8025 202.946 66.9487 203.049 68.6625C203.132 70.0397 203.678 71.0358 204.686 71.6518C205.016 71.852 205.46 71.9785 206.018 72.0313C206.487 72.0753 206.957 72.1165 207.426 72.155C208.09 72.21 208.795 72.2375 209.542 72.2375L234.618 72.2595C237.64 72.2634 240.661 72.2177 243.68 72.122C244.104 72.1199 244.527 72.1199 244.951 72.122C246.36 72.1242 247.699 71.8107 248.97 71.1815C250.133 70.6062 250.76 69.7207 250.849 68.525C251.057 65.7695 251.047 62.6345 250.822 59.12L250.778 57.855C250.75 57.0102 250.613 56.1841 250.365 55.3773C250.193 54.8163 250.068 54.45 249.991 54.2773C249.815 53.8796 249.568 53.57 249.251 53.3478C248.411 52.7648 247.385 52.4386 246.173 52.3688C244.709 52.2846 241.568 52.2846 236.75 52.3688C228.842 52.5046 220.932 52.619 213.022 52.7125C210.426 52.7439 208.575 52.751 207.467 52.7345C206.671 52.7235 206.114 52.7587 205.795 52.839C205.232 52.98 204.709 53.2492 204.268 53.6255C203.811 54.0144 203.503 54.5105 203.344 55.1133ZM163.915 56.139C163.963 56.1467 163.982 56.1731 163.973 56.2188C163.899 56.2155 163.845 56.2375 163.81 56.2848C163.784 56.3178 163.779 56.3673 163.794 56.4333C164.034 57.4986 164.378 58.2923 164.826 58.8148C165.102 59.1376 165.389 59.1998 165.687 59.0018C165.861 58.8846 165.999 58.6811 166.099 58.3913C166.472 57.321 166.452 56.2639 166.041 55.2205C165.891 54.841 165.691 54.6012 165.442 54.5C165.108 54.3647 164.754 54.4505 164.38 54.7585C163.89 55.1584 163.735 55.6187 163.915 56.139ZM172.471 64.422C172.065 65.1172 171.488 65.967 170.738 66.9713C170.708 67.0104 170.685 67.0545 170.671 67.1016C170.659 67.1395 170.657 67.18 170.666 67.2188C170.699 67.3288 170.796 67.3409 170.958 67.2545C171.993 66.694 173.072 66.2194 174.185 65.8355C175.073 65.5266 176.006 65.3668 176.947 65.3625C176.973 65.3625 176.998 65.3573 177.022 65.3472C177.045 65.3371 177.067 65.3223 177.084 65.3037C177.102 65.2852 177.115 65.263 177.123 65.2388C177.131 65.2151 177.134 65.1893 177.131 65.1645L176.851 62.7638C176.849 62.7471 176.843 62.731 176.834 62.717C176.825 62.7028 176.813 62.6908 176.798 62.6818C176.783 62.6724 176.766 62.6663 176.749 62.6639C176.731 62.6614 176.713 62.6626 176.696 62.6675C175.926 62.8787 175.318 62.7302 174.872 62.222C174.707 62.035 174.584 61.716 174.501 61.265C174.439 60.9197 174.348 60.5802 174.229 60.2503C174.214 60.2076 174.188 60.1692 174.155 60.1386C174.124 60.1103 174.086 60.0918 174.044 60.0853L173.079 59.923C172.973 59.9054 172.888 59.8702 172.842 59.824C172.596 59.582 172.552 59.3345 172.707 59.0815C172.795 58.9407 172.976 58.8296 173.249 58.7488C174.753 58.3088 175.328 57.2418 174.972 55.5478C174.821 54.8383 174.534 54.747 174.11 55.2728C173.863 55.5808 173.651 55.9108 173.475 56.2628L173.238 56.8843C173.084 57.2986 172.807 57.6557 172.443 57.9073C172.159 58.1091 171.913 58.069 171.706 57.7863C171.449 57.4326 171.336 57.0504 171.368 56.6395L171.412 56.0703C171.368 55.5093 171.058 55.286 170.484 55.3993C170.18 55.4598 170.016 55.4922 169.992 55.4955C169.16 55.611 168.296 55.7991 167.401 56.0593C167.312 56.0851 167.236 56.1412 167.185 56.2176C167.135 56.2941 167.112 56.386 167.123 56.4773C167.26 57.6818 166.998 58.6591 166.336 59.4088C166.07 59.7135 165.78 59.89 165.467 59.9395C165.048 60.0077 164.697 59.862 164.413 59.5023C163.851 58.789 163.425 57.9778 163.158 57.1098C163.135 57.0349 163.085 56.9713 163.018 56.9311C162.951 56.8909 162.871 56.8769 162.794 56.892C162.743 56.9017 162.695 56.9236 162.655 56.9558C162.407 57.1538 162.285 57.4354 162.286 57.8C162.293 58.7262 161.97 59.5116 161.315 60.1568C161.069 60.3988 161.072 60.6391 161.323 60.8773C162.077 61.5945 162.603 62.4882 162.9 63.5585C163.103 64.2922 163.502 65.3719 164.096 66.798C164.663 68.1565 165.506 68.7115 166.625 68.4618C167.171 68.3408 167.917 67.9145 168.861 67.183C170.039 66.27 171.151 65.2758 172.19 64.2075C172.876 63.5019 172.97 63.5734 172.471 64.422ZM140.427 69.6113C141.077 67.0813 140.622 64.3775 139.163 62.0955C137.704 59.8141 135.359 58.141 132.645 57.4442C129.932 56.7479 127.071 57.085 124.693 58.3819C122.314 59.6783 120.613 61.8288 119.962 64.3588C119.313 66.8893 119.767 69.5931 121.227 71.8745C122.686 74.1565 125.03 75.8296 127.744 76.5264C130.458 77.2227 133.319 76.8856 135.698 75.5887C138.076 74.2918 139.777 72.1418 140.427 69.6113ZM169.125 69.8835C168.915 70.0634 168.831 70.235 168.875 70.3978C168.881 70.4143 168.889 70.4297 168.902 70.4429C168.915 70.456 168.931 70.4661 168.949 70.4726C168.966 70.4797 168.987 70.4836 169.007 70.4836C169.028 70.4834 169.048 70.4797 169.068 70.4726C172.91 69.0734 176.946 68.5685 181.175 68.9568C181.691 69.0046 181.802 68.8149 181.511 68.3875C181.269 68.03 180.911 67.7303 180.438 67.4883C180.076 67.3013 179.637 67.1814 179.12 67.128C178.011 67.0124 176.891 67.0541 175.794 67.2518C173.908 67.5882 172.074 68.1658 170.336 68.9705C170.131 69.064 169.727 69.3687 169.125 69.8835ZM157.012 128.354C158.82 128.802 160.677 129.028 162.539 129.025C165.037 129.023 168.048 128.717 171.571 128.107C172.897 127.876 174.001 127.725 174.883 127.656C175.879 127.579 176.992 127.508 178.221 127.444C179.74 127.363 181.264 127.396 182.779 127.543C183.725 127.636 185.215 127.911 187.247 128.365C189.125 128.787 190.822 129.139 192.336 129.421C193.158 129.573 194.024 129.616 194.933 129.55C195.342 129.521 195.633 129.413 195.806 129.226C196.016 128.995 196.138 128.676 196.171 128.269C196.448 124.864 196.344 121.672 195.858 118.691C195.656 117.451 195.554 116.823 195.55 116.804C195.319 115.24 195.09 113.676 194.865 112.11C194.855 112.046 194.828 111.986 194.787 111.937C194.746 111.887 194.692 111.85 194.631 111.829C194.088 111.642 193.808 111.286 193.792 110.76C193.785 110.527 193.777 110.294 193.767 110.061C193.65 109.099 193.58 108.132 193.558 107.163C193.51 105.408 193.427 103.05 193.31 100.087C193.233 98.1326 193.228 96.5239 193.294 95.2605C193.394 93.3597 193.574 91.7581 193.833 90.4563C194.521 87.0045 194.922 83.8711 195.038 81.0568C195.089 79.7775 195.05 78.6203 194.92 77.5863C194.77 76.4351 194.545 75.295 194.246 74.1735C194.225 74.0975 194.19 74.0263 194.142 73.964C194.093 73.9017 194.033 73.8496 193.965 73.8105C192.666 73.0818 191.292 72.4972 189.866 72.067C188.701 71.7172 187.249 71.4725 185.508 71.3328C180.402 70.9203 175.526 71.1815 170.878 72.1165C166.824 72.9324 162.866 74.1703 159.07 75.8098C157.796 76.3623 156.579 77.0374 155.436 77.8255C155.363 77.8767 155.311 77.9526 155.29 78.039C155.269 78.1254 155.28 78.2167 155.32 78.2958C155.854 79.3265 156.39 80.3016 156.927 81.2218C159.387 85.426 159.88 89.8672 158.407 94.5455C158.029 95.7445 157.963 96.8566 158.206 97.8813C158.329 98.3966 158.561 99.1188 158.902 100.048C159.253 100.998 159.486 101.72 159.601 102.213C160.089 104.292 160.208 106.404 159.959 108.549C159.871 109.313 159.722 110.937 159.513 113.419C159.286 116.116 158.703 118.924 157.766 121.842C157.319 123.237 157.047 124.249 156.949 124.878C156.785 125.923 156.721 126.981 156.759 128.038C156.762 128.111 156.788 128.181 156.834 128.238C156.879 128.295 156.942 128.336 157.012 128.354ZM219.506 75.7053C219.985 75.1325 220.583 74.6708 221.259 74.3523C221.787 74.0993 222.067 73.8529 222.1 73.6125C222.135 73.3507 222.02 73.2589 221.754 73.3375C221.527 73.4057 221.296 73.4255 221.061 73.398C220.182 73.288 219.451 73.5889 218.868 74.3C218.512 74.7345 218.022 75.0783 217.396 75.3313C217.257 75.3885 217.134 75.394 217.027 75.3478C216.809 75.2565 216.823 75.0865 217.069 74.839C217.37 74.5364 217.688 74.2508 218.021 73.9838C218.132 73.8941 218.212 73.8045 218.26 73.7143C218.423 73.403 218.3 73.2946 217.889 73.3898C217.45 73.491 216.889 73.5075 216.205 73.4393C216.162 73.435 216.119 73.4411 216.078 73.4569C216.04 73.4723 216.005 73.4975 215.979 73.53L214.048 75.9748C213.76 76.34 213.85 76.516 214.318 76.5028C216.286 76.4445 218.128 76.8355 219.845 77.677C219.925 77.7159 220.017 77.7238 220.103 77.699C221.572 77.2574 222.842 76.5011 223.913 75.4303C224.169 75.1759 224.392 74.8905 224.576 74.5805C225.312 73.3359 224.968 73.0075 223.545 73.596C223.241 73.7225 222.925 73.9398 222.598 74.2478C221.758 75.0365 220.859 75.6266 219.9 76.0188C219.733 76.087 219.597 76.0573 219.492 75.9308C219.468 75.8994 219.456 75.8602 219.459 75.8208C219.462 75.7782 219.479 75.7377 219.506 75.7053ZM208.117 93.3328C207.595 91.6338 206.978 89.9656 206.268 88.336C206.133 88.0184 205.961 87.7175 205.756 87.4395C205.498 87.0969 205.265 86.8367 205.06 86.6585C203.502 85.3048 202.034 83.8516 200.664 82.308C200.631 82.2702 200.59 82.2393 200.545 82.2173C200.512 82.1993 200.473 82.1944 200.436 82.2035C200.368 82.2239 200.35 82.2915 200.383 82.407C200.712 83.5321 201.014 84.6645 201.291 85.8033C201.434 86.3863 201.495 86.9775 201.473 87.577C201.474 87.6613 201.449 87.7438 201.401 87.8135C201.29 87.9549 201.185 87.9043 201.088 87.6623C200.24 85.5648 199.542 83.4098 199 81.2135C198.621 79.6866 198.084 78.2036 197.396 76.7888C197.319 76.6293 197.212 76.5523 197.077 76.5578C197.058 76.559 197.04 76.5641 197.024 76.5728C197.008 76.5816 196.994 76.5937 196.982 76.6084C196.957 76.6411 196.944 76.6814 196.944 76.7228C196.946 78.716 196.821 80.515 196.568 82.121C196.102 85.08 195.637 88.0401 195.173 91.0008C195.079 91.597 195.292 92.131 195.811 92.604C196.383 93.1265 197.529 94.1121 199.25 95.5603C200.627 96.7208 202.015 97.6888 203.412 98.4643C204.44 99.0363 205.302 99.3553 206.001 99.4213C207.021 99.517 207.952 99.253 208.793 98.6293C209.199 98.329 209.579 97.84 209.932 97.1635C212.775 91.7295 215.897 86.4461 219.286 81.3345C219.635 80.8104 219.948 80.2638 220.224 79.6983C220.25 79.647 220.26 79.5889 220.251 79.532C220.243 79.4751 220.217 79.4223 220.177 79.3809C220.15 79.3534 220.119 79.3313 220.084 79.316C219.34 78.9883 218.584 78.6856 217.82 78.4085C217.108 78.1522 216.462 78.0015 215.88 77.9575C215.21 77.906 214.535 77.9272 213.869 78.0208C213.722 78.038 213.581 78.0876 213.455 78.1661C213.329 78.2446 213.223 78.3499 213.143 78.4745C212.559 79.3476 211.927 80.1876 211.25 80.9908C209.889 82.6111 208.69 84.3612 207.671 86.2158C207.613 86.322 207.579 86.4396 207.572 86.5604C207.565 86.6812 207.585 86.802 207.63 86.9143C208.393 88.825 208.763 90.8479 208.741 92.9835C208.736 93.4015 208.584 93.5759 208.287 93.506C208.247 93.4969 208.211 93.4765 208.183 93.4472C208.152 93.4149 208.129 93.3756 208.117 93.3328ZM130.112 81.021C128.829 80.27 127.767 79.192 127.037 77.897C126.903 77.6627 126.673 77.4774 126.349 77.3415L124.88 76.7338C124.443 76.5523 124.335 76.6623 124.555 77.0638C125.716 79.178 127.372 80.8637 129.523 82.121C129.844 82.308 130.144 82.2778 130.42 82.0303C131.697 80.9028 133.248 80.3429 135.075 80.35C135.554 80.3522 135.66 80.1449 135.392 79.7285L134.101 77.7265C134.06 77.6616 134.001 77.6096 133.931 77.5764C133.866 77.5454 133.793 77.5364 133.722 77.5505L131.447 78.0455C131.43 78.0494 131.415 78.0571 131.403 78.0681C131.391 78.079 131.381 78.0928 131.375 78.1082C131.369 78.1233 131.367 78.1397 131.37 78.1557C131.372 78.1717 131.379 78.1868 131.389 78.1995L132.167 79.2335C132.2 79.2764 132.225 79.3199 132.241 79.3611C132.258 79.4029 132.265 79.4414 132.264 79.4755C132.254 79.7049 132.147 79.8083 131.942 79.7863C131.821 79.7736 131.694 79.706 131.562 79.5828C131.204 79.2528 130.793 78.8001 130.33 78.2243C130.252 78.1304 130.142 78.0687 130.021 78.051L128.217 77.7375C127.918 77.6847 127.859 77.7755 128.041 78.0098C128.726 78.8908 129.506 79.6932 130.368 80.4023C130.672 80.6536 130.668 80.8637 130.354 81.032C130.318 81.0515 130.277 81.0609 130.236 81.059C130.192 81.0566 130.15 81.0436 130.112 81.021ZM150.657 91.8808C150.54 91.7003 150.471 91.493 150.457 91.2785C150.282 88.9573 150.344 86.6243 150.641 84.3155C150.647 84.2714 150.64 84.2263 150.621 84.1863C150.612 84.1697 150.6 84.1553 150.585 84.1445C150.571 84.1348 150.556 84.1292 150.539 84.1285C150.484 84.1252 150.436 84.1571 150.393 84.2248C149.946 84.9115 149.511 85.6055 149.087 86.3065L148.407 87.5028C147.444 89.2045 146.085 90.8358 144.33 92.3978C142.604 93.9361 141.385 94.9784 140.674 95.5245C140.64 95.5515 140.601 95.5705 140.559 95.5801C140.522 95.5872 140.492 95.5812 140.473 95.563C140.44 95.5284 140.452 95.4651 140.509 95.3733C141.253 94.1341 142.181 92.9093 143.293 91.6993C143.323 91.6666 143.34 91.6242 143.342 91.5798C143.343 91.5354 143.329 91.4919 143.301 91.4573C142.261 90.1538 141.356 88.8899 140.586 87.665C139.424 85.8202 138.245 83.9868 137.048 82.165C136.999 82.0913 136.924 82.0383 136.839 82.0165C134.766 81.505 132.864 81.8873 131.133 83.1633C131.046 83.227 130.987 83.3216 130.968 83.4276C130.949 83.5335 130.972 83.6427 131.031 83.7325C133.396 87.3294 135.483 91.1015 137.273 95.0158C138.108 96.844 139.034 98.6238 140.052 100.356L140.531 101.231C141.044 102.171 141.668 102.814 142.404 103.159C143.022 103.447 143.628 103.42 144.223 103.079C146.498 101.772 148.714 100.365 150.864 98.8603C152.254 97.889 153.477 96.9023 154.534 95.9013C155.403 95.0785 156.103 94.2095 156.633 93.2943C157.193 92.3173 157.663 91.2909 158.036 90.228C158.125 89.9769 158.162 89.7101 158.143 89.4443C158.062 88.1909 157.868 86.9474 157.563 85.729C157.291 84.6587 156.829 83.5065 156.176 82.2723C155.591 81.1655 154.967 80.0795 154.305 79.0163C154.295 78.9992 154.281 78.9846 154.264 78.9738C154.247 78.963 154.228 78.9561 154.208 78.9537C154.188 78.9513 154.168 78.9535 154.149 78.96C154.13 78.9666 154.113 78.9774 154.099 78.9915C153.182 79.9045 152.61 80.894 152.382 81.9588L152.272 83.1495C152.226 83.6569 152.102 84.1541 151.904 84.6235C151.808 84.8474 151.708 85.4166 151.604 86.3313C151.393 88.1793 151.123 90.0201 150.795 91.8533C150.771 91.9798 150.725 91.9891 150.657 91.8808ZM190.383 143.245C190.833 143.049 190.899 143.138 190.581 143.512C189.835 144.4 189.068 145.133 188.281 145.712C187.491 146.293 186.541 146.727 185.431 147.013C183.35 147.55 181.222 147.622 179.049 147.227C178.177 147.067 177.308 146.896 176.441 146.713C176.422 146.709 176.404 146.71 176.386 146.714C176.368 146.719 176.351 146.727 176.337 146.739C176.322 146.751 176.311 146.766 176.303 146.783C176.295 146.8 176.292 146.818 176.292 146.837C176.298 147.658 176.329 148.422 176.386 149.128C176.435 149.777 176.562 150.528 176.765 151.383C178.146 157.205 179.233 161.549 180.025 164.415C181.465 169.614 182.91 173.991 184.358 177.546C185.818 181.125 186.998 185.011 187.896 189.203C187.92 189.311 187.902 189.424 187.846 189.52C187.79 189.615 187.7 189.686 187.594 189.718C187.282 189.811 187.115 189.587 187.093 189.044C187.071 188.523 186.732 187.395 186.078 185.659C185.999 185.45 185.91 185.377 185.811 185.441C185.779 185.464 185.756 185.496 185.744 185.533C185.728 185.578 185.722 185.627 185.726 185.675C185.894 188.389 185.983 191.666 185.992 195.506C185.998 197.906 186.074 200.956 186.221 204.656C186.302 206.724 186.353 208.555 186.375 210.15C186.406 212.359 186.433 214.568 186.455 216.775C186.471 218.269 186.546 219.439 186.68 220.284C186.864 221.449 187.135 222.599 187.492 223.724C187.503 223.765 187.527 223.801 187.559 223.828C187.592 223.856 187.631 223.873 187.673 223.878C191.47 224.355 195.106 224.279 198.581 223.652C198.974 223.583 199.139 223.351 199.077 222.957L197.808 214.69C197.496 212.661 197.337 210.62 197.33 208.569C197.315 204.649 197.364 200.731 197.475 196.813C197.613 192.024 197.685 187.234 197.69 182.444C197.692 180.376 197.661 178.543 197.596 176.944C197.463 173.522 197.217 170.106 196.859 166.7C196.198 160.5 195.693 154.284 195.343 148.058C195.229 146.027 195.061 144.301 194.837 142.882C194.568 141.166 194.251 139.459 193.888 137.759C193.448 135.693 193.146 133.491 192.983 131.154C192.98 131.107 192.96 131.063 192.927 131.03C192.894 130.997 192.851 130.976 192.804 130.972C191.44 130.86 190.119 130.723 188.843 130.56C186.675 130.281 185.356 130.121 184.886 130.078C182.271 129.842 179.631 129.72 176.966 129.713C176.913 129.712 176.859 129.723 176.81 129.743C176.761 129.764 176.716 129.794 176.678 129.832C176.641 129.871 176.612 129.916 176.592 129.966C176.572 130.016 176.563 130.069 176.564 130.122C176.619 132.649 176.736 135.079 176.914 137.413C177.02 138.819 176.983 141.496 176.801 145.443C176.799 145.481 176.811 145.519 176.834 145.55C176.857 145.581 176.89 145.603 176.928 145.613C177.614 145.791 178.503 145.968 179.596 146.144C182.615 146.628 185.408 146.169 187.973 144.766C188.204 144.64 188.598 144.375 189.153 143.971C189.603 143.649 190.013 143.407 190.383 143.245ZM160.523 143.097C160.618 143.084 160.768 143.108 160.971 143.168C161.098 143.207 161.231 143.27 161.37 143.358C161.97 143.729 162.568 144.102 163.164 144.477C165.886 146.197 168.864 146.89 172.099 146.556C173.348 146.428 174.477 146.105 175.486 145.588C175.523 145.569 175.554 145.54 175.576 145.505C175.598 145.47 175.611 145.429 175.613 145.388C175.765 140.255 175.665 135.118 175.313 129.996C175.31 129.951 175.289 129.908 175.256 129.878C175.223 129.847 175.179 129.83 175.134 129.831C173.934 129.855 172.739 129.906 171.549 129.985C171.287 130.003 170.098 130.125 167.981 130.351C164.938 130.673 161.871 130.69 158.825 130.4C158.775 130.395 158.725 130.405 158.681 130.429C158.637 130.453 158.602 130.49 158.579 130.535C158.565 130.565 158.556 130.598 158.553 130.631C158.479 131.677 158.365 132.72 158.209 133.758C157.87 136.009 157.79 138.292 157.97 140.561C157.977 140.666 157.982 140.903 157.986 141.274C157.986 141.516 158.011 141.754 158.061 141.989L158.275 143.025C158.479 144.626 158.777 147.315 159.169 151.094C159.675 155.974 159.859 160.558 159.719 164.844C159.604 168.399 159.59 173.555 159.678 180.313C159.689 181.114 159.681 182.947 159.653 185.813C159.597 191.698 160.086 197.535 161.123 203.325C161.649 206.271 161.96 208.079 162.055 208.748C162.64 212.865 163.074 217.003 163.356 221.153C163.362 221.241 163.4 221.323 163.464 221.381C164.1 221.966 164.933 222.536 165.962 223.092C168.032 224.214 170.174 224.594 172.385 224.233C173.288 224.086 174.141 223.922 174.944 223.741C175.053 223.716 175.15 223.656 175.22 223.57C175.29 223.484 175.328 223.376 175.329 223.265C175.402 217.193 175.274 211.12 174.947 205.057C174.819 202.734 174.72 200.904 174.652 199.565C174.519 197.008 174.353 194.453 174.154 191.901C174.01 190.029 173.9 188.398 173.824 187.006C173.735 185.371 173.643 183.736 173.549 182.1C173.463 180.618 173.444 179.134 173.491 177.651C173.585 174.723 173.632 173.242 173.632 173.209C173.655 170.766 173.682 168.321 173.712 165.875C173.786 159.61 174.281 153.357 175.192 147.159C175.194 147.144 175.192 147.13 175.187 147.116C175.182 147.103 175.173 147.091 175.162 147.082C175.152 147.072 175.138 147.066 175.124 147.063C175.11 147.06 175.095 147.061 175.082 147.065C172.841 147.839 170.585 148.036 168.317 147.656C166.348 147.328 164.483 146.642 162.721 145.597C162.018 145.179 161.576 144.904 161.395 144.772C160.967 144.458 160.592 144.078 160.283 143.647C160.257 143.61 160.237 143.569 160.226 143.525C160.216 143.481 160.214 143.435 160.221 143.39C160.227 143.345 160.243 143.302 160.267 143.263C160.29 143.224 160.321 143.191 160.358 143.164C160.406 143.128 160.463 143.104 160.523 143.097ZM82.0727 41.4018C82.2614 41.074 82.5283 40.9887 82.8732 41.146C83.1522 41.2747 83.2116 41.5349 83.0521 41.927C82.7791 42.6003 82.5646 43.2959 82.411 44.006C82.3522 44.2739 82.2526 44.4537 82.1112 44.545C81.9148 44.6715 81.726 44.644 81.5445 44.4625C81.4328 44.3492 81.3739 44.1941 81.3684 43.9978C81.348 43.1233 81.583 42.2581 82.0727 41.4018ZM97.8403 44.798C98.555 46.0812 98.7151 47.6041 98.2859 49.0319C97.8568 50.4592 96.873 51.6741 95.5519 52.4095C94.8986 52.7733 94.1816 53.0085 93.4396 53.1025C92.7032 53.1957 91.9557 53.1447 91.2388 52.9523C90.5294 52.7624 89.865 52.4331 89.2844 51.9838C88.7084 51.5372 88.2286 50.979 87.8736 50.3426C87.5195 49.7026 87.2976 48.9981 87.2211 48.2708C87.1445 47.5435 87.2149 46.8083 87.4279 46.1087C87.8571 44.6809 88.8409 43.4659 90.1625 42.7306C90.8157 42.3669 91.5325 42.1318 92.2743 42.0381C93.0107 41.9447 93.7582 41.9955 94.4751 42.1877C95.1845 42.3778 95.8489 42.7073 96.4295 43.1568C97.0057 43.6029 97.4856 44.1616 97.8403 44.798ZM95.7808 46.0707C95.4012 45.3409 94.7288 44.8013 93.9128 44.5698C93.0968 44.3388 92.2038 44.435 91.4297 44.8376C90.6555 45.2408 90.064 45.9167 89.7856 46.7175C89.5072 47.5183 89.5639 48.3785 89.9441 49.1078C90.3243 49.8377 90.9961 50.3778 91.8121 50.6093C92.6281 50.8403 93.5216 50.7435 94.2952 50.3409C95.0694 49.9383 95.6609 49.2618 95.9393 48.461C96.2182 47.6602 96.161 46.8 95.7808 46.0707ZM104.099 45.1561L103.923 45.1506C103.862 45.1487 103.801 45.159 103.743 45.1808C103.686 45.2027 103.633 45.2356 103.589 45.2777C103.544 45.3199 103.508 45.3704 103.483 45.4264C103.458 45.4825 103.444 45.5429 103.442 45.6043L103.384 47.5392C103.382 47.6006 103.393 47.6618 103.415 47.7192C103.436 47.7766 103.469 47.8292 103.511 47.8739C103.554 47.9186 103.604 47.9545 103.66 47.9797C103.716 48.0048 103.777 48.0187 103.838 48.0205L104.014 48.026C104.076 48.0278 104.137 48.0175 104.194 47.9957C104.252 47.9739 104.304 47.9409 104.349 47.8988C104.394 47.8566 104.429 47.8061 104.455 47.7501C104.48 47.694 104.493 47.6336 104.495 47.5722L104.553 45.6373C104.555 45.5759 104.544 45.5148 104.523 45.4573C104.501 45.3999 104.468 45.3474 104.426 45.3027C104.384 45.258 104.333 45.222 104.277 45.1969C104.221 45.1717 104.16 45.1578 104.099 45.1561ZM81.6215 47.3308C82.2487 46.9843 82.5679 47.1438 82.5789 47.8093C82.586 48.2586 82.5992 48.5463 82.6174 48.6728C82.7549 49.6556 82.7786 50.3607 82.6889 50.7875C82.6245 51.0939 82.4688 51.1956 82.2212 51.0928C82.0947 51.04 81.9929 50.9316 81.9159 50.7683C81.43 49.7453 81.2842 48.6684 81.4784 47.537C81.4852 47.4941 81.5016 47.4533 81.5264 47.4175C81.5511 47.3818 81.5837 47.3522 81.6215 47.3308Z" fill="#1E2E34"/>
<path d="M41.5465 47.7927C41.7979 48.0935 41.7996 48.3344 41.552 48.5159C41.4364 48.6023 41.2477 48.6639 40.9853 48.7002C39.6372 48.8872 38.4994 48.9416 37.5712 48.8624C36.8394 48.8003 36.2121 48.935 35.6894 49.2667C35.6152 49.3176 35.5288 49.348 35.4391 49.3547C34.5406 49.4284 33.3939 49.4245 32.0002 49.3437C25.8763 48.9884 21.3436 48.6886 18.4016 48.4444C18.3576 48.4411 18.315 48.4282 18.2767 48.4065C18.2395 48.3856 18.2078 48.3562 18.1842 48.3207C17.6852 47.5859 17.935 47.2328 18.9325 47.2619C21.3441 47.3334 23.7535 47.4407 26.1596 47.5837C28.1811 47.703 30.0123 47.7536 31.6536 47.7349C34.7898 47.6986 37.9272 47.6442 41.0651 47.5727C41.1567 47.5709 41.2475 47.5898 41.3308 47.6279C41.4142 47.666 41.4879 47.7223 41.5465 47.7927ZM102.626 51.6223C102.218 52.543 102.15 53.4054 102.473 53.549C102.797 53.692 103.39 53.0622 103.798 52.1415C104.206 51.2208 104.275 50.3584 103.951 50.2149C103.628 50.0719 103.034 50.7011 102.626 51.6223ZM26.1734 52.8884C26.711 52.9088 27.2447 52.8785 27.7745 52.7977C28.4348 52.6987 28.9641 52.6569 29.3619 52.6712C33.5199 52.8125 37.6779 52.9638 41.8354 53.1249C45.0761 53.2514 48.7901 53.2289 52.9773 53.0562C55.3377 52.9594 59.6305 52.8851 65.8551 52.8334C66.5209 52.8279 67.064 52.9847 67.4838 53.3037C67.7572 53.5127 67.881 53.7712 67.8552 54.0792C67.8277 54.4405 67.6312 54.7128 67.2664 54.8959C66.6045 55.2259 65.7385 55.3909 64.6694 55.3909C59.6476 55.3893 54.6274 55.4569 49.6072 55.5944C47.6578 55.6478 45.7089 55.6489 43.7611 55.5972C41.5674 55.5389 39.3742 55.4844 37.1805 55.4349C36.3953 55.4168 35.1915 55.4569 33.5683 55.5559C32.5544 55.6183 31.538 55.6311 30.5229 55.5944L28.2532 55.5119C25.582 55.4643 22.9107 55.4203 20.2393 55.3799C19.48 55.3689 18.8516 55.1033 18.3548 54.5824C18.324 54.5508 18.2998 54.5134 18.2838 54.4723C18.2677 54.4312 18.2601 54.3873 18.2613 54.3432C18.2778 53.7805 18.5099 53.3312 18.9573 52.9957C19.0306 52.9438 19.1178 52.9151 19.2076 52.9132C21.5295 52.8125 23.8515 52.8043 26.1734 52.8884ZM83.9645 55.3684C84.5554 55.9734 85.2283 56.2753 85.4677 56.0421C85.707 55.8084 85.422 55.1286 84.8305 54.523C84.2396 53.918 83.5667 53.6155 83.3273 53.8493C83.088 54.0825 83.3735 54.7623 83.9645 55.3684ZM163.973 56.2187C163.982 56.173 163.963 56.1466 163.915 56.1389C164.256 55.3359 164.647 55.172 165.087 55.6467C165.303 55.8815 165.412 56.1549 165.412 56.4662C165.41 56.998 165.122 57.2164 164.548 57.1207C164.5 57.1135 164.453 57.0971 164.411 57.0723C164.376 57.0521 164.348 57.0221 164.33 56.9859L163.973 56.2187ZM99.8751 57.152C100.633 56.5932 101.084 55.9184 100.882 55.6445C100.68 55.3706 99.9021 55.6016 99.1433 56.1604C98.3851 56.7192 97.9345 57.394 98.1364 57.6674C98.3384 57.9418 99.1169 57.7108 99.8751 57.152ZM207.214 57.3627C207.284 57.053 207.477 56.8781 207.792 56.8374C209.047 56.6779 210.306 56.6048 211.569 56.6174L212.964 56.6284C221.471 56.6009 229.973 56.7835 238.472 57.1757C238.561 57.1778 238.645 57.2143 238.706 57.2774C239.014 57.6041 238.996 57.9099 238.651 58.1959C238.581 58.2526 238.491 58.281 238.401 58.2757C228.798 57.9072 219.192 57.7669 209.583 57.8549C209.011 57.8604 208.443 57.9182 207.88 58.0282C207.312 58.1404 207.09 57.9182 207.214 57.3627ZM89.1035 58.6964C89.8469 59.0105 90.5583 59.0077 90.6926 58.6898C90.8268 58.3725 90.3333 57.8604 89.5899 57.5469C88.8466 57.2334 88.1351 57.2362 88.0009 57.5535C87.8666 57.8714 88.3607 58.3824 89.1035 58.6964ZM94.7647 59.4378C95.5312 59.2167 96.0781 58.7795 95.9862 58.461C95.8943 58.1431 95.1988 58.0645 94.4324 58.2856C93.6659 58.5067 93.119 58.9439 93.2109 59.2618C93.3028 59.5803 93.9988 59.6584 94.7647 59.4378ZM206.959 61.2704C206.978 61.2202 207.008 61.1748 207.046 61.1373C207.085 61.0998 207.131 61.0711 207.181 61.0532C207.882 60.8112 208.596 60.6566 209.322 60.5884C209.408 60.5796 210.132 60.5549 211.495 60.5142C214.501 60.4262 217.509 60.397 220.519 60.4262C221.045 60.4317 221.57 60.4647 222.092 60.5252C222.373 60.5565 222.562 60.6517 222.659 60.8112C222.787 61.024 222.748 61.2479 222.541 61.4822C222.512 61.5139 222.477 61.5387 222.438 61.5548C222.396 61.5715 222.352 61.5795 222.307 61.5784C218.127 61.5273 213.949 61.5878 209.773 61.7599C209.461 61.7731 209.022 61.8419 208.455 61.9662C208.017 62.0619 207.572 62.1114 207.121 62.1147C207.08 62.1148 207.04 62.1025 207.006 62.0795C206.973 62.0577 206.949 62.0256 206.937 61.9882C206.861 61.7572 206.869 61.5179 206.959 61.2704ZM163.548 63.6629C163.637 64.2712 164.02 64.7189 164.403 64.6634C164.787 64.6073 165.025 64.0688 164.937 63.46C164.848 62.8517 164.465 62.4034 164.082 62.459C163.698 62.5151 163.459 63.0541 163.548 63.6624V63.6629ZM235.383 66.1764C235.203 66.4608 234.945 66.6027 234.61 66.6027C228.471 66.5752 222.468 66.5994 216.598 66.6742C214.64 66.7 212.439 66.8359 209.996 67.0812C209.312 67.151 209.082 66.8898 209.308 66.2974C209.323 66.2566 209.347 66.2193 209.377 66.188C209.409 66.1555 209.446 66.1294 209.487 66.111C210.037 65.8635 210.505 65.7282 210.89 65.7062C213.937 65.5324 217.879 65.4444 222.72 65.4422C226.828 65.4422 230.936 65.4559 235.045 65.4834C235.146 65.4834 235.236 65.512 235.298 65.5632C235.505 65.7359 235.533 65.9399 235.383 66.1764ZM70.653 68.9649C71.9351 68.9506 73.216 68.9814 74.4963 69.0584C74.5112 69.0584 74.6988 69.0513 75.0603 69.0364C75.5263 69.0166 75.7244 69.2806 75.6545 69.8284C75.4399 71.4924 75.392 73.1737 75.5115 74.8472C75.6287 76.5192 75.7288 78.1934 75.8113 79.8687C75.8735 81.1359 75.8526 85.1481 75.7481 91.9054C75.7481 91.9769 75.7893 92.2409 75.8719 92.6974C75.9142 92.9394 75.8845 93.177 75.7838 93.4097C75.766 93.4489 75.7405 93.4842 75.7088 93.5135C75.6772 93.5427 75.64 93.5654 75.5995 93.5802C74.9354 93.8222 74.2036 93.9498 73.4041 93.9624C65.136 94.0873 57.8231 94.0873 51.4642 93.9624C49.3112 93.9206 47.3315 93.9459 45.5246 94.0394C44.1215 94.1131 42.8533 94.1505 41.7198 94.1522C40.4488 94.1522 39.1795 94.1808 37.9123 94.2374C34.9395 94.3678 33.3361 94.4354 33.1034 94.4409C30.8657 94.4926 29.2601 94.4932 28.2862 94.4437C26.0184 94.3303 23.7469 94.3074 21.4773 94.3749C20.9656 94.3898 20.2118 94.354 19.2159 94.2677C19.1977 94.266 18.5017 94.233 17.1278 94.1687C16.2733 94.1302 15.5047 93.9872 14.8224 93.7397C14.1808 93.509 13.6237 93.0902 13.224 92.5379C12.923 92.1293 12.6985 91.5298 12.55 90.7394C12.3376 89.6158 12.2639 88.8799 12.3299 88.5312C12.5027 87.6259 12.5252 86.8009 12.3987 86.0562C12.1384 84.5272 12.0355 83.0526 12.0906 81.6314C12.1291 80.6491 12.1346 79.746 12.1071 78.9227C12.0614 77.5477 12.1423 76.1809 12.3492 74.8224C12.6738 72.6961 12.8592 71.5648 12.9049 71.4289C13.3395 70.1386 14.3861 69.3994 16.0439 69.2124C17.5058 69.0474 19.1333 68.9561 20.9271 68.9374C26.0991 68.8863 29.3316 68.7944 30.6247 68.6624C33.4143 68.3786 36.211 68.2235 39.0155 68.1977C39.7054 68.1923 40.3947 68.1574 41.0816 68.0932C41.9492 68.0129 42.637 67.9705 43.1449 67.9667C48.2124 67.9282 53.2782 68.0101 58.3419 68.2114C60.1411 68.2829 61.6773 68.4105 62.95 68.5937C64.0708 68.7554 65.1024 68.823 66.045 68.7972C66.815 68.777 67.5855 68.799 68.3531 68.8632C69.2538 68.9385 70.0203 68.9726 70.653 68.9649ZM74.1992 92.7937C74.2834 92.8157 74.3643 92.8113 74.4413 92.7799C74.4771 92.7635 74.5067 92.7359 74.5255 92.7013C74.5465 92.662 74.5572 92.6182 74.5568 92.5737C74.5568 90.1944 74.5888 87.8156 74.6531 85.4374C74.734 82.5153 74.6559 79.5986 74.4193 76.6869C74.3425 75.7823 74.3021 74.875 74.2982 73.9672V71.2474L74.323 70.8899C74.356 70.4334 74.0958 70.2409 73.5417 70.3124C72.6063 70.4318 71.4399 70.4169 70.0423 70.2684C68.5275 70.1089 67.3693 70.0182 66.5677 69.9962C63.1106 69.899 59.6561 69.723 56.2071 69.4682C52.2455 69.1767 48.2801 69.1118 44.3113 69.2729C41.1036 69.4016 38.9946 69.45 37.9838 69.4187C36.7447 69.3801 35.5043 69.4316 34.2726 69.5727C31.7124 69.8642 29.1435 70.0149 26.5668 70.0237C23.0894 70.0369 19.6186 70.1799 16.1539 70.4527C15.4518 70.5077 14.9511 70.6534 14.6518 70.8899C14.199 71.2474 13.9525 71.7655 13.9118 72.4437C13.8898 72.805 13.7396 73.74 13.4606 75.2487C13.3064 76.0792 13.2373 76.9232 13.2543 77.7677C13.2911 79.6124 13.2812 81.0688 13.224 82.1374C13.158 83.3716 13.2499 84.4942 13.4991 85.5062C13.6334 86.0452 13.646 86.9923 13.5376 88.3469C13.512 88.6516 13.5111 88.9578 13.5349 89.2627C13.5624 89.5707 13.5943 89.877 13.6312 90.1812C13.8402 91.9247 14.8207 92.8663 16.5721 93.0054C18.4962 93.1578 20.422 93.2249 22.3494 93.2062C24.7703 93.1864 26.4347 93.188 27.3426 93.2117C29.9253 93.2832 31.5925 93.3046 32.3441 93.2749C36.0102 93.1358 39.6785 93.0439 43.3485 92.9999C44.2398 92.9889 45.3716 92.9389 46.7433 92.8487C47.8722 92.7714 49.004 92.7429 50.1354 92.7634C55.5072 92.8718 62.0944 92.9048 69.8965 92.8624C71.7469 92.8536 73.0944 92.8168 73.9378 92.7524C73.9929 92.7491 74.0798 92.7629 74.1992 92.7937ZM101.96 76.7199C102.32 76.7826 102.665 76.7144 102.995 76.5164C103.518 76.2051 103.874 76.2508 104.062 76.6539C104.387 77.3491 104.588 78.074 104.665 78.8292C104.725 79.4397 104.746 79.812 104.728 79.9457C104.657 80.4572 104.242 80.659 103.485 80.5507C103.131 80.4995 102.914 80.6469 102.835 80.9934C102.749 81.3674 102.89 81.5764 103.259 81.6204C104.293 81.7436 104.757 82.2667 104.651 83.1907C104.614 83.5012 104.58 83.812 104.546 84.1229C104.513 84.6619 104.421 85.0948 104.269 85.4209C103.981 86.0336 103.574 86.2102 103.047 85.9517C102.853 85.8565 102.663 85.7537 102.478 85.6437C101.904 85.3049 101.505 85.4974 101.281 86.2212C101.244 86.3395 101.245 86.4665 101.285 86.5841C101.324 86.7016 101.4 86.8037 101.501 86.8757C102.245 87.413 102.457 87.9867 102.137 88.5972C102.019 88.821 101.783 89.1263 101.427 89.5129C101.164 89.8021 100.865 90.0571 100.538 90.2719C100.239 90.4699 99.9533 90.5469 99.6798 90.5029C99.2853 90.4408 99.0377 90.2136 98.937 89.8209C98.7483 89.0806 98.3923 88.8771 97.8696 89.2104C97.4113 89.5019 97.3249 89.8781 97.611 90.3379C97.901 90.8076 97.9494 91.2702 97.7568 91.7267C97.7395 91.7667 97.7138 91.8026 97.6816 91.832C97.6493 91.8614 97.6112 91.8836 97.5697 91.8972L94.6508 92.8267C94.6087 92.8396 94.5643 92.8441 94.5204 92.8399C94.4765 92.8356 94.4339 92.8227 94.395 92.8019C93.8337 92.5016 93.5405 92.0121 93.5146 91.3334C93.4926 90.7653 93.2368 90.5161 92.7471 90.5854C92.7017 90.5918 92.6583 90.6082 92.62 90.6333C92.5842 90.6563 92.5551 90.6881 92.5352 90.7257L91.886 91.9549C91.8245 92.0749 91.7341 92.1777 91.623 92.2541C91.5206 92.3246 91.3995 92.3631 91.2752 92.3647C90.5637 92.3615 89.8565 92.254 89.1761 92.0457C88.7343 91.912 88.451 91.7388 88.326 91.5259C88.15 91.2273 88.1758 90.8434 88.4031 90.3737C88.55 90.0695 88.6122 89.7494 88.5902 89.4139C88.5753 89.1741 88.3838 89.0839 88.0152 89.1444C87.7661 89.1855 87.5351 89.3005 87.3522 89.4744C86.9103 89.8963 86.4647 90.1894 86.0151 90.3544C85.4886 90.5453 85.0743 90.46 84.7716 90.0987L83.7372 88.8557C83.4825 88.5515 83.4786 88.2644 83.7262 87.9949L84.6946 86.9444C84.7309 86.9048 84.7606 86.8647 84.7815 86.8273C84.8001 86.7968 84.8118 86.7626 84.8157 86.7272C84.8525 86.0474 84.5389 85.7603 83.8748 85.8664C83.3851 85.9456 83.0164 85.9665 82.7689 85.9297C82.7277 85.923 82.6883 85.9078 82.6533 85.8851C82.6158 85.8603 82.5831 85.8288 82.557 85.7922C82.0714 85.1063 81.7281 84.3302 81.5474 83.5097C81.5274 83.4224 81.5351 83.3311 81.5694 83.2484C81.8186 82.6434 82.2527 82.265 82.8706 82.1127C83.2228 82.0247 83.4445 81.9488 83.5364 81.8844C83.8352 81.6738 83.8352 81.4356 83.5364 81.1694C83.4302 81.0743 83.2486 80.9846 82.9917 80.8999C82.5865 80.771 82.2067 80.5728 81.8692 80.3142C81.762 80.2328 81.679 80.1237 81.6291 79.9987C81.5792 79.8737 81.5642 79.7375 81.5859 79.6047C81.6943 78.954 81.8153 78.3094 81.949 77.6714C82.1014 76.9344 82.4783 76.6468 83.0797 76.8079C83.5821 76.9421 83.883 77.0026 83.9821 76.9894C84.4404 76.9234 84.6302 76.6055 84.5516 76.0352C84.5373 75.9476 84.4913 75.8683 84.4222 75.8124C84.1488 75.5781 83.9749 75.3004 83.8995 74.9792C83.8352 74.7119 83.8924 74.4127 84.0701 74.0827C84.5103 73.267 85.0071 72.7154 85.5612 72.4272C86.0746 72.1577 86.5059 72.2677 86.8542 72.7572C87.1717 73.2027 87.5613 73.2698 88.0234 72.9579C88.4598 72.6648 88.5104 72.2924 88.1747 71.8414C87.7549 71.2804 87.6972 70.891 88.0014 70.6727C88.617 70.2326 89.3135 69.9186 90.051 69.7487C90.0658 69.747 90.2436 69.6959 90.5847 69.5947C90.9825 69.4775 91.322 69.5408 91.6026 69.7844C91.744 69.9076 91.8981 70.1551 92.0648 70.5269C92.1858 70.7986 92.3113 71.067 92.4417 71.3327C92.5149 71.4812 92.6106 71.5895 92.7278 71.6572C92.9792 71.8002 93.1416 71.7831 93.2147 71.6049C93.3231 71.3486 93.4029 71.0835 93.4541 70.8102C93.645 69.7982 94.1143 69.3576 94.8626 69.4874C95.1889 69.5446 95.6027 69.6574 96.1034 69.8257L96.9397 70.0594C98.055 70.3713 98.2806 71.1039 97.6165 72.2567C97.5935 72.2953 97.5786 72.3381 97.5725 72.3826C97.5666 72.4244 97.5704 72.4669 97.5835 72.5069C97.7172 72.8974 97.9483 72.992 98.2768 72.7902C98.3411 72.7517 98.4902 72.607 98.7252 72.3557C99.0638 71.9897 99.5227 71.7575 100.018 71.7012C100.107 71.6907 100.195 71.7154 100.266 71.7699C100.682 72.0983 101.053 72.4706 101.377 72.8864C101.544 73.0993 101.782 73.3622 102.09 73.6757C102.37 73.9617 102.571 74.2614 102.692 74.5749C102.857 75.0023 102.735 75.3158 102.324 75.5154C101.72 75.8108 101.53 76.1628 101.751 76.5714C101.773 76.6098 101.804 76.643 101.84 76.6686C101.876 76.6942 101.917 76.7117 101.96 76.7199ZM97.803 78.5921C97.0547 77.3717 95.8288 76.5131 94.395 76.2051C92.9605 75.8971 91.4353 76.1644 90.155 76.9487C88.8752 77.733 87.9442 78.97 87.5679 80.3868C87.1915 81.8041 87.4 83.2858 88.1478 84.5063C88.8961 85.7262 90.122 86.5847 91.5564 86.8933C92.9903 87.2013 94.5155 86.934 95.7958 86.1497C97.0762 85.3654 98.0066 84.1284 98.3829 82.7111C98.7598 81.2937 98.5508 79.812 97.803 78.5921Z" fill="#1E2E34"/>
<path d="M39.1171 72.2601L35.1913 72.3971C35.1168 72.3996 35.0436 72.4168 34.9758 72.4477C34.908 72.4785 34.847 72.5224 34.7962 72.5769C34.7454 72.6314 34.7059 72.6953 34.6798 72.765C34.6537 72.8348 34.6417 72.909 34.6443 72.9834L34.6465 73.0329C34.6518 73.183 34.7165 73.3248 34.8264 73.4272C34.9363 73.5296 35.0824 73.5842 35.2325 73.579L39.1583 73.4421C39.2327 73.4395 39.3059 73.4223 39.3736 73.3915C39.4414 73.3607 39.5024 73.3168 39.5532 73.2624C39.604 73.208 39.6435 73.1442 39.6696 73.0745C39.6957 73.0048 39.7078 72.9307 39.7052 72.8563L39.7036 72.8068C39.701 72.7324 39.6838 72.6592 39.653 72.5915C39.6221 72.5237 39.5782 72.4627 39.5237 72.4119C39.4692 72.3612 39.4053 72.3216 39.3355 72.2956C39.2657 72.2695 39.1915 72.2575 39.1171 72.2601ZM46.4031 72.5263L43.0577 72.5379C42.9858 72.5381 42.9147 72.5525 42.8483 72.5802C42.782 72.6079 42.7218 72.6484 42.6711 72.6993C42.6204 72.7503 42.5803 72.8107 42.5529 72.8772C42.5256 72.9437 42.5117 73.0149 42.5119 73.0868V73.1308C42.513 73.4333 42.7595 73.6775 43.0616 73.6764L46.4069 73.6648C46.4788 73.6645 46.5499 73.6501 46.6162 73.6223C46.6826 73.5946 46.7427 73.554 46.7934 73.503C46.844 73.452 46.8841 73.3915 46.9113 73.325C46.9386 73.2585 46.9525 73.1872 46.9522 73.1154V73.0714C46.9516 72.9263 46.8934 72.7874 46.7905 72.6852C46.6875 72.583 46.5482 72.5259 46.4031 72.5263ZM29.3595 72.6055L27.0689 72.7298C26.9291 72.7374 26.7979 72.8001 26.7043 72.9043C26.6107 73.0084 26.5624 73.1455 26.5699 73.2853L26.5737 73.3623C26.5814 73.502 26.6442 73.633 26.7484 73.7264C26.8526 73.8199 26.9897 73.8681 27.1295 73.8606L29.4211 73.7369C29.561 73.7292 29.6921 73.6663 29.7856 73.562C29.879 73.4578 29.9273 73.3206 29.9196 73.1808L29.9158 73.1044C29.9082 72.9646 29.8455 72.8335 29.7412 72.7399C29.637 72.6464 29.4994 72.598 29.3595 72.6055ZM52.4549 74.0498C53.5443 74.0152 54.4175 73.7061 54.4065 73.3585C54.3955 73.0109 53.5042 72.7568 52.4153 72.7909C51.3264 72.825 50.4527 73.1346 50.4637 73.4822C50.4747 73.8298 51.3655 74.0839 52.4549 74.0498ZM22.7959 72.7782L19.1447 73.2006C19.0041 73.2169 18.8757 73.2883 18.7878 73.3992C18.6999 73.5101 18.6596 73.6513 18.6759 73.7919L18.6814 73.8353C18.6894 73.9049 18.711 73.9722 18.7451 74.0334C18.7791 74.0946 18.8248 74.1485 18.8797 74.192C18.9346 74.2355 18.9975 74.2678 19.0649 74.287C19.1323 74.3062 19.2027 74.312 19.2723 74.3039L22.9236 73.8821C23.0642 73.8658 23.1926 73.7944 23.2805 73.6835C23.3684 73.5726 23.4086 73.4314 23.3924 73.2908L23.3874 73.2468C23.3711 73.1063 23.2997 72.978 23.1888 72.8901C23.0778 72.8022 22.9365 72.762 22.7959 72.7782ZM60.4991 73.0769L58.953 73.0983C58.8239 73.1002 58.7008 73.1532 58.6107 73.2457C58.5207 73.3382 58.471 73.4626 58.4726 73.5917L58.4748 73.7457C58.4787 74.0146 58.6999 74.2297 58.9689 74.2258L60.5145 74.2044C60.6437 74.2025 60.7669 74.1494 60.8569 74.0568C60.947 73.9642 60.9966 73.8396 60.9948 73.7105L60.9926 73.5565C60.9908 73.4275 60.9377 73.3045 60.8452 73.2146C60.7526 73.1246 60.6282 73.0751 60.4991 73.0769ZM67.7752 73.2028L66.1058 73.1005C66.0402 73.0965 65.9744 73.1054 65.9122 73.1268C65.85 73.1482 65.7926 73.1817 65.7434 73.2253C65.6941 73.2688 65.6539 73.3217 65.6251 73.3808C65.5963 73.4399 65.5794 73.504 65.5754 73.5697L65.5677 73.6962C65.5596 73.8286 65.6044 73.9589 65.6923 74.0583C65.7802 74.1577 65.904 74.2182 66.0365 74.2264L67.7064 74.3281C67.7721 74.3321 67.8378 74.3232 67.9 74.3018C67.9622 74.2804 68.0196 74.247 68.0688 74.2034C68.1181 74.1598 68.1583 74.107 68.1871 74.0479C68.2159 73.9888 68.2328 73.9246 68.2368 73.859L68.2445 73.733C68.2485 73.6674 68.2396 73.6016 68.2182 73.5395C68.1968 73.4773 68.1633 73.42 68.1197 73.3707C68.0762 73.3215 68.0233 73.2813 67.9642 73.2525C67.9051 73.2237 67.8408 73.2068 67.7752 73.2028ZM17.1391 73.727L17.088 73.6951C17.0277 73.6579 16.9607 73.6329 16.8908 73.6216C16.8209 73.6102 16.7494 73.6128 16.6805 73.6291C16.6116 73.6454 16.5465 73.6751 16.4891 73.7165C16.4316 73.7579 16.3829 73.8103 16.3457 73.8705L15.62 75.0448C15.5828 75.105 15.5578 75.172 15.5464 75.2419C15.5351 75.3118 15.5377 75.3832 15.554 75.4521C15.5703 75.521 15.6 75.586 15.6414 75.6434C15.6829 75.7008 15.7352 75.7495 15.7955 75.7867L15.8467 75.8186C15.907 75.8559 15.974 75.881 16.044 75.8923C16.1139 75.9037 16.1855 75.9012 16.2545 75.8849C16.3235 75.8686 16.3886 75.8388 16.446 75.7974C16.5035 75.7559 16.5523 75.7035 16.5895 75.6432L17.3147 74.4684C17.3897 74.3468 17.4133 74.2004 17.3804 74.0614C17.3475 73.9223 17.2607 73.8021 17.1391 73.727ZM71.0506 77.1909C71.5673 77.94 72.2138 78.3904 72.4939 78.1974C72.7739 78.0038 72.5819 77.2404 72.0652 76.4913C71.5486 75.7427 70.9026 75.2923 70.622 75.4853C70.342 75.6784 70.534 76.4423 71.0506 77.1909ZM16.069 77.0704L15.7884 77.0688C15.7353 77.0683 15.6826 77.0784 15.6334 77.0983C15.5842 77.1182 15.5394 77.1476 15.5016 77.1849C15.4638 77.2221 15.4337 77.2664 15.413 77.3153C15.3924 77.3642 15.3816 77.4167 15.3812 77.4697L15.3636 80.0162C15.3632 80.0693 15.3732 80.122 15.3932 80.1712C15.4131 80.2204 15.4426 80.2652 15.4799 80.303C15.5172 80.3408 15.5616 80.3709 15.6106 80.3915C15.6596 80.4122 15.7121 80.4229 15.7652 80.4232L16.0459 80.4254C16.099 80.4258 16.1516 80.4157 16.2008 80.3957C16.25 80.3757 16.2948 80.3462 16.3326 80.309C16.3704 80.2717 16.4005 80.2273 16.4212 80.1784C16.4418 80.1295 16.4527 80.077 16.453 80.0239L16.4706 77.4774C16.471 77.4243 16.4609 77.3717 16.4409 77.3225C16.4209 77.2733 16.3914 77.2286 16.3541 77.1908C16.3168 77.153 16.2724 77.1229 16.2235 77.1022C16.1746 77.0816 16.1221 77.0708 16.069 77.0704ZM72.265 81.9396L72.1494 81.9308C72.0141 81.9208 71.8803 81.9648 71.7775 82.0533C71.6747 82.1418 71.6111 82.2674 71.6009 82.4027L71.4688 84.1577C71.4638 84.2247 71.472 84.292 71.493 84.3559C71.514 84.4197 71.5474 84.4787 71.5912 84.5296C71.6351 84.5806 71.6885 84.6224 71.7485 84.6526C71.8085 84.6829 71.8739 84.7011 71.9409 84.7061L72.0559 84.7149C72.1229 84.7199 72.1903 84.7117 72.2541 84.6907C72.3179 84.6697 72.377 84.6363 72.428 84.5925C72.4789 84.5487 72.5207 84.4953 72.551 84.4353C72.5813 84.3753 72.5994 84.31 72.6045 84.243L72.7365 82.4879C72.7467 82.3527 72.7027 82.219 72.6143 82.1162C72.5259 82.0134 72.4002 81.9498 72.265 81.9396ZM16.3441 83.077L16.2957 83.0847C16.1516 83.1088 16.0231 83.1891 15.9383 83.3079C15.8535 83.4267 15.8193 83.5743 15.8434 83.7183L16.2544 86.1702C16.2785 86.3139 16.3587 86.4421 16.4773 86.5268C16.596 86.6114 16.7433 86.6456 16.8871 86.6217L16.9367 86.6135C17.0804 86.5892 17.2087 86.509 17.2933 86.3903C17.3779 86.2716 17.4119 86.1242 17.3878 85.9804L16.9779 83.5285C16.9661 83.4572 16.9402 83.389 16.9019 83.3277C16.8636 83.2664 16.8136 83.2132 16.7547 83.1713C16.6958 83.1293 16.6293 83.0994 16.5588 83.0832C16.4883 83.067 16.4154 83.0649 16.3441 83.077ZM20.0404 89.1572L17.7229 87.7487C17.6609 87.7109 17.592 87.6858 17.5203 87.6746C17.4485 87.6635 17.3753 87.6666 17.3047 87.6838C17.2341 87.7009 17.1677 87.7318 17.109 87.7747C17.0504 87.8175 17.0008 87.8715 16.9631 87.9335L16.94 87.9714C16.9022 88.0335 16.8771 88.1023 16.866 88.1741C16.8549 88.2458 16.858 88.3191 16.8753 88.3896C16.8925 88.4601 16.9234 88.5266 16.9664 88.5851C17.0093 88.6437 17.0633 88.6933 17.1254 88.731L19.4429 90.1395C19.5683 90.2155 19.7187 90.2387 19.8612 90.204C20.0037 90.1692 20.1265 90.0794 20.2028 89.9542L20.2259 89.9168C20.2636 89.8547 20.2887 89.7859 20.2998 89.7141C20.3109 89.6424 20.3078 89.5691 20.2906 89.4986C20.2733 89.4281 20.2424 89.3616 20.1995 89.303C20.1566 89.2445 20.1025 89.1949 20.0404 89.1572ZM69.3433 88.803C68.715 89.4465 68.398 90.1555 68.6352 90.387C68.8723 90.618 69.5733 90.2842 70.2016 89.6407C70.83 88.9972 71.1469 88.2877 70.9098 88.0567C70.6732 87.8251 69.9717 88.1595 69.3433 88.803ZM192.097 88.9961C192.299 88.6754 192.541 88.5885 192.823 88.7348C192.856 88.7524 192.881 88.7821 192.893 88.819C192.905 88.8553 192.904 88.896 192.889 88.9328C190.27 95.5988 186.434 101.468 181.382 106.541C179.423 108.508 177.372 110.38 175.236 112.151C172.818 114.158 170.046 115.694 167.062 116.68C166.982 116.707 166.903 116.737 166.825 116.771C166.483 116.912 166.431 116.821 166.671 116.496C166.723 116.428 166.79 116.374 166.867 116.337C169.003 115.272 171.201 113.858 173.458 112.096C178.313 108.303 182.325 104.293 185.494 100.065C187.028 98.0172 188.684 95.2496 190.463 91.7626C190.771 91.1576 191.316 90.2358 192.097 88.9961ZM58.7747 89.6071L54.1952 89.0692C54.051 89.0525 53.906 89.0937 53.7922 89.1837C53.6783 89.2737 53.6048 89.4052 53.5878 89.5494L53.5823 89.5928C53.5739 89.6642 53.5797 89.7366 53.5993 89.8057C53.619 89.8749 53.652 89.9395 53.6966 89.9959C53.7412 90.0523 53.7965 90.0993 53.8593 90.1344C53.9221 90.1694 53.9912 90.1917 54.0626 90.2L58.6421 90.7379C58.7135 90.7464 58.7859 90.7406 58.8551 90.7211C58.9242 90.7016 58.9889 90.6686 59.0453 90.624C59.1017 90.5795 59.1488 90.5243 59.1839 90.4615C59.2189 90.3988 59.2412 90.3297 59.2496 90.2583L59.2545 90.2143C59.2714 90.0702 59.2303 89.9253 59.1404 89.8114C59.0504 89.6976 58.9189 89.6241 58.7747 89.6071ZM41.3702 89.5389L37.7899 89.4328C37.6448 89.4285 37.5039 89.482 37.3983 89.5815C37.2926 89.681 37.2308 89.8185 37.2265 89.9635L37.2249 90.0185C37.2206 90.1636 37.2741 90.3044 37.3737 90.41C37.4732 90.5157 37.6107 90.5774 37.7558 90.5817L41.3361 90.6879C41.408 90.6901 41.4796 90.6781 41.5468 90.6526C41.614 90.6271 41.6756 90.5886 41.7279 90.5393C41.7802 90.49 41.8223 90.4309 41.8518 90.3653C41.8812 90.2997 41.8974 90.229 41.8995 90.1571L41.9012 90.1021C41.9055 89.9571 41.8519 89.8162 41.7524 89.7106C41.6528 89.605 41.5153 89.5432 41.3702 89.5389ZM49.0491 89.4526L46.3678 89.5978C46.2272 89.6053 46.0954 89.6683 46.0013 89.773C45.9072 89.8777 45.8585 90.0155 45.866 90.156L45.8704 90.233C45.8781 90.3736 45.9413 90.5054 46.0461 90.5995C46.1509 90.6935 46.2888 90.7421 46.4295 90.7346L49.1107 90.5894C49.2512 90.5816 49.3828 90.5184 49.4767 90.4136C49.5706 90.3088 49.619 90.1711 49.6114 90.0306L49.6075 89.9536C49.5998 89.8132 49.5367 89.6815 49.432 89.5876C49.3273 89.4936 49.1896 89.4451 49.0491 89.4526ZM23.7253 90.8881C24.5346 91.0223 25.2362 90.8573 25.2923 90.5201C25.3478 90.183 24.7371 89.8013 23.9277 89.6671C23.1184 89.5334 22.4168 89.6979 22.3607 90.035C22.3051 90.3722 22.9164 90.7544 23.7253 90.8881ZM32.8924 89.8348L29.3909 89.6819C29.256 89.6761 29.1243 89.724 29.0247 89.8152C28.9252 89.9064 28.8659 90.0333 28.8599 90.1681L28.8555 90.2726C28.8497 90.4074 28.8976 90.539 28.9889 90.6384C29.0801 90.7378 29.2071 90.797 29.3419 90.8028L32.8435 90.9557C32.9783 90.9615 33.1099 90.9136 33.2094 90.8224C33.3089 90.7312 33.368 90.6043 33.3739 90.4695L33.3783 90.3656C33.3843 90.2308 33.3364 90.0992 33.2453 89.9996C33.1542 89.9001 33.0273 89.8408 32.8924 89.8348ZM65.4202 89.8117L63.3278 89.6841C63.2636 89.6802 63.1992 89.6889 63.1384 89.7098C63.0776 89.7307 63.0215 89.7634 62.9733 89.806C62.9251 89.8486 62.8858 89.9003 62.8576 89.9581C62.8294 90.0159 62.8128 90.0786 62.8089 90.1428L62.799 90.3073C62.7951 90.3715 62.8038 90.4358 62.8247 90.4966C62.8456 90.5574 62.8783 90.6135 62.921 90.6616C62.9636 90.7098 63.0153 90.7491 63.0731 90.7773C63.1309 90.8055 63.1937 90.822 63.2579 90.8259L65.3504 90.9541C65.4146 90.958 65.4789 90.9493 65.5397 90.9284C65.6006 90.9075 65.6567 90.8748 65.7049 90.8322C65.753 90.7896 65.7924 90.7379 65.8206 90.6801C65.8488 90.6223 65.8653 90.5595 65.8692 90.4954L65.8791 90.3304C65.8831 90.2662 65.8743 90.2019 65.8534 90.1411C65.8325 90.0803 65.7998 90.0242 65.7572 89.976C65.7146 89.9279 65.6629 89.8886 65.6051 89.8604C65.5473 89.8322 65.4845 89.8156 65.4202 89.8117ZM64.1878 103.439L66.3199 103.37C71.4275 103.396 75.6229 103.331 78.9061 103.175C80.6211 103.095 82.1799 103.046 83.583 103.029C85.4757 103.01 87.0339 102.983 88.2571 102.95C90.7275 102.884 93.198 102.903 95.6685 103.007C96.1142 103.028 96.5285 103.106 96.912 103.241C97.3175 103.384 97.7164 103.539 98.1087 103.706C98.1956 103.743 98.2716 103.801 98.3294 103.876C98.3871 103.951 98.4248 104.039 98.4389 104.132C98.688 105.821 98.8853 107.516 99.0303 109.217C99.2873 112.213 99.4171 113.729 99.421 113.765C99.7346 117.038 99.9921 120.315 100.194 123.597C100.219 123.96 100.204 124.325 100.15 124.686C100.131 124.814 100.074 124.934 99.9877 125.03C99.9012 125.127 99.7884 125.196 99.6631 125.23C99.0799 125.384 98.5032 125.528 97.9326 125.662C97.3549 125.798 96.7652 125.878 96.172 125.901C93.2393 126.028 91.1292 126.084 89.8417 126.069C86.4122 126.03 83.9362 126.053 82.4137 126.138C78.5199 126.352 74.6227 126.464 70.7216 126.473C67.455 126.479 63.9704 126.619 60.2675 126.894C57.9274 127.068 55.4514 127.091 52.8395 126.963C50.0301 126.825 45.6052 126.825 39.5655 126.963C37.6931 127.005 34.8017 126.889 30.8913 126.616C29.5416 126.523 27.7099 126.426 25.3974 126.325C23.3776 126.235 21.3604 126.095 19.3477 125.904C17.9746 125.776 16.5972 125.698 15.2183 125.67C14.5636 125.657 14.0651 125.439 13.7217 125.013C13.5 124.742 13.3327 124.273 13.221 123.605C12.8816 121.594 12.837 119.459 13.0862 117.2C13.4384 113.999 13.7008 110.792 13.873 107.578C13.9044 106.975 13.9721 106.376 14.0766 105.779C14.1371 105.433 14.0931 105.083 13.9446 104.729C13.7944 104.371 13.905 104.136 14.2775 104.022C15.1303 103.766 16.0409 103.634 17.0093 103.629C17.6045 103.627 18.1996 103.622 18.7947 103.615C27.8915 103.203 35.2507 103.056 40.8723 103.175C48.6435 103.338 56.4148 103.426 64.1878 103.439ZM72.4933 124.218C81.0971 124.255 89.6997 124.207 98.3013 124.075C98.9027 124.066 99.1662 123.783 99.0909 123.225C99.0617 122.994 99.0457 122.873 99.0441 122.862C98.5965 116.832 98.0334 110.811 97.3549 104.803C97.3458 104.719 97.3074 104.64 97.2465 104.581C97.186 104.522 97.1066 104.486 97.022 104.479C94.9257 104.297 92.8195 104.176 90.7028 104.113C89.7124 104.084 88.3137 104.099 86.5074 104.157C85.1067 104.205 83.7052 104.226 82.3037 104.22C81.4987 104.217 80.5678 104.273 79.5113 104.391C78.5248 104.497 77.5894 104.55 76.7052 104.55C72.2265 104.547 68.1064 104.591 64.3446 104.682C62.415 104.73 60.6598 104.739 59.079 104.71C57.3199 104.679 55.5614 104.645 53.8024 104.608C51.2808 104.557 48.7584 104.558 46.2369 104.611C43.8803 104.658 42.0459 104.679 40.7347 104.674C35.829 104.65 30.9227 104.632 26.0164 104.619C25.2862 104.617 24.0053 104.702 22.1731 104.875C21.1189 104.974 20.0558 105.013 18.9846 104.993C17.9182 104.972 16.8516 104.962 15.7851 104.963C15.6695 104.963 15.5579 105.004 15.4695 105.079C15.381 105.153 15.3214 105.256 15.3009 105.37C15.0843 106.668 14.9493 107.979 14.8965 109.294C14.7864 111.892 14.5922 114.483 14.3132 117.068C14.152 118.577 14.0876 119.725 14.1206 120.511C14.1647 121.613 14.2923 122.758 14.503 123.946C14.5103 123.984 14.5308 124.019 14.561 124.043C14.5912 124.068 14.6291 124.081 14.6681 124.081C18.3859 123.993 22.1058 124.059 25.8183 124.276C27.2489 124.361 28.6646 124.375 30.066 124.32C34.1178 124.163 38.6136 124.149 43.5546 124.281C46.7475 124.366 50.599 124.364 55.1092 124.276C57.3485 124.232 59.1824 124.208 60.6113 124.204C64.5713 124.197 68.5317 124.202 72.4933 124.218Z" fill="#1E2E34"/>
<path d="M94.0536 106.459C94.5504 106.739 94.8844 107.217 95.055 107.891C95.5206 109.724 95.6704 111.622 95.4979 113.504C95.351 115.127 95.2778 115.943 95.2778 115.952C95.2211 117.365 95.2432 118.583 95.3438 119.606C95.4555 120.732 94.9741 121.3 93.8995 121.309C88.6246 121.362 81.5867 121.551 72.7849 121.875C68.7408 122.024 64.2472 122.014 59.3045 121.845C57.4189 121.781 55.5851 121.759 53.8024 121.779C49.0562 121.834 44.3105 121.791 39.5655 121.65C35.7353 121.536 31.9021 121.592 28.0769 121.817C26.0064 121.938 23.1414 121.935 19.4825 121.806C18.5141 121.773 17.9622 121.395 17.8263 120.671C17.806 120.561 17.8247 119.987 17.8814 118.949C18.0888 115.176 18.2087 111.4 18.2418 107.619C18.244 107.247 18.3133 106.96 18.4508 106.758C18.6616 106.447 18.9367 106.284 19.2762 106.269C22.5191 106.134 26.5088 106.161 31.2462 106.351C33.5939 106.445 35.4267 106.505 36.7456 106.533C41.8813 106.641 47.0171 106.743 52.1545 106.838C53.9867 106.871 55.8189 106.888 57.6511 106.888C63.8428 106.884 70.0338 106.871 76.2238 106.849C81.5059 106.829 86.778 106.583 92.0398 106.112C92.8469 106.039 93.5182 106.154 94.0536 106.459ZM93.4841 120.211C94.0123 120.276 94.2423 119.983 94.1746 119.331C94.0112 117.786 94.0299 115.953 94.2297 113.831C94.3562 112.473 94.2918 110.777 94.0371 108.744C93.9804 108.293 93.8445 107.932 93.6299 107.66C93.4373 107.417 93.1138 107.297 92.6588 107.303C91.5858 107.314 90.5146 107.368 89.4455 107.465C87.7453 107.621 86.6763 107.71 86.2377 107.732C80.0397 108.059 73.8328 108.185 67.6266 108.111C65.0296 108.081 62.4336 108.063 59.8383 108.059C59.3211 108.057 58.329 108.117 56.8616 108.238C55.5482 108.346 54.2326 108.315 52.9138 108.144C52.0296 108.029 50.6067 107.954 48.6441 107.919L36.1266 107.693C34.8484 107.67 33.0151 107.605 30.6272 107.501C26.9407 107.34 23.257 107.296 19.576 107.369C19.5521 107.369 19.5284 107.374 19.5065 107.384C19.4845 107.394 19.4648 107.407 19.4484 107.425C19.4316 107.442 19.4184 107.463 19.4096 107.485C19.4008 107.508 19.3966 107.532 19.3972 107.556C19.4467 111.624 19.3064 115.794 18.9763 120.066C18.9692 120.162 18.9911 120.257 19.0392 120.341C19.0873 120.424 19.1593 120.491 19.2459 120.533C19.3037 120.561 19.3664 120.577 19.4302 120.58C21.7098 120.688 24.0647 120.707 26.495 120.638C28.9033 120.57 31.3116 120.503 33.7194 120.437C35.4069 120.391 37.2408 120.396 39.2216 120.451C43.3922 120.568 47.5645 120.606 51.739 120.563C54.0241 120.541 57.6005 120.589 62.4683 120.706C66.9526 120.815 72.4548 120.729 78.9749 120.451C83.5197 120.258 88.0672 120.144 92.6175 120.107C92.6324 120.107 92.9212 120.142 93.4841 120.211ZM176.11 117.137C175.526 117.164 174.941 117.147 174.358 117.085C174.109 117.057 173.927 116.972 173.813 116.829C173.65 116.628 173.655 116.437 173.827 116.257C173.926 116.155 174.076 116.097 174.278 116.084C176.925 115.93 179.57 115.953 182.215 116.152C182.384 116.166 182.504 116.211 182.575 116.29C182.682 116.405 182.667 116.529 182.531 116.661C182.462 116.731 182.362 116.775 182.232 116.793C180.784 116.999 179.322 117.095 177.86 117.082C177.523 117.08 176.94 117.098 176.11 117.137ZM162.41 121.006C162.1 120.915 162.09 120.795 162.38 120.649C164.454 119.603 166.663 118.849 168.944 118.407C169.892 118.224 170.893 118.056 171.948 117.904C172.957 117.762 173.971 117.665 174.988 117.613C175.897 117.565 176.97 117.482 178.204 117.362C179.44 117.245 180.509 117.212 181.412 117.263C184.354 117.431 187.318 117.889 190.306 118.638C190.434 118.671 190.55 118.738 190.642 118.832C190.735 118.926 190.799 119.044 190.829 119.172C190.873 119.368 190.765 119.455 190.507 119.43C190.386 119.417 190.265 119.407 190.144 119.4C189.329 119.389 188.335 119.275 187.162 119.056C186.173 118.873 184.892 118.726 183.318 118.616C182.031 118.524 180.741 118.486 179.45 118.501C173.908 118.57 168.403 119.41 163.092 120.995C162.854 121.067 162.626 121.07 162.41 121.006ZM158.737 142.339C159.157 142.87 159.698 143.14 159.947 142.943C160.196 142.747 160.059 142.157 159.64 141.627C159.221 141.096 158.679 140.826 158.43 141.023C158.18 141.22 158.318 141.809 158.737 142.339ZM88.4193 143.265C89.1897 144.2 89.6177 145.228 89.7041 146.35C89.7685 147.199 89.7564 149.757 89.6683 154.023C89.6667 154.089 89.692 155.068 89.7454 156.96C89.7839 158.39 89.6095 159.666 89.2227 160.788C88.8595 161.838 88.1921 162.582 87.2199 163.018C86.6603 163.268 85.7315 163.403 84.433 163.425C77.4783 163.54 70.5235 163.601 63.5687 163.606C62.1948 163.609 60.3621 163.643 58.0693 163.711C54.3311 163.823 50.5902 163.807 46.8531 163.664C45.0207 163.6 43.1871 163.579 41.3537 163.601C38.9987 163.623 36.6449 163.565 34.2916 163.428C34.2806 163.426 33.9901 163.424 33.4195 163.422C32.4401 163.417 31.5488 163.048 30.7455 162.317C29.3848 161.079 28.681 159.584 28.6354 157.831C28.5875 155.901 28.5771 153.97 28.6024 152.037L28.5776 149.188C28.5682 148.141 28.609 146.897 28.6986 145.456C28.8087 143.71 29.4976 142.591 30.7647 142.101C31.2726 141.903 32.4291 141.825 34.2338 141.865C35.6941 141.898 37.1544 141.901 38.6163 141.873C40.4227 141.842 41.883 141.836 42.9961 141.854C51.7924 142.006 59.0113 141.964 64.6527 141.727C68.8877 141.548 75.2664 141.416 83.7893 141.331C84.7483 141.323 85.6116 141.463 86.378 141.755C87.1538 142.049 87.8345 142.552 88.4193 143.265ZM85.4097 161.866C86.0149 161.913 86.5624 161.79 87.0521 161.494C87.4757 161.24 87.7877 160.809 87.9874 160.202C88.437 158.835 88.5734 157.357 88.3973 155.769C88.2653 154.578 88.2202 153.23 88.2625 151.726C88.2994 150.46 88.3082 149.489 88.29 148.814C88.2642 147.843 88.2394 146.872 88.2158 145.902C88.1938 145.005 88.0826 144.359 87.8829 143.963C87.5654 143.327 87.0493 142.863 86.334 142.569C86.2223 142.523 85.9324 142.415 85.4647 142.244C85.1759 142.14 84.872 142.085 84.5651 142.079C79.4299 142.01 73.1189 142.15 65.6321 142.5C61.5181 142.693 56.3015 142.745 49.9811 142.657C49.3467 142.648 48.501 142.66 47.4446 142.693C46.5995 142.72 45.7527 142.726 44.9053 142.709L41.1006 142.638H32.5969C31.9334 142.638 31.4486 142.689 31.1444 142.792C30.6272 142.968 30.2228 143.27 29.9311 143.696C29.6654 144.089 29.5168 144.741 29.4855 145.654C29.3573 149.325 29.3809 152.995 29.557 156.665C29.6014 157.603 29.8052 158.527 30.1595 159.396C30.6068 160.502 31.3314 161.195 32.3328 161.475C32.5551 161.538 33.4822 161.602 35.1142 161.668C36.2421 161.714 37.3695 161.761 38.4953 161.811C39.5148 161.857 40.6422 161.878 41.8764 161.874C44.7414 161.868 47.6042 161.94 50.4653 162.088C51.3473 162.135 52.2436 162.157 53.1531 162.154C54.05 162.154 54.9479 162.163 55.8464 162.179C57.4932 162.21 58.838 162.216 59.8795 162.196C63.6557 162.124 67.4313 162.029 71.2058 161.91C73.0435 161.851 74.8757 161.82 76.7024 161.816C79.1988 161.813 81.694 161.798 84.1882 161.772C84.203 161.772 84.6102 161.803 85.4097 161.866ZM82.8236 191.555C79.0838 191.621 75.3434 191.677 71.6019 191.722L70.9417 191.747C70.4135 191.767 69.4918 191.76 68.1768 191.725C66.2054 191.672 61.3222 191.63 53.5273 191.599C52.2689 191.593 50.435 191.568 48.0251 191.524C42.8271 191.433 37.6276 191.477 32.4319 191.656C31.1499 191.7 30.1633 191.282 29.4717 190.402C28.8335 189.588 28.5132 188.563 28.5116 187.325C28.5116 186.179 28.4852 185.034 28.4318 183.888C28.2887 180.731 28.2695 177.574 28.374 174.417C28.4109 173.251 28.5793 172.396 28.8802 171.854C29.4453 170.836 30.3933 170.218 31.7249 170C32.066 169.943 32.7692 169.945 33.8349 170.003C34.5375 170.044 35.2414 170.057 35.945 170.044C38.6191 169.986 41.2931 169.937 43.9672 169.898C45.1887 169.88 47.022 169.827 49.4666 169.739C53.25 169.601 57.0371 169.601 60.8204 169.739C63.3294 169.831 65.1627 169.876 66.3198 169.876C70.4173 169.879 75.0023 169.805 80.0753 169.656C81.7149 169.609 83.1494 169.527 84.378 169.412C85.1962 169.335 85.8113 169.337 86.224 169.417C86.8842 169.547 87.4658 169.793 87.9682 170.154C88.6103 170.618 89.0262 171.295 89.2172 172.186C89.4224 173.143 89.5379 174.111 89.5638 175.088C89.5842 175.889 89.5941 176.303 89.5941 176.328C89.7536 179.967 89.7454 183.612 89.5693 187.251C89.5104 188.465 89.352 189.317 89.0934 189.808C88.6532 190.644 87.917 191.215 86.8842 191.519C86.5117 191.629 85.8344 191.659 84.8512 191.607C83.9983 191.563 83.3227 191.546 82.8236 191.555ZM87.2942 171.172C86.5695 170.631 85.8124 170.413 85.0218 170.517C84.3929 170.602 84.0715 170.644 84.0589 170.644C77.0067 171.005 70.5895 171.134 64.8067 171.031C60.2713 170.951 56.877 170.894 54.6249 170.861C52.7924 170.838 50.9596 170.862 49.1283 170.932C44.0921 171.118 39.0538 171.218 34.0138 171.235C34.0011 171.235 33.5758 171.218 32.7373 171.183C30.9419 171.108 29.8888 171.79 29.579 173.229C29.5421 173.392 29.5196 174.587 29.5102 176.815C29.4959 180.148 29.5421 183.48 29.6505 186.811C29.6527 186.826 29.6533 187.031 29.6533 187.427C29.6571 188.249 29.8486 188.942 30.2283 189.509C30.5787 190.029 31.0602 190.333 31.6726 190.419C31.6874 190.421 32.2267 190.42 33.2902 190.416C36.1145 190.403 38.9393 190.374 41.7636 190.328C43.5226 190.301 45.2657 190.313 46.9934 190.364C49.5173 190.441 51.2598 190.482 52.2205 190.488C63.1715 190.55 74.1219 190.528 85.0713 190.422C85.0894 190.422 85.3354 190.431 85.8086 190.449C86.7346 190.482 87.4218 190.182 87.8691 189.55C88.1646 189.134 88.3379 188.398 88.3891 187.342C88.58 183.481 88.5899 179.62 88.4193 175.759C88.4177 175.739 88.41 175.428 88.3973 174.826C88.3715 173.759 88.191 172.788 87.8554 171.911C87.7436 171.616 87.5487 171.359 87.2942 171.172Z" fill="#1E2E34"/>
<path d="M83.8716 173.006C84.4879 173.576 84.8081 174.293 84.8317 175.156C84.9269 178.497 84.9324 181.838 84.8482 185.18C84.8262 186.06 84.6969 186.687 84.4603 187.061C84.0642 187.685 83.4276 188.001 82.5511 188.012C71.895 188.141 60.1572 188.149 47.3371 188.037C46.2422 188.028 44.41 187.965 41.8404 187.847C39.1058 187.721 36.6051 187.73 34.3382 187.875C33.4067 187.934 32.7921 187.661 32.495 187.058C32.3574 186.78 32.2952 186.203 32.3079 185.328C32.3519 182.413 32.2952 179.183 32.1373 175.637C32.0548 173.789 32.8262 172.879 34.451 172.904C35.2873 172.917 35.7165 172.923 35.7385 172.92C39.4893 172.728 43.539 172.694 47.8873 172.819C50.0552 172.881 52.8294 172.881 56.2094 172.819C57.3043 172.799 59.804 172.718 63.7089 172.577C65.5466 172.509 67.3805 172.484 69.211 172.502C73.7707 172.546 78.3271 172.583 82.8812 172.612C83.25 172.609 83.6053 172.751 83.8716 173.006ZM187.313 184.479C187.212 184.251 187.259 184.029 187.456 183.81C187.56 183.692 187.735 183.571 187.981 183.45C189.911 182.497 192.021 181.886 194.314 181.619C194.541 181.593 194.673 181.633 194.708 181.74C194.713 181.757 194.714 181.776 194.711 181.794C194.707 181.812 194.7 181.829 194.689 181.844C194.663 181.88 194.626 181.908 194.584 181.924C193.179 182.441 191.801 183.027 190.454 183.681C189.93 183.936 189.995 184.085 190.65 184.129C191.017 184.154 191.238 184.319 191.315 184.627C191.325 184.665 191.32 184.704 191.301 184.738C191.282 184.773 191.251 184.8 191.214 184.814C190.126 185.243 189.033 185.284 187.934 184.935C187.611 184.831 187.405 184.679 187.313 184.479ZM169.519 184.561C169.476 184.464 169.368 184.405 169.194 184.385C168.495 184.31 167.821 184.052 167.172 183.61C167.024 183.515 166.897 183.391 166.798 183.247C166.512 182.821 166.703 182.666 167.37 182.779C168.901 183.038 170.174 183.481 171.189 184.11C171.746 184.457 171.861 184.81 171.535 185.169C171.376 185.343 171.122 185.496 170.776 185.628C170.161 185.859 169.471 185.993 168.704 186.03C168.231 186.052 168.213 186.153 168.652 186.332C169.499 186.677 169.638 187.014 169.067 187.344C168.89 187.447 168.64 187.523 168.319 187.572C167.71 187.664 167.13 187.758 166.578 187.853C166.458 187.874 166.335 187.85 166.231 187.787C166.127 187.724 166.05 187.625 166.014 187.509C165.902 187.146 165.71 187.023 165.439 187.141C164.58 187.515 163.789 187.862 163.065 188.183C162.679 188.353 162.612 188.269 162.864 187.93C163.7 186.801 164.802 186.066 166.168 185.727C166.558 185.63 167.639 185.3 169.409 184.737C169.449 184.725 169.483 184.699 169.507 184.664C169.517 184.648 169.523 184.63 169.526 184.612C169.528 184.594 169.525 184.577 169.519 184.561Z" fill="#1E2E34"/>
</g>
<defs>
<clipPath id="clip0_278_5279">
<rect width="252" height="220" fill="white" transform="translate(0.5 16)"/>
</clipPath>
</defs>
</svg>
