<svg width="40" height="40" viewBox="0 0 40 40" fill="none" xmlns="http://www.w3.org/2000/svg">
<path d="M35.7511 5.13696C36.5897 5.91101 37.2924 6.8203 37.8301 7.82696C38.8561 9.76996 39.2071 11.837 38.8831 14.031C38.6361 15.7951 37.8886 17.4516 36.7291 18.804C36.4771 19.101 36.3151 19.284 36.2441 19.352C36.0678 19.5252 35.8674 19.6721 35.6491 19.788C35.6321 19.7971 35.6189 19.8119 35.6117 19.8299C35.6046 19.8478 35.604 19.8676 35.6101 19.886C35.6142 19.8977 35.621 19.9084 35.6301 19.917C36.8812 21.1037 37.8264 22.5756 38.3851 24.207C38.8121 25.429 38.9801 26.747 38.8901 28.163C38.8271 29.139 38.6551 30.012 38.3721 30.78C37.7189 32.5851 36.5716 34.1704 35.0611 35.355C34.4311 35.855 33.7711 36.312 33.0841 36.728C32.5381 37.058 31.8131 37.378 30.9081 37.69C30.6261 37.788 30.3791 37.856 30.1671 37.896C29.9144 37.9341 29.6601 37.9611 29.4051 37.977C28.8683 38.0187 28.3286 38.0033 27.7951 37.931C27.4441 37.8749 27.0976 37.7941 26.7581 37.689C26.5308 37.6223 26.3028 37.5583 26.0741 37.497C25.8448 37.4361 25.6208 37.3572 25.4041 37.261C25.0261 37.089 24.5151 36.851 23.8721 36.551C23.4958 36.3777 23.1374 36.1681 22.8021 35.925C22.3208 35.5713 21.8496 35.2042 21.3891 34.824C20.6709 34.2372 20.0743 33.5157 19.6331 32.7C19.6301 32.6944 19.6258 32.6897 19.6206 32.6862C19.6154 32.6827 19.6093 32.6805 19.6031 32.68C19.5965 32.6791 19.5899 32.68 19.5838 32.6825C19.5777 32.6849 19.5723 32.6889 19.5681 32.694C19.2166 33.1811 18.8042 33.6214 18.3411 34.004C16.5261 35.492 14.4671 36.301 12.1631 36.43C11.4961 36.467 10.8221 36.436 10.1411 36.335C7.76007 35.982 5.71807 34.971 4.01407 33.301C3.5299 32.829 3.09745 32.3067 2.72407 31.743C1.91838 30.5231 1.37521 29.149 1.12907 27.708C0.953352 26.7255 0.95674 25.7193 1.13907 24.738C1.25907 24.105 1.44207 23.455 1.68907 22.79C2.14581 21.5488 2.87424 20.4254 3.82107 19.502C4.00107 19.325 4.01407 19.144 3.85707 18.96C3.73196 18.812 3.61222 18.6596 3.49807 18.503C3.39807 18.366 3.28207 18.213 3.15107 18.043C2.7159 17.4822 2.3785 16.852 2.15307 16.179C2.0188 15.7645 1.89642 15.3464 1.78607 14.925C1.7212 14.6919 1.67209 14.4547 1.63907 14.215C1.61924 13.9752 1.60323 13.7352 1.59107 13.495C1.52207 12.298 1.54107 11.247 1.64607 10.341C1.68807 9.97496 1.78807 9.56196 1.94307 9.10196C2.07607 8.70996 2.24407 8.31996 2.44807 7.93396C3.56507 5.81796 5.22507 4.24196 7.43007 3.20596C8.09007 2.89596 8.76607 2.62596 9.45807 2.39596C9.88507 2.25396 10.3221 2.15596 10.7681 2.10096C11.9907 1.95211 13.2277 1.96792 14.4461 2.14796C15.0296 2.23397 15.6023 2.38249 16.1541 2.59096C16.4911 2.71896 16.9771 2.93296 17.6141 3.23296C18.1381 3.47996 18.6051 3.73496 19.0161 3.99796C19.6721 4.41696 20.2061 4.95796 20.6171 5.62396C20.6222 5.63236 20.6292 5.63945 20.6375 5.64465C20.6459 5.64986 20.6553 5.65305 20.6651 5.65396C20.6749 5.65492 20.6847 5.65361 20.6939 5.65014C20.7031 5.64668 20.7114 5.64114 20.7181 5.63396C21.3119 4.98629 21.981 4.41189 22.7111 3.92296C23.2748 3.54926 23.8761 3.23555 24.5051 2.98696C25.9022 2.43103 27.3956 2.1571 28.8991 2.18096C29.3151 2.18496 30.0071 2.30596 30.9771 2.54096C32.7771 2.97796 34.3681 3.84396 35.7511 5.13696ZM15.9771 5.85596C16.0371 6.03496 16.0671 6.21896 16.0701 6.40996C16.0791 7.13596 16.0731 7.86196 16.0541 8.58796C16.0341 9.27996 15.6841 9.60096 15.0041 9.54996C14.7917 9.5311 14.5777 9.54391 14.3691 9.58796C14.1657 9.63464 13.98 9.73877 13.8341 9.88796C13.4491 10.268 13.2791 10.721 13.3251 11.246C13.3381 11.394 13.4191 11.463 13.5671 11.453C13.9691 11.428 14.3531 11.417 14.7211 11.421L15.0311 11.416C15.3051 11.411 15.5661 11.456 15.8151 11.549C15.8738 11.568 15.925 11.6051 15.9613 11.6551C15.9976 11.705 16.0171 11.7652 16.0171 11.827C16.0511 12.462 16.0421 13.095 15.9921 13.728C15.9663 13.973 15.8736 14.2062 15.7241 14.402C15.6363 14.5267 15.5075 14.6166 15.3601 14.656C15.0751 14.736 14.7851 14.756 14.4901 14.721C14.29 14.6922 14.0889 14.6722 13.8871 14.661C13.6951 14.671 13.4951 14.708 13.2871 14.77C13.2412 14.7844 13.2014 14.8134 13.1735 14.8525C13.1457 14.8917 13.1315 14.9389 13.1331 14.987L13.1811 16.567C13.1821 16.595 13.1921 16.622 13.2101 16.643C13.2274 16.6642 13.2513 16.679 13.2781 16.685C13.8581 16.815 14.4171 16.989 14.9541 17.209C15.5441 17.449 16.0041 17.656 16.3321 17.831C16.7821 18.069 17.1961 18.363 17.5721 18.711C17.6721 18.806 17.7841 18.821 17.9071 18.761C18.1009 18.6672 18.2796 18.5448 18.4371 18.398C18.8191 18.036 19.2021 17.684 19.5871 17.341C19.6008 17.3287 19.61 17.3121 19.6131 17.294C19.6164 17.2756 19.6136 17.2566 19.6051 17.24C19.1638 16.3875 18.8187 15.4887 18.5761 14.56C18.5265 14.3598 18.4858 14.1577 18.4541 13.954C18.4205 13.7507 18.3838 13.5481 18.3441 13.346C18.279 13.0448 18.2388 12.7387 18.2241 12.431C18.2124 11.9602 18.2426 11.4894 18.3141 11.024C18.3841 10.572 18.4751 10.112 18.5871 9.64496C18.78 8.83569 19.0935 8.06002 19.5171 7.34396C19.6271 7.15596 19.7271 6.96796 19.8141 6.77896C19.8374 6.73237 19.8487 6.68064 19.8468 6.62855C19.8448 6.57646 19.8298 6.5257 19.8031 6.48096C19.3753 5.70135 18.7174 5.07275 17.9191 4.68096C17.6478 4.54611 17.3755 4.41344 17.1021 4.28296L16.6001 4.02996C15.9904 3.72898 15.3414 3.51554 14.6721 3.39596C13.8633 3.24009 13.0417 3.15974 12.2181 3.15596C11.5551 3.15596 10.8861 3.23596 10.2111 3.39996C9.02107 3.68696 7.94107 4.12696 6.97007 4.71996C5.33407 5.71796 4.11107 7.09796 3.30307 8.85796C3.04139 9.42198 2.86545 10.0219 2.78107 10.638C2.69098 11.3126 2.6769 11.9952 2.73907 12.673L2.79207 13.418C2.81407 13.73 2.86607 14.036 2.94807 14.335C3.04107 14.672 3.18607 15.077 3.38307 15.549C3.80463 16.5527 4.44246 17.451 5.25107 18.18C5.27328 18.2004 5.30163 18.2128 5.33168 18.2154C5.36173 18.2179 5.39177 18.2104 5.41707 18.194C6.5237 17.4952 7.74104 16.9897 9.01707 16.699C9.04251 16.693 9.06461 16.6773 9.07862 16.6552C9.09264 16.6332 9.09747 16.6065 9.09207 16.581C9.00238 16.1487 8.95217 15.7093 8.94207 15.268C8.94182 15.2506 8.93811 15.2334 8.93116 15.2175C8.9242 15.2016 8.91416 15.1872 8.90159 15.1752C8.88903 15.1632 8.8742 15.1538 8.85797 15.1476C8.84175 15.1414 8.82444 15.1384 8.80707 15.139L7.13807 15.173C7.03133 15.1761 6.92724 15.1394 6.84607 15.07C6.65811 14.9156 6.50938 14.7189 6.41207 14.496C6.34707 14.346 6.30607 14.116 6.28907 13.806C6.27307 13.506 6.24407 13.075 6.20307 12.513C6.18424 12.2394 6.23516 11.9655 6.35107 11.717C6.41128 11.5706 6.52602 11.4533 6.67107 11.39C6.80607 11.334 6.96207 11.294 7.14107 11.272C7.66307 11.207 8.18807 11.182 8.71607 11.196C8.7351 11.1965 8.7536 11.1896 8.76761 11.1767C8.78162 11.1638 8.79004 11.146 8.79107 11.127C8.81707 10.722 8.84907 10.315 8.88707 9.90496C8.92707 9.47096 9.00607 9.10796 9.12407 8.81596C9.39144 8.14895 9.80891 7.55252 10.3441 7.07296C10.7741 6.68596 11.2131 6.36796 11.6581 6.11896C12.3162 5.75128 13.0655 5.57887 13.8181 5.62196C14.0261 5.63196 14.2581 5.62596 14.5121 5.60496C14.9866 5.56768 15.4637 5.63107 15.9121 5.79096C15.9269 5.79628 15.9404 5.80489 15.9515 5.81615C15.9626 5.8274 15.971 5.84101 15.9761 5.85596H15.9771ZM24.6071 6.14996C23.7621 6.96829 23.2211 8.05002 23.0731 9.21696C22.9999 9.75712 23.0178 10.3057 23.1261 10.84C23.2361 11.385 23.4121 11.905 23.6571 12.4C23.6847 12.4536 23.701 12.5124 23.705 12.5726C23.7089 12.6328 23.7004 12.6932 23.6801 12.75C23.3007 13.8813 22.8895 15.0018 22.4471 16.11C22.3711 16.298 22.3351 16.442 22.3371 16.54C22.3411 16.73 22.4271 16.867 22.5921 16.952C22.6535 16.9823 22.7204 17 22.7887 17.004C22.8571 17.0079 22.9256 16.998 22.9901 16.975C23.1231 16.933 23.2471 16.868 23.3601 16.781C23.9721 16.313 24.5871 15.849 25.2061 15.389C25.4391 15.216 25.6181 15.113 25.7411 15.079C25.8509 15.0498 25.9655 15.0432 26.0779 15.0598C26.1904 15.0763 26.2983 15.1155 26.3951 15.175L26.6051 15.296C27.3626 15.6639 28.1692 15.9205 29.0001 16.058C29.645 16.1775 30.3076 16.1639 30.9471 16.018C30.9541 16.018 31.1121 15.986 31.4211 15.926C31.6011 15.891 31.8181 15.827 32.0751 15.735C33.0481 15.384 33.8301 14.856 34.4211 14.153C34.8697 13.6066 35.2085 12.9788 35.4191 12.304C35.5094 12.0239 35.5645 11.7337 35.5831 11.44C35.6031 11.146 35.6071 10.851 35.5961 10.557C35.5824 10.1168 35.5077 9.68061 35.3741 9.26096C34.8491 7.62396 33.8211 6.37096 32.2911 5.50396C30.8671 4.69696 29.3641 4.41396 27.7811 4.65196C27.1957 4.73538 26.6248 4.90031 26.0851 5.14196C25.5371 5.38865 25.0368 5.72986 24.6071 6.14996ZM10.6241 8.37196C10.3977 8.70921 10.2341 9.08456 10.1411 9.47996C10.0021 10.08 9.94107 10.643 9.95707 11.17C9.96407 11.425 9.95307 11.639 9.92207 11.81C9.91944 11.8259 9.91356 11.8412 9.90478 11.8548C9.89601 11.8683 9.88454 11.88 9.87107 11.889C9.56107 12.089 9.21907 12.189 8.84107 12.188C8.37407 12.186 7.88507 12.222 7.37607 12.295C7.35464 12.2982 7.33497 12.3087 7.32039 12.3247C7.30581 12.3407 7.29722 12.3613 7.29607 12.383C7.28907 12.533 7.30107 12.673 7.33107 12.799C7.43107 13.213 7.47007 13.634 7.44707 14.065C7.44502 14.0947 7.45268 14.1244 7.46891 14.1495C7.48514 14.1745 7.50906 14.1936 7.53707 14.204C7.55607 14.21 7.57607 14.214 7.59607 14.212C8.07107 14.185 8.52807 14.182 8.96707 14.202C9.60407 14.23 9.97607 14.512 10.0831 15.047C10.0981 15.125 10.1161 15.373 10.1361 15.792C10.1491 16.04 10.1561 16.289 10.1601 16.538C10.16 16.5456 10.1623 16.553 10.1666 16.5592C10.1709 16.5655 10.177 16.5703 10.1841 16.573L10.1991 16.575C10.9191 16.518 11.6221 16.523 12.3071 16.589C12.3216 16.5904 12.3363 16.5886 12.3502 16.5838C12.364 16.5789 12.3766 16.5711 12.3871 16.561C12.3978 16.5509 12.4063 16.5386 12.4118 16.525C12.4173 16.5114 12.4198 16.4967 12.4191 16.482C12.3924 15.9526 12.3754 15.4229 12.3681 14.893C12.3657 14.7542 12.385 14.6159 12.4251 14.483C12.4641 14.353 12.5441 14.249 12.6651 14.17C12.9451 13.988 13.2601 13.893 13.6081 13.887C14.0401 13.88 14.5331 13.899 15.0861 13.946C15.107 13.9477 15.1281 13.9451 15.1481 13.9384C15.168 13.9317 15.1864 13.921 15.2021 13.907C15.2176 13.8931 15.23 13.8762 15.2386 13.8572C15.2472 13.8383 15.2518 13.8178 15.2521 13.797L15.2571 12.257C15.257 12.2382 15.2494 12.2202 15.2361 12.207C15.2229 12.1934 15.205 12.1855 15.1861 12.185C14.6515 12.1722 14.1167 12.1715 13.5821 12.183C13.3164 12.1897 13.0507 12.1727 12.7881 12.132C12.7315 12.1265 12.6784 12.1023 12.6373 12.0631C12.5961 12.024 12.5693 11.9722 12.5611 11.916C12.4096 11.2217 12.5208 10.496 12.8731 9.87896C13.0061 9.68496 12.9651 9.53896 12.7531 9.44196C12.7154 9.42641 12.6832 9.40008 12.6604 9.36628C12.6376 9.33248 12.6253 9.29271 12.6251 9.25196C12.6244 9.23666 12.6278 9.22146 12.6351 9.20796C12.6424 9.19339 12.653 9.18072 12.6661 9.17096C12.9561 8.95396 13.2761 8.82296 13.6241 8.77896C14.1098 8.7422 14.5971 8.73085 15.0841 8.74496C15.1295 8.74628 15.1737 8.72977 15.2071 8.69896C15.2234 8.68384 15.2364 8.66561 15.2455 8.64534C15.2546 8.62507 15.2596 8.60318 15.2601 8.58096L15.2831 6.56096C15.2851 6.42196 15.2151 6.35396 15.0731 6.35696C14.7714 6.36318 14.4696 6.36118 14.1681 6.35096C13.8981 6.34096 13.6631 6.36496 13.4631 6.42296C12.7191 6.63471 12.0274 6.99912 11.4321 7.49296C11.1206 7.7442 10.8482 8.04045 10.6241 8.37196ZM27.2251 36.194C27.2909 36.2179 27.3615 36.2261 27.4311 36.218C30.4511 36.584 32.9951 35.778 35.0651 33.803C35.5565 33.3377 35.9921 32.8169 36.3631 32.251C37.2761 30.849 37.7381 29.284 37.7491 27.555C37.7601 26.3563 37.5394 25.1668 37.0991 24.052C36.8482 23.4233 36.524 22.8265 36.1331 22.274C34.8571 20.458 33.1531 19.209 31.0231 18.529C30.4296 18.3381 29.8169 18.213 29.1961 18.156C28.5736 18.098 27.9473 18.0936 27.3241 18.143C26.6503 18.1947 25.9859 18.3325 25.3471 18.553C23.4691 19.203 21.9171 20.338 20.6931 21.96C20.6561 22.0039 20.6334 22.0581 20.628 22.1153C20.6227 22.1725 20.6349 22.2299 20.6631 22.28C21.5092 23.9476 21.8699 25.8193 21.7041 27.682C21.6514 28.3283 21.516 28.9652 21.3011 29.577C21.1971 29.873 21.0781 30.184 20.9411 30.51C20.8111 30.823 20.6641 31.124 20.5011 31.412C20.4703 31.4613 20.4543 31.5184 20.455 31.5765C20.4557 31.6347 20.4731 31.6914 20.5051 31.74C21.1694 32.8392 22.0568 33.7869 23.1101 34.522C23.7551 34.974 24.4401 35.356 25.1621 35.67C25.8165 35.956 26.5134 36.133 27.2251 36.194ZM20.4831 18.415C20.4782 18.4099 20.4715 18.4069 20.4645 18.4065C20.4574 18.4061 20.4505 18.4084 20.4451 18.413L18.8971 19.756C18.8942 19.7583 18.8919 19.7611 18.8902 19.7644C18.8885 19.7676 18.8875 19.7712 18.8872 19.7748C18.8869 19.7785 18.8874 19.7821 18.8886 19.7856C18.8898 19.7891 18.8916 19.7922 18.8941 19.795L19.6981 20.718C19.7004 20.7208 19.7032 20.7231 19.7065 20.7248C19.7097 20.7265 19.7133 20.7275 19.7169 20.7278C19.7206 20.7281 19.7242 20.7276 19.7277 20.7265C19.7312 20.7253 19.7344 20.7234 19.7371 20.721L21.2851 19.377C21.2904 19.3722 21.2935 19.3655 21.2939 19.3584C21.2943 19.3513 21.2918 19.3443 21.2871 19.339L20.4831 18.415ZM17.3171 26.295C17.3681 24.737 17.3921 23.63 17.3891 22.971C17.3917 22.5678 17.2538 22.1764 16.9991 21.864C16.698 21.483 16.3074 21.1824 15.8621 20.989C15.5921 20.872 15.1621 20.789 14.5721 20.738C14.1321 20.699 13.6921 20.66 13.2531 20.619C12.6681 20.564 12.2201 20.563 11.9091 20.616C11.4061 20.703 10.8661 20.764 10.2891 20.799C10.1873 20.8065 10.0861 20.7782 10.0031 20.719C9.85369 20.6167 9.67483 20.5665 9.49407 20.576L9.15107 20.582C8.41107 20.547 7.95307 20.55 7.77607 20.591C7.1293 20.7301 6.55871 21.1079 6.17807 21.649C6.07607 21.791 6.00807 21.935 5.97407 22.082C5.94407 22.211 5.91707 22.37 5.89407 22.56C5.76207 23.653 5.70207 24.584 5.71407 25.352C5.73407 26.602 5.70907 27.852 5.63907 29.101C5.61607 29.514 5.62207 29.927 5.65507 30.339C5.68507 30.695 5.78507 30.989 5.95707 31.221C6.14907 31.481 6.42207 31.741 6.77307 32.003C7.08707 32.236 7.42807 32.378 7.79607 32.429C7.80807 32.431 8.16707 32.44 8.87507 32.456C10.2909 32.4891 11.7073 32.4877 13.1231 32.452L13.8911 32.448C14.4364 32.4455 14.9804 32.3929 15.5161 32.291C15.9231 32.214 16.2301 32.088 16.4391 31.915C16.7191 31.682 16.9011 31.378 16.9871 31.005C17.0991 30.517 17.1871 29.945 17.2511 29.289C17.2901 28.884 17.3091 28.385 17.3081 27.794C17.3081 26.993 17.3111 26.495 17.3171 26.295Z" fill="#1F212C"/>
<path d="M24.9621 6.90996C25.1931 6.65996 25.4291 6.44296 25.6701 6.25696C25.925 6.0638 26.204 5.90479 26.5001 5.78396C27.4841 5.37696 28.5541 5.25596 29.7101 5.42196C30.5571 5.54396 31.3131 5.80296 31.9801 6.19996C32.5621 6.54696 33.0801 6.97696 33.5341 7.48996C34.0861 8.11396 34.4841 8.85096 34.7311 9.70196C34.8561 10.135 34.9161 10.562 34.9111 10.982C34.8997 11.4093 34.8113 11.831 34.6501 12.227C34.1531 13.504 33.2901 14.406 32.0601 14.932C31.4601 15.189 30.8081 15.329 30.1061 15.352C29.4255 15.3743 28.7452 15.2968 28.0871 15.122C27.8161 15.05 27.3631 14.85 26.7291 14.522C26.4671 14.388 26.2611 14.308 26.1111 14.284C25.8812 14.2402 25.6434 14.2696 25.4311 14.368C25.0776 14.5396 24.7428 14.7474 24.4321 14.988C24.1911 15.174 23.9401 15.348 23.6801 15.508C23.5031 15.618 23.4531 15.577 23.5301 15.383C23.7801 14.757 24.0111 14.12 24.2271 13.469C24.2721 13.332 24.3671 13.156 24.5091 12.944C24.5754 12.8562 24.6114 12.7492 24.6116 12.6391C24.6118 12.5291 24.5761 12.422 24.5101 12.334C24.1953 11.8637 23.9839 11.332 23.8901 10.774C23.787 10.1838 23.783 9.5805 23.8781 8.98896C23.9441 8.58096 24.0711 8.20896 24.2581 7.87496C24.4451 7.53796 24.6801 7.21596 24.9621 6.90996ZM30.2121 12.69C29.9404 12.669 29.6769 12.5874 29.4411 12.451C28.4971 11.907 27.9131 11.116 27.6891 10.077C27.6372 9.8637 27.605 9.64612 27.5931 9.42696C27.5885 9.19975 27.6385 8.97477 27.7391 8.77096C27.8271 8.59196 27.9461 8.52696 28.0951 8.57596C28.1651 8.59896 28.2471 8.67496 28.3411 8.80196C28.6011 9.15496 28.8881 9.21196 29.2011 8.97396C29.3656 8.84656 29.4839 8.66886 29.5381 8.46796C29.5981 8.26596 29.6201 8.05796 29.6061 7.84396C29.6011 7.71442 29.5867 7.58542 29.5631 7.45796C29.5267 7.32259 29.443 7.20478 29.3271 7.12596C29.2191 7.04896 29.0371 6.96796 28.7781 6.88596C28.5031 6.79596 28.2851 6.85296 28.1231 7.05296C27.9051 7.32396 27.6751 7.58296 27.4311 7.83096C27.206 8.06251 27.0472 8.35016 26.9711 8.66396C26.8411 9.16996 26.8221 9.66396 26.9131 10.147C26.9971 10.591 27.1691 11.043 27.4291 11.502C27.8961 12.329 28.6021 12.92 29.5451 13.276C30.0651 13.472 30.6001 13.526 31.1541 13.439C31.4331 13.395 31.6551 13.215 31.8211 12.899C32.0491 12.465 32.1211 12.059 32.0361 11.679C31.9521 11.301 31.7411 11.091 31.4031 11.047C31.2386 11.0277 31.0724 11.0621 30.9291 11.145C30.7791 11.227 30.6491 11.333 30.5381 11.462C30.416 11.6143 30.3434 11.8002 30.3301 11.995C30.3072 12.2009 30.2952 12.4078 30.2941 12.615C30.2938 12.6306 30.2887 12.6457 30.2796 12.6584C30.2705 12.6711 30.2578 12.6807 30.2431 12.686C30.2335 12.6893 30.2222 12.6907 30.2121 12.69ZM7.07707 31.294C6.85292 31.1335 6.66769 30.9247 6.53507 30.683C6.43107 30.494 6.37407 30.238 6.36207 29.914C6.34857 29.5474 6.3469 29.1806 6.35707 28.814C6.37507 28.192 6.38407 27.825 6.38507 27.714C6.39307 26.646 6.41207 25.579 6.44407 24.512C6.45007 24.275 6.48107 23.959 6.53607 23.565C6.57507 23.286 6.60807 22.97 6.63607 22.617C6.65907 22.308 6.77607 22.053 6.98607 21.85C7.12607 21.715 7.31707 21.625 7.55907 21.58C7.77282 21.541 7.98981 21.5225 8.20707 21.525C9.16107 21.535 10.1141 21.53 11.0671 21.512C11.2451 21.508 11.5331 21.478 11.9321 21.421C12.4141 21.351 12.8991 21.358 13.3871 21.441C13.7291 21.501 14.0731 21.517 14.4191 21.49C15.3511 21.415 16.0511 21.767 16.5191 22.547C16.5721 22.637 16.6141 22.757 16.6451 22.909C16.6661 23.011 16.6771 23.137 16.6791 23.289C16.6831 24.011 16.6721 24.733 16.6461 25.455C16.6401 25.629 16.6231 26.304 16.5961 27.479C16.5791 28.173 16.5361 28.865 16.4661 29.555C16.4409 29.8259 16.4125 30.0966 16.3811 30.367C16.3291 30.688 16.2401 30.947 16.1131 31.145C15.9957 31.3236 15.8123 31.4484 15.6031 31.492C15.4063 31.5223 15.2085 31.5457 15.0101 31.562C12.9767 31.7594 10.932 31.8129 8.89107 31.722C8.46444 31.7068 8.04021 31.6512 7.62407 31.556C7.42622 31.5056 7.24031 31.4166 7.07707 31.294ZM14.8721 24.069C14.9678 24.0674 15.062 24.0448 15.1481 24.003C15.2369 23.9594 15.3158 23.8982 15.3801 23.823C15.447 23.7442 15.4985 23.6537 15.5321 23.556C15.5671 23.4554 15.5841 23.3494 15.5821 23.243C15.5799 23.0323 15.5009 22.8296 15.3601 22.673C15.2953 22.6002 15.2158 22.542 15.1268 22.5024C15.0379 22.4627 14.9415 22.4425 14.8441 22.443C14.7484 22.4445 14.6541 22.4671 14.5681 22.509C14.4793 22.5525 14.4003 22.6138 14.3361 22.689C14.2692 22.7677 14.2176 22.8583 14.1841 22.956C14.1491 23.0565 14.1321 23.1625 14.1341 23.269C14.136 23.48 14.215 23.683 14.3561 23.84C14.4951 23.99 14.6801 24.072 14.8721 24.069ZM12.7481 29.259C13.4071 28.911 13.8861 28.289 14.0811 27.531C14.2723 26.7496 14.1668 25.9251 13.7851 25.217C13.4129 24.503 12.7895 23.9522 12.0351 23.671C11.2971 23.406 10.5131 23.452 9.85407 23.801C9.19507 24.149 8.71607 24.771 8.52107 25.529C8.32987 26.3103 8.43534 27.1349 8.81707 27.843C9.1892 28.5569 9.81266 29.1077 10.5671 29.389C11.3051 29.654 12.0891 29.608 12.7481 29.259ZM24.8491 29.776C23.1591 28.13 22.2241 26.129 22.0421 23.774C22.0258 23.6296 21.995 23.4872 21.9501 23.349C21.9051 23.2062 21.8881 23.0561 21.9001 22.907C21.9048 22.8575 21.9258 22.811 21.9599 22.7748C21.9939 22.7386 22.039 22.7147 22.0881 22.707C22.3488 22.6657 22.614 22.6607 22.8761 22.692L23.2091 22.733C23.5381 22.763 23.8681 22.788 24.1991 22.808L24.5731 22.816C24.8061 22.82 25.0241 22.86 25.2291 22.938C25.2833 22.9565 25.3316 22.9892 25.369 23.0326C25.4065 23.076 25.4317 23.1286 25.4421 23.185C25.5561 23.715 25.6841 24.225 25.8241 24.721C25.9481 25.163 26.1441 25.601 26.4141 26.036C26.6241 26.376 26.8961 26.63 27.2301 26.798C27.2356 26.801 27.2418 26.8027 27.2481 26.803C27.2572 26.8034 27.2662 26.8007 27.2735 26.7952C27.2808 26.7897 27.286 26.7819 27.2881 26.773C27.3241 26.601 27.3281 26.356 27.3011 26.036C27.2621 25.566 27.2431 25.129 27.2441 24.725C27.2484 24.641 27.2269 24.5577 27.1826 24.4862C27.1383 24.4147 27.0732 24.3585 26.9961 24.325C26.4461 24.054 26.1421 23.635 26.0841 23.072C26.0651 22.888 26.1441 22.77 26.3211 22.716C26.5711 22.639 26.8311 22.601 27.0981 22.602C28.1371 22.602 29.2281 22.615 30.3741 22.639C30.3821 22.639 30.3901 22.641 30.3971 22.645C30.4044 22.6485 30.4109 22.6537 30.4159 22.6601C30.4209 22.6665 30.4244 22.674 30.4261 22.682C30.4279 22.6899 30.4279 22.6981 30.4261 22.706C30.321 23.1084 30.2696 23.523 30.2731 23.939C30.2791 24.334 30.2831 24.567 30.2831 24.639C30.2871 24.889 30.3131 25.129 30.3601 25.359C30.4021 25.559 30.4621 25.564 30.5401 25.372L31.5321 22.933C31.5931 22.782 31.7091 22.715 31.8781 22.732C32.3441 22.779 32.7901 22.799 33.2161 22.792C33.3661 22.788 33.6821 22.76 34.1631 22.708C34.4791 22.674 34.7961 22.653 35.1151 22.644L35.2601 22.631C35.4531 22.614 35.5751 22.701 35.6251 22.89C35.6501 22.971 35.6536 23.0571 35.6351 23.1399C35.6167 23.2226 35.5771 23.2992 35.5201 23.362C35.4749 23.4129 35.4306 23.4646 35.3871 23.517C34.0751 25.324 33.2451 26.431 32.8991 26.84C32.7621 27.001 32.7181 27.165 32.7671 27.331C32.7841 27.387 32.8591 27.521 32.9951 27.734C33.2121 28.078 33.5051 28.481 33.8751 28.942C34.3077 29.4822 34.8271 29.9469 35.4121 30.317C35.4739 30.3529 35.5277 30.4012 35.57 30.4588C35.6123 30.5165 35.6423 30.5822 35.6581 30.652C35.6837 30.7806 35.6598 30.9142 35.5911 31.026C35.5335 31.1333 35.4493 31.2239 35.3464 31.2891C35.2436 31.3542 35.1257 31.3917 35.0041 31.398C34.4161 31.452 33.8261 31.478 33.2351 31.478C33.07 31.4831 32.9061 31.4489 32.7569 31.3781C32.6077 31.3073 32.4775 31.202 32.3771 31.071C31.8445 30.3918 31.2827 29.7362 30.6931 29.106C30.6071 29.016 30.5081 28.993 30.3961 29.035C30.3827 29.0401 30.3714 29.0496 30.3641 29.062C30.3564 29.0753 30.3529 29.0906 30.3541 29.106C30.3851 29.677 30.4001 30.249 30.3981 30.822C30.3978 31.0997 30.3413 31.3746 30.2321 31.63C30.2188 31.6602 30.1955 31.685 30.1661 31.7C29.8831 31.84 29.5901 31.877 29.2861 31.81C29.1615 31.783 29.0368 31.7563 28.9121 31.73C28.4115 31.6475 27.9227 31.5051 27.4561 31.306C26.7155 30.9955 26.004 30.6197 25.3301 30.183C25.1575 30.0625 24.9964 29.9262 24.8491 29.776ZM33.0571 30.573C33.2081 30.673 33.3771 30.703 33.5651 30.666L34.2751 30.691C34.2951 30.691 34.3141 30.689 34.3301 30.685C34.3434 30.6813 34.3553 30.6736 34.3641 30.663C34.3782 30.6448 34.3847 30.6218 34.3821 30.599C34.3801 30.571 34.3631 30.544 34.3321 30.517C33.6198 29.9128 33.0016 29.2056 32.4981 28.419C32.2126 27.9735 31.9003 27.5457 31.5631 27.138C31.4601 27.012 31.4031 26.902 31.3941 26.808C31.3771 26.631 31.4671 26.517 31.6631 26.466C32.0001 26.38 32.2361 26.218 32.3721 25.981C32.4721 25.805 32.5861 25.639 32.7121 25.483C32.8991 25.254 33.0201 25.095 33.0781 25.006C33.3431 24.591 33.5821 24.164 33.7931 23.724C33.8401 23.628 33.8091 23.585 33.7031 23.598C33.1871 23.656 32.7161 23.648 32.2881 23.571C32.2562 23.5651 32.2232 23.5695 32.1939 23.5835C32.1647 23.5975 32.1406 23.6204 32.1251 23.649C31.9085 24.0376 31.7264 24.4445 31.5811 24.865C31.3951 25.421 31.0311 26.105 30.4911 26.916C30.3141 27.179 30.0821 27.278 29.7941 27.211C29.7382 27.1991 29.6856 27.1751 29.64 27.1407C29.5944 27.1064 29.5569 27.0624 29.5301 27.012C29.4695 26.9075 29.4355 26.7897 29.4311 26.669C29.4025 25.6179 29.3945 24.5663 29.4071 23.515C29.4071 23.4942 29.4029 23.4736 29.3948 23.4545C29.3867 23.4353 29.3748 23.418 29.3599 23.4036C29.345 23.3891 29.3273 23.3778 29.3079 23.3703C29.2885 23.3628 29.2678 23.3593 29.2471 23.36C28.5901 23.376 27.9071 23.38 27.2001 23.37C27.0901 23.368 27.0441 23.403 27.0621 23.476C27.0651 23.489 27.0721 23.502 27.0841 23.514C27.0951 23.524 27.1101 23.534 27.1271 23.541C27.2941 23.608 27.4591 23.679 27.6221 23.756C27.8411 23.859 27.9621 23.994 27.9861 24.162C28.0411 24.554 28.1041 25.381 28.1741 26.642C28.1901 26.941 28.1141 27.245 27.9441 27.555C27.9071 27.6227 27.8466 27.6746 27.7741 27.701C27.4911 27.801 27.2271 27.817 26.9801 27.747C26.8031 27.697 26.5901 27.562 26.3431 27.343C25.3591 26.473 24.7621 25.377 24.5521 24.053C24.5453 23.9901 24.5397 23.9271 24.5351 23.864C24.5201 23.669 24.4251 23.578 24.2511 23.591C24.0271 23.61 23.9121 23.618 23.9071 23.618C23.5946 23.5958 23.2823 23.5718 22.9701 23.546C22.9513 23.5444 22.9325 23.5485 22.9161 23.5578C22.8997 23.5671 22.8864 23.5811 22.8781 23.598C22.8726 23.6092 22.8695 23.6215 22.8691 23.634C22.8481 24.117 22.8861 24.554 22.9821 24.944C23.2951 26.236 23.8953 27.4408 24.7381 28.469C25.6781 29.621 26.8751 30.332 28.3301 30.601C28.5501 30.641 28.7241 30.684 28.8501 30.728C29.0201 30.786 29.1881 30.851 29.3521 30.922C29.3639 30.9272 29.3769 30.9292 29.3897 30.9279C29.4026 30.9266 29.4149 30.9221 29.4255 30.9146C29.436 30.9072 29.4445 30.8971 29.45 30.8854C29.4556 30.8738 29.458 30.8609 29.4571 30.848C29.4191 30.308 29.3771 29.767 29.3321 29.227C29.2721 28.513 29.5921 28.15 30.2941 28.137C30.5181 28.134 30.7361 28.212 30.9471 28.372C31.1791 28.548 31.3791 28.714 31.5471 28.869C31.6681 28.981 31.8381 29.176 32.0571 29.453C32.3671 29.846 32.7001 30.22 33.0571 30.573Z" fill="#1F212C"/>
</svg>
