<svg width="94" height="20" viewBox="0 0 94 20" fill="none" xmlns="http://www.w3.org/2000/svg">
<path d="M0.136719 19.4905V1.52289H7.57377C10.239 1.52289 12.2339 2.21831 13.5904 3.60914C14.947 4.99998 15.6173 7.32882 15.6173 10.5957C15.6173 13.6846 14.947 15.9326 13.6224 17.3558C12.2977 18.779 10.2709 19.4905 7.57377 19.4905H0.136719ZM3.85524 16.5957H7.04711C8.10042 16.5957 8.97819 16.4339 9.69636 16.1105C10.4145 15.787 10.9412 15.1887 11.3083 14.3315C11.6594 13.4744 11.8509 12.2291 11.8509 10.6118C11.8509 8.99459 11.6913 7.7493 11.3561 6.90833C11.021 6.05119 10.5103 5.46898 9.80808 5.14553C9.10587 4.82208 8.19618 4.67653 7.04711 4.67653H3.85524V16.5957Z" fill="#FFFFFF"/>
<path d="M24.3311 19.7655C21.8893 19.7655 20.1018 19.1671 18.9687 17.9703C17.8356 16.7736 17.2611 15.0754 17.2611 12.876C17.2611 10.6765 17.8356 8.97841 18.9847 7.78165C20.1338 6.58488 21.9212 5.9865 24.347 5.9865C26.7888 5.9865 28.5762 6.58488 29.7253 7.78165C30.8744 8.97841 31.4489 10.6765 31.4489 12.876C31.4489 15.0754 30.8744 16.7736 29.7413 17.9703C28.5922 19.1671 26.7888 19.7655 24.3311 19.7655ZM24.3311 16.5633C25.528 16.5633 26.3739 16.2884 26.8846 15.7385C27.3953 15.1887 27.6506 14.2345 27.6506 12.876C27.6506 11.5175 27.3953 10.5633 26.8846 10.0135C26.3739 9.46359 25.5121 9.18866 24.3311 9.18866C23.1501 9.18866 22.3042 9.46359 21.7935 10.0135C21.2828 10.5633 21.0275 11.5175 21.0275 12.876C21.0275 14.2345 21.2828 15.1887 21.7935 15.7385C22.3042 16.2884 23.1501 16.5633 24.3311 16.5633Z" fill="#FFFFFF"/>
<path d="M33.5875 19.4905V6.26143H37.0347L37.1783 7.53906C37.8007 7.05389 38.487 6.68192 39.2371 6.39081C39.9872 6.11588 40.7851 5.97033 41.6469 5.97033C42.5726 5.97033 43.2748 6.11588 43.7855 6.39081C44.2962 6.66575 44.6792 7.07006 44.9505 7.58758C45.557 7.1024 46.2432 6.71426 47.0252 6.42316C47.8073 6.13205 48.7329 5.97033 49.7862 5.97033C51.2864 5.97033 52.4035 6.35847 53.1217 7.15092C53.8399 7.94337 54.191 9.14014 54.191 10.7574V19.4582H50.5363V11.1779C50.5363 10.3046 50.3448 9.67383 49.9777 9.30187C49.6107 8.91372 49.0202 8.73583 48.2222 8.73583C47.121 8.73583 46.1954 9.14014 45.4612 9.93259C45.557 10.256 45.6049 10.628 45.6049 11.0808V19.4744H42.1417V11.194C42.1417 10.3693 41.9981 9.75469 41.7267 9.35038C41.4554 8.94607 40.9128 8.73583 40.1308 8.73583C39.5722 8.73583 39.0615 8.88138 38.5828 9.17248C38.104 9.46359 37.6571 9.78704 37.2741 10.159V19.4744H33.5875V19.4905Z" fill="#FFFFFF"/>
<path d="M57.7659 19.4905V9.05928H55.8188L56.138 6.26143H61.4844V19.4905H57.7659Z" fill="#FFFFFF"/>
<path d="M64.2454 6.26143H67.6926L67.8362 7.52289C68.3629 7.11858 69.0491 6.76278 69.863 6.4555C70.677 6.14822 71.5388 6.00267 72.4325 6.00267C74.1561 6.00267 75.4169 6.40698 76.1989 7.23178C76.9809 8.05658 77.3799 9.31804 77.3799 11.0323V19.5067H73.6614V11.2264C73.6614 10.3369 73.4858 9.70618 73.1188 9.33421C72.7676 8.96224 72.0974 8.76817 71.1238 8.76817C70.5493 8.76817 69.9748 8.89755 69.4002 9.15631C68.8257 9.41507 68.3469 9.73852 67.9479 10.1267V19.5067H64.2454V6.26143Z" fill="#FFFFFF"/>
<path d="M86.5246 19.7655C84.0828 19.7655 82.2953 19.1671 81.1622 17.9703C80.0291 16.7736 79.4546 15.0754 79.4546 12.876C79.4546 10.6765 80.0291 8.97841 81.1782 7.78165C82.3273 6.58488 84.1147 5.9865 86.5405 5.9865C88.9823 5.9865 90.7698 6.58488 91.9188 7.78165C93.0679 8.97841 93.6424 10.6765 93.6424 12.876C93.6424 15.0754 93.0679 16.7736 91.9348 17.9703C90.7698 19.1671 88.9823 19.7655 86.5246 19.7655ZM86.5246 16.5633C87.7215 16.5633 88.5674 16.2884 89.0781 15.7385C89.5888 15.1887 89.8441 14.2345 89.8441 12.876C89.8441 11.5175 89.5888 10.5633 89.0781 10.0135C88.5674 9.46359 87.7056 9.18866 86.5246 9.18866C85.3436 9.18866 84.4977 9.46359 83.987 10.0135C83.4763 10.5633 83.221 11.5175 83.221 12.876C83.221 14.2345 83.4763 15.1887 83.987 15.7385C84.4977 16.2884 85.3436 16.5633 86.5246 16.5633Z" fill="#FFFFFF"/>
<path d="M61.4684 0.47168H57.4307V4.80591H61.4684V0.47168Z" fill="#6D5BF7"/>
</svg>
