<svg width="32" height="36" viewBox="0 0 32 36" fill="none" xmlns="http://www.w3.org/2000/svg">
<path d="M9.95862 36L0.797967 30.6469C0.303227 30.3558 0 29.8221 0 29.2399V18.5337L9.95862 24.3558V36Z" fill="#6D5BF7"/>
<path d="M20.5397 30.1779L10.597 36V24.3558L20.5397 18.5337V30.1779Z" fill="#6D5BF7"/>
<path d="M10.2778 11.4016L0.319187 5.57954L9.47984 0.210272C9.97458 -0.0808329 10.581 -0.0808329 11.0758 0.210272L20.2364 5.56337L10.2778 11.4016Z" fill="#6D5BF7"/>
<path d="M9.95862 23.6119L0 17.7898V6.14558L9.95862 11.9677V23.6119Z" fill="#6D5BF7"/>
<path d="M20.8588 17.5957L10.9162 11.7736L20.8588 5.95151L30.8175 11.7736L20.8588 17.5957Z" fill="#6D5BF7"/>
<path d="M30.3387 24.4529L21.178 29.806V18.1618L31.1367 12.3397V23.0459C31.1367 23.6281 30.8334 24.1618 30.3387 24.4529Z" fill="#6D5BF7"/>
<path d="M5.77728 16.3156C6.21236 16.061 6.21495 15.2402 5.78306 14.4822C5.35117 13.7241 4.64835 13.316 4.21326 13.5705C3.77818 13.8251 3.7756 14.646 4.20749 15.404C4.63938 16.162 5.3422 16.5702 5.77728 16.3156Z" fill="white"/>
<path d="M16.364 27.7821C16.7959 27.024 16.7933 26.2032 16.3583 25.9486C15.9232 25.6941 15.2204 26.1022 14.7885 26.8602C14.3566 27.6183 14.3592 28.4391 14.7943 28.6937C15.2293 28.9482 15.9322 28.5401 16.364 27.7821Z" fill="white"/>
<path d="M13.3237 33.1135C13.7556 32.3555 13.753 31.5346 13.3179 31.2801C12.8829 31.0255 12.18 31.4337 11.7481 32.1917C11.3163 32.9497 11.3188 33.7706 11.7539 34.0251C12.189 34.2797 12.8918 33.8715 13.3237 33.1135Z" fill="white"/>
<path d="M19.4067 22.4399C19.8386 21.6819 19.836 20.861 19.4009 20.6065C18.9659 20.3519 18.263 20.76 17.8312 21.5181C17.3993 22.2761 17.4019 23.097 17.8369 23.3515C18.272 23.6061 18.9748 23.1979 19.4067 22.4399Z" fill="white"/>
<path d="M14.7147 12.7601C15.5785 12.7601 16.2787 12.3474 16.2787 11.8383C16.2787 11.3292 15.5785 10.9164 14.7147 10.9164C13.8509 10.9164 13.1507 11.3292 13.1507 11.8383C13.1507 12.3474 13.8509 12.7601 14.7147 12.7601Z" fill="white"/>
<path d="M26.8917 12.7439C27.7554 12.7439 28.4557 12.3312 28.4557 11.8221C28.4557 11.313 27.7554 10.9003 26.8917 10.9003C26.0279 10.9003 25.3277 11.313 25.3277 11.8221C25.3277 12.3312 26.0279 12.7439 26.8917 12.7439Z" fill="white"/>
</svg>
