<svg width="80" height="80" viewBox="0 0 80 80" fill="none" xmlns="http://www.w3.org/2000/svg">
<path d="M39.135 15.0988C39.0362 15.0287 38.9522 14.9398 38.8878 14.8372C38.8235 14.7345 38.78 14.6202 38.76 14.5008C38.7527 14.2782 38.753 14.0554 38.761 13.8328C38.814 11.1288 38.968 8.55077 39.223 6.09877C39.358 4.80877 39.447 3.66677 39.493 2.66977C39.507 2.35577 39.519 2.18977 39.526 2.17177C39.598 2.01377 39.803 1.96477 40.139 2.02477C40.1711 2.03051 40.2001 2.04761 40.2206 2.07294C40.2412 2.09828 40.2519 2.13016 40.251 2.16277C40.2319 2.7828 40.2119 3.4028 40.191 4.02277C40.161 4.95077 40.334 5.92877 40.708 6.95977C40.853 7.36177 40.903 7.84677 40.857 8.41477C40.68 10.5868 40.461 12.7738 40.199 14.9748C40.1882 15.0579 40.1515 15.1356 40.0941 15.1966C40.0366 15.2577 39.9613 15.299 39.879 15.3148C39.631 15.3598 39.383 15.2878 39.135 15.0988ZM56.486 20.5408C55.97 21.1158 55.446 21.0568 54.914 20.3638C54.764 20.1668 54.772 19.9778 54.936 19.7958C57.5162 16.9269 60.182 14.1364 62.93 11.4278C63.27 11.0928 63.647 10.7588 64.06 10.4258C64.452 10.1118 64.843 9.79377 65.231 9.47277C65.456 9.28777 65.625 9.30277 65.738 9.51777C65.763 9.56441 65.7728 9.61767 65.7662 9.67017C65.7596 9.72267 65.7368 9.77181 65.701 9.81077C65.0126 10.5373 64.3688 11.3047 63.773 12.1088C61.6961 14.9583 59.3898 17.6332 56.877 20.1068C56.869 20.1128 56.739 20.2568 56.486 20.5408ZM23.37 18.8088C23.641 19.0488 23.911 19.2888 24.18 19.5338C24.927 20.2178 24.954 20.8478 24.262 21.4228C24.2059 21.4698 24.1351 21.4956 24.062 21.4956C23.9888 21.4956 23.918 21.4698 23.862 21.4228C21.3776 19.3378 18.8966 17.2488 16.419 15.1558C15.081 14.0253 13.8541 12.7696 12.755 11.4058C12.7101 11.3526 12.6731 11.2934 12.645 11.2298C12.562 11.0248 12.639 10.9898 12.875 11.1248C12.927 11.1548 12.986 11.1978 13.052 11.2528C13.916 11.9748 14.955 12.6358 16.17 13.2348C17.187 13.7368 18.189 14.4088 19.175 15.2518C19.939 15.9048 20.326 16.2358 20.337 16.2438C21.458 17.1648 22.469 18.0198 23.37 18.8088ZM52.839 20.8978C53.497 21.4915 54.1276 22.1148 54.729 22.7658C55.8019 23.928 56.6494 25.2796 57.228 26.7518C57.378 27.1318 57.613 27.9438 57.931 29.1858C57.995 29.4338 58.102 30.0258 58.254 30.9628C58.342 31.4978 58.479 32.0948 58.666 32.7538C58.836 33.3518 58.929 34.0418 58.946 34.8238L58.976 36.0638C59.01 36.9218 59.007 37.7798 58.968 38.6358C58.9365 39.3692 58.8135 40.0958 58.602 40.7988C57.898 43.1298 56.918 45.1788 55.663 46.9428C54.193 49.0078 53.082 50.6868 52.326 51.9798C51.3374 53.6619 50.6307 55.4944 50.234 57.4048C50.108 58.0128 50.03 58.8518 49.999 59.9208C49.9765 60.6682 49.9378 61.415 49.883 62.1608C49.8232 62.9061 49.7865 63.6531 49.773 64.4008C49.75 66.2278 49.723 68.0548 49.693 69.8828C49.69 70.0588 49.615 70.2828 49.47 70.5528L49.206 71.0378C49.1516 71.1206 49.0808 71.1914 48.9978 71.2456C48.9149 71.2998 48.8216 71.3363 48.724 71.3528C48.693 71.3588 48.442 71.3648 47.972 71.3698C47.6676 71.3729 47.3633 71.3615 47.06 71.3358C47.0175 71.3327 46.9749 71.3393 46.9353 71.3549C46.8957 71.3706 46.8601 71.3951 46.8313 71.4264C46.8025 71.4577 46.7811 71.4952 46.7687 71.5359C46.7564 71.5767 46.7534 71.6197 46.76 71.6618C46.984 73.1578 47.04 74.6798 46.929 76.2288C46.902 76.6088 46.799 76.9118 46.622 77.1388C46.215 77.6608 45.649 77.9468 44.925 77.9968C44.613 78.0188 43.875 77.9098 42.71 77.6728C42.094 77.5468 41.476 77.4728 40.857 77.4478C40.2334 77.4272 39.6105 77.3902 38.989 77.3368C37.7958 77.2189 36.5955 77.1891 35.398 77.2478C34.83 77.2778 34.421 77.2598 34.173 77.1928C33.7602 77.0824 33.3806 76.873 33.067 76.5828C32.8688 76.4005 32.7454 76.151 32.721 75.8828C32.6747 75.4407 32.6453 74.9971 32.633 74.5528C32.595 73.5217 32.4807 72.4949 32.291 71.4808C32.2751 71.3963 32.2329 71.319 32.1704 71.2601C32.1078 71.2012 32.0282 71.1636 31.943 71.1528C31.6935 71.1226 31.4414 71.1226 31.192 71.1528L30.448 71.2378C29.477 71.2368 28.974 70.7218 28.941 69.6938C28.905 68.6138 28.999 65.8798 29.223 61.4908C29.239 61.1708 29.311 60.6048 29.44 59.7958C29.5921 58.8514 29.587 57.8885 29.425 56.9458C29.295 56.1758 29.022 55.1788 28.608 53.9538C28.3873 53.2978 28.1251 52.6565 27.823 52.0338C27.607 51.5938 27.254 51.0008 26.765 50.2588C25.3291 48.0873 24.0009 45.8466 22.785 43.5448C22.13 42.3048 21.693 41.2838 21.474 40.4798C21.3395 39.9845 21.1981 39.4911 21.05 38.9998C20.8951 38.5113 20.7922 38.0078 20.743 37.4978C20.6483 36.3801 20.6403 35.2567 20.719 34.1378C20.796 33.0578 20.999 31.9628 21.33 30.8528C21.98 28.6703 22.9122 26.5819 24.103 24.6408C24.7523 23.5676 25.5263 22.575 26.409 21.6838C28.2645 19.8267 30.5053 18.3997 32.973 17.5038C33.64 17.2588 34.487 17.0418 35.513 16.8528C36.087 16.7468 36.662 16.6428 37.237 16.5388C37.8109 16.4326 38.3932 16.3777 38.977 16.3748C41.218 16.3748 43.388 16.5668 45.486 16.9508C46.836 17.1978 48.146 17.6848 49.412 18.4128C50.6396 19.1169 51.7885 19.9493 52.839 20.8978ZM35.525 60.5488C35.685 56.4858 35.671 52.4718 35.484 48.5078C35.4765 48.3087 35.3961 48.1193 35.258 47.9758C34.4598 47.1275 33.7448 46.2046 33.123 45.2198C33.077 45.1478 32.84 44.7098 32.413 43.9098C32.1772 43.4716 31.9109 43.0505 31.616 42.6498C31.1164 41.9655 30.7544 41.1909 30.55 40.3688C30.3832 39.7141 30.2586 39.0494 30.177 38.3788C30.002 36.8458 30.544 35.6038 31.803 34.6528C32.0256 34.4775 32.2829 34.3514 32.5578 34.2828C32.8327 34.2142 33.1191 34.2046 33.398 34.2548C33.881 34.3338 34.32 34.5888 34.716 35.0208C35.2 35.5508 35.566 36.1958 35.811 36.9528C36.277 38.3928 36.511 39.3208 36.512 39.7358C36.515 40.2878 36.589 40.8228 36.735 41.3428C36.995 42.2728 37.127 42.7528 37.131 42.7798C37.3094 43.8517 37.2917 44.9471 37.079 46.0128C36.949 46.6748 37.165 47.0828 37.727 47.2378C39.178 47.6358 40.434 47.2978 41.494 46.2208C41.5365 46.1776 41.563 46.1211 41.569 46.0608C41.6734 45.0564 41.7101 44.0461 41.679 43.0368C41.635 41.6328 41.613 40.8168 41.616 40.5868C41.622 39.7688 41.632 38.9498 41.644 38.1318C41.65 37.6858 41.732 37.2648 41.891 36.8678C41.967 36.6788 42.144 36.2958 42.421 35.7168C42.7108 35.1127 43.1126 34.5691 43.605 34.1148C43.928 33.8168 44.295 33.6238 44.705 33.5348C45.178 33.4338 45.606 33.4288 45.989 33.5208C47.021 33.7698 47.599 34.3768 47.725 35.3408C47.761 35.6158 47.77 36.1868 47.75 37.0548C47.7376 37.6299 47.6699 38.2026 47.548 38.7648C47.4819 39.0347 47.3915 39.2981 47.278 39.5518C47.12 39.9218 47.037 40.1888 47.028 40.3498C47.0037 40.8095 46.8867 41.2595 46.684 41.6728C46.434 42.1748 46.307 42.4328 46.301 42.4478C45.7224 43.7912 44.9521 45.0436 44.014 46.1658C44.006 46.1768 43.864 46.3228 43.588 46.6038C43.396 46.7998 43.281 46.9958 43.242 47.1908C42.6897 49.9898 42.4529 52.842 42.536 55.6938C42.569 56.8298 42.608 57.6088 42.652 58.0298C42.73 58.7788 42.88 59.5468 43.1 60.3338C43.117 60.3937 43.1535 60.4462 43.2036 60.4831C43.2537 60.52 43.3147 60.5393 43.377 60.5378L46.993 60.4608C47.019 60.4598 47.044 60.4508 47.063 60.4328C47.0828 60.4157 47.0957 60.3918 47.099 60.3658C47.134 60.0868 47.173 59.6578 47.215 59.0788C47.2899 58.0395 47.5443 57.0211 47.967 56.0688C48.094 55.7818 48.59 54.8918 49.457 53.3968C51.006 50.7248 52.568 48.2978 54.143 46.1168C55.373 44.4148 56.269 42.6308 56.83 40.7648C56.897 40.5438 56.984 40.3048 57.09 40.0478C57.224 39.7168 57.298 39.4718 57.31 39.3118C57.399 38.1188 57.399 36.6568 57.31 34.9248C57.273 34.1858 57.152 33.5688 56.948 33.0728C56.844 32.8198 56.74 32.2058 56.635 31.2308C56.5844 30.737 56.4914 30.2485 56.357 29.7708L55.947 28.3368C55.9034 28.1593 55.8594 27.982 55.815 27.8048C55.565 26.8018 55 25.9478 54.123 25.2438C53.9499 25.1055 53.807 24.9333 53.703 24.7378C52.803 23.0608 51.487 21.8218 49.752 21.0218C48.787 20.5768 48.297 20.3498 48.282 20.3418C45.61 19.0448 42.715 18.4478 39.597 18.5538C38.732 18.5828 37.94 18.6918 37.221 18.8818C36.741 19.0078 36.232 19.1478 35.695 19.3018C35.1863 19.4499 34.6901 19.6378 34.211 19.8638C32.4964 20.6545 30.8961 21.6723 29.453 22.8898C27.938 24.1747 26.5493 25.6015 25.306 27.1508C24.535 28.1128 23.902 29.2678 23.407 30.6158C23.271 30.9858 23.132 31.5328 22.99 32.2578C22.8789 32.8151 22.7556 33.3699 22.62 33.9218C22.3858 34.8783 22.3275 35.8694 22.448 36.8468C22.536 37.5808 22.751 38.5198 23.093 39.6648C23.373 40.6018 23.73 41.5088 24.163 42.3858C24.312 42.6878 24.781 43.5378 25.57 44.9368C26.436 46.4718 27.135 47.6198 27.668 48.3808C28.8553 50.0828 29.9878 51.8223 31.064 53.5968C31.152 53.7418 31.236 53.9218 31.317 54.1368C31.395 54.3478 31.48 54.5288 31.569 54.6798C31.785 55.0408 31.924 55.4148 31.988 55.8008C32.002 55.8838 32.028 56.2778 32.065 56.9808C32.1239 58.1154 32.1056 59.2527 32.01 60.3848C32.0046 60.4512 32.02 60.5177 32.054 60.575C32.0881 60.6323 32.1391 60.6777 32.2 60.7048C32.24 60.7218 32.284 60.7308 32.328 60.7308L35.378 60.6958C35.4162 60.6952 35.4528 60.6798 35.48 60.6528C35.5075 60.625 35.5236 60.5879 35.525 60.5488ZM46.14 35.1828C45.813 34.4458 45.355 34.2968 44.766 34.7358C44.454 34.9668 44.491 35.0618 44.874 35.0188C45.318 34.9688 45.734 35.0298 46.124 35.1998C46.144 35.2088 46.15 35.2028 46.14 35.1828ZM33.263 35.2998C33.2444 35.2803 33.2197 35.2679 33.193 35.2648C33.166 35.2619 33.139 35.269 33.117 35.2848C32.497 35.7148 31.981 36.2118 31.569 36.7748C31.334 37.0998 31.271 37.3448 31.382 37.5078C31.492 37.6678 31.579 37.6628 31.644 37.4908C31.862 36.9118 32.304 36.4678 32.971 36.1588C33.0537 36.1196 33.1476 36.1105 33.2363 36.1332C33.325 36.1558 33.4031 36.2087 33.457 36.2828C33.561 36.4218 33.732 36.5328 33.97 36.6148C34.128 36.6708 34.17 36.6228 34.095 36.4718C33.8807 36.0399 33.6 35.6444 33.263 35.2998ZM44.82 36.9888C44.652 37.2278 44.462 37.6638 44.25 38.2988C44.1099 38.7524 44.0191 39.2197 43.979 39.6928C43.895 40.5168 43.759 41.3328 43.569 42.1428C43.429 42.7328 43.336 43.3328 43.289 43.9368C43.253 44.3968 43.355 44.4298 43.596 44.0388C44.1924 43.0594 44.6889 42.0225 45.078 40.9438C45.2954 40.3566 45.4363 39.7439 45.497 39.1208C45.569 38.3678 45.566 37.7388 45.486 37.2358C45.384 36.5858 45.162 36.5028 44.82 36.9888ZM33.366 38.0478C33.284 38.0326 33.1996 38.0363 33.1192 38.0584C33.0389 38.0806 32.9646 38.1207 32.902 38.1758C32.879 38.1943 32.8602 38.2174 32.847 38.2438C32.833 38.2716 32.8245 38.3018 32.822 38.3328C32.7575 38.9651 32.7983 39.6038 32.943 40.2228C33.012 40.5188 33.188 41.1178 33.471 42.0218C33.778 43.0068 34.215 43.9108 34.781 44.7338C34.863 44.8538 34.938 44.9768 35.005 45.1048C35.218 45.5098 35.331 45.5848 35.344 45.3278C35.346 45.2491 35.3383 45.1705 35.321 45.0938C35.259 44.7738 35.201 44.4538 35.146 44.1348C35.0954 43.8137 35.0667 43.4897 35.06 43.1648C35.023 42.1138 34.803 40.9588 34.398 39.7008C34.203 39.1008 33.98 38.6328 33.727 38.2968C33.618 38.1528 33.497 38.0708 33.366 38.0478ZM41.197 60.6958C41.2096 60.6958 41.2221 60.693 41.2335 60.6875C41.2449 60.682 41.255 60.674 41.2629 60.6641C41.2707 60.6542 41.2763 60.6426 41.2791 60.6303C41.2819 60.6179 41.2818 60.6051 41.279 60.5928C41.139 59.9258 41.053 59.2328 41.018 58.5148C40.861 55.2698 40.918 52.0218 41.188 48.7698C41.1888 48.7582 41.1871 48.7465 41.1829 48.7356C41.1788 48.7247 41.1723 48.7149 41.164 48.7068C41.1557 48.6985 41.1456 48.6922 41.1345 48.6884C41.1234 48.6846 41.1116 48.6833 41.1 48.6848C40.619 48.7548 40.183 48.8608 39.791 49.0048C39.173 49.2383 38.4918 49.2425 37.871 49.0168C37.661 48.9438 37.471 48.9168 37.301 48.9378C37.2622 48.9423 37.2265 48.9612 37.201 48.9908C37.1758 49.0207 37.1623 49.0587 37.163 49.0978C37.21 52.0958 37.228 55.0318 37.217 57.9058L37.172 59.1168C37.155 59.5828 37.169 60.0718 37.215 60.5848C37.2177 60.6116 37.2302 60.6365 37.25 60.6548C37.27 60.6728 37.295 60.6828 37.322 60.6828L41.197 60.6958ZM17.598 35.9628C17.6262 35.9694 17.6521 35.9837 17.6729 36.0039C17.6937 36.0242 17.7086 36.0497 17.716 36.0778C17.81 36.4178 17.839 36.8108 17.804 37.2548C17.8009 37.3008 17.7805 37.3439 17.747 37.3754C17.7134 37.407 17.669 37.4246 17.623 37.4248C15.586 37.4428 13.533 37.4548 11.461 37.4628C10.745 37.4648 9.82296 37.3308 8.69196 37.0588C7.54696 36.7828 6.84896 36.6688 6.59996 36.7178C6.07196 36.8178 5.89196 36.5708 6.06196 35.9758C6.06958 35.9488 6.08524 35.9248 6.10685 35.9069C6.12847 35.889 6.15502 35.8782 6.18296 35.8758C7.02196 35.8258 7.81496 35.7998 8.56296 35.7978C11.195 35.7948 13.828 35.8008 16.462 35.8178C16.829 35.8198 17.208 35.8678 17.598 35.9628ZM61.03 36.0258C61.043 35.9685 61.0747 35.9172 61.12 35.8798C61.1649 35.8421 61.2213 35.8209 61.28 35.8198C64.21 35.7668 67.14 35.7498 70.07 35.7728C71.323 35.7828 72.4129 35.8358 73.34 35.9318C73.601 35.9578 73.7719 36.0208 73.853 36.1188C73.964 36.2548 74.013 36.4588 73.997 36.7298C73.9962 36.7484 73.9911 36.7666 73.9821 36.7829C73.973 36.7992 73.9603 36.8132 73.945 36.8238C73.9294 36.8342 73.9115 36.8407 73.8929 36.8428C73.8743 36.8449 73.8554 36.8425 73.838 36.8358C73.047 36.5378 72.214 36.5858 71.338 36.9828C71.1525 37.0674 70.9495 37.1062 70.746 37.0958C70.2283 37.068 69.7093 37.0864 69.195 37.1508C68.28 37.2668 67.768 37.3278 67.66 37.3338C65.613 37.4588 63.56 37.4738 61.498 37.3768C61.4065 37.3726 61.319 37.3387 61.2486 37.2803C61.1782 37.2218 61.1288 37.1419 61.108 37.0528C61.003 36.6208 60.976 36.2788 61.03 36.0258Z" fill="#1F212C"/>
<path d="M17.292 56.7088C19.1528 54.7634 21.112 52.9147 23.162 51.1698C23.392 50.9748 23.638 50.8928 23.902 50.9228C24.174 50.9528 24.361 51.0878 24.463 51.3268C24.5024 51.4197 24.5223 51.5197 24.5217 51.6207C24.521 51.7216 24.4996 51.8214 24.459 51.9138C24.409 52.0358 24.299 52.1818 24.129 52.3538C22.372 54.1132 20.585 55.8424 18.769 57.5408C17.9666 58.2917 17.136 59.0119 16.279 59.6998C15.9654 59.9512 15.6171 60.156 15.245 60.3078C15.1769 60.3351 15.1008 60.3344 15.0333 60.3057C14.9659 60.277 14.9125 60.2227 14.885 60.1548C14.729 59.7768 14.775 59.4588 15.026 59.1998L15.361 58.8528C15.764 58.3468 16.409 57.6328 17.292 56.7088ZM54.589 52.9578C54.303 52.7158 54.247 52.4118 54.42 52.0458C54.63 51.6028 54.926 51.4358 55.31 51.5418C55.475 51.5878 55.724 51.7418 56.058 52.0068C58.982 54.3238 60.758 55.7658 61.388 56.3318C62.2603 57.1134 63.1045 57.926 63.919 58.7678C64.124 58.9788 64.089 59.1388 63.819 59.2478C63.6341 59.3283 63.4323 59.3622 63.2312 59.3465C63.0302 59.3308 62.8361 59.266 62.666 59.1578C61.3255 58.3425 60.0443 57.4336 58.832 56.4378C58.2063 55.9223 57.58 55.4076 56.953 54.8938C56.1559 54.2596 55.3678 53.6142 54.589 52.9578Z" fill="#1F212C"/>
</svg>
