<svg width="43" height="76" viewBox="0 0 43 76" fill="none" xmlns="http://www.w3.org/2000/svg">
<path d="M34.0249 47.4588C35.2229 47.5778 36.4229 47.6348 37.6269 47.6308C38.8538 47.6273 40.0778 47.7489 41.2799 47.9938C41.341 48.0066 41.3969 48.0372 41.4407 48.0817C41.4844 48.1262 41.5141 48.1826 41.5259 48.2438C41.6689 48.9698 41.5619 49.5848 41.2059 50.0888C38.9798 53.222 36.725 56.3348 34.4419 59.4268C33.6036 60.5694 32.8021 61.7387 32.0389 62.9328C30.6429 65.0958 29.1959 67.2254 27.6989 69.3198C26.4129 71.1428 24.8807 72.779 23.1459 74.1818C23.1244 74.1992 23.1104 74.2243 23.1069 74.2518C23.1038 74.281 23.1109 74.3103 23.1269 74.3348L23.7939 75.4348C23.9999 75.7718 23.8959 75.9578 23.4839 75.9938C23.0309 76.0338 22.6319 75.8868 22.2869 75.5558C19.7587 73.1249 17.4227 70.5017 15.2999 67.7098C14.6599 66.8698 13.8489 65.7088 12.8639 64.2278C11.4333 62.0728 9.99161 59.9251 8.53894 57.7848C8.27394 57.3978 7.94294 56.9748 7.54594 56.5138C7.11594 56.0138 6.77994 55.5948 6.53594 55.2588C5.31121 53.5709 4.11043 51.8657 2.93394 50.1438C2.808 49.9588 2.66175 49.7884 2.49794 49.6358C2.33558 49.4824 2.17224 49.3301 2.00794 49.1788C1.78594 48.9728 1.75594 48.7428 1.91794 48.4878C2.28194 47.9148 2.80994 47.6258 3.50194 47.6198C3.75643 47.6213 4.0101 47.5907 4.25694 47.5288C4.40594 47.4888 4.61194 47.3588 4.87494 47.1368C5.11794 46.9348 5.35094 46.8118 5.57494 46.7698C6.90694 46.5168 8.40894 46.5078 10.0799 46.7418C10.1 46.7448 10.1204 46.7413 10.1382 46.7317C10.1561 46.7222 10.1703 46.7071 10.1789 46.6888C10.1843 46.6769 10.187 46.6639 10.1869 46.6508C10.2139 44.0308 10.1649 41.4138 10.0399 38.7988C10.0394 38.7819 10.0338 38.7655 10.0239 38.7518C10.0137 38.7378 9.9999 38.7267 9.98394 38.7198C9.21194 38.3978 8.67294 38.0958 8.36694 37.8118C5.50694 35.1658 3.39694 32.0278 2.03894 28.3998C1.85169 27.8817 1.70786 27.3488 1.60894 26.8068C1.50564 26.2657 1.39664 25.7256 1.28194 25.1868C0.974016 23.7677 0.916484 22.3057 1.11194 20.8668C1.18294 20.3568 1.33194 19.4418 1.55894 18.1238C1.69794 17.3138 1.90194 16.4098 2.17294 15.4088C2.88194 12.7838 4.03894 10.4888 5.64294 8.52681C6.32135 7.71171 7.02915 6.92152 7.76494 6.15781C8.46494 5.42181 9.23694 4.69181 10.0799 3.96781C10.3029 3.77681 10.5299 3.62781 10.7599 3.51881C11.1519 3.33881 11.3929 3.21981 11.4839 3.16181C13.1128 2.12953 14.8575 1.29245 16.6819 0.667811C17.6393 0.341512 18.6349 0.140836 19.6439 0.0708116C22.797 -0.15842 25.9658 0.169937 29.0049 1.04081C30.5963 1.49085 32.1175 2.15957 33.5249 3.02781C34.0509 3.35281 34.5189 3.74081 34.9289 4.19081C35.5129 4.83481 35.8139 5.16581 35.8319 5.18381C36.4829 5.84581 37.2889 6.72481 38.2519 7.82081C40.2419 10.0898 41.6279 12.6008 42.4109 15.3558C42.5099 15.7058 42.5939 16.2358 42.6639 16.9438C42.6909 17.2188 42.7679 17.7488 42.8949 18.5338C43.0384 19.382 43.0363 20.2483 42.8889 21.0958C42.7389 21.9478 42.6589 22.6568 42.6509 23.2228C42.6379 24.1108 42.4829 24.9218 42.1849 25.6548C42.0049 26.0968 41.8569 26.5128 41.7409 26.9028C41.5649 27.4928 41.4249 27.9088 41.3199 28.1528C40.9477 29.0167 40.5253 29.8581 40.0549 30.6728C39.6849 31.3128 39.1499 32.0828 38.4499 32.9828C37.6979 33.9488 36.9479 34.9148 36.1979 35.8818C35.6111 36.64 34.9268 37.3175 34.1629 37.8968C34.107 37.9372 34.0659 37.9948 34.0459 38.0608C33.9511 38.386 33.9032 38.7231 33.9039 39.0618C33.8979 41.8218 33.9039 44.5818 33.9189 47.3418C33.9189 47.3708 33.9289 47.3978 33.9489 47.4198C33.9688 47.4413 33.9958 47.4558 34.0249 47.4588ZM9.01294 7.84281C8.29598 8.6247 7.65072 9.46943 7.08494 10.3668C6.88594 10.6828 6.71094 10.9438 6.55894 11.1508L6.00394 11.9188C5.70694 12.3308 5.46894 12.7388 5.28994 13.1408C4.79394 14.2598 4.44594 15.2988 4.24594 16.2578C4.09594 16.9778 3.96194 17.5828 3.84394 18.0718C3.65394 18.8598 3.53994 19.4668 3.50194 19.8918C3.3898 21.1266 3.4032 22.3697 3.54194 23.6018C3.58094 23.9418 3.65794 24.3478 3.77394 24.8198C3.87194 25.2228 3.96594 25.6248 4.05394 26.0278C4.22794 26.8158 4.38894 27.4158 4.53794 27.8268C5.26794 29.8647 6.45812 31.7068 8.01594 33.2098C8.72849 33.8901 9.48189 34.5263 10.2719 35.1148C11.0569 35.7088 11.8819 36.2478 12.7439 36.7328C13.2559 37.0188 13.7639 37.3128 14.2669 37.6108C14.8539 37.9588 15.3809 38.2108 15.8489 38.3678C17.4319 38.9028 19.0609 39.1748 20.7369 39.1868L22.5179 39.1968C23.3729 39.2168 24.2279 39.2078 25.0829 39.1698C25.7132 39.1341 26.3372 39.0264 26.9429 38.8488C28.6505 38.3771 30.3172 37.7685 31.9269 37.0288C32.5319 36.7468 32.9789 36.3868 33.2679 35.9488C33.5879 35.4648 33.7709 35.1968 33.8179 35.1448C34.2664 34.6551 34.7348 34.184 35.2219 33.7328C37.2659 31.8279 38.8358 29.471 39.8059 26.8508C39.8469 26.7428 39.9299 26.4428 40.0549 25.9508C40.1329 25.6478 40.2449 25.3558 40.3909 25.0748C40.5959 24.6768 40.7179 24.2548 40.7569 23.8058C40.8569 22.6198 40.9469 21.4328 41.0289 20.2448C41.0809 19.4708 40.9919 18.2658 40.7629 16.6298C40.6529 15.8398 40.4069 14.9878 40.0269 14.0698C39.6849 13.2566 39.2734 12.4743 38.7969 11.7318C37.3271 9.40221 35.4546 7.35262 33.2669 5.67881C32.9778 5.45804 32.7084 5.21244 32.4619 4.94481C31.9016 4.33868 31.2179 3.8596 30.4569 3.53981C29.6338 3.18871 28.7803 2.91389 27.9069 2.71881C27.2892 2.5827 26.6728 2.44036 26.0579 2.29181C25.4451 2.13753 24.8222 2.02593 24.1939 1.95781C23.1939 1.86581 22.0559 1.83081 20.7769 1.85381C19.6129 1.87381 18.5409 2.03881 17.5599 2.34881C17.0019 2.52581 16.4799 2.71581 15.9929 2.91881C15.5509 3.10181 15.0509 3.34481 14.4929 3.64881C12.3249 4.82181 10.4979 6.21981 9.01294 7.84281ZM9.93594 50.9658C9.02721 50.7252 8.15479 50.364 7.34194 49.8918C7.05194 49.7228 7.00394 49.7568 7.19494 49.9918C7.45294 50.3118 7.68294 50.6518 7.88494 51.0118C10.3144 55.3616 12.8912 59.6274 15.6109 63.8018C16.1109 64.5688 16.7399 65.4648 17.4959 66.4868C18.4969 67.8388 19.1159 68.7388 19.3549 69.1868C19.9969 70.392 20.7805 71.5163 21.6889 72.5358C21.9439 72.8218 22.1709 73.1378 22.3689 73.4838C22.4769 73.6718 22.5659 73.6638 22.6349 73.4578C22.9062 72.677 23.2747 71.9335 23.7319 71.2448C25.9471 67.8718 28.2563 64.5615 30.6569 61.3178C32.6539 58.6228 34.6449 55.9228 36.6269 53.2178C37.3049 52.2928 37.6869 51.7528 37.7709 51.5978C38.0922 51.0009 38.3013 50.3501 38.3879 49.6778C38.3912 49.6563 38.3879 49.6342 38.3785 49.6146C38.369 49.595 38.3538 49.5787 38.3349 49.5678C38.3227 49.5606 38.3091 49.5558 38.2949 49.5538C37.705 49.4607 37.1081 49.4196 36.5109 49.4308C35.5875 49.4549 34.6635 49.4228 33.7439 49.3348C33.1249 49.2768 32.6779 49.0048 32.4029 48.5188C32.3159 48.3668 32.2479 48.1488 32.1969 47.8638L32.0769 47.1738C32.0188 46.8316 31.984 46.4858 31.9729 46.1388C31.8982 43.9228 31.9232 41.7046 32.0479 39.4908C32.0579 39.3148 31.9869 39.2708 31.8349 39.3588C30.7362 39.9907 29.5771 40.5113 28.3749 40.9128C27.7813 41.1152 27.1845 41.3086 26.5849 41.4928C25.9726 41.6572 25.3436 41.7511 24.7099 41.7728C22.3759 41.8688 20.2499 41.8288 18.3339 41.6528C17.9278 41.6094 17.5295 41.5108 17.1499 41.3598C16.7299 41.1998 16.2799 41.0698 15.7979 40.9728C15.2109 40.8528 14.7589 40.7348 14.4429 40.6178C13.9419 40.4318 13.4429 40.2358 12.9489 40.0308C12.9288 40.0224 12.9068 40.0191 12.8851 40.0212C12.8633 40.0233 12.8424 40.0308 12.8243 40.043C12.8062 40.0552 12.7913 40.0717 12.7811 40.091C12.771 40.1104 12.7657 40.132 12.7659 40.1538C12.7979 43.0038 12.8239 45.8778 12.8419 48.7758C12.8469 49.5558 12.4749 50.0158 11.7279 50.1558C11.3279 50.2308 11.0559 50.3778 10.9119 50.5958C10.6749 50.9528 10.3499 51.0758 9.93594 50.9658Z" fill="#1F212C"/>
<path d="M9.70794 9.49581C10.9439 8.18281 12.4149 7.01381 14.1199 5.98681C14.4783 5.76441 14.8151 5.50896 15.1259 5.22381C15.5029 4.88681 15.8379 4.63981 16.1309 4.48381C17.1929 3.92181 18.1749 3.57581 19.0759 3.44881C19.8779 3.33481 20.9659 3.29581 22.3399 3.32881C23.5689 3.35881 24.6469 3.46881 25.5759 3.65881C28.3639 4.22781 30.7999 5.34881 32.8829 7.02281C33.8189 7.77381 34.9659 8.94881 36.3229 10.5478C37.2906 11.6781 38.0711 12.9559 38.6349 14.3328C39.1797 15.6435 39.5719 17.0125 39.8039 18.4128C40.0889 20.1918 39.9659 21.9898 39.4339 23.8068C39.3009 24.2648 39.1839 24.7768 39.0849 25.3468C39.0339 25.6643 38.947 25.9749 38.8259 26.2728C38.7408 26.4711 38.6528 26.6681 38.5619 26.8638C38.4839 27.0308 38.4019 27.2298 38.3179 27.4618C37.9919 28.3548 37.4739 29.3118 36.7639 30.3318C34.9629 32.94 32.5008 35.0225 29.6299 36.3658C28.0919 37.0938 26.2929 37.6028 24.2319 37.8918C23.1659 38.0418 22.2789 38.0728 21.5699 37.9838C20.1988 37.8111 18.8347 37.5856 17.4809 37.3078C16.3429 37.0738 15.1309 36.6178 13.8439 35.9378C13.2379 35.6198 12.5469 35.1698 11.7679 34.5908C11.3259 34.2608 10.8859 33.9308 10.4479 33.5978C9.94794 33.2188 9.53294 32.8558 9.20394 32.5088C7.95772 31.1982 6.93572 29.6914 6.17894 28.0488C5.77094 27.1638 5.48694 26.4568 5.32594 25.9288C5.10403 25.1885 4.9915 24.4197 4.99194 23.6468C4.99067 22.5838 4.98301 21.5208 4.96894 20.4578C4.95494 19.4178 5.08194 18.4568 5.34894 17.5748C5.46994 17.1768 5.78394 16.2768 6.29194 14.8768C6.97894 12.9768 8.11794 11.1818 9.70794 9.49581ZM10.5289 12.0158C9.08594 13.6038 8.08394 15.5428 7.52294 17.8318C7.46903 18.049 7.39642 18.2611 7.30594 18.4658C7.08982 18.9504 6.95533 19.4674 6.90794 19.9958C6.89694 20.1208 6.87994 20.6418 6.85794 21.5568C6.84094 22.1968 6.88794 22.7568 6.99794 23.2348C7.46494 25.3048 8.27794 27.4368 9.43794 29.6278C9.82194 30.3538 10.2219 30.9078 10.6379 31.2878C12.2035 32.7162 13.9934 33.8774 15.9359 34.7248C17.2409 35.3008 18.6009 35.6748 20.0159 35.8468C21.8359 36.0668 23.6659 36.0508 25.5059 35.7998C26.0269 35.7298 26.7939 35.4918 27.8059 35.0878C30.3819 34.0618 32.4869 32.5688 34.1229 30.6098C34.3729 30.3108 34.6879 29.8558 35.0649 29.2448C35.3569 28.7748 35.6609 28.3128 35.9769 27.8588C36.1909 27.5528 36.3819 27.1908 36.5489 26.7728C36.7019 26.3888 36.8799 26.0138 37.0849 25.6498C37.2249 25.3978 37.3139 25.1298 37.3499 24.8438C37.4369 24.1638 37.5599 23.4888 37.7199 22.8198C37.9589 21.8198 38.0899 21.1498 38.1139 20.8068C38.1668 20.0168 38.1103 19.2233 37.9459 18.4488C37.7734 17.6864 37.5662 16.9323 37.3249 16.1888C36.6129 13.9288 35.3179 12.0368 33.4399 10.5118C32.4069 9.67181 31.7159 9.08581 31.3669 8.75181C30.4549 7.87181 29.5109 7.27381 28.5369 6.95681C26.1929 6.19281 23.6969 5.86981 21.0469 5.98681C20.2734 6.01371 19.5091 6.16394 18.7829 6.43181C17.7099 6.83681 16.5629 7.41481 15.3429 8.16681C13.3509 9.38981 11.7469 10.6738 10.5289 12.0158Z" fill="#1F212C"/>
<path d="M16.7289 22.0928C16.3869 22.0178 15.9289 21.9868 15.3549 21.9998C14.7389 22.0138 14.2839 21.7918 13.9899 21.3338C13.8099 21.0538 13.7639 20.7018 13.8499 20.2798C13.9369 19.8568 14.0799 19.3098 14.2799 18.6378C14.4329 18.1208 14.7519 17.8638 15.2359 17.8658C15.7739 17.8676 16.311 17.8251 16.8419 17.7388C16.9019 17.7288 16.9559 17.6988 16.9959 17.6508C17.0362 17.6033 17.0585 17.5431 17.0589 17.4808L17.1049 11.7128C17.1071 11.6353 17.1301 11.5598 17.1717 11.4943C17.2132 11.4288 17.2717 11.3758 17.3409 11.3408C18.3589 10.8268 19.3259 10.5108 20.2429 10.3948C23.3859 9.99981 26.4179 10.3948 29.3409 11.5838C30.8439 12.1938 31.9529 13.2268 32.6689 14.6788C32.9649 15.2788 33.0609 15.8808 32.9559 16.4868C32.8849 16.8948 32.6789 17.4428 32.3369 18.1298C31.6549 19.5098 30.6289 20.5278 29.2579 21.1858C28.5229 21.5378 27.7839 21.8218 27.0429 22.0358C26.2684 22.2592 25.462 22.3518 24.6569 22.3098C24.1991 22.2872 23.7401 22.3073 23.2859 22.3698C23.2526 22.374 23.2208 22.386 23.1929 22.4048C23.166 22.4236 23.144 22.4486 23.1289 22.4778C22.9429 22.8348 23.0809 23.0058 23.5429 22.9908C24.18 22.9678 24.8175 22.9561 25.4549 22.9558C25.7589 22.9558 25.9979 23.0508 26.1689 23.2388C26.2919 23.3738 26.3739 23.5918 26.4139 23.8938C26.5309 24.8138 26.4599 25.7238 26.1989 26.6258C26.172 26.7331 26.1151 26.8305 26.0349 26.9066C25.9547 26.9827 25.8545 27.0345 25.7459 27.0558C24.9539 27.2392 24.1396 27.3079 23.3279 27.2598C22.8079 27.2298 22.5799 27.4808 22.6439 28.0118C22.6679 28.2168 22.6939 28.4218 22.7239 28.6268C22.8649 29.6008 22.6079 30.2448 21.9529 30.5598C21.6239 30.7168 21.0429 30.7778 20.2069 30.7418C19.3229 30.7038 18.7329 30.6418 18.4379 30.5578C17.9659 30.4198 17.5079 30.0578 17.0649 29.4728C17.0241 29.4181 17.001 29.3521 16.9989 29.2838L16.9499 26.9958C16.9477 26.8933 16.9062 26.7956 16.8339 26.7228C16.7987 26.6873 16.7568 26.6591 16.7107 26.6398C16.6645 26.6206 16.615 26.6108 16.5649 26.6108C15.6639 26.6128 14.8749 26.5378 14.2009 26.3858C13.9229 26.3238 13.7689 26.1508 13.7399 25.8668C13.6639 25.1508 13.7199 24.5218 13.9079 23.9788C14.0509 23.5608 14.3029 23.2988 14.6639 23.1898C15.0059 23.0878 15.4309 23.0598 15.9379 23.1048C16.1149 23.1208 16.2919 23.1188 16.4689 23.0988C16.9189 23.0488 17.0509 22.7558 16.8669 22.2188C16.8567 22.1877 16.8387 22.1597 16.8145 22.1377C16.7903 22.1156 16.7609 22.1001 16.7289 22.0928ZM18.0709 18.6128C17.7909 18.7868 17.2979 18.8698 16.5909 18.8618C16.3509 18.8588 16.1139 18.8818 15.8789 18.9298C15.3919 19.0288 15.2339 19.4558 15.4019 20.2118C15.4219 20.2958 15.4719 20.3718 15.5439 20.4268C15.6184 20.4829 15.7087 20.514 15.8019 20.5158L17.2669 20.5518C17.4809 20.5578 17.6579 20.6668 17.7979 20.8788C18.2009 21.4918 18.3639 22.1658 18.2879 22.9028C18.1709 24.0198 17.5479 24.6078 16.4179 24.6658L15.7509 24.6998C15.5499 24.7098 15.4009 24.7498 15.3069 24.8208C15.1409 24.9458 15.1369 25.0978 15.2979 25.2758C15.3819 25.3698 15.4979 25.4308 15.6449 25.4608C16.0019 25.5358 16.4369 25.5698 16.9499 25.5608C17.8499 25.5458 18.3059 26.0058 18.3169 26.9428C18.3239 27.6008 18.3809 28.2528 18.4869 28.8988C18.4923 28.9289 18.5071 28.9565 18.5292 28.9775C18.5513 28.9986 18.5796 29.012 18.6099 29.0158C19.4409 29.1158 20.2739 29.1408 21.1089 29.0898C21.139 29.0879 21.1675 29.0754 21.1892 29.0545C21.211 29.0337 21.2247 29.0058 21.2279 28.9758C21.2699 28.5458 21.2659 28.0418 21.2149 27.4618C21.1449 26.6568 21.4989 26.1438 22.2779 25.9248C22.8979 25.7498 23.6629 25.6648 24.5739 25.6688C24.706 25.6763 24.8372 25.6429 24.9496 25.5731C25.062 25.5033 25.1501 25.4005 25.2019 25.2788C25.3579 24.9548 25.3499 24.5848 25.1779 24.1688C25.1654 24.1389 25.1454 24.1128 25.1199 24.0928C25.0943 24.0726 25.0641 24.0588 25.0319 24.0528C24.3496 23.9326 23.6522 23.9235 22.9669 24.0258C22.7609 24.0558 22.5769 24.0638 22.4119 24.0488C22.1969 24.0288 22.0099 24.0088 21.8509 23.9888C21.4469 23.9358 21.2649 23.7058 21.3069 23.3008C21.4499 21.8508 22.1709 21.0948 23.4709 21.0318C24.1869 20.9968 24.5509 20.9788 24.5659 20.9768C26.0229 20.7928 27.0459 20.6018 27.6339 20.4048C28.7947 20.0214 29.827 19.3248 30.6169 18.3918C31.2269 17.6758 31.5309 16.8718 31.5249 15.9808C31.5226 15.4645 31.348 14.9637 31.0289 14.5578C30.4289 13.7648 29.5839 13.1578 28.4969 12.7378C27.6969 12.4278 26.9569 12.2098 26.2799 12.0828C25.8099 11.9948 25.0459 11.9218 23.9879 11.8628C22.3175 11.7722 20.6421 11.8418 18.9849 12.0708C18.8926 12.0836 18.808 12.1292 18.7466 12.1994C18.6852 12.2696 18.6513 12.3596 18.6509 12.4528V17.5668C18.6509 18.0228 18.4569 18.3718 18.0709 18.6128Z" fill="#1F212C"/>
<path d="M23.2499 17.0878C23.9099 17.2198 24.6359 17.2538 25.4269 17.1898C25.6849 17.1688 25.8759 17.1258 25.9989 17.0628C26.2719 16.9208 26.3039 16.7028 26.0919 16.4098C26.0718 16.382 26.0463 16.3586 26.0169 16.3408C25.9878 16.324 25.9554 16.3138 25.9219 16.3108L23.8069 16.0998C23.3989 16.0578 23.2749 15.8458 23.4349 15.4618C23.6669 14.9018 24.0919 14.6208 24.7109 14.6178C25.6279 14.6098 26.3939 14.9228 27.0089 15.5548C27.3939 15.9488 27.5659 16.3898 27.5229 16.8778C27.4849 17.3078 27.2899 17.6958 26.9389 18.0378C26.6489 18.3208 26.3089 18.5218 25.9159 18.6418C25.6459 18.7248 25.2639 18.7538 24.7679 18.7318C23.5049 18.6718 22.6879 18.6098 22.3179 18.5448C21.9029 18.4718 21.6029 18.2608 21.4189 17.9108C21.3059 17.6958 21.2559 17.3628 21.2689 16.9138C21.2889 16.1808 21.3209 15.4478 21.3619 14.7148C21.3653 14.6563 21.3902 14.601 21.4319 14.5598C21.452 14.5405 21.4759 14.5255 21.5019 14.5158C21.5275 14.5065 21.5548 14.5027 21.5819 14.5048L22.3649 14.5648C22.6009 14.5828 22.7569 14.7158 22.8329 14.9648C22.9749 15.4228 22.9809 15.9248 22.8529 16.4698C22.7719 16.8128 22.9039 17.0188 23.2499 17.0878Z" fill="#1F212C"/>
</svg>
