<svg width="50" height="40" viewBox="0 0 50 40" fill="none" xmlns="http://www.w3.org/2000/svg">
<path opacity="0.3" d="M49.2424 13.8442C49.2424 5.02041 43.738 0 37.6384 0C32.134 0 27.5222 4.71615 27.5222 10.4972C27.5222 16.1262 31.3902 20.0817 36.4483 20.0817C37.3409 20.0817 38.5311 19.7774 38.9774 19.6253C37.936 24.7978 33.0266 31.0353 28.266 33.9258L35.2582 39.859C43.4404 33.9258 49.2424 24.3414 49.2424 13.8442ZM21.7202 13.8442C21.7202 5.02041 16.2158 0 10.1163 0C4.61183 0 0 4.71615 0 10.4972C0 16.1262 3.86798 20.0817 8.92611 20.0817C9.81873 20.0817 11.0089 19.7774 11.4552 19.6253C10.4138 24.7978 5.50444 31.0353 0.743843 33.9258L7.73597 39.859C15.9182 33.9258 21.7202 24.3414 21.7202 13.8442Z" fill="#658EC3"/>
</svg>
