<svg width="76" height="67" viewBox="0 0 76 67" fill="none" xmlns="http://www.w3.org/2000/svg">
<path d="M26.526 55.0109C26.41 55.5189 26.357 56.2389 26.368 57.1709C26.392 59.1279 26.357 61.2499 26.264 63.5359C26.2611 63.6103 26.2337 63.6817 26.1859 63.7389C26.1381 63.7961 26.0728 63.8358 26 63.8519C25.878 63.8789 25.736 63.8039 25.574 63.6269C25.072 63.0819 24.846 62.4199 24.897 61.6409C24.9097 61.5271 24.889 61.4121 24.8373 61.31C24.7856 61.2078 24.7052 61.123 24.606 61.0659C22.2129 59.5627 19.9148 57.9133 17.725 56.1269C17.1203 55.6351 16.5494 55.1032 16.016 54.5349C15.4579 53.9349 14.7929 53.4442 14.055 53.0879C13.7186 52.9342 13.4005 52.743 13.107 52.5179C12.7577 52.2377 12.412 51.953 12.07 51.6639C11.863 51.4889 11.65 51.4809 11.43 51.6419C11.043 51.9279 10.641 52.1919 10.227 52.4349C8.51869 53.4317 6.82126 54.4471 5.13501 55.4809C3.53227 56.4653 1.90055 57.4017 0.242012 58.2889C0.0160124 58.4099 -0.0509876 58.3499 0.0380124 58.1089C0.188012 57.7109 0.438012 57.3869 0.791012 57.1369C1.55101 56.5989 2.32101 56.0749 3.10101 55.5659C5.60615 53.9316 8.15648 52.3677 10.749 50.8759C10.7757 50.8603 10.7979 50.8381 10.8137 50.8115C10.8294 50.7849 10.8382 50.7548 10.839 50.7239C10.84 50.693 10.8331 50.6623 10.8191 50.6347C10.8052 50.6071 10.7845 50.5834 10.759 50.5659C10.6032 50.4605 10.4666 50.3293 10.355 50.1779C10.2513 50.0272 10.2 49.8466 10.209 49.6639C10.214 48.8889 10.259 48.1169 10.345 47.3499C10.463 46.2899 10.531 45.5199 10.55 45.0429C10.664 42.1689 10.718 40.0749 10.714 38.7609C10.701 35.5409 10.744 32.5369 10.84 29.7469C10.877 28.6789 10.97 27.5819 11.121 26.4559C11.247 25.5079 11.321 24.6929 11.341 24.0119C11.384 22.5669 11.424 21.1219 11.459 19.6769C11.467 19.3269 11.489 18.9819 11.523 18.6429L11.633 17.6129C11.6415 17.53 11.628 17.4464 11.5939 17.3704C11.5599 17.2944 11.5065 17.2287 11.439 17.1799C10.55 16.5439 9.67901 15.8999 8.82301 15.2499L6.83701 13.7629C5.69852 12.9121 4.60158 12.007 3.55001 11.0509C3.28501 10.8109 3.25601 10.5349 3.46401 10.2229C3.47739 10.203 3.495 10.1862 3.51559 10.1739C3.53618 10.1616 3.55925 10.1539 3.58313 10.1515C3.60701 10.1492 3.63113 10.1521 3.65375 10.1601C3.67638 10.1681 3.69695 10.181 3.71401 10.1979C3.95401 10.4349 4.21501 10.6389 4.49901 10.8119C5.05601 11.1479 5.59601 11.5099 6.12001 11.8949C7.90286 13.2087 9.66867 14.5455 11.417 15.9049C11.947 16.3149 12.47 16.6709 12.987 16.9699C13.227 17.1079 13.453 17.0899 13.667 16.9119C13.985 16.6489 14.301 16.4159 14.614 16.2119C19.8995 12.7635 25.3363 9.5526 30.908 6.58888C30.9868 6.54423 31.0543 6.48194 31.105 6.40688L31.728 5.55088C31.964 5.22688 32.127 5.26588 32.218 5.66788C32.27 5.90688 32.302 6.22588 32.312 6.62788C32.337 7.60088 32.394 8.59088 32.485 9.59888C32.4878 9.62934 32.4983 9.65859 32.5154 9.68393C32.5326 9.70928 32.5558 9.7299 32.583 9.74388C32.6099 9.75764 32.6398 9.76422 32.6699 9.76299C32.7001 9.76177 32.7294 9.75277 32.755 9.73688L36.071 7.62088C36.1809 7.55378 36.2716 7.45961 36.3347 7.34737C36.3977 7.23514 36.4309 7.10861 36.431 6.97988C36.478 5.84088 36.575 4.67188 36.721 3.47088C36.899 2.00088 36.997 0.938883 37.013 0.281883C37.0128 0.226064 37.0335 0.172183 37.071 0.130883C37.211 -0.0171174 37.38 -0.0371175 37.574 0.0678824C37.596 0.0798825 37.614 0.0978824 37.628 0.120882C37.6417 0.143998 37.6496 0.170069 37.651 0.196883C37.751 2.23988 37.759 4.38788 37.676 6.64088C37.672 6.76088 37.718 6.78688 37.815 6.71788C38.031 6.56488 38.229 6.42888 38.407 6.31088C38.56 6.21088 38.773 6.10688 39.047 6.00088C39.399 5.86588 39.732 5.68788 40.045 5.46888C40.247 5.32788 40.331 5.35588 40.297 5.55488C40.249 5.83888 40.198 6.12388 40.144 6.40788C40.09 6.70088 40.164 6.93588 40.368 7.11188L40.533 7.25688C42.6257 9.33361 44.7903 11.3365 47.023 13.2619C47.604 13.763 48.1761 14.2744 48.739 14.7959C48.843 14.8929 48.89 14.8809 48.879 14.7609C48.8751 14.7257 48.8612 14.6924 48.839 14.6649C48.599 14.3619 48.472 14.1169 48.461 13.9309C48.432 13.4689 48.404 12.1229 48.377 9.89088C48.368 9.15788 48.453 8.51388 48.633 7.96088C48.731 7.66088 48.88 7.47488 49.081 7.40288C49.343 7.30888 49.614 7.40188 49.892 7.67988C51.986 9.77688 54.348 11.9349 56.979 14.1549C57.622 14.6979 58.499 15.4049 59.609 16.2759C61.0466 17.403 62.4726 18.5448 63.887 19.7009C63.9658 19.7743 64.0675 19.8183 64.1749 19.8256C64.2824 19.8329 64.389 19.803 64.477 19.7409C66.721 18.3569 68.9897 17.0134 71.282 15.7109C72.7209 14.8921 74.1986 14.1436 75.71 13.4679C75.7468 13.4517 75.7885 13.4505 75.8262 13.4645C75.8639 13.4785 75.8946 13.5066 75.912 13.5429C75.9898 13.699 76.0171 13.8755 75.99 14.0479C75.9855 14.0741 75.9752 14.099 75.96 14.1209C75.944 14.1434 75.9236 14.1625 75.9 14.1769C72.263 16.4253 68.5771 18.5939 64.845 20.6809C64.8117 20.6994 64.7831 20.7256 64.7618 20.7572C64.7404 20.7888 64.7268 20.825 64.722 20.8629C64.672 21.2289 64.647 21.5549 64.646 21.8389C64.616 28.0639 64.604 34.3189 64.611 40.6019C64.611 40.6266 64.6028 40.6505 64.5875 40.6699C64.5723 40.6893 64.551 40.703 64.527 40.7089C64.326 40.7599 64.133 40.7879 63.947 40.7929C63.558 40.8019 63.36 40.6069 63.353 40.2069C63.3545 40.0783 63.3305 39.9507 63.2824 39.8314C63.2344 39.7121 63.1632 39.6035 63.073 39.5119C63.0312 39.4757 62.981 39.4506 62.927 39.4389L62.003 39.1629C61.9836 39.157 61.9631 39.1553 61.943 39.1579C61.9238 39.1605 61.9053 39.1673 61.889 39.1779C61.8731 39.1881 61.86 39.2022 61.851 39.2189C61.8421 39.2351 61.8376 39.2534 61.838 39.2719C61.919 43.0419 61.963 46.7269 61.97 50.3269C61.97 51.1109 61.942 51.8109 61.884 52.4259C61.874 52.5189 61.814 52.7539 61.7 53.1309C61.623 53.3889 61.611 53.6589 61.665 53.9429C61.735 54.3079 61.63 54.5889 61.347 54.7879C60.957 55.0609 60.578 55.3369 60.212 55.6139C60.1807 55.6378 60.1554 55.6687 60.138 55.7041C60.1207 55.7395 60.1118 55.7785 60.112 55.8179C60.1117 55.8573 60.1205 55.8964 60.1377 55.9319C60.1548 55.9674 60.1799 55.9986 60.211 56.0229L66.075 60.5529C66.9771 61.2501 67.8191 62.0218 68.592 62.8599C68.6118 62.8806 68.6277 62.9046 68.639 62.9309C68.649 62.9569 68.655 62.9839 68.654 63.0089C68.653 63.1919 68.567 63.2479 68.398 63.1779C67.646 62.8679 66.816 62.3749 65.908 61.6979C63.5671 59.9502 61.2374 58.1875 58.919 56.4099C58.8911 56.3887 58.8573 56.3768 58.8223 56.3759C58.7873 56.3751 58.7529 56.3852 58.724 56.4049C58.112 56.8329 57.489 57.2209 56.858 57.5689C56.4898 57.7695 56.1447 58.0099 55.829 58.2859C55.16 58.8739 54.581 59.3209 54.09 59.6279C51.3167 61.3597 48.5444 63.093 45.773 64.8279C45.402 65.0579 45.036 65.2989 44.677 65.5479C44.326 65.7899 44.019 65.9319 43.755 65.9739C43.4034 66.0352 43.0417 66.0007 42.708 65.8739C42.615 65.8421 42.5348 65.7809 42.4796 65.6996C42.4244 65.6182 42.3972 65.5211 42.402 65.4229L42.319 59.1209C42.317 58.9609 42.261 58.9399 42.152 59.0569C41.4257 59.8452 40.6144 60.5509 39.733 61.1609C38.5487 61.9762 37.3586 62.7832 36.163 63.5819C35.723 63.8769 35.293 63.9919 34.876 63.9259C34.592 63.8809 34.241 63.6679 33.824 63.2859C31.3967 61.0731 29.1127 58.708 26.986 56.2049C26.719 55.8889 26.614 55.5489 26.673 55.1849C26.689 55.0849 26.671 55.0149 26.621 54.9699C26.6138 54.9633 26.6047 54.9591 26.595 54.9579C26.5851 54.9569 26.575 54.9586 26.566 54.9629C26.5562 54.9675 26.5476 54.9743 26.541 54.9829C26.5339 54.9917 26.5288 55.0019 26.526 55.0129V55.0109ZM22.956 17.7289C23.575 18.1829 24.172 18.6669 24.749 19.1819C28.2134 22.2773 31.6502 25.4034 35.059 28.5599C35.0873 28.5862 35.1247 28.6005 35.1633 28.5997C35.2019 28.599 35.2388 28.5833 35.266 28.5559C35.536 28.2959 35.804 28.0749 36.071 27.8949C40.5261 24.8824 45.0666 21.9982 49.687 19.2459C50.056 19.0269 50.456 18.8229 50.887 18.6339C50.9072 18.6253 50.9247 18.6115 50.9379 18.5939C50.9511 18.5764 50.9594 18.5557 50.962 18.5339C50.9647 18.512 50.9618 18.4899 50.9533 18.4695C50.9449 18.4492 50.9314 18.4314 50.914 18.4179C49.3387 17.1702 47.7743 15.9088 46.221 14.6339C45.3502 13.9182 44.5001 13.1776 43.672 12.4129C42.3347 11.1771 41.0007 9.93773 39.67 8.69488C39.3253 8.36617 39.0227 7.99601 38.769 7.59288C38.7617 7.5809 38.7518 7.57071 38.7401 7.56309C38.7283 7.55547 38.7149 7.55061 38.701 7.54888C38.687 7.54704 38.6727 7.54832 38.6592 7.55265C38.6457 7.55697 38.6334 7.56422 38.623 7.57388L37.804 8.31588C37.7623 8.35169 37.732 8.39899 37.717 8.45188C37.635 8.74188 37.583 9.10788 37.562 9.54988C37.4229 12.3735 37.2496 15.1954 37.042 18.0149C37.0376 18.0749 37.015 18.1322 36.977 18.1789C36.9398 18.2249 36.8891 18.2582 36.832 18.2739C36.632 18.3269 36.485 18.2979 36.391 18.1869C36.33 18.1169 36.299 17.9919 36.298 17.8109C36.268 15.1409 36.283 12.4399 36.343 9.70888C36.351 9.38488 36.22 9.31188 35.951 9.48688C31.7163 12.2561 27.3895 14.8819 22.978 17.3599C22.9297 17.3872 22.8935 17.4317 22.8768 17.4846C22.8601 17.5375 22.8641 17.5948 22.888 17.6449C22.9033 17.6781 22.9267 17.707 22.956 17.7289ZM23.424 24.3009C23.574 24.6139 23.474 24.8709 23.126 25.0749C22.466 25.4609 21.79 25.8009 21.099 26.0919C21.0906 26.0956 21.0832 26.1015 21.0776 26.1088C21.0721 26.1161 21.0684 26.1248 21.067 26.1339C21.0653 26.1431 21.066 26.1526 21.069 26.1616C21.072 26.1705 21.0771 26.1785 21.084 26.1849L24.066 28.8439C24.1191 28.8914 24.1859 28.921 24.2567 28.9286C24.3276 28.9361 24.3991 28.9212 24.461 28.8859L29.567 26.0559C29.5918 26.0422 29.6131 26.0229 29.6292 25.9996C29.6452 25.9763 29.6556 25.9495 29.6595 25.9214C29.6634 25.8934 29.6607 25.8648 29.6515 25.8379C29.6424 25.8111 29.6272 25.7868 29.607 25.7669C28.7608 24.9355 27.8932 24.1263 27.005 23.3399L26.821 23.1509C26.609 22.9319 26.366 22.9269 26.092 23.1359C25.834 23.3329 25.567 23.5159 25.291 23.6869C24.913 23.9209 24.576 23.8829 24.279 23.5749C24.2298 23.5231 24.2031 23.4539 24.2048 23.3825C24.2065 23.3111 24.2364 23.2433 24.288 23.1939C24.678 22.8259 25.081 22.5299 25.5 22.3039C25.5304 22.2874 25.5563 22.2638 25.5755 22.235C25.5947 22.2063 25.6065 22.1733 25.61 22.1389C25.6137 22.1042 25.6091 22.0692 25.5965 22.0367C25.584 22.0042 25.564 21.9751 25.538 21.9519C24.3317 20.8847 23.1011 19.8454 21.847 18.8349C21.4494 18.5126 20.9737 18.3012 20.468 18.2219C20.3903 18.2098 20.3189 18.1722 20.265 18.1149C20.2404 18.0889 20.2213 18.0583 20.2087 18.0248C20.1962 17.9913 20.1905 17.9556 20.192 17.9199L20.242 16.9499C20.2487 16.8771 20.2822 16.8094 20.336 16.7599C20.3974 16.701 20.4733 16.6596 20.556 16.6399C21.2636 16.4706 21.9451 16.2065 22.582 15.8549C25.29 14.3349 27.973 12.7379 30.63 11.0639C30.856 10.9219 30.96 10.7319 30.945 10.4929L30.825 8.60788C30.818 8.48888 30.763 8.46388 30.662 8.53288C29.8791 9.07033 29.0719 9.57152 28.243 10.0349C23.673 12.5909 19.1822 15.2862 14.777 18.1169C14.31 18.4169 13.878 18.8319 13.481 19.3619C13.2741 19.6219 13.0348 19.8544 12.769 20.0539C12.7482 20.0703 12.731 20.0908 12.7186 20.1143C12.7062 20.1377 12.6989 20.1634 12.697 20.1899C12.627 21.2359 12.627 22.2809 12.695 23.3259C12.755 24.2199 12.755 25.1129 12.695 26.0059C12.622 27.0965 12.627 28.191 12.71 29.2809C12.747 29.7759 12.767 30.2579 12.77 30.7259C12.773 31.2079 12.789 31.6899 12.818 32.1719C12.836 32.4669 12.99 32.6259 13.281 32.6479C13.438 32.6609 13.601 32.7139 13.772 32.8079C13.888 32.8729 14.02 32.9789 14.168 33.1279C14.493 33.4569 14.811 33.7929 15.122 34.1379C15.1529 34.1732 15.1954 34.1962 15.2418 34.2028C15.2883 34.2094 15.3355 34.1991 15.375 34.1739C17.2248 33.0085 19.1121 31.9039 21.034 30.8619C21.357 30.6879 21.326 30.5849 20.94 30.5549C20.574 30.5249 20.352 30.3289 20.275 29.9659C20.145 29.3489 20.0979 28.7173 20.135 28.0879C20.1365 28.0615 20.144 28.0359 20.157 28.0129C20.1703 27.9904 20.1888 27.9715 20.211 27.9579C20.549 27.7479 20.797 27.7699 20.955 28.0259C21.008 28.1109 21.083 28.3189 21.18 28.6519C21.36 29.2539 21.416 29.8319 21.349 30.3879C21.326 30.5739 21.396 30.6199 21.559 30.5279L23.094 29.6569C23.121 29.6412 23.1417 29.6168 23.1529 29.5877C23.164 29.5586 23.1647 29.5265 23.155 29.4969C23.1485 29.4776 23.1376 29.4601 23.123 29.4459C22.6202 28.9594 22.0999 28.4915 21.563 28.0429C21.3516 27.8726 21.1808 27.6574 21.063 27.4129C20.9453 27.164 20.8401 26.9093 20.748 26.6499C20.7288 26.5981 20.6933 26.5539 20.647 26.5239C20.244 26.2609 20.147 25.9639 20.354 25.6339C20.438 25.5009 20.624 25.3479 20.909 25.1769C21.119 25.0509 21.322 24.9149 21.519 24.7699C21.947 24.4539 22.489 24.2469 23.141 24.1499C23.1981 24.1415 23.2564 24.1516 23.3074 24.1788C23.3583 24.206 23.3992 24.2488 23.424 24.3009ZM51.23 25.9689C51.2402 25.9492 51.2543 25.9318 51.2715 25.9179C51.2887 25.9039 51.3086 25.8937 51.33 25.8879C51.3515 25.8818 51.3741 25.8804 51.3962 25.8839C51.4183 25.8873 51.4394 25.8955 51.458 25.9079C52.2016 26.4003 52.8817 26.9823 53.483 27.6409C53.688 27.8669 53.813 28.1109 53.86 28.3759C53.93 28.7819 53.933 29.1959 53.868 29.6159C53.801 30.0519 53.945 30.4109 54.301 30.6919C55.215 31.4159 57.11 32.9589 59.985 35.3219C60.163 35.4679 60.354 35.5929 60.555 35.6979C60.778 35.8119 60.954 35.9459 61.085 36.0989C61.715 36.8439 62.389 37.5479 63.108 38.2089C63.184 38.2799 63.222 38.2629 63.222 38.1589L63.18 21.1239C63.1802 21.0975 63.1748 21.0713 63.1641 21.0472C63.1534 21.0231 63.1377 21.0015 63.118 20.9839C62.5828 20.4979 61.986 20.0844 61.343 19.7539C61.0252 19.5901 60.7261 19.3922 60.451 19.1639C58.031 17.1589 55.611 15.1539 53.191 13.1509C52.098 12.2456 51.0525 11.2844 50.059 10.2709C49.976 10.1859 49.93 10.2029 49.922 10.3229C49.867 11.2339 49.867 12.1529 49.921 13.0779C49.962 13.7749 49.863 14.5039 49.623 15.2649C49.609 15.3102 49.6092 15.3587 49.6235 15.4039C49.6378 15.4491 49.6655 15.4889 49.703 15.5179C50.526 16.1279 51.268 16.7469 51.929 17.3739C52.139 17.5739 52.391 17.6859 52.681 17.7089C53.08 17.7389 53.273 17.9239 53.261 18.2669C53.2582 18.4911 53.1847 18.7088 53.051 18.8889C52.981 18.9819 52.811 19.0979 52.543 19.2359C52.275 19.3759 51.935 19.5879 51.523 19.8719C50.766 20.3949 49.973 20.8559 49.143 21.2549C48.995 21.3259 48.997 21.3919 49.15 21.4499C49.445 21.5619 49.647 21.7929 49.756 22.1459C49.853 22.4649 49.896 22.8859 49.884 23.4109C49.8569 24.5123 49.8489 25.6142 49.86 26.7159C49.86 26.7739 49.875 26.8289 49.904 26.8759C50.227 27.3979 50.641 27.8109 51.144 28.1159C51.339 28.2339 51.546 28.3159 51.767 28.3609C52.267 28.4629 52.535 28.6659 52.57 28.9689C52.581 29.0769 52.603 29.1829 52.634 29.2859C52.714 29.5559 52.802 29.6479 52.898 29.5609C52.9563 29.4993 52.9955 29.4222 53.011 29.3389C53.109 28.9529 53.006 28.6389 52.701 28.3959C52.298 28.0808 51.9324 27.7208 51.611 27.3229C51.371 27.0219 51.231 26.8279 51.19 26.7429C51.077 26.5009 51.09 26.2429 51.23 25.9689ZM48.1 23.0909C48.19 23.0869 48.273 23.0169 48.331 22.8969C48.3924 22.7573 48.4191 22.605 48.409 22.4529C48.4047 22.3003 48.3636 22.1511 48.289 22.0179C48.219 21.9039 48.13 21.8429 48.041 21.8479C47.951 21.8519 47.868 21.9219 47.811 22.0409C47.7495 22.1808 47.7228 22.3334 47.733 22.4859C47.7373 22.6384 47.7785 22.7877 47.853 22.9209C47.923 23.0339 48.011 23.0949 48.101 23.0909H48.1ZM21.309 35.7379L20.597 35.6469C20.531 35.6374 20.4706 35.6043 20.427 35.5539C20.3791 35.4991 20.3487 35.4312 20.34 35.3589C20.2522 34.6136 20.2308 33.862 20.276 33.1129C20.283 32.9869 20.231 32.9569 20.123 33.0229L16.877 35.0139C16.595 35.1879 16.569 35.3889 16.798 35.6179L19.932 38.7419C20.025 38.8349 20.081 38.8139 20.099 38.6769L20.262 37.4289C20.2729 37.3487 20.314 37.2757 20.377 37.2249C20.4421 37.1723 20.5234 37.144 20.607 37.1449C20.844 37.1459 21.027 37.1929 21.154 37.2849C21.267 37.3649 21.327 37.5199 21.336 37.7499C21.3601 38.3835 21.2641 39.016 21.053 39.6139C21.0448 39.6381 21.0437 39.6641 21.05 39.6889C21.0558 39.7131 21.0687 39.735 21.087 39.7519L22.831 41.3579C22.8543 41.3799 22.8844 41.3931 22.9164 41.3953C22.9483 41.3975 22.98 41.3885 23.006 41.3699C24.0747 40.6244 25.2154 39.9878 26.411 39.4699C26.551 39.4099 26.668 39.4019 26.76 39.4459C26.893 39.5099 26.958 39.6319 26.953 39.8129C26.9513 39.8689 26.9285 39.9221 26.889 39.9619C26.173 40.7379 25.359 41.2909 24.444 41.6199C24.158 41.7229 24.002 41.9029 23.976 42.1599C23.9729 42.1863 23.9764 42.2131 23.986 42.2379C23.9959 42.2641 24.0113 42.288 24.031 42.3079C24.486 42.7579 24.932 43.2159 25.371 43.6789C25.655 43.9789 25.997 44.2199 26.396 44.4009C26.656 44.5169 26.79 44.6869 26.8 44.9089L26.857 46.1929C26.8577 46.2057 26.8614 46.2182 26.8678 46.2293C26.8742 46.2405 26.8832 46.2499 26.894 46.2569C26.9043 46.2637 26.9163 46.2676 26.9287 46.2679C26.9411 46.2683 26.9533 46.2651 26.964 46.2589L34.262 41.9959C34.2912 41.9793 34.3148 41.9543 34.3296 41.9242C34.3444 41.894 34.3498 41.8601 34.345 41.8269C34.2144 40.9357 34.1875 40.0323 34.265 39.1349C34.2697 39.084 34.2627 39.0327 34.2447 38.9849C34.2267 38.9371 34.1981 38.894 34.161 38.8589C33.739 38.4689 33.588 38.0519 33.708 37.6079C33.7154 37.5823 33.7282 37.5587 33.7457 37.5387C33.7631 37.5187 33.7847 37.5027 33.809 37.4919C34.045 37.3919 34.213 37.4629 34.313 37.7079C34.417 37.9659 34.514 38.1549 34.603 38.2729C34.618 38.2899 34.639 38.3029 34.663 38.3059C34.687 38.309 34.7114 38.3037 34.732 38.2909C35.4362 37.8583 36.1507 37.4429 36.875 37.0449C37.315 36.8029 37.574 36.6719 37.649 36.6499C37.952 36.5659 38.257 36.6219 38.565 36.8169C38.6082 36.8444 38.6397 36.8867 38.6537 36.9359C38.6678 36.9851 38.6632 37.0378 38.641 37.0839C38.6267 37.1146 38.605 37.1414 38.578 37.1619C37.8349 37.7216 37.0415 38.2114 36.208 38.6249C35.8846 38.7895 35.5395 38.9073 35.183 38.9749C35.1439 38.9819 35.1085 39.0025 35.083 39.0329C35.0582 39.0622 35.0447 39.0995 35.045 39.1379L35.079 41.4599C35.079 41.5519 35.119 41.5699 35.195 41.5139C36.1495 40.8138 37.1982 40.2522 38.31 39.8459C38.54 39.7619 38.745 39.7499 38.928 39.8079C39.134 39.8739 39.324 39.9779 39.5 40.1199C41.3742 41.6318 43.1823 43.2239 44.919 44.8919C44.9544 44.9262 45.0004 44.9475 45.0494 44.9523C45.0985 44.957 45.1477 44.9449 45.189 44.9179L52.707 40.0179C53.249 39.6639 53.897 39.2319 54.48 38.8919L58.786 36.3829C58.896 36.3189 58.893 36.2599 58.777 36.2079C58.5824 36.1195 58.4021 36.0025 58.242 35.8609L57.83 35.4989C56.6238 34.5553 55.4434 33.5793 54.29 32.5719C54.2693 32.5536 54.2444 32.5408 54.2175 32.5345C54.1907 32.5282 54.1627 32.5287 54.136 32.5359C54.109 32.5431 54.0841 32.5565 54.0632 32.5751C54.0424 32.5937 54.0262 32.6169 54.016 32.6429L53.606 33.6689C53.506 33.9229 53.407 33.9159 53.312 33.6489C53.162 33.2279 53.09 32.7069 53.093 32.0849C53.0969 31.9966 53.081 31.9085 53.0464 31.8272C53.0118 31.7458 52.9594 31.6733 52.893 31.6149L51.1 30.0669C50.874 29.8719 50.637 29.8689 50.388 30.0589C50.229 30.1779 50.05 30.2929 49.851 30.4039C49.7357 30.4755 49.6027 30.5136 49.467 30.5139C49.246 30.5039 49.145 30.3839 49.166 30.1559C49.186 29.9289 49.266 29.7269 49.408 29.5499C49.885 28.9519 49.783 28.6149 49.103 28.5399C48.725 28.4979 48.519 28.2859 48.486 27.9039C48.4113 27.0033 48.3886 26.0991 48.418 25.1959C48.425 24.9589 48.381 24.7669 48.287 24.6199C48.282 24.6129 48.153 24.4799 47.9 24.2179C47.54 23.8509 47.152 23.4919 46.733 23.1419C46.565 23.0019 46.389 22.9909 46.206 23.1119L39.906 27.2519C39.8634 27.2804 39.8275 27.318 39.801 27.3619C39.7717 27.4102 39.7514 27.4634 39.741 27.5189L39.487 28.8259C39.4751 28.8788 39.4437 28.9252 39.399 28.9559C38.861 29.3519 38.477 29.2329 38.248 28.5979C38.2368 28.5665 38.2184 28.5382 38.1943 28.5153C38.1701 28.4923 38.1409 28.4754 38.109 28.4659C38.0774 28.4566 38.044 28.4551 38.0117 28.4614C37.9793 28.4676 37.9489 28.4815 37.923 28.5019C37.363 28.9449 36.812 29.3499 36.27 29.7189C35.933 29.9489 35.617 30.0889 35.32 30.1419C35.108 30.1809 34.986 30.0919 34.952 29.8749C34.9296 29.6949 34.8492 29.5271 34.723 29.3969C34.631 29.3039 34.481 29.2359 34.273 29.1909C34.119 29.1579 33.963 29.1269 33.807 29.0979C33.6531 29.0692 33.5058 29.0118 33.373 28.9289C32.5366 28.3985 31.741 27.8061 30.993 27.1569C30.83 27.0159 30.665 27.0109 30.496 27.1439C30.1501 27.4195 29.7822 27.6663 29.396 27.8819C27.2036 29.0907 25.0179 30.3117 22.839 31.5449C22.417 31.7849 21.979 31.9929 21.524 32.1709C21.4757 32.1907 21.4352 32.226 21.409 32.2712C21.3828 32.3164 21.3722 32.3691 21.379 32.4209C21.53 33.4719 21.537 34.5459 21.402 35.6439C21.4005 35.6574 21.3968 35.6706 21.391 35.6829C21.3856 35.6944 21.3781 35.7049 21.369 35.7139C21.3606 35.7226 21.3503 35.7295 21.339 35.7339C21.329 35.7369 21.319 35.7389 21.307 35.7369L21.309 35.7379ZM12.127 40.6319C12.147 42.7719 12.107 44.9119 12.007 47.0479C11.9863 47.4481 11.9689 47.8484 11.955 48.2489C11.979 48.6719 12.087 49.0639 12.28 49.4239C12.392 49.6349 12.556 49.6899 12.772 49.5879C14.4147 48.8057 16.0204 47.9481 17.584 47.0179C17.778 46.9019 17.984 46.8259 18.199 46.7899C18.414 46.7539 18.592 46.7969 18.732 46.9209C18.914 47.0799 18.93 47.2599 18.779 47.4609C18.712 47.5539 18.589 47.6529 18.411 47.7589C16.8182 48.7055 15.1992 49.6076 13.556 50.4639C13.5327 50.4761 13.5128 50.4937 13.4978 50.5153C13.4828 50.5369 13.4733 50.5618 13.47 50.5879C13.4664 50.614 13.4691 50.6406 13.4777 50.6654C13.4864 50.6903 13.5009 50.7127 13.52 50.7309C14.451 51.6089 15.46 52.4739 16.549 53.3239C17.8565 54.3467 19.1773 55.3525 20.511 56.3409L21.834 57.2669C22.8604 57.9863 23.803 58.8185 24.644 59.7479C24.778 59.8949 24.844 59.8679 24.842 59.6679C24.789 55.0519 24.795 50.2479 24.861 45.2579C24.8616 45.2121 24.852 45.1668 24.8328 45.1253C24.8136 45.0837 24.7853 45.047 24.75 45.0179C22.7836 43.4033 20.8773 41.7168 19.035 39.9619C17.1005 38.1192 15.1681 36.2742 13.238 34.4269C12.9753 34.1864 12.6659 34.0026 12.329 33.8869C12.3177 33.8827 12.3055 33.881 12.2935 33.8818C12.2814 33.8827 12.2697 33.8861 12.259 33.8919C12.2485 33.8979 12.2393 33.9061 12.2323 33.9159C12.2252 33.9257 12.2203 33.937 12.218 33.9489C12.1247 34.3843 12.0794 34.8286 12.083 35.2739C12.097 37.0599 12.111 38.8459 12.127 40.6319ZM53.447 50.9379C54.6372 51.7498 55.786 52.6209 56.889 53.5479C57.052 53.6829 57.367 53.9059 57.837 54.2159L58.117 54.4279C58.2465 54.5352 58.405 54.6018 58.5723 54.619C58.7396 54.6363 58.9083 54.6035 59.057 54.5249C59.487 54.3209 60.001 53.9869 60.6 53.5229C60.6203 53.5073 60.6362 53.4866 60.646 53.4629C60.6557 53.4388 60.6591 53.4127 60.656 53.3869C60.5215 52.2441 60.4687 51.0932 60.498 49.9429C60.554 47.0279 60.496 43.9099 60.323 40.5889C60.284 39.8529 60.313 39.1209 60.407 38.3919C60.4362 38.1099 60.4162 37.825 60.348 37.5499C60.341 37.5199 60.3274 37.4919 60.3082 37.4678C60.289 37.4438 60.2647 37.4243 60.237 37.4109C60.2093 37.3978 60.1789 37.3912 60.1482 37.3917C60.1175 37.3923 60.0873 37.3998 60.06 37.4139C58.6468 38.1399 57.2802 38.9532 55.968 39.8489C55.0418 40.4883 54.1097 41.1194 53.172 41.7419C51.16 43.0239 49.145 44.3019 47.126 45.5739C45.8732 46.3653 44.6402 47.1875 43.428 48.0399C43.3452 48.0952 43.2771 48.1697 43.2296 48.2572C43.182 48.3446 43.1564 48.4423 43.155 48.5419C43.121 49.2799 43.158 50.0579 43.265 50.8749C43.515 52.7969 43.67 54.7249 43.732 56.6609C43.81 59.0839 43.815 61.5029 43.749 63.9179C43.749 63.9279 43.751 63.9379 43.756 63.9479C43.7605 63.9566 43.767 63.964 43.775 63.9696C43.7831 63.9752 43.7923 63.9787 43.802 63.9799C43.812 63.9809 43.821 63.9799 43.83 63.9759C45.0352 63.4864 46.18 62.8599 47.242 62.1089C49.4048 60.5793 51.6262 59.1342 53.901 57.7769C54.242 57.5739 54.529 57.3819 54.763 57.1999L55.33 56.7599C56.0275 56.272 56.7586 55.8343 57.518 55.4499C57.5387 55.4395 57.5546 55.4216 57.5625 55.3998C57.5703 55.378 57.5694 55.354 57.56 55.3329C57.5538 55.3193 57.5442 55.3076 57.532 55.2989C56.1189 54.249 54.7075 53.1966 53.298 52.1419C53.048 51.9539 52.877 51.7949 52.785 51.6639C52.505 51.2659 52.675 51.0119 53.292 50.9019C53.3464 50.8935 53.4019 50.9064 53.447 50.9379ZM27.48 48.8219C27.844 49.1429 28.222 49.4439 28.615 49.7239C28.655 49.7519 28.709 49.7639 28.768 49.7579L29.315 49.6929C29.3424 49.6897 29.3702 49.6931 29.396 49.7029C29.421 49.7129 29.443 49.7289 29.46 49.7489C29.556 49.8659 29.538 49.9889 29.404 50.1189C29.2025 50.3161 29.0206 50.5324 28.861 50.7649C28.731 50.9539 28.576 50.9759 28.398 50.8309C27.9002 50.4301 27.358 50.0879 26.782 49.8109C26.774 49.8069 26.7652 49.805 26.7563 49.8053C26.7473 49.8057 26.7387 49.8083 26.731 49.8129C26.7232 49.8174 26.7166 49.8238 26.7119 49.8314C26.7072 49.8391 26.7045 49.8479 26.704 49.8569L26.495 54.2799C26.488 54.4379 26.614 54.5509 26.875 54.6199C27.326 54.7399 27.727 54.9419 28.076 55.2259C28.173 55.3039 28.479 55.6229 28.996 56.1819C30.957 58.3084 32.9655 60.3906 35.02 62.4269C35.0371 62.4434 35.0592 62.4536 35.0829 62.4558C35.1065 62.458 35.1302 62.452 35.15 62.4389C36.7856 61.3466 38.3951 60.2156 39.977 59.0469L40.937 58.3379C41.282 58.1379 41.668 58.0129 42.094 57.9639C42.1561 57.9569 42.2133 57.9272 42.2547 57.8805C42.2961 57.8337 42.3186 57.7733 42.318 57.7109C42.3206 56.7474 42.2578 55.7849 42.13 54.8299C41.9977 53.8534 41.9009 52.8724 41.84 51.8889C41.828 51.6779 41.737 51.6349 41.568 51.7589C40.994 52.1819 40.445 52.5969 39.92 53.0049C39.575 53.2699 39.301 53.2619 39.098 52.9809C38.951 52.7769 38.966 52.5859 39.142 52.4079C39.885 51.6569 40.694 51.0819 41.569 50.6809C41.6014 50.6652 41.629 50.6412 41.649 50.6113C41.669 50.5814 41.6808 50.5468 41.683 50.5109C41.727 49.7069 41.744 48.9179 41.734 48.1419C41.731 47.8689 41.759 47.6559 41.818 47.5039C41.901 47.2909 42.025 47.1089 42.188 46.9579C42.258 46.8949 42.501 46.7159 42.919 46.4229C43.163 46.2529 43.426 46.1009 43.709 45.9689C43.7268 45.9603 43.7422 45.9474 43.7538 45.9313C43.7653 45.9152 43.7726 45.8965 43.775 45.8769C43.7776 45.8573 43.7753 45.8374 43.7683 45.8189C43.7613 45.8004 43.7499 45.7839 43.735 45.7709L38.778 41.3989C38.618 41.2579 38.451 41.2459 38.277 41.3609C37.2405 42.054 36.161 42.6806 35.045 43.2369C35.0219 43.2484 35.0015 43.2646 34.985 43.2843C34.9685 43.3041 34.9562 43.3271 34.949 43.3519C34.9416 43.3766 34.9393 43.4025 34.9422 43.4281C34.9451 43.4537 34.9532 43.4785 34.966 43.5009C35.446 44.3509 35.577 45.3109 35.36 46.3809C35.3516 46.4225 35.3345 46.462 35.3099 46.4966C35.2853 46.5312 35.2536 46.5603 35.217 46.5819C34.9 46.7659 34.631 46.8169 34.41 46.7359C34.3876 46.7271 34.3687 46.7113 34.356 46.6909C34.3423 46.6683 34.335 46.6423 34.335 46.6159L34.277 44.0159C34.273 43.8019 34.18 43.7519 33.997 43.8679C31.8439 45.2213 29.635 46.4838 27.376 47.6519C27.2857 47.6939 27.1897 47.7222 27.091 47.7359C26.9898 47.7522 26.8927 47.7879 26.805 47.8409C26.7835 47.8544 26.7652 47.8725 26.7514 47.8939C26.7377 47.9153 26.7288 47.9395 26.7255 47.9647C26.7222 47.9899 26.7244 48.0155 26.7321 48.0397C26.7398 48.064 26.7527 48.0862 26.77 48.1049C27.026 48.3919 27.263 48.6309 27.48 48.8219Z" fill="#1F212C"/>
<path d="M38.72 30.5659H38.686C38.6334 30.5647 38.5811 30.5739 38.532 30.593C38.483 30.612 38.4381 30.6406 38.4002 30.677C38.3622 30.7134 38.3317 30.757 38.3106 30.8052C38.2895 30.8534 38.278 30.9053 38.277 30.9579L38.22 33.3049C38.2184 33.3576 38.2272 33.4102 38.246 33.4595C38.2647 33.5088 38.293 33.554 38.3293 33.5923C38.3655 33.6307 38.409 33.6616 38.4571 33.6831C38.5053 33.7046 38.5573 33.7165 38.61 33.7179H38.643C38.6957 33.7191 38.7481 33.7098 38.7972 33.6907C38.8464 33.6716 38.8912 33.6429 38.9292 33.6064C38.9672 33.5699 38.9976 33.5262 39.0187 33.4779C39.0398 33.4296 39.0511 33.3776 39.052 33.3249L39.108 30.9789C39.1096 30.9262 39.1008 30.8738 39.0821 30.8245C39.0634 30.7752 39.0352 30.7301 38.9991 30.6918C38.963 30.6534 38.9196 30.6226 38.8716 30.601C38.8235 30.5794 38.7727 30.5674 38.72 30.5659ZM25.715 31.8109C25.6735 31.7763 25.6413 31.732 25.621 31.6819C25.6008 31.6319 25.5932 31.5776 25.599 31.5239C25.657 30.9409 25.891 30.7849 26.301 31.0539C26.931 31.4689 27.535 31.9179 28.115 32.4019C28.319 32.5719 28.484 32.7749 28.61 33.0119C28.738 33.2519 28.668 33.3789 28.398 33.3929C28.1497 33.4082 27.9007 33.3767 27.664 33.2999C27.48 33.2399 27.274 33.1159 27.044 32.9239C26.632 32.5779 26.189 32.2059 25.715 31.8109ZM45.21 33.1139C45.1264 32.9785 45.0732 32.8266 45.0538 32.6686C45.0345 32.5107 45.0496 32.3505 45.098 32.1989C45.1156 32.1455 45.1491 32.0987 45.194 32.0649C45.866 31.5585 46.6349 31.1957 47.453 30.9989C47.4793 30.9925 47.5067 30.9925 47.533 30.9989C47.558 31.0049 47.582 31.0169 47.601 31.0339C47.83 31.2349 47.889 31.4479 47.779 31.6719C47.718 31.7979 47.578 31.9239 47.36 32.0519C46.703 32.4329 46.017 32.7969 45.303 33.1429C45.2864 33.1507 45.2676 33.1522 45.25 33.1469C45.233 33.1413 45.2187 33.1295 45.21 33.1139ZM34.019 34.8529C34.677 34.2709 35.493 33.8949 36.465 33.7229C36.732 33.6769 36.857 33.8229 36.842 34.1629C36.838 34.2273 36.8191 34.2898 36.7868 34.3457C36.7545 34.4016 36.7098 34.4492 36.656 34.4849C35.861 35.0069 35.041 35.4329 34.197 35.7649C33.913 35.8769 33.773 35.7509 33.777 35.3879C33.7755 35.2864 33.7964 35.1858 33.8383 35.0934C33.8801 35.0009 33.9418 34.9188 34.019 34.8529ZM41.442 35.2899C41.239 35.4419 41.026 35.6099 40.804 35.7969C40.616 35.9539 40.448 36.0429 40.299 36.0619C40.021 36.0989 39.837 35.9869 39.747 35.7249C39.677 35.5209 39.727 35.3549 39.897 35.2249C40.4213 34.8248 40.966 34.4523 41.529 34.1089C41.851 33.9129 42.244 33.8739 42.708 33.9919C42.996 34.0649 43.041 34.2119 42.842 34.4359C42.703 34.5909 42.487 34.6839 42.192 34.7149C42.1628 34.7175 42.1345 34.7263 42.109 34.7409C42.0874 34.7527 42.07 34.7708 42.059 34.7929C42.014 34.8949 42.061 34.9959 42.201 35.0939C42.77 35.4919 43.471 36.0439 44.305 36.7519C44.558 36.9659 44.632 37.2089 44.529 37.4819C44.5196 37.5053 44.5036 37.5254 44.483 37.5399C44.4618 37.5548 44.4369 37.5635 44.411 37.5649C43.963 37.5909 43.577 37.4759 43.253 37.2199C42.88 36.9249 42.583 36.6959 42.363 36.5309C42.128 36.3579 41.967 36.1919 41.88 36.0349C41.7648 35.8255 41.6829 35.5994 41.637 35.3649C41.6326 35.3443 41.6231 35.3252 41.6095 35.3091C41.5959 35.2931 41.5786 35.2806 41.559 35.2729C41.5397 35.2654 41.5188 35.263 41.4983 35.266C41.4778 35.269 41.4584 35.2772 41.442 35.2899ZM31.482 36.4849C31.714 36.3899 31.72 36.2859 31.5 36.1739L30.605 35.7159C30.361 35.5919 30.24 35.4019 30.24 35.1479C30.238 34.7379 30.384 34.5559 30.677 34.6019C30.797 34.6219 30.966 34.7009 31.182 34.8389C31.658 35.1419 32.117 35.4679 32.559 35.8169C32.753 35.9719 32.894 36.1459 32.982 36.3369C33.104 36.6049 33.032 36.7469 32.768 36.7619L32.091 36.8019C32.0597 36.8037 32.0291 36.8118 32.001 36.8259C31.9755 36.8382 31.9537 36.8572 31.938 36.8809C31.7968 37.1163 31.6216 37.3296 31.418 37.5139C31.356 37.5669 31.142 37.7299 30.775 37.9999C30.2464 38.3913 29.6573 38.6936 29.031 38.8949C28.808 38.9669 28.634 38.9579 28.511 38.8699C28.358 38.7599 28.299 38.5819 28.333 38.3339C28.3362 38.3076 28.3451 38.2824 28.359 38.2599C28.3736 38.2367 28.3926 38.2166 28.415 38.2009C29.3698 37.5158 30.3986 36.9402 31.482 36.4849ZM53.865 38.4379C53.865 38.6489 53.719 38.7909 53.728 38.7779C53.648 38.9159 52.894 39.2179 52.878 38.9479C52.8512 38.4604 52.8272 37.9727 52.806 37.4849C52.778 36.8619 52.902 36.2169 53.179 35.5509C53.2054 35.4879 53.2471 35.4326 53.3004 35.39C53.3537 35.3474 53.4168 35.3188 53.484 35.3069C53.654 35.2779 53.756 35.3449 53.792 35.5059C53.82 35.6329 53.836 35.7029 53.841 35.7179C53.888 35.8689 53.92 36.0309 53.935 36.2049C53.955 36.4189 53.865 38.4229 53.865 38.4379ZM48.38 40.5809L46.907 39.2539C46.8571 39.2088 46.7986 39.1741 46.7352 39.1518C46.6717 39.1295 46.6044 39.12 46.5372 39.1239C46.4701 39.1278 46.4043 39.1451 46.3439 39.1746C46.2834 39.2041 46.2294 39.2453 46.185 39.2959L46.16 39.3239C46.0695 39.4266 46.0232 39.5608 46.031 39.6975C46.0389 39.8342 46.1003 39.9622 46.202 40.0539L47.675 41.3799C47.886 41.5699 48.21 41.5509 48.398 41.3379L48.422 41.3099C48.5126 41.2073 48.5591 41.0731 48.5515 40.9365C48.5438 40.7998 48.4825 40.6717 48.381 40.5799L48.38 40.5809ZM35.242 48.2249C35.2992 48.2459 35.3496 48.2822 35.3877 48.3298C35.4257 48.3773 35.4501 48.4345 35.458 48.4949C35.526 48.9779 35.528 49.4599 35.465 49.9399C35.431 50.1969 35.342 50.3669 35.197 50.4499C35.042 50.5389 34.832 50.5819 34.567 50.5799C34.5365 50.5791 34.5072 50.5677 34.4842 50.5476C34.4612 50.5275 34.4459 50.5 34.441 50.4699C34.319 49.6799 34.294 48.9589 34.367 48.3019C34.3704 48.2694 34.3847 48.2391 34.4076 48.2158C34.4305 48.1926 34.4606 48.1778 34.493 48.1739C34.811 48.1419 35.06 48.1589 35.242 48.2249ZM29.794 52.3869C29.471 52.1189 29.474 51.8409 29.799 51.5519C29.994 51.3779 30.191 51.3759 30.391 51.5449C30.958 52.0209 31.504 52.5119 32.031 53.0159C32.184 53.1639 32.274 53.3139 32.298 53.4689C32.326 53.6519 32.313 53.8389 32.258 54.0289C32.188 54.2719 32.054 54.3149 31.858 54.1579C31.2151 53.6425 30.59 53.1052 29.984 52.5469C29.9214 52.4927 29.858 52.4394 29.794 52.3869ZM35.234 54.8859C35.212 55.0209 35.259 55.0529 35.376 54.9839C35.9403 54.6523 36.4785 54.2782 36.986 53.8649C37.343 53.5709 37.706 53.5179 38.074 53.7039C38.38 53.8589 38.403 54.0479 38.141 54.2719C37.3261 54.97 36.481 55.6319 35.608 56.2559C35.4164 56.4028 35.1764 56.4721 34.936 56.4499C34.766 56.4319 34.578 56.3269 34.371 56.1359C34.024 55.8149 33.674 55.4969 33.321 55.1829C33.2062 55.0888 33.1148 54.9693 33.054 54.8339C32.95 54.5639 33.041 54.4139 33.329 54.3799C33.363 54.3759 33.512 54.3899 33.775 54.4249C33.898 54.4389 34.022 54.4359 34.145 54.4149C34.1683 54.4101 34.1894 54.3978 34.205 54.3799C34.2218 54.3617 34.2323 54.3385 34.235 54.3139L34.325 53.2269C34.3272 53.2009 34.3358 53.1758 34.35 53.1539C34.364 53.1326 34.3833 53.1154 34.406 53.1039C34.853 52.8819 35.121 53.0359 35.212 53.5639C35.294 54.0379 35.302 54.4779 35.234 54.8859Z" fill="#1F212C"/>
</svg>
