<svg width="76" height="62" viewBox="0 0 76 62" fill="none" xmlns="http://www.w3.org/2000/svg">
<path d="M6.07703 0.545547H6.86003C7.35003 0.585547 7.81803 0.705548 8.26203 0.905548C8.55803 1.03955 8.56103 1.17855 8.27003 1.32355C6.94449 1.98593 5.49904 2.37433 4.02003 2.46555C3.95303 2.46955 3.90003 2.50455 3.86203 2.57155C3.85581 2.58327 3.85199 2.59612 3.85079 2.60934C3.84958 2.62256 3.85103 2.63589 3.85503 2.64855C3.86355 2.67674 3.88112 2.70134 3.90503 2.71855C5.96026 4.16971 7.9386 5.72681 9.83203 7.38355C9.99803 7.52755 10.182 7.55455 10.382 7.46555C10.8549 7.25444 11.3644 7.13791 11.882 7.12255C12.27 7.11255 12.774 7.14855 13.392 7.23055C14.1176 7.32871 14.8219 7.54668 15.476 7.87555C15.5041 7.88967 15.5289 7.90941 15.549 7.93355C15.5687 7.95685 15.583 7.98415 15.591 8.01355C15.7 8.40555 15.543 8.67655 15.121 8.82755C14.191 9.15755 13.275 9.20655 12.374 8.97255C12.2883 8.94773 12.1992 8.93692 12.11 8.94055C11.733 8.96255 11.72 9.08355 12.07 9.30355C12.802 9.75855 13.516 10.2375 14.215 10.7395C14.925 11.2475 15.285 11.5065 15.295 11.5155C15.643 11.8625 15.802 12.3055 15.773 12.8475C15.747 13.3215 15.522 13.4525 15.098 13.2395C13.291 12.3325 11.6156 11.184 10.118 9.82555C9.85503 9.58555 9.76003 9.64055 9.83403 9.98955C9.93803 10.4725 9.94103 10.9895 9.84403 11.5395C9.77803 11.9185 9.66903 12.1915 9.51703 12.3595C9.30803 12.5895 9.04903 12.6245 8.73703 12.4625C8.52501 12.3483 8.36524 12.1567 8.29103 11.9275C8.13703 11.5085 8.05103 10.9865 8.03503 10.3585C8.00903 9.37855 8.03203 8.66455 8.10403 8.21355C8.10868 8.18413 8.10527 8.154 8.09418 8.12636C8.08309 8.09872 8.06472 8.07459 8.04103 8.05655C6.18031 6.69617 4.37677 5.25927 2.63503 3.74955C2.52503 3.65455 2.46403 3.67955 2.45103 3.82455C2.37303 4.68355 2.37503 5.55455 2.45403 6.43655C2.49703 6.92455 2.48403 7.79055 2.41103 9.03455C2.40903 9.09919 2.38584 9.16138 2.34503 9.21155C2.17903 9.40455 2.00203 9.44255 1.81503 9.32555C1.71103 9.26155 1.61903 9.13655 1.53803 8.95255C1.20896 8.19933 0.893574 7.4402 0.59203 6.67555C0.505356 6.49955 0.418022 6.32389 0.330029 6.14855C0.190309 5.85504 0.113661 5.5355 0.10503 5.21055C0.0208227 3.57865 -0.0125267 1.94452 0.00502968 0.310548C0.00579607 0.266135 0.0159172 0.222383 0.0347331 0.182145C0.0535489 0.141907 0.0806366 0.106088 0.114229 0.0770252C0.147821 0.0479622 0.187164 0.0263073 0.229689 0.0134743C0.272215 0.000641306 0.316968 -0.00308132 0.36103 0.00254804C1.19781 0.1139 2.02801 0.270124 2.84803 0.470547C3.35103 0.595547 3.81403 0.650548 4.23803 0.640548C4.85174 0.62457 5.46494 0.592893 6.07703 0.545547ZM28.39 6.97955L24.803 6.99155C24.7345 6.99181 24.6667 7.00558 24.6036 7.03207C24.5404 7.05855 24.4831 7.09724 24.4349 7.14591C24.3867 7.19458 24.3485 7.25228 24.3226 7.31571C24.2968 7.37914 24.2836 7.44705 24.284 7.51555L24.286 8.12355C24.287 8.41155 24.521 8.64355 24.809 8.64355L28.396 8.63055C28.4646 8.63042 28.5325 8.61675 28.5958 8.59032C28.6591 8.56389 28.7165 8.52522 28.7648 8.47654C28.8132 8.42785 28.8514 8.37011 28.8773 8.30662C28.9033 8.24312 28.9164 8.17513 28.916 8.10655L28.913 7.49855C28.9129 7.43005 28.8993 7.36224 28.8729 7.29902C28.8465 7.23579 28.8079 7.17838 28.7594 7.13008C28.7108 7.08178 28.6532 7.04354 28.5898 7.01754C28.5264 6.99153 28.4585 6.97928 28.39 6.97955ZM17.463 8.60555C17.416 8.60123 17.3717 8.58108 17.3376 8.54839C17.3034 8.51569 17.2814 8.47239 17.275 8.42555C17.216 7.99155 17.229 7.64055 17.315 7.37455C17.3242 7.34483 17.3393 7.31728 17.3594 7.29356C17.3795 7.26984 17.4042 7.25045 17.432 7.23655C17.735 7.08155 18.062 7.00655 18.412 7.01155C19.098 7.02055 19.784 7.02555 20.469 7.02555C21.197 7.02555 21.846 7.21555 22.415 7.59355C22.551 7.68355 22.658 7.80955 22.725 7.95855C22.83 8.20055 22.841 8.38355 22.755 8.50855C22.701 8.58755 22.564 8.64455 22.345 8.68055C21.86 8.75555 21.545 8.79255 21.399 8.79055C20.0855 8.76806 18.7729 8.70637 17.463 8.60555ZM30.028 8.57355C29.9522 8.55625 29.8857 8.5108 29.8421 8.44638C29.7985 8.38197 29.7809 8.3034 29.793 8.22655C29.877 7.68855 30.151 7.35055 30.616 7.21455C31.51 6.95355 32.35 7.02655 33.138 7.43455C33.433 7.58755 33.612 7.78855 33.674 8.03655C33.75 8.33655 33.647 8.56255 33.367 8.71455C33.213 8.79955 32.994 8.84455 32.711 8.84855C31.8088 8.86631 30.9079 8.77396 30.028 8.57355ZM35.425 8.52655C35.252 8.28455 35.225 8.03855 35.342 7.78755C35.426 7.60555 35.59 7.45655 35.836 7.33755C36.4395 7.04358 37.1248 6.96285 37.78 7.10855C38.073 7.17055 38.291 7.29155 38.436 7.47155C38.592 7.66555 38.701 7.90855 38.766 8.20155C38.7786 8.26273 38.7688 8.32638 38.7386 8.38102C38.7083 8.43566 38.6595 8.47769 38.601 8.49955C37.549 8.88655 36.541 8.93155 35.577 8.63455C35.5157 8.61661 35.4622 8.57857 35.425 8.52655ZM45.816 8.75455C45.7256 8.7284 45.6439 8.67839 45.5795 8.60976C45.5151 8.54113 45.4704 8.45643 45.45 8.36455C45.372 8.02455 45.408 7.74055 45.558 7.51255C45.68 7.32555 45.905 7.20955 46.231 7.16355C46.721 7.09455 47.211 7.08955 47.701 7.14855C47.977 7.18255 48.229 7.25155 48.456 7.35555C48.759 7.49755 48.971 7.65255 49.094 7.82055C49.4 8.24255 49.334 8.52955 48.898 8.68055C47.9041 9.02888 46.8256 9.05478 45.816 8.75455ZM50.269 8.42655C50.12 8.17855 50.144 7.92755 50.339 7.67655C50.469 7.50955 50.663 7.39155 50.919 7.32055C51.5023 7.161 52.1177 7.161 52.701 7.32055C53.1496 7.43833 53.5993 7.552 54.05 7.66155C54.45 7.75855 54.767 7.88655 55 8.04655C55.0244 8.06328 55.0436 8.08644 55.0556 8.11344C55.0676 8.14045 55.0719 8.17025 55.068 8.19955C54.972 8.93955 54.502 9.29955 53.658 9.27955C52.622 9.25455 51.728 9.12755 50.978 8.89755C50.628 8.78855 50.392 8.63255 50.268 8.42755L50.269 8.42655ZM39.993 8.48755C39.805 8.10355 39.903 7.79155 40.288 7.55255C40.504 7.42055 40.783 7.35255 41.125 7.34655C41.7139 7.33707 42.301 7.41491 42.867 7.57755C43.267 7.69355 43.513 7.78555 43.606 7.85455C43.851 8.03855 43.896 8.34755 43.739 8.78055C43.7095 8.86257 43.6601 8.93596 43.5951 8.9941C43.5302 9.05223 43.4518 9.09329 43.367 9.11355C42.458 9.32755 41.589 9.31355 40.759 9.06855C40.384 8.95755 40.129 8.76255 39.993 8.48755ZM57.488 9.24755C58.614 9.34155 59.563 8.98855 59.608 8.45955C59.652 7.92955 58.775 7.42255 57.649 7.32855C56.523 7.23355 55.574 7.58655 55.529 8.11655C55.485 8.64655 56.362 9.15255 57.489 9.24655L57.488 9.24755ZM65.98 8.99955C65.673 8.80655 65.513 8.56155 65.503 8.26455C65.493 7.99455 65.621 7.78455 65.889 7.63655C66.193 7.46855 66.537 7.41455 66.923 7.47655C67.546 7.57555 68.097 7.68955 68.573 7.81655C68.915 7.90855 69.1 8.13155 69.127 8.48655C69.2047 9.51238 69.1337 10.5441 68.916 11.5495C68.9098 11.5794 68.8957 11.6071 68.875 11.6295C68.8547 11.6508 68.8286 11.6657 68.8 11.6725C68.5766 11.7346 68.3382 11.7125 68.13 11.6105C67.958 11.5235 67.819 11.3685 67.712 11.1455C67.5 10.6995 67.402 10.1735 67.42 9.56655C67.4213 9.52889 67.4148 9.49138 67.4011 9.4563C67.3873 9.42122 67.3665 9.38932 67.34 9.36255C67.3134 9.33551 67.2817 9.31413 67.2466 9.29969C67.2116 9.28525 67.1739 9.27806 67.136 9.27855C66.667 9.28355 66.281 9.19055 65.98 8.99955ZM61.08 8.66855C60.978 8.41555 60.98 8.14055 61.087 7.84255C61.1138 7.76726 61.1614 7.7011 61.2242 7.65172C61.287 7.60234 61.3625 7.57177 61.442 7.56355C62.591 7.43455 63.712 7.62155 64.806 8.12455C64.8241 8.1327 64.8401 8.14458 64.8532 8.1594C64.8663 8.17423 64.8762 8.19166 64.882 8.21055C64.8879 8.22946 64.8897 8.2494 64.8873 8.26905C64.8848 8.2887 64.8783 8.30762 64.868 8.32455C64.499 8.95655 64.032 9.29755 63.468 9.34855C63.298 9.36455 62.991 9.36355 62.546 9.34655C62.2346 9.3341 61.9273 9.27129 61.636 9.16055C61.354 9.05155 61.168 8.88755 61.08 8.66855ZM67.739 16.2455C67.6926 16.2278 67.6508 16.1999 67.6165 16.1639C67.5823 16.1279 67.5565 16.0848 67.541 16.0375C67.2828 15.2651 67.2671 14.4322 67.496 13.6505C67.5131 13.5888 67.5504 13.5346 67.602 13.4965C67.897 13.2845 68.263 13.2215 68.7 13.3075C68.7756 13.3222 68.8445 13.3609 68.8964 13.4178C68.9483 13.4748 68.9804 13.5469 68.988 13.6235C69.0731 14.4745 69.0358 15.3332 68.877 16.1735C68.8713 16.2058 68.8563 16.2357 68.834 16.2596C68.8116 16.2836 68.7828 16.3006 68.751 16.3085C68.4157 16.3969 68.0608 16.3749 67.739 16.2455ZM8.08903 16.3945C8.04003 17.4245 8.43803 18.2815 8.97703 18.3065C9.51703 18.3325 9.99203 17.5165 10.041 16.4865C10.089 15.4555 9.69103 14.5985 9.15303 14.5735C8.61303 14.5475 8.13703 15.3635 8.08903 16.3935V16.3945ZM22.683 14.9455C23.749 14.9705 24.813 14.9675 25.877 14.9355C27.531 14.8875 28.594 14.8625 29.065 14.8615C37.9483 14.8146 46.8316 14.7879 55.715 14.7815C56.663 14.7795 57.613 14.8265 58.563 14.9205C58.6293 14.9271 58.6908 14.9582 58.7352 15.0078C58.7796 15.0574 58.8039 15.1219 58.803 15.1885C58.787 15.8185 58.795 16.4235 58.826 17.0025C58.849 17.4215 58.876 18.0255 58.908 18.8165C58.9365 19.5141 59.009 20.2091 59.125 20.8975C59.227 21.5075 59.281 22.0695 59.286 22.5845C59.296 23.3945 59.328 24.3205 59.386 25.3605C59.489 27.2105 59.522 29.2685 59.484 31.5385C59.458 33.1485 59.518 37.8845 59.664 45.7445L59.636 46.1345C59.614 46.4455 59.729 46.7095 59.981 46.9265C60.131 47.0565 60.239 47.2535 60.306 47.5185C60.3144 47.5517 60.3155 47.5863 60.3093 47.6199C60.3031 47.6535 60.2897 47.6854 60.2701 47.7134C60.2504 47.7414 60.225 47.7649 60.1955 47.7821C60.166 47.7994 60.1331 47.8101 60.099 47.8135C59.5051 47.8662 58.9179 47.9778 58.346 48.1465C57.726 48.3295 56.983 48.4205 56.116 48.4195L54.926 48.4155C49.808 48.5195 43.496 48.5485 35.986 48.5015C32.044 48.4765 26.95 48.5395 20.702 48.6915C20.687 48.6915 20.532 48.6985 20.238 48.7135C19.6755 48.7486 19.1118 48.669 18.581 48.4795C18.4804 48.4478 18.3917 48.3863 18.3267 48.3031C18.2617 48.2199 18.2235 48.1189 18.217 48.0135C18.002 46.0215 17.837 44.0265 17.724 42.0275C17.666 41.0105 17.574 39.7075 17.446 38.1175C17.2578 35.7989 17.1844 33.4724 17.226 31.1465C17.259 29.2885 17.271 27.9805 17.264 27.2235C17.222 23.2035 17.23 19.1825 17.287 15.1595C17.2881 15.0854 17.3182 15.0146 17.371 14.9624C17.4237 14.9102 17.4948 14.8808 17.569 14.8805C19.249 14.8835 20.954 14.9055 22.683 14.9455ZM55.258 16.8915C54.8733 16.851 54.4916 16.7862 54.115 16.6975C53.665 16.5875 53.287 16.5295 52.983 16.5245C50.15 16.4645 47.993 16.4515 46.511 16.4875C45.2415 16.5237 43.9742 16.6171 42.713 16.7675C41.242 16.9365 40.148 17.0255 39.431 17.0365C38.3309 17.055 37.2306 17.019 36.134 16.9285C34.1356 16.7525 32.1248 16.7716 30.13 16.9855C29.327 17.0755 28.522 17.1205 27.714 17.1205C25.054 17.1235 22.395 17.1245 19.734 17.1245C19.6959 17.1248 19.6594 17.1398 19.6321 17.1665C19.6049 17.1932 19.5891 17.2294 19.588 17.2675C19.5514 19.0834 19.5507 20.8997 19.586 22.7155C19.616 24.2985 19.618 25.6055 19.592 26.6335C19.5542 28.1381 19.5085 29.6425 19.455 31.1465C19.3688 33.515 19.3635 35.8857 19.439 38.2545C19.461 38.9445 19.439 39.6325 19.374 40.3155C19.36 40.4675 19.267 40.9155 19.094 41.6615C18.984 42.1335 18.945 42.6115 18.977 43.0945C19.013 43.6805 19.023 44.0845 19.004 44.3045C18.954 44.9175 18.904 45.3195 18.854 45.5105C18.7299 45.9723 18.7175 46.457 18.818 46.9245C18.8298 46.9823 18.8626 47.0336 18.91 47.0685C18.9582 47.1038 19.0176 47.1202 19.077 47.1145C20.3371 47.0009 21.6019 46.9482 22.867 46.9565C24.469 46.9665 26.07 46.9325 27.669 46.8545C28.972 46.7843 30.2763 46.7403 31.581 46.7225C34.921 46.7025 37.875 46.7065 40.441 46.7365C44.509 46.7845 48.36 46.7335 51.994 46.5815C53.9363 46.504 55.8812 46.527 57.821 46.6505C57.834 46.6511 57.847 46.6491 57.8591 46.6447C57.8713 46.6402 57.8825 46.6334 57.892 46.6245C57.9015 46.6159 57.909 46.6054 57.9142 46.5937C57.9194 46.582 57.922 46.5693 57.922 46.5565C57.9034 45.4034 57.8199 44.2523 57.672 43.1085C57.573 42.3655 57.545 41.4395 57.588 40.3295C57.634 39.1805 57.641 38.2545 57.61 37.5525C57.407 32.8925 57.314 29.3855 57.33 27.0275C57.343 25.1325 57.325 23.2365 57.275 21.3405C57.2307 19.7588 57.418 18.1791 57.831 16.6515C57.912 16.3475 57.939 16.1355 57.911 16.0165C57.847 15.7565 57.621 15.6355 57.231 15.6535C56.695 15.6795 56.306 15.7235 56.065 15.7855C56.0335 15.7935 56.0039 15.8078 55.978 15.8275C55.9535 15.8464 55.9336 15.8707 55.92 15.8985L55.544 16.7065C55.5175 16.7646 55.4752 16.8142 55.422 16.8495C55.3738 16.8819 55.3159 16.8967 55.258 16.8915ZM67.876 21.9615C67.6634 21.8173 67.5114 21.5998 67.449 21.3505C67.4049 21.118 67.3755 20.8828 67.361 20.6465C67.325 20.2325 67.384 19.8365 67.539 19.4575C67.659 19.1675 67.832 18.9785 68.062 18.8905C68.305 18.7965 68.562 18.8035 68.832 18.9105C68.859 18.9205 68.882 18.9405 68.9 18.9635C68.9184 18.9875 68.9304 19.0157 68.935 19.0455C69.0975 20.0432 69.0843 21.0615 68.896 22.0545C68.8877 22.0977 68.87 22.1385 68.8442 22.174C68.8184 22.2096 68.7851 22.239 68.7467 22.2603C68.7083 22.2816 68.6656 22.2942 68.6218 22.2971C68.5779 22.3001 68.534 22.2934 68.493 22.2775C68.275 22.1984 68.0677 22.0922 67.876 21.9615ZM8.46403 22.5775C8.31289 22.457 8.18799 22.3068 8.09702 22.1362C8.00605 21.9656 7.95092 21.7782 7.93503 21.5855C7.89602 21.2102 7.889 20.8321 7.91403 20.4555C7.94503 20.0055 8.16403 19.6925 8.57003 19.5185C8.95603 19.3525 9.24503 19.3905 9.43503 19.6325C9.54603 19.7725 9.61903 20.0095 9.65503 20.3405C9.73203 21.0745 9.65503 21.7975 9.42503 22.5085C9.41547 22.5393 9.39983 22.5679 9.37903 22.5925C9.35894 22.6162 9.33405 22.6353 9.30603 22.6485C8.98603 22.7995 8.70603 22.7765 8.46403 22.5785V22.5775ZM68.039 27.2355C67.452 26.6905 67.273 25.9955 67.5 25.1525C67.69 24.4505 68.118 24.1845 68.787 24.3525C68.8164 24.3604 68.8432 24.3757 68.8648 24.3972C68.8864 24.4186 68.902 24.4452 68.91 24.4745C69.16 25.3845 69.17 26.2975 68.943 27.2145C68.9361 27.2439 68.9221 27.271 68.902 27.2935C68.882 27.3158 68.8565 27.3324 68.828 27.3415C68.492 27.4495 68.23 27.4145 68.039 27.2355ZM8.09003 28.5275C7.90003 28.2355 7.80603 27.8605 7.80603 27.4015C7.80503 26.8215 7.81603 26.4755 7.83703 26.3645C7.93303 25.9065 8.33403 25.7465 9.04203 25.8845C9.14273 25.8977 9.23587 25.945 9.30593 26.0185C9.376 26.092 9.41874 26.1873 9.42703 26.2885C9.51703 26.8655 9.53703 27.4805 9.48403 28.1315C9.45403 28.5265 9.43103 28.7365 9.41403 28.7615C9.30803 28.9255 9.03403 28.9625 8.59403 28.8725C8.49062 28.8533 8.39238 28.8127 8.30559 28.7533C8.21879 28.6939 8.14537 28.617 8.09003 28.5275ZM67.83 32.1485C67.736 32.0883 67.6558 32.0089 67.5946 31.9155C67.5334 31.8221 67.4927 31.7168 67.475 31.6065C67.3778 31.066 67.367 30.5135 67.443 29.9695C67.495 29.5695 67.629 29.2905 67.845 29.1345C68.114 28.9405 68.442 28.9165 68.829 29.0635C68.857 29.0735 68.881 29.0905 68.9 29.1135C68.919 29.137 68.9318 29.1648 68.937 29.1945C69.121 30.1505 69.137 31.1085 68.984 32.0675C68.9795 32.0991 68.9687 32.1294 68.952 32.1565C68.9357 32.1824 68.9139 32.2042 68.888 32.2205C68.568 32.4275 68.214 32.4035 67.83 32.1485ZM8.94403 31.3005L8.25903 31.3125C8.19415 31.3137 8.13014 31.3277 8.07066 31.3536C8.01117 31.3795 7.95737 31.4169 7.91233 31.4636C7.86729 31.5103 7.8319 31.5654 7.80817 31.6258C7.78444 31.6862 7.77284 31.7507 7.77403 31.8155L7.81403 34.1295C7.81903 34.4025 8.04403 34.6195 8.31603 34.6145L9.00203 34.6025C9.13288 34.5999 9.25734 34.5455 9.34808 34.4512C9.43883 34.3569 9.48844 34.2304 9.48603 34.0995L9.44603 31.7865C9.44499 31.7217 9.43118 31.6576 9.40538 31.5981C9.37959 31.5386 9.34232 31.4847 9.2957 31.4396C9.24909 31.3944 9.19403 31.3589 9.13369 31.3351C9.07335 31.3112 9.00891 31.2995 8.94403 31.3005ZM67.52 35.3665C67.584 36.2375 68.053 36.9135 68.567 36.8765C69.082 36.8385 69.447 36.1005 69.383 35.2295C69.319 34.3575 68.85 33.6815 68.336 33.7195C67.822 33.7575 67.456 34.4945 67.52 35.3665ZM9.14703 36.7995C9.18238 36.7995 9.21733 36.8069 9.24957 36.8214C9.28182 36.8359 9.31061 36.8571 9.33403 36.8835C9.38793 36.9436 9.42122 37.0193 9.42903 37.0995C9.55603 38.2345 9.52203 39.2905 9.32703 40.2685C9.32149 40.2957 9.30728 40.3203 9.28655 40.3387C9.26581 40.3571 9.23966 40.3683 9.21203 40.3705C8.78003 40.3905 8.43603 40.2655 8.18003 39.9935C7.99003 39.7925 7.87603 39.4805 7.83503 39.0585C7.77482 38.4269 7.7906 37.7904 7.88203 37.1625C7.89476 37.0713 7.93567 36.9864 7.99903 36.9195C8.05515 36.8593 8.13279 36.8238 8.21503 36.8205L9.14703 36.7995ZM68.422 42.9835C68.3569 42.9677 68.2964 42.9367 68.2455 42.8931C68.1946 42.8495 68.1547 42.7945 68.129 42.7325C67.8077 41.9844 67.6524 41.1755 67.674 40.3615C67.687 39.9755 67.751 39.6935 67.866 39.5155C68.048 39.2335 68.351 39.1115 68.775 39.1495C69.089 39.1785 69.29 39.3445 69.378 39.6475C69.5314 40.1825 69.5996 40.7383 69.58 41.2945C69.5687 41.798 69.4063 42.2865 69.114 42.6965C68.931 42.9565 68.7 43.0525 68.422 42.9835ZM8.22003 44.6045C8.08242 44.5025 7.9879 44.3527 7.95503 44.1845C7.85988 43.7051 7.83094 43.2149 7.86903 42.7275C7.90403 42.2985 8.01603 41.9885 8.20503 41.7975C8.45903 41.5435 8.80703 41.4835 9.25103 41.6175C9.27983 41.6266 9.30563 41.6433 9.3257 41.6658C9.34578 41.6883 9.35937 41.7159 9.36503 41.7455C9.54203 42.6535 9.56403 43.6325 9.42903 44.6805C9.42294 44.7266 9.40747 44.771 9.38358 44.8108C9.35968 44.8507 9.32787 44.8852 9.2901 44.9123C9.25233 44.9394 9.20941 44.9584 9.164 44.9683C9.11858 44.9781 9.07162 44.9786 9.02603 44.9695C8.73366 44.9081 8.45823 44.7835 8.21903 44.6045H8.22003ZM68.209 48.4775C68.0635 48.4063 67.9427 48.2931 67.862 48.1525C67.374 47.2955 67.282 46.3815 67.588 45.4085C67.67 45.1485 67.776 44.9685 67.905 44.8675C68.073 44.7375 68.289 44.6745 68.555 44.6775C68.795 44.6815 68.945 44.7975 69.01 45.0265C69.315 46.1015 69.347 47.1045 69.106 48.0365C69.043 48.2795 68.956 48.4375 68.846 48.5115C68.682 48.6165 68.47 48.6055 68.209 48.4775ZM8.39303 49.9785C8.28226 49.9207 8.18609 49.8384 8.11177 49.7379C8.03746 49.6374 7.98694 49.5214 7.96403 49.3985C7.75403 48.3785 7.73403 47.4755 7.90403 46.6885C7.92087 46.6144 7.95675 46.5458 8.00812 46.4897C8.0595 46.4336 8.12461 46.3918 8.19703 46.3685C8.65703 46.2215 9.01303 46.2305 9.26703 46.3955C9.29154 46.4126 9.31202 46.4347 9.32703 46.4605C9.34395 46.4881 9.35549 46.5187 9.36103 46.5505C9.53903 47.6075 9.54903 48.7105 9.38803 49.8565C9.38073 49.9074 9.35638 49.9543 9.31896 49.9896C9.28154 50.0248 9.23326 50.0463 9.18203 50.0505C8.80603 50.0845 8.54303 50.0605 8.39303 49.9785ZM71.959 60.2015C72.141 60.1455 72.16 60.0545 72.015 59.9285C71.6516 59.6173 71.2929 59.3006 70.939 58.9785C70.5855 58.6567 70.2244 58.3433 69.856 58.0385C68.8744 57.233 67.9338 56.3786 67.038 55.4785C67.0111 55.4517 66.9782 55.4316 66.9421 55.4196C66.9061 55.4076 66.8677 55.4042 66.83 55.4095C66.7925 55.415 66.7568 55.4293 66.7259 55.4512C66.695 55.4731 66.6696 55.502 66.652 55.5355C66.489 55.8415 66.278 56.0645 66.018 56.2025C65.837 56.2995 65.551 56.3525 65.162 56.3635C64.234 56.3905 63.309 56.3435 62.388 56.2185C61.812 56.1395 61.508 56.0945 61.478 56.0835C61.123 55.9535 60.965 55.6335 61.001 55.1205C61.035 54.6415 61.279 54.3865 61.734 54.3555C62.5734 54.2977 63.4167 54.3699 64.234 54.5695C64.669 54.6745 65.109 54.7445 65.556 54.7775C66.062 54.8145 66.126 54.6655 65.746 54.3275C64.3904 53.1257 63.0572 51.8988 61.747 50.6475C61.3939 50.3194 61.1217 49.9138 60.952 49.4625C60.858 49.2075 60.866 48.9955 60.976 48.8255C61.084 48.6535 61.249 48.5705 61.469 48.5745C61.606 48.5765 61.764 48.6365 61.941 48.7525C62.441 49.0805 62.817 49.3525 63.069 49.5685C64.4939 50.7842 65.8582 52.0691 67.157 53.4185C67.311 53.5775 67.38 53.5465 67.363 53.3255C67.3173 52.7648 67.3408 52.2005 67.433 51.6455C67.493 51.2845 67.613 51.0575 67.793 50.9655C68.005 50.8555 68.303 50.8375 68.687 50.9115C68.7506 50.9244 68.8088 50.9561 68.8541 51.0024C68.8994 51.0488 68.9297 51.1077 68.941 51.1715C69.148 52.3345 69.155 53.4515 68.965 54.5205C68.9418 54.6263 68.9492 54.7365 68.9864 54.8381C69.0236 54.9398 69.0891 55.0288 69.175 55.0945C70.6516 56.3334 72.0781 57.6308 73.451 58.9835C73.591 59.1225 73.665 59.0936 73.671 58.8955C73.6833 58.4385 73.6776 57.9812 73.654 57.5245C73.6217 56.9028 73.6947 56.28 73.87 55.6825C73.959 55.3795 74.076 55.1675 74.222 55.0455C74.429 54.8735 74.688 54.8115 75.002 54.8615C75.0527 54.8695 75.0994 54.894 75.1347 54.9313C75.17 54.9686 75.1919 55.0165 75.197 55.0675C75.276 55.7955 75.323 56.5245 75.338 57.2555C75.344 57.4685 75.393 57.6675 75.488 57.8515C75.55 57.9775 75.613 58.1015 75.678 58.2265C75.742 58.3565 75.786 58.4895 75.808 58.6265C75.977 59.6725 76.034 60.7275 75.981 61.7915C75.9793 61.8296 75.9631 61.8655 75.9358 61.8921C75.9085 61.9187 75.8721 61.9338 75.834 61.9345C73.611 61.9965 71.387 62.0145 69.163 61.9875C68.691 61.9825 68.441 61.9745 68.411 61.9625C68.156 61.8565 68.124 61.5175 68.315 60.9465C68.3452 60.8447 68.4021 60.7527 68.4798 60.6803C68.5576 60.6078 68.6533 60.5575 68.757 60.5345C69.5182 60.3472 70.3017 60.2664 71.085 60.2945C71.433 60.3045 71.724 60.2735 71.959 60.2015ZM9.66203 54.3255C10.379 54.3325 11.093 54.2855 11.805 54.1855C12.518 54.0825 13.149 54.3065 13.696 54.8575C14.05 55.2125 13.992 55.4775 13.522 55.6515C12.7929 55.9121 12.0308 56.0693 11.258 56.1185C10.47 56.1765 9.95303 56.1935 9.70903 56.1675C9.43105 56.1419 9.16104 56.0608 8.91492 55.9291C8.66879 55.7973 8.45156 55.6176 8.27603 55.4005C8.01503 55.0865 7.86203 54.6605 7.81803 54.1205C7.76042 53.4225 7.78391 52.7202 7.88803 52.0275C7.89707 51.9672 7.92418 51.911 7.96577 51.8664C8.00736 51.8218 8.06149 51.7908 8.12103 51.7775C8.49603 51.6945 8.79603 51.6855 9.02203 51.7505C9.30203 51.8315 9.45003 52.0345 9.46503 52.3585L9.54903 54.2255C9.54997 54.2389 9.55354 54.252 9.55955 54.264C9.56555 54.2761 9.57387 54.2868 9.58403 54.2955C9.60503 54.3155 9.63403 54.3255 9.66203 54.3255ZM16.5 55.5335C16.349 55.1705 16.358 54.7685 16.527 54.3295C16.5522 54.2646 16.5953 54.2081 16.6512 54.1665C16.7071 54.1249 16.7736 54.1 16.843 54.0945C17.6998 54.0279 18.5602 54.0205 19.418 54.0725L19.956 54.0805C20.176 54.0845 20.393 54.1165 20.604 54.1765C20.783 54.2275 20.962 54.3395 21.143 54.5115C21.387 54.7455 21.583 54.9195 21.732 55.0335C22.177 55.3765 22.121 55.5765 21.564 55.6355C19.9275 55.82 18.2754 55.8194 16.639 55.6335C16.6084 55.6303 16.5792 55.6193 16.554 55.6015C16.5301 55.5843 16.5114 55.5608 16.5 55.5335ZM22.601 55.5925C22.327 55.5315 22.211 55.3615 22.255 55.0825C22.302 54.7825 22.399 54.5465 22.546 54.3745C22.672 54.2285 22.886 54.1345 23.191 54.0945C24.0176 53.9835 24.8573 54.02 25.671 54.2025C25.7013 54.2097 25.7297 54.2234 25.7542 54.2425C25.7787 54.2617 25.7987 54.2859 25.813 54.3135C25.993 54.6815 26.062 55.0305 26.02 55.3615C26.0115 55.4269 25.9821 55.4878 25.9361 55.535C25.8902 55.5822 25.8301 55.6133 25.765 55.6235C24.605 55.8175 23.55 55.8065 22.601 55.5925ZM27.606 55.4865C27.5063 55.2983 27.4542 55.0886 27.4542 54.8755C27.4542 54.6625 27.5063 54.4528 27.606 54.2645C27.6201 54.237 27.6403 54.2132 27.6651 54.1948C27.6899 54.1764 27.7186 54.164 27.749 54.1585C28.4489 54.0412 29.1598 54.0039 29.868 54.0475C30.708 54.0995 31.065 54.5755 30.937 55.4745C30.9325 55.5043 30.919 55.532 30.8982 55.5538C30.8775 55.5756 30.8505 55.5905 30.821 55.5965C29.8075 55.8044 28.7623 55.8038 27.749 55.5945C27.7182 55.5879 27.6892 55.5746 27.664 55.5555C27.6395 55.5374 27.6197 55.5138 27.606 55.4865ZM52.03 54.0565L49.834 54.0685C49.7648 54.0689 49.6964 54.083 49.6326 54.1098C49.5688 54.1367 49.5109 54.1758 49.4623 54.225C49.4136 54.2742 49.3751 54.3326 49.349 54.3966C49.3229 54.4607 49.3096 54.5293 49.31 54.5985L49.313 55.1905C49.3133 55.2598 49.3272 55.3284 49.354 55.3923C49.3808 55.4562 49.4199 55.5142 49.4692 55.563C49.5184 55.6117 49.5767 55.6503 49.6409 55.6765C49.7051 55.7027 49.7737 55.7159 49.843 55.7155L52.039 55.7045C52.1082 55.7042 52.1767 55.6901 52.2405 55.6633C52.3043 55.6364 52.3621 55.5973 52.4108 55.5481C52.4595 55.4989 52.4979 55.4405 52.5241 55.3765C52.5502 55.3124 52.5634 55.2438 52.563 55.1745L52.56 54.5815C52.5598 54.5123 52.5458 54.4437 52.5191 54.3798C52.4923 54.3159 52.4531 54.2579 52.4039 54.2091C52.3547 54.1604 52.2963 54.1218 52.2322 54.0956C52.168 54.0694 52.0993 54.0561 52.03 54.0565ZM32.885 55.5375C32.722 55.2445 32.741 54.8575 32.942 54.3785C32.9706 54.3098 33.0171 54.25 33.0768 54.2055C33.1364 54.161 33.207 54.1333 33.281 54.1255C33.9857 54.0592 34.6953 54.0639 35.399 54.1395C36.108 54.2115 36.695 54.3915 37.159 54.6805C37.371 54.8125 37.515 54.9625 37.59 55.1305C37.726 55.4315 37.595 55.6535 37.199 55.7945C36.729 55.9595 36.177 56.0065 35.542 55.9375C34.7058 55.8446 33.8704 55.744 33.036 55.6355C33.0043 55.6317 32.9739 55.6207 32.947 55.6035C32.9213 55.5869 32.9001 55.5642 32.885 55.5375ZM44.154 55.6825C43.911 55.6555 43.784 55.5185 43.772 55.2725C43.742 54.6275 43.936 54.2625 44.356 54.1785C45.1865 54.0104 46.0447 54.0391 46.862 54.2625C47.216 54.3615 47.459 54.5105 47.592 54.7105C47.752 54.9495 47.792 55.2345 47.712 55.5655C47.705 55.5935 47.6895 55.6185 47.6676 55.6373C47.6458 55.6561 47.6187 55.6677 47.59 55.6705C46.4491 55.8091 45.2959 55.8131 44.154 55.6825ZM38.785 55.7455C38.455 55.6275 38.315 55.3955 38.368 55.0475C38.418 54.7075 38.564 54.4735 38.804 54.3455C38.924 54.2815 39.17 54.2215 39.541 54.1655C40.503 54.0205 41.329 54.2375 42.02 54.8135C42.5 55.2135 42.444 55.5185 41.851 55.7275C40.806 56.0965 39.783 56.1025 38.785 55.7455ZM55.87 55.7065C55.7937 55.671 55.7292 55.6141 55.6843 55.5428C55.6394 55.4715 55.6161 55.3888 55.617 55.3045C55.619 54.9395 55.741 54.6645 55.983 54.4765C56.155 54.3425 56.415 54.2615 56.764 54.2365C57.6116 54.1672 58.4579 54.3837 59.168 54.8515C59.368 54.9815 59.48 55.1195 59.503 55.2675C59.535 55.4795 59.413 55.6585 59.141 55.8075C58.666 56.0625 58.225 56.1865 57.819 56.1775C57.143 56.1604 56.4793 55.9999 55.87 55.7065Z" fill="#1F212C"/>
</svg>
