<svg width="106" height="106" viewBox="0 0 106 106" fill="none" xmlns="http://www.w3.org/2000/svg">
<g clip-path="url(#clip0_1658_32616)">
<mask id="mask0_1658_32616" style="mask-type:luminance" maskUnits="userSpaceOnUse" x="0" y="0" width="106" height="106">
<path d="M106 0H0V106H106V0Z" fill="white"/>
</mask>
<g mask="url(#mask0_1658_32616)">
<path d="M49.6504 2.73187C51.6004 1.14146 54.3999 1.14146 56.3498 2.73187L60.5543 6.16108C61.8777 7.24006 63.6394 7.61572 65.2872 7.17026L70.5108 5.75839C72.9367 5.10273 75.4891 6.24058 76.6233 8.48291L79.0915 13.364C79.86 14.883 81.3107 15.9405 82.9918 16.2069L88.3602 17.0574C90.8337 17.4492 92.6956 19.5192 92.8238 22.0204L93.1063 27.5272C93.1933 29.2203 94.0852 30.7698 95.5056 31.6956L100.099 34.6894C102.19 36.0529 103.046 38.6916 102.154 41.0237L100.178 46.1875C99.5734 47.7672 99.7594 49.5406 100.678 50.9607L103.678 55.5963C105.033 57.6914 104.744 60.4479 102.982 62.216L99.0975 66.1163C97.9028 67.3157 97.3527 69.0133 97.6177 70.6854L98.4821 76.1439C98.8727 78.6132 97.4847 81.0199 95.1516 81.9188L90.0583 83.8798C88.4731 84.4903 87.2763 85.8233 86.8401 87.4652L85.4298 92.7747C84.7859 95.2 82.5297 96.8409 80.0243 96.7068L74.6136 96.4174C72.9107 96.3263 71.2682 97.0598 70.1997 98.3885L66.7876 102.633C65.2114 104.593 62.4745 105.176 60.2363 104.027L55.4207 101.554C53.9012 100.775 52.0991 100.775 50.5797 101.554L45.7638 104.027C43.5261 105.176 40.789 104.593 39.2129 102.633L35.8006 98.3885C34.7322 97.0598 33.0897 96.3263 31.3869 96.4174L25.9761 96.7068C23.4707 96.8409 21.2145 95.2 20.5705 92.7747L19.16 87.4652C18.724 85.8233 17.5274 84.4903 15.9422 83.8798L10.8488 81.9188C8.51547 81.0199 7.12746 78.6132 7.51849 76.1439L8.38276 70.6854C8.6475 69.0133 8.09757 67.3157 6.9029 66.1163L3.01782 62.216C1.25687 60.4479 0.967474 57.6914 2.32289 55.5963L5.32217 50.9607C6.24103 49.5406 6.4268 47.7672 5.82228 46.1875L3.84618 41.0237C2.95374 38.6916 3.81011 36.0529 5.90194 34.6894L10.4949 31.6956C11.9152 30.7698 12.8069 29.2203 12.8938 27.5272L13.1763 22.0204C13.3047 19.5192 15.1664 17.4492 17.6401 17.0574L23.0084 16.2069C24.6896 15.9405 26.1405 14.883 26.9087 13.364L29.3772 8.48291C30.5112 6.24058 33.0639 5.10273 35.4897 5.75839L40.7131 7.17026C42.3612 7.61572 44.1229 7.24006 45.4458 6.16108L49.6504 2.73187Z" fill="url(#paint0_linear_1658_32616)"/>
</g>
<path d="M38.0016 77.5485C31.8758 73.5897 27.9169 67.8802 25.689 61.0089C25.3387 59.9261 25.2014 59.0738 25.277 58.4517C25.6563 55.3452 29.65 54.0743 31.878 56.2412C32.2152 56.5682 32.5516 57.1183 32.8873 57.8915C34.6139 61.8591 36.3884 65.1509 39.6671 68.0394C39.6861 68.0562 39.7084 68.0686 39.7327 68.0759C39.757 68.0832 39.7826 68.0852 39.8078 68.0817C39.8331 68.0782 39.8573 68.0693 39.8789 68.0556C39.9005 68.0419 39.919 68.0237 39.9331 68.0023C48.0471 55.7093 57.2576 43.534 67.1591 33.0962C68.6284 31.5469 70.3862 30.0652 72.4325 28.6511C73.3583 28.0117 74.1104 27.6127 74.6888 27.4543C78.5322 26.4079 81.0239 30.611 78.8919 33.7676C77.4683 35.8735 75.9511 37.6524 73.9891 39.7822C63.6733 50.9722 54.2361 63.1453 45.37 75.8612C44.0402 77.7687 42.8325 78.9982 40.4934 78.6385C39.787 78.5295 38.9565 78.1662 38.0016 77.5485ZM68.0747 33.6848C57.9726 44.1553 48.991 56.117 41.0035 68.2574C40.4323 69.125 39.8328 69.5676 38.9347 68.7522C36.3216 66.3833 34.3218 63.6394 32.9353 60.5206C32.4448 59.4153 31.878 57.5361 30.9602 56.8037C29.2729 55.4564 26.6765 56.3611 26.3299 58.5171C26.25 59.02 26.3415 59.6849 26.6046 60.5118C28.741 67.2023 32.5625 72.8158 38.5074 76.6591C39.9418 77.5856 41.2585 78.1459 42.7497 77.2455C43.2118 76.9665 43.8411 76.2551 44.6375 75.1113C53.1984 62.7965 62.6029 50.6081 72.8119 39.5533C74.9875 37.1967 76.8841 35.1192 78.2401 32.8891C80.0342 29.9439 76.6705 27.099 73.7798 28.9912C71.6565 30.3792 69.7548 31.9437 68.0747 33.6848Z" fill="#8990CD"/>
<path d="M68.0745 33.685C69.7546 31.9439 71.6563 30.3794 73.7796 28.9915C76.6703 27.0992 80.034 29.9442 78.2399 32.8893C76.8839 35.1195 74.9873 37.197 72.8117 39.5536C62.6027 50.6084 53.1982 62.7967 44.6373 75.1116C43.8409 76.2553 43.2116 76.9668 42.7495 77.2458C41.2583 78.1461 39.9416 77.5859 38.5072 76.6594C32.5623 72.816 28.7408 67.2025 26.6044 60.5121C26.3413 59.6852 26.2498 59.0203 26.3297 58.5174C26.6763 56.3614 29.2727 55.4567 30.96 56.8039C31.8778 57.5364 32.4446 59.4156 32.9351 60.5208C34.3216 63.6397 36.3214 66.3836 38.9345 68.7525C39.8326 69.5678 40.4321 69.1253 41.0033 68.2576C48.9908 56.1172 57.9724 44.1556 68.0745 33.685Z" fill="#FCFEFF"/>
</g>
<defs>
<linearGradient id="paint0_linear_1658_32616" x1="93.8102" y1="-0.00017019" x2="20.9352" y2="80.8248" gradientUnits="userSpaceOnUse">
<stop stop-color="#B0B9FF"/>
<stop offset="1" stop-color="#E7E9FF"/>
</linearGradient>
<clipPath id="clip0_1658_32616">
<rect width="106" height="106" fill="white"/>
</clipPath>
</defs>
</svg>
