<svg width="106" height="106" viewBox="0 0 106 106" fill="none" xmlns="http://www.w3.org/2000/svg">
<g clip-path="url(#clip0_580_5871)">
<mask id="mask0_580_5871" style="mask-type:luminance" maskUnits="userSpaceOnUse" x="0" y="0" width="106" height="106">
<path d="M106 0H0V106H106V0Z" fill="white"/>
</mask>
<g mask="url(#mask0_580_5871)">
<path d="M49.6504 2.73187C51.6004 1.14146 54.3999 1.14146 56.3498 2.73187L60.5543 6.16108C61.8777 7.24006 63.6394 7.61572 65.2872 7.17026L70.5108 5.75839C72.9367 5.10273 75.4891 6.24058 76.6233 8.48291L79.0915 13.364C79.86 14.883 81.3107 15.9405 82.9918 16.2069L88.3602 17.0574C90.8337 17.4492 92.6956 19.5192 92.8238 22.0204L93.1063 27.5272C93.1933 29.2203 94.0852 30.7698 95.5056 31.6956L100.099 34.6894C102.19 36.0529 103.046 38.6916 102.154 41.0237L100.178 46.1875C99.5734 47.7672 99.7594 49.5406 100.678 50.9607L103.678 55.5963C105.033 57.6914 104.744 60.4479 102.982 62.216L99.0975 66.1163C97.9028 67.3157 97.3527 69.0133 97.6177 70.6854L98.4821 76.1439C98.8727 78.6132 97.4847 81.0199 95.1516 81.9188L90.0583 83.8798C88.4731 84.4903 87.2763 85.8233 86.8401 87.4652L85.4298 92.7747C84.7859 95.2 82.5297 96.8409 80.0243 96.7068L74.6136 96.4174C72.9107 96.3263 71.2682 97.0598 70.1997 98.3885L66.7876 102.633C65.2114 104.593 62.4745 105.176 60.2363 104.027L55.4207 101.554C53.9012 100.775 52.0991 100.775 50.5797 101.554L45.7638 104.027C43.5261 105.176 40.789 104.593 39.2129 102.633L35.8006 98.3885C34.7322 97.0598 33.0897 96.3263 31.3869 96.4174L25.9761 96.7068C23.4707 96.8409 21.2145 95.2 20.5705 92.7747L19.16 87.4652C18.724 85.8233 17.5274 84.4903 15.9422 83.8798L10.8488 81.9188C8.51547 81.0199 7.12746 78.6132 7.51849 76.1439L8.38276 70.6854C8.6475 69.0133 8.09757 67.3157 6.9029 66.1163L3.01782 62.216C1.25687 60.4479 0.967474 57.6914 2.32289 55.5963L5.32217 50.9607C6.24103 49.5406 6.4268 47.7672 5.82228 46.1875L3.84618 41.0237C2.95374 38.6916 3.81011 36.0529 5.90194 34.6894L10.4949 31.6956C11.9152 30.7698 12.8069 29.2203 12.8938 27.5272L13.1763 22.0204C13.3047 19.5192 15.1664 17.4492 17.6401 17.0574L23.0084 16.2069C24.6896 15.9405 26.1405 14.883 26.9087 13.364L29.3772 8.48291C30.5112 6.24058 33.0639 5.10273 35.4897 5.75839L40.7131 7.17026C42.3612 7.61572 44.1229 7.24006 45.4458 6.16108L49.6504 2.73187Z" fill="url(#paint0_linear_580_5871)"/>
</g>
</g>
<path d="M74.6957 28.5147L74.6959 28.5147C74.868 28.4927 75.333 28.4955 75.5403 28.5225L75.5405 28.5225C76.3079 28.6221 76.9717 28.9477 77.5139 29.4877L77.5151 29.4889C78.0243 29.9927 78.3501 30.6296 78.4701 31.3603L78.4704 31.362C78.5056 31.5712 78.5101 32.083 78.4803 32.3055C78.3946 32.9123 78.2313 33.3112 77.6174 34.2496L74.6957 28.5147ZM74.6957 28.5147C74.3404 28.5598 73.9217 28.6842 73.6171 28.8327L74.6957 28.5147ZM67.0201 34.1067L67.0202 34.1066C67.7229 33.3757 69.1852 32.0265 70.0399 31.3195C71.1744 30.383 72.9316 29.1685 73.6165 28.833L67.0201 34.1067ZM67.0201 34.1067C66.3828 34.769 64.2763 37.0592 63.5567 37.8708L63.5566 37.8709M67.0201 34.1067L63.5566 37.8709M63.5566 37.8709C61.5784 40.1017 61.0748 40.6829 59.3139 42.7676L59.3138 42.7677M63.5566 37.8709L59.3138 42.7677M59.3138 42.7677C55.6756 47.0717 51.3205 52.6889 47.5083 57.9925L59.3138 42.7677ZM74.9348 37.726L74.9343 37.7265C74.2493 38.5442 73.3926 39.4859 71.4249 41.593C69.5373 43.613 67.0566 46.4297 64.8167 49.0929M74.9348 37.726L64.8167 49.0929M74.9348 37.726C76.1436 36.2875 77.0708 35.0829 77.6171 34.2501L74.9348 37.726ZM64.8167 49.0929L65.1994 49.4147M64.8167 49.0929L65.1994 49.4147M65.1994 49.4147C67.4351 46.7564 69.91 43.9466 71.7902 41.9344L65.1994 49.4147Z" fill="#FCFEFF" stroke="#8990CD"/>
<defs>
<linearGradient id="paint0_linear_580_5871" x1="93.8102" y1="-0.00017019" x2="20.9352" y2="80.8248" gradientUnits="userSpaceOnUse">
<stop stop-color="#B0B9FF"/>
<stop offset="1" stop-color="#E7E9FF"/>
</linearGradient>
<clipPath id="clip0_580_5871">
<rect width="106" height="106" fill="white"/>
</clipPath>
</defs>
</svg>
